<svg id="Layer_10" data-name="Layer 10" xmlns="http://www.w3.org/2000/svg" viewBox="0 0 819 542"><defs><style>.cls-1{fill:#563011;}.cls-2{fill:#753f16;}.cls-3{fill:#514c48;}.cls-4{fill:#33302e;}.cls-5,.cls-6{font-size:54px;font-family:Bauhaus93, Bauhaus 93;}.cls-5{fill:#28170b;}.cls-6{fill:#42230d;}</style></defs><title>catch_chickens_2</title><rect class="cls-1" width="819" height="421" rx="53.68" ry="53.68"/><rect class="cls-2" x="20" y="20" width="779" height="381" rx="33.68" ry="33.68"/><polygon class="cls-1" points="83.33 82.98 20 91.02 20 73.02 83.33 82.98 83.33 82.98"/><polygon class="cls-1" points="173.74 331.73 11.56 328.19 12.84 310.24 173.74 331.73 173.74 331.73"/><polygon class="cls-1" points="741.67 310.98 805 319.02 805.01 301.02 741.67 310.98 741.67 310.98"/><polygon class="cls-1" points="681.95 191.16 802 198.59 801.91 180.59 681.95 191.16 681.95 191.16"/><circle class="cls-3" cx="56" cy="48" r="14"/><circle class="cls-4" cx="56" cy="48" r="5"/><circle class="cls-3" cx="756" cy="372" r="14"/><circle class="cls-4" cx="756" cy="372" r="5"/><circle class="cls-3" cx="751" cy="48" r="14"/><circle class="cls-4" cx="751" cy="48" r="5"/><circle class="cls-3" cx="56" cy="372" r="14"/><circle class="cls-4" cx="56" cy="372" r="5"/><text class="cls-5" transform="translate(135.62 174.13)">CHOOSE THE RIGHT <tspan x="0" y="64.8">CHICKEN TO GET THE </tspan><tspan x="0" y="129.6">FOOD!</tspan></text><text class="cls-6" transform="translate(138.47 172.13)">CHOOSE THE RIGHT <tspan x="0" y="64.8">CHICKEN TO GET THE </tspan><tspan x="0" y="129.6">FOOD!</tspan></text></svg>
