<svg id="Layer_1" data-name="Layer 1" xmlns="http://www.w3.org/2000/svg" viewBox="0 0 2608.54 1198.18"><defs><style>.cls-1,.cls-9{opacity:0.3;}.cls-2{fill:#fbb03b;}.cls-3{fill:#0a4908;}.cls-4{fill:#e9190f;}.cls-5{fill:#070e8c;}.cls-6{fill:#fe4e00;}.cls-7{fill:#fff;}.cls-8{opacity:0.15;}.cls-9{fill:#050302;}.cls-10{fill:#e29939;}</style></defs><title>chicken_sprite</title><ellipse class="cls-1" cx="2546.15" cy="192.22" rx="52.76" ry="8.47"/><ellipse class="cls-1" cx="2195.15" cy="188.57" rx="52.76" ry="8.47"/><ellipse class="cls-1" cx="1845.15" cy="190.57" rx="52.76" ry="8.47"/><ellipse class="cls-1" cx="1495.49" cy="188.57" rx="52.76" ry="8.47"/><ellipse class="cls-1" cx="94.15" cy="188.57" rx="52.76" ry="8.47"/><ellipse class="cls-1" cx="1145.15" cy="189.57" rx="52.76" ry="8.47"/><path class="cls-2" d="M1210.16,310.76c-2.22.78-4.08,12.43-3.9,15.87a6.11,6.11,0,0,1-2.13,2.69c-2.88.18-5.08-.15-6.5,1.3s-.88,4.55.37,5c.86.31,1.57-1.93,3.06-1.86,1.21.06,2.35,1.56,2.7,3,.61,2.47-1.4,3.8-.65,5.11,1,1.7,5.66,1.75,6.68-.1a2.05,2.05,0,0,0,.2-1.16,22.9,22.9,0,0,0-3-4.22,18.08,18.08,0,0,0,5.11,4.27c2.05.7,4.24.42,4.36-.09.17-.75-2.41-3.44-6.59-4.36-2-2.71-1.67-6.14-1.48-8,.82-8.1,3.43-11.32,5.19-15.12C1212.91,311.58,1211.16,310.4,1210.16,310.76Z" transform="translate(-80.19 -150.82)"/><path class="cls-2" d="M1218.7,318.18c-1.71,1.3-1.12,4.56-.65,7,1.32,6.86,5,11.3,4.17,12-.64.53-2.9-2.13-4.73-1.3a3,3,0,0,0-1.39,2.23,3.61,3.61,0,0,0,2.13,3.71c1.35.53,2-.54,3.72-.55,2.85,0,3.45,2.79,7.33,4.17,2.36.85,5.15.88,5.47.1.5-1.22,1.12-2-4.64-4.83.18-.29,2.26,1.2,5.2,1.58,3.61.46,7-1,7-1.58,0-2.51-3-3-13.36-2.78a16.35,16.35,0,0,1-5.76-11.05c-.35-4.2-.09-6.59-.46-8.54A3.44,3.44,0,0,0,1218.7,318.18Z" transform="translate(-80.19 -150.82)"/><path class="cls-3" d="M1270.88,280.29c-.2.84-.5,1.83-.86,3.06a29.17,29.17,0,0,1-8.56,13.37,32.24,32.24,0,0,1-8.08,5.09,44.09,44.09,0,0,1-18.53,3.82c-3.87-.07-9.51.89-8.56.89.47,0-.09,2.25-1.28,4.8s-3.06,5.47-5.18,6.67l-.19.12c-2.25,1.17-4.82.49-6.66,0-.34-.09-.68-.21-1-.33-6.23-2.37-9.45-10.46-9.45-12.15s1.53-1.59,1.9-1.78c11.94-6.13,23.77-12.48,20-11.59s-18.57,13.35-22.82,9.8c-1.12-.93-1-2.82-2.85-3.56-2.24-.9-4.53,1-5.7,0-1-.88.14-2.76-1-3.57-.6-.43-1.34-.16-2.15,0a4.17,4.17,0,0,1-.71,0c-2.17-.09-4.66-2.78-5.61-5.42a6,6,0,0,1-.39-2,3.39,3.39,0,0,1,.3-1.47c1.26-2.58,5.86-1.57,12.74-2.64l.55-.09c1.21-.2,2.48-.47,3.82-.83.91-.25,1.74-.52,2.54-.81,5.16-1.83,8.19-4.35,11.57-6.53l1.1-.69c10.84-6.53,25.88-7.73,37.55-5.94,9.19,1.4,16.28,4.65,17.59,8.62A5.61,5.61,0,0,1,1270.88,280.29Z" transform="translate(-80.19 -150.82)"/><path class="cls-4" d="M1276.67,166.58c-14.84,8.72-16.16,12.48-16.16,12.48a27.61,27.61,0,0,1-1,2.63c-.24.55-.54,1.17-.9,1.83-1.26,2.35-2.13,3.91-3.8,4.45a3.73,3.73,0,0,1-1.43.18,7.93,7.93,0,0,1-3.32-1.07c-2.51-1.32-2.75-3.06-5.65-6.12-.31-.32-.64-.66-1-1a38.21,38.21,0,0,1-2.85-2.67c-4.23-5.07-3.1-11.88-2.85-13.37.69-4.2,2.74-8.19,3.8-8s.44,4,1.9,4.45c2.29.71,6.49-7.81,8.56-7.13,1.36.45.46,4.49,1.42,5.86a1,1,0,0,0,.48.38c2.21.84,5.7-5.35,11.41-7.13s3.8,1.78,3.8,1.78a17.51,17.51,0,0,1-6.66,8.92c-2.73,2.76-4,4.25-3.8,4.45s2.45-1.24,6.66-4.45c6.22-1.51,2.85-.89,7.6-.89S1277.83,168.14,1276.67,166.58Z" transform="translate(-80.19 -150.82)"/><path class="cls-3" d="M1215,304.32a9.09,9.09,0,0,0,0,9.81,8.65,8.65,0,0,0,2.86,2.67,9.82,9.82,0,0,0,7.6.89c3.67-1.22,5-4.55,5.7-6.24.49-1.19,2.43-6,0-8.91C1228,298.76,1218.48,299.25,1215,304.32Z" transform="translate(-80.19 -150.82)"/><path class="cls-4" d="M1241.5,215.61c-1.65.91.75,4.29-1,8-2.13,4.66-8.21,4.52-8.56,8-.18,1.92,1.48,3.67,2.86,4.46,3.53,2,8.08-.62,8.55-.9,5.71-3.41,3.8-16,3.8-16.93S1242.84,214.86,1241.5,215.61Z" transform="translate(-80.19 -150.82)"/><path class="cls-3" d="M1186.36,272.65c-10.45-4.46-21.86.89-21.86.89s-17.11,4.46-20,11.59-3.22,12-1.9,12.48c.7.24,1.61-1.35,3.8-3.57,3.37-3.39,6.65-5.12,10.46-7.13a58.55,58.55,0,0,1,15.21-5.35c14.5-3,24,.38,24.72-1.78C1197.4,278,1196.82,277.11,1186.36,272.65Z" transform="translate(-80.19 -150.82)"/><path class="cls-5" d="M1189.21,278.89c-4.38-.14-10.44-.34-15.21,3.57-7.29,6-6.41,17.3-4.75,17.82.21.07.53,0,3.8-3.56,2.2-2.39,3.3-3.58,4.76-5.35,5.55-6.76,21.94-7.45,21.86-9.81C1199.63,280.14,1193.62,279,1189.21,278.89Z" transform="translate(-80.19 -150.82)"/><path class="cls-5" d="M1205.38,283.35c-1.91,1.78-7.79-15.06-20-20.5-20-9-47.86-2.15-53.23,9.8-1.27,2.82-1,8.91-1,8.91s8.56-5.34,4.76-3.56,34.22-13.37,46.58-5.35,15.21,10.7,14.26,11.59S1207.28,281.56,1205.38,283.35Z" transform="translate(-80.19 -150.82)"/><path class="cls-3" d="M1186.36,289.59c-3-.87-6.15,1.14-7.6,2.67-5.43,5.71-.13,17.92,1.9,17.83.94,0,.39-2.72,2.85-7.13,3.15-5.65,7.19-6.89,6.65-9.81C1189.83,291.31,1187.89,290,1186.36,289.59Z" transform="translate(-80.19 -150.82)"/><path class="cls-6" d="M1245.3,219.17a.6.6,0,0,1,.31.1C1245.16,219.21,1245,219.17,1245.3,219.17Z" transform="translate(-80.19 -150.82)"/><path class="cls-6" d="M1273.82,282.46c-.87.24-1.86-.89-2.94-2.17-1.38-1.61-2.93-3.48-4.66-3.18-3.25.54-2.85,8.91-5.71,8s-1-4.92-2.85-5.35c-1.31-.31-2.78,1.92-4.28,3.8-1.11,1.42-2.24,2.63-3.32,2.44-2.53-.44-1.66-8-4.76-8.91-3.48-1.05-9.5,11.58-10.45,6.24s1.7-5.85,0-7.13c-2-1.52-8.56,6.24-9.51,2.67s2.36-4.07,1.9-4.46-2.19,2-4.75,2.68c-2.09.57-5.38-.68-7.76-2-2.18-1.2-3.6-2.47-2.7-2.47,1.9,0,15.32-5.47,25.67-18.72a33.37,33.37,0,0,0,6.65-13.37c.62-2.77,1.11-5.48,1.47-8,.82-5.88.92-10.66.26-12.53a1.43,1.43,0,0,0-.47-.77c.37.06,1,.13,1.7.2,1.58.18,3.83.4,6.07.57a46.12,46.12,0,0,0,7.63.17.88.88,0,0,0,.45-.15c.16-.14.21.09.22.64,0,1.22-.17,4-.13,7.64a60.55,60.55,0,0,0,2.77,18.46c2.79,8.4,6.63,8.48,9.5,18.72C1276.13,273.77,1275.92,281.88,1273.82,282.46Z" transform="translate(-80.19 -150.82)"/><path class="cls-4" d="M1276.67,233.43c-.27,2.12-4.27,4.11-7.6,3.57-4.83-.8-6.9-6.71-7.52-8.66a2,2,0,0,1-.09-.26,16.43,16.43,0,0,1-.56-7.21c0-.23.07-.44.11-.66a17.58,17.58,0,0,1,.45-1.93,4.86,4.86,0,0,1,3.81-.89,2.94,2.94,0,0,1,1.8,1.36c1.25,1.94,1.65,5.53,4.85,9.33C1274.63,231.3,1276.88,231.76,1276.67,233.43Z" transform="translate(-80.19 -150.82)"/><path class="cls-4" d="M1281.45,200.1a27.18,27.18,0,0,1-5.47,11.63l-.26.31a27,27,0,0,1-8.65,6.71,25.06,25.06,0,0,1-5.39,1.95c-.25.07-.51.12-.78.17l-.39.08a23.49,23.49,0,0,1-7.13.2c-1.72-.19-3.65-.5-6-.89l-1.13-.2-.17,0c-1.81-.32-3.46-.6-5-.88-6.62-1.19-10.37-2.17-12.93-4.45a16.08,16.08,0,0,1-3.82-5.17c-3.14-6.56-2.72-15.45,1.9-21.33.3-.39.63-.76,1-1.13,4.6-4.85,8.56-6.24,14.26-6.24,1.09,0,2,0,2.91.12,2.74.23,4.86.71,9,.82,1.46,0,3.16,0,5.23-.05.31,0,.61,0,.9,0,6.32-.35,8.54-1.42,12.41,0a16.1,16.1,0,0,1,7.61,6.24c.24.4.48.8.68,1.21a15,15,0,0,1,1.56,5.66A19.84,19.84,0,0,1,1281.45,200.1Z" transform="translate(-80.19 -150.82)"/><path class="cls-7" d="M1286.18,205.8a13.07,13.07,0,0,1-10.2,5.93,10.09,10.09,0,0,1-4.06-.58c-7.67-2.92-9.37-16.78-2.85-21.39,3-2.16,7.6-2.08,11.14-.58a9.77,9.77,0,0,1,1.22.58C1287,192.83,1289.63,200.14,1286.18,205.8Z" transform="translate(-80.19 -150.82)"/><ellipse cx="1198.86" cy="46.51" rx="3.8" ry="3.57"/><path class="cls-7" d="M1230.09,187.08c5.8-.55,10.58,3.79,12.36,8,2.61,6.2-1.37,11.76-1.9,12.48-.91,1.23-3.84,5.17-8.56,5.35-6.22.24-10-6.3-10.45-7.13-.6-1-3.5-6.09-1-11.59C1220.82,193.71,1223.74,187.68,1230.09,187.08Z" transform="translate(-80.19 -150.82)"/><ellipse cx="1146.58" cy="45.62" rx="3.8" ry="3.57"/><path class="cls-2" d="M1254.81,200.45c3.89.37,6.31,5.31,6.65,8.92s-1.14,8.82-4.75,9.8c-4.16,1.13-10.13-3.56-10.46-8.91a1.64,1.64,0,0,0,0-.2C1246.1,205.58,1250.52,200.05,1254.81,200.45Z" transform="translate(-80.19 -150.82)"/><polygon points="1167.49 59.88 1170.98 60.81 1173.96 63.15 1176.95 60.81 1180.94 59.88 1176.45 59.88 1173.96 61.28 1171.47 59.88 1167.49 59.88"/><path class="cls-8" d="M1286.18,205.8a13.07,13.07,0,0,1-10.2,5.93l-.26.31a27,27,0,0,1-8.65,6.71c1.25,1.94,1.65,5.53,4.85,9.33,2.71,3.22,5,3.68,4.75,5.35-.27,2.12-4.27,4.11-7.6,3.57-4.83-.8-6.9-6.71-7.52-8.66a60.55,60.55,0,0,0,2.77,18.46c2.79,8.4,6.63,8.48,9.5,18.72,2.31,8.25,2.1,16.36,0,16.94-.87.24-1.86-.89-2.94-2.17-.2.84-.5,1.83-.86,3.06a29.17,29.17,0,0,1-8.56,13.37,32.24,32.24,0,0,1-8.08,5.09V159.07a1,1,0,0,0,.48.38c2.21.84,5.7-5.35,11.41-7.13s3.8,1.78,3.8,1.78a17.51,17.51,0,0,1-6.66,8.92c-2.73,2.76-4,4.25-3.8,4.45s2.45-1.24,6.66-4.45c6.22-1.51,2.85-.89,7.6-.89s5,6,3.8,4.45c-14.84,8.72-16.16,12.48-16.16,12.48a27.61,27.61,0,0,1-1,2.63c6.32-.35,8.54-1.42,12.41,0a16.1,16.1,0,0,1,7.61,6.24c.24.4.48.8.68,1.21a9.77,9.77,0,0,1,1.22.58C1287,192.83,1289.63,200.14,1286.18,205.8Z" transform="translate(-80.19 -150.82)"/><path class="cls-2" d="M160.24,316.92c-.69,5.54-.47,8.95-.83,19-3.14,4.24-4.82,7.43-4.06,8.2,2,2,2.79-1.14,5.62-2.3,6.6.92,15.4,2.86,18.91.46.55-2.21-5.17-2.77-13.93-3.78-1.88-1.27-2.81-1.9-3.5-3.14,0-7.61,1.75-13.37,2.21-17.79A3.78,3.78,0,0,0,160.24,316.92Z" transform="translate(-80.19 -150.82)"/><path class="cls-2" d="M183.29,316.74c-.85,1.88,5.2,5,7.75,12.35.79,2.28.86,3.86.09,4.89-1.12,1.5-3.61,1.3-3.6,1.66s-.18,2.86,7,1.29c2.5.73,2.17,1.15,4.79,2,2.26.75,5,.18,9.78.28.34-.17,2.37-1.19,2.21-2-.24-1.27-3.59-2.31-9.13-1.48-7.83-5.1-11.15-13.28-15.12-19.92C185.58,315.54,183.7,315.83,183.29,316.74Z" transform="translate(-80.19 -150.82)"/><ellipse class="cls-1" cx="445.15" cy="189.57" rx="52.76" ry="8.47"/><path class="cls-2" d="M514.22,310.09c-1.52,11.71-2,12-1.63,15-.91.31-1.92-.35-2.88.36-1.3.95-.58,3-1.09,5.41-.9,4.34-4.93,6.57-4.69,6.86s7.42,2.23,8.3-5.6c.33-3,1.55,8,5.78,9.93.84.39,2.09.68,2.52.18,1.13-1.31-4.23-7.14-3.43-7.94.65-.65,3.59,3.09,5.24,2.17.71-.68-1.52-5.37-5.58-9.84-1.72-7.29-.06-12.45.52-15.61A4.29,4.29,0,0,0,514.22,310.09Z" transform="translate(-80.19 -150.82)"/><path class="cls-2" d="M532.39,317.2c-.91.84-.49,2.62,0,4.67,1.25,5.09,3.49,6.9,2.71,9.94a6.1,6.1,0,0,1-.81,1.83c-4.67.81-5.47,3-5.41,3.72s2.5,2.17,8,1.76c3,1.23,3.43,2.5,6.7,3.25.64.15,4.13.94,5.21-.54.38-.53-3.37-2.32-2.85-2.58.81-.4,5.28,1.89,6.23,1.56a1.82,1.82,0,0,0,1.15-1.76c-.31-1.87-6.14-2.14-6.09-2.77,0-.48,3.34-.2,3.45-.81s-4.41-3-6.76-1.43c-.64.43-.65.83-1,.82-1.8-.06-6.77-11-6.29-17.39C535.4,316.75,533.34,316.32,532.39,317.2Z" transform="translate(-80.19 -150.82)"/><path class="cls-4" d="M576.67,166.58c-14.84,8.72-16.16,12.48-16.16,12.48a27.61,27.61,0,0,1-1,2.63c-.24.55-.54,1.17-.9,1.83-1.26,2.35-2.13,3.91-3.8,4.45a3.73,3.73,0,0,1-1.43.18,7.93,7.93,0,0,1-3.32-1.07c-2.51-1.32-2.75-3.06-5.65-6.12-.31-.32-.64-.66-1-1a38.21,38.21,0,0,1-2.85-2.67c-4.23-5.07-3.1-11.88-2.85-13.37.69-4.2,2.74-8.19,3.8-8s.44,4,1.9,4.45c2.29.71,6.49-7.81,8.56-7.13,1.36.45.46,4.49,1.42,5.86a1,1,0,0,0,.48.38c2.21.84,5.7-5.35,11.41-7.13s3.8,1.78,3.8,1.78a17.51,17.51,0,0,1-6.66,8.92c-2.73,2.76-4,4.25-3.8,4.45s2.45-1.24,6.66-4.45c6.22-1.51,2.85-.89,7.6-.89S577.83,168.14,576.67,166.58Z" transform="translate(-80.19 -150.82)"/><path class="cls-3" d="M526.29,304.74a9.06,9.06,0,0,0,0,9.8,8.81,8.81,0,0,0,2.85,2.68,9.88,9.88,0,0,0,7.61.89c3.66-1.22,5-4.56,5.7-6.24.49-1.2,2.43-6,0-8.91C539.3,299.17,529.76,299.67,526.29,304.74Z" transform="translate(-80.19 -150.82)"/><path class="cls-4" d="M541.5,215.61c-1.65.91.75,4.29-1,8-2.13,4.66-8.21,4.52-8.56,8-.18,1.92,1.48,3.67,2.86,4.46,3.53,2,8.08-.62,8.55-.9,5.71-3.41,3.8-16,3.8-16.93S542.84,214.86,541.5,215.61Z" transform="translate(-80.19 -150.82)"/><path class="cls-3" d="M486.36,272.65c-10.45-4.46-21.86.89-21.86.89s-17.11,4.46-20,11.59-3.22,12-1.9,12.48c.7.24,1.61-1.35,3.8-3.57,3.37-3.39,6.65-5.12,10.46-7.13a58.55,58.55,0,0,1,15.21-5.35c14.5-3,24,.38,24.72-1.78C497.4,278,496.82,277.11,486.36,272.65Z" transform="translate(-80.19 -150.82)"/><path class="cls-5" d="M489.21,278.89c-4.38-.14-10.44-.34-15.21,3.57-7.29,6-6.41,17.3-4.75,17.82.21.07.53,0,3.8-3.56,2.2-2.39,3.3-3.58,4.76-5.35,5.55-6.76,21.94-7.45,21.86-9.81C499.63,280.14,493.62,279,489.21,278.89Z" transform="translate(-80.19 -150.82)"/><path class="cls-5" d="M505.38,283.35c-1.91,1.78-7.79-15.06-20-20.5-20-9-47.86-2.15-53.23,9.8-1.27,2.82-1,8.91-1,8.91s8.56-5.34,4.76-3.56,34.22-13.37,46.58-5.35,15.21,10.7,14.26,11.59S507.28,281.56,505.38,283.35Z" transform="translate(-80.19 -150.82)"/><path class="cls-3" d="M486.36,289.59c-3-.87-6.15,1.14-7.6,2.67-5.43,5.71-.13,17.92,1.9,17.83.94,0,.39-2.72,2.85-7.13,3.15-5.65,7.19-6.89,6.65-9.81C489.83,291.31,487.89,290,486.36,289.59Z" transform="translate(-80.19 -150.82)"/><path class="cls-3" d="M570.88,280.29c-.2.84-.5,1.83-.86,3.06a29.17,29.17,0,0,1-8.56,13.37,32.24,32.24,0,0,1-8.08,5.09,44.09,44.09,0,0,1-18.53,3.82c-3.87-.07-9.51.89-8.56.89.47,0-.09,2.25-1.28,4.8s-3.06,5.47-5.18,6.67l-.19.12c-2.25,1.17-4.82.49-6.66,0-.34-.09-.68-.21-1-.33-6.23-2.37-9.45-10.46-9.45-12.15s1.53-1.59,1.9-1.78c11.94-6.13,23.77-12.48,20-11.59s-18.57,13.35-22.82,9.8c-1.12-.93-1-2.82-2.85-3.56-2.24-.9-4.53,1-5.7,0-1-.88.14-2.76-.95-3.57-.6-.43-1.34-.16-2.15,0a4.17,4.17,0,0,1-.71,0c-2.17-.09-4.66-2.78-5.61-5.42a6,6,0,0,1-.39-2,3.39,3.39,0,0,1,.3-1.47c1.26-2.58,5.86-1.57,12.74-2.64l.55-.09c1.21-.2,2.48-.47,3.82-.83.91-.25,1.74-.52,2.54-.81,5.16-1.83,8.19-4.35,11.57-6.53l1.1-.69c10.84-6.53,25.88-7.73,37.55-5.94,9.19,1.4,16.28,4.65,17.59,8.62A5.61,5.61,0,0,1,570.88,280.29Z" transform="translate(-80.19 -150.82)"/><path class="cls-6" d="M545.3,219.17a.6.6,0,0,1,.31.1C545.16,219.21,545,219.17,545.3,219.17Z" transform="translate(-80.19 -150.82)"/><path class="cls-6" d="M573.82,282.46c-.87.24-1.86-.89-2.94-2.17-1.38-1.61-2.93-3.48-4.66-3.18-3.25.54-2.85,8.91-5.71,8s-1-4.92-2.85-5.35c-1.31-.31-2.78,1.92-4.28,3.8-1.11,1.42-2.24,2.63-3.32,2.44-2.53-.44-1.66-8-4.76-8.91-3.48-1.05-9.5,11.58-10.45,6.24s1.7-5.85,0-7.13c-2-1.52-8.56,6.24-9.51,2.67s2.36-4.07,1.9-4.46-2.19,2-4.75,2.68c-2.09.57-5.38-.68-7.76-2-2.18-1.2-3.6-2.47-2.7-2.47,1.9,0,15.32-5.47,25.67-18.72a33.37,33.37,0,0,0,6.65-13.37c.62-2.77,1.11-5.48,1.47-8,.82-5.88.92-10.66.26-12.53a1.43,1.43,0,0,0-.47-.77c.37.06,1,.13,1.7.2,1.58.18,3.83.4,6.07.57a46.12,46.12,0,0,0,7.63.17.88.88,0,0,0,.45-.15c.16-.14.21.09.22.64,0,1.22-.17,4-.13,7.64a60.55,60.55,0,0,0,2.77,18.46c2.79,8.4,6.63,8.48,9.5,18.72C576.13,273.77,575.92,281.88,573.82,282.46Z" transform="translate(-80.19 -150.82)"/><path class="cls-4" d="M576.67,233.43c-.27,2.12-4.27,4.11-7.6,3.57-4.83-.8-6.9-6.71-7.52-8.66a2,2,0,0,1-.09-.26,16.43,16.43,0,0,1-.56-7.21c0-.23.07-.44.11-.66a17.58,17.58,0,0,1,.45-1.93,4.86,4.86,0,0,1,3.81-.89,2.94,2.94,0,0,1,1.8,1.36c1.25,1.94,1.65,5.53,4.85,9.33C574.63,231.3,576.88,231.76,576.67,233.43Z" transform="translate(-80.19 -150.82)"/><path class="cls-4" d="M581.45,200.1A27.18,27.18,0,0,1,576,211.73l-.26.31a27,27,0,0,1-8.65,6.71,25.06,25.06,0,0,1-5.39,1.95c-.25.07-.51.12-.78.17l-.39.08a23.49,23.49,0,0,1-7.13.2c-1.72-.19-3.65-.5-6-.89l-1.13-.2-.17,0c-1.81-.32-3.46-.6-5-.88-6.62-1.19-10.37-2.17-12.93-4.45a16.08,16.08,0,0,1-3.82-5.17c-3.14-6.56-2.72-15.45,1.9-21.33.3-.39.63-.76,1-1.13,4.6-4.85,8.56-6.24,14.26-6.24,1.09,0,2,0,2.91.12,2.74.23,4.86.71,9,.82,1.46,0,3.16,0,5.23-.05.31,0,.61,0,.9,0,6.32-.35,8.54-1.42,12.41,0a16.1,16.1,0,0,1,7.61,6.24c.24.4.48.8.68,1.21a15,15,0,0,1,1.56,5.66A19.84,19.84,0,0,1,581.45,200.1Z" transform="translate(-80.19 -150.82)"/><path class="cls-7" d="M586.18,205.8a13.07,13.07,0,0,1-10.2,5.93,10.09,10.09,0,0,1-4.06-.58c-7.67-2.92-9.37-16.78-2.85-21.39,3-2.16,7.6-2.08,11.14-.58a9.77,9.77,0,0,1,1.22.58C587,192.83,589.63,200.14,586.18,205.8Z" transform="translate(-80.19 -150.82)"/><ellipse cx="498.86" cy="46.51" rx="3.8" ry="3.57"/><path class="cls-7" d="M530.09,187.08c5.8-.55,10.58,3.79,12.36,8,2.61,6.2-1.37,11.76-1.9,12.48-.91,1.23-3.84,5.17-8.56,5.35-6.22.24-10-6.3-10.45-7.13-.6-1-3.5-6.09-.95-11.59C520.82,193.71,523.74,187.68,530.09,187.08Z" transform="translate(-80.19 -150.82)"/><ellipse cx="446.58" cy="45.62" rx="3.8" ry="3.57"/><path class="cls-2" d="M554.81,200.45c3.89.37,6.31,5.31,6.65,8.92s-1.14,8.82-4.75,9.8c-4.16,1.13-10.13-3.56-10.46-8.91a1.64,1.64,0,0,0,0-.2C546.1,205.58,550.52,200.05,554.81,200.45Z" transform="translate(-80.19 -150.82)"/><polygon points="467.49 59.88 470.98 60.81 473.96 63.15 476.95 60.81 480.94 59.88 476.45 59.88 473.96 61.28 471.47 59.88 467.49 59.88"/><ellipse class="cls-1" cx="795.15" cy="188.57" rx="52.76" ry="8.47"/><path class="cls-2" d="M864.37,315.75c.1,4.76.1,9.24.1,16.1a7.41,7.41,0,0,1-2.2,2.19c-5-1.43-5,1.09-5,1.43s0,4.38,6.38,2c2.31,1.31,2.12,2.25,4.19,3.33,3.3,1.72,7.65,1.34,8,.19s-4.07-2.87-3.81-3.52c2.89,2.24,10.48,6.19,10.86,1.33,0-.2-4.86-3.62-12-3.62a11,11,0,0,1-2.67-4.09c0-7.62.35-9,.76-15A3.75,3.75,0,0,0,864.37,315.75Z" transform="translate(-80.19 -150.82)"/><path class="cls-2" d="M864,314.23c.22-1,3.32-1.56,6.29-1,5.23,5.62,8.24,9.42,16.28,11.14,2.22.48,2-.15,4.67.38,7.14,2.86,14.48,5.72,12.29,8.19-4.86,2.38-10.53-5.05-11.34-3.81,9.24,5.77,5.71,6.67,5.53,6.86s-7.81,0-10.86-5.81a3.41,3.41,0,0,0-2.48,0c.19,4.72-1.79,4.64-2.38,4.67s-2.67,1.18-2.19-8.48C872.75,321.37,863.52,316.22,864,314.23Z" transform="translate(-80.19 -150.82)"/><path class="cls-8" d="M586.18,205.8a13.07,13.07,0,0,1-10.2,5.93l-.26.31a27,27,0,0,1-8.65,6.71c1.25,1.94,1.65,5.53,4.85,9.33,2.71,3.22,5,3.68,4.75,5.35-.27,2.12-4.27,4.11-7.6,3.57-4.83-.8-6.9-6.71-7.52-8.66a60.55,60.55,0,0,0,2.77,18.46c2.79,8.4,6.63,8.48,9.5,18.72,2.31,8.25,2.1,16.36,0,16.94-.87.24-1.86-.89-2.94-2.17-.2.84-.5,1.83-.86,3.06a29.17,29.17,0,0,1-8.56,13.37,32.24,32.24,0,0,1-8.08,5.09V159.07a1,1,0,0,0,.48.38c2.21.84,5.7-5.35,11.41-7.13s3.8,1.78,3.8,1.78a17.51,17.51,0,0,1-6.66,8.92c-2.73,2.76-4,4.25-3.8,4.45s2.45-1.24,6.66-4.45c6.22-1.51,2.85-.89,7.6-.89s5,6,3.8,4.45c-14.84,8.72-16.16,12.48-16.16,12.48a27.61,27.61,0,0,1-1,2.63c6.32-.35,8.54-1.42,12.41,0a16.1,16.1,0,0,1,7.61,6.24c.24.4.48.8.68,1.21a9.77,9.77,0,0,1,1.22.58C587,192.83,589.63,200.14,586.18,205.8Z" transform="translate(-80.19 -150.82)"/><path class="cls-4" d="M926.67,165.58c-14.84,8.72-16.16,12.48-16.16,12.48a27.61,27.61,0,0,1-1,2.63c-.24.55-.54,1.17-.9,1.83-1.26,2.35-2.13,3.91-3.8,4.45a3.73,3.73,0,0,1-1.43.18,7.93,7.93,0,0,1-3.32-1.07c-2.51-1.32-2.75-3.06-5.65-6.12-.31-.32-.64-.66-1-1a38.21,38.21,0,0,1-2.85-2.67c-4.23-5.07-3.1-11.88-2.85-13.37.69-4.2,2.74-8.19,3.8-8s.44,4,1.9,4.45c2.29.71,6.49-7.81,8.56-7.13,1.36.45.46,4.49,1.42,5.86a1,1,0,0,0,.48.38c2.21.84,5.7-5.35,11.41-7.13s3.8,1.78,3.8,1.78a17.51,17.51,0,0,1-6.66,8.92c-2.73,2.76-4,4.25-3.8,4.45s2.45-1.24,6.66-4.45c6.22-1.51,2.85-.89,7.6-.89S927.83,167.14,926.67,165.58Z" transform="translate(-80.19 -150.82)"/><path class="cls-3" d="M867.38,301.35a9.06,9.06,0,0,0,0,9.8,8.81,8.81,0,0,0,2.85,2.68,9.88,9.88,0,0,0,7.61.89c3.66-1.22,5-4.56,5.7-6.24.49-1.2,2.43-6,0-8.91C880.39,295.78,870.85,296.28,867.38,301.35Z" transform="translate(-80.19 -150.82)"/><path class="cls-4" d="M891.5,214.61c-1.65.91.75,4.29-1,8-2.13,4.66-8.21,4.52-8.56,8-.18,1.92,1.48,3.67,2.86,4.46,3.53,2,8.08-.62,8.55-.9,5.71-3.41,3.8-16,3.8-16.93S892.84,213.86,891.5,214.61Z" transform="translate(-80.19 -150.82)"/><path class="cls-3" d="M836.36,271.65c-10.45-4.46-21.86.89-21.86.89s-17.11,4.46-20,11.59-3.22,12-1.9,12.48c.7.24,1.61-1.35,3.8-3.57,3.37-3.39,6.65-5.12,10.46-7.13a58.55,58.55,0,0,1,15.21-5.35c14.5-3,24,.38,24.72-1.78C847.4,277,846.82,276.11,836.36,271.65Z" transform="translate(-80.19 -150.82)"/><path class="cls-5" d="M839.21,277.89c-4.38-.14-10.44-.34-15.21,3.57-7.29,6-6.41,17.3-4.75,17.82.21.07.53,0,3.8-3.56,2.2-2.39,3.3-3.58,4.76-5.35,5.55-6.76,21.94-7.45,21.86-9.81C849.63,279.14,843.62,278,839.21,277.89Z" transform="translate(-80.19 -150.82)"/><path class="cls-5" d="M855.38,282.35c-1.91,1.78-7.79-15.06-20-20.5-20-9-47.86-2.15-53.23,9.8-1.27,2.82-1,8.91-1,8.91s8.56-5.34,4.76-3.56,34.22-13.37,46.58-5.35,15.21,10.7,14.26,11.59S857.28,280.56,855.38,282.35Z" transform="translate(-80.19 -150.82)"/><path class="cls-3" d="M836.36,288.59c-3-.87-6.15,1.14-7.6,2.67-5.43,5.71-.13,17.92,1.9,17.83.94,0,.39-2.72,2.85-7.13,3.15-5.65,7.19-6.89,6.65-9.81C839.83,290.31,837.89,289,836.36,288.59Z" transform="translate(-80.19 -150.82)"/><path class="cls-3" d="M920.88,279.29c-.2.84-.5,1.83-.86,3.06a29.17,29.17,0,0,1-8.56,13.37,32.24,32.24,0,0,1-8.08,5.09,44.09,44.09,0,0,1-18.53,3.82c-3.87-.07-9.51.89-8.56.89.47,0-.09,2.25-1.28,4.8s-3.06,5.47-5.18,6.67l-.19.12c-2.25,1.17-4.82.49-6.66,0-.34-.09-.68-.21-1-.33-6.23-2.37-9.45-10.46-9.45-12.15s1.53-1.59,1.9-1.78c11.94-6.13,23.77-12.48,20-11.59s-18.57,13.35-22.82,9.8c-1.12-.93-1-2.82-2.85-3.56-2.24-.9-4.53,1-5.7,0-1-.88.14-2.76-.95-3.57-.6-.43-1.34-.16-2.15,0a4.17,4.17,0,0,1-.71,0c-2.17-.09-4.66-2.78-5.61-5.42a6,6,0,0,1-.39-2,3.39,3.39,0,0,1,.3-1.47c1.26-2.58,5.86-1.57,12.74-2.64l.55-.09c1.21-.2,2.48-.47,3.82-.83.91-.25,1.74-.52,2.54-.81,5.16-1.83,8.19-4.35,11.57-6.53l1.1-.69c10.84-6.53,25.88-7.73,37.55-5.94,9.19,1.4,16.28,4.65,17.59,8.62A5.61,5.61,0,0,1,920.88,279.29Z" transform="translate(-80.19 -150.82)"/><path class="cls-6" d="M895.3,218.17a.6.6,0,0,1,.31.1C895.16,218.21,895,218.17,895.3,218.17Z" transform="translate(-80.19 -150.82)"/><path class="cls-6" d="M923.82,281.46c-.87.24-1.86-.89-2.94-2.17-1.38-1.61-2.93-3.48-4.66-3.18-3.25.54-2.85,8.91-5.71,8s-1-4.92-2.85-5.35c-1.31-.31-2.78,1.92-4.28,3.8-1.11,1.42-2.24,2.63-3.32,2.44-2.53-.44-1.66-8-4.76-8.91-3.48-1.05-9.5,11.58-10.45,6.24s1.7-5.85,0-7.13c-2-1.52-8.56,6.24-9.51,2.67s2.36-4.07,1.9-4.46-2.19,2-4.75,2.68c-2.09.57-5.38-.68-7.76-2-2.18-1.2-3.6-2.47-2.7-2.47,1.9,0,15.32-5.47,25.67-18.72a33.37,33.37,0,0,0,6.65-13.37c.62-2.77,1.11-5.48,1.47-8,.82-5.88.92-10.66.26-12.53a1.43,1.43,0,0,0-.47-.77c.37.06,1,.13,1.7.2,1.58.18,3.83.4,6.07.57a46.12,46.12,0,0,0,7.63.17.88.88,0,0,0,.45-.15c.16-.14.21.09.22.64,0,1.22-.17,4-.13,7.64a60.55,60.55,0,0,0,2.77,18.46c2.79,8.4,6.63,8.48,9.5,18.72C926.13,272.77,925.92,280.88,923.82,281.46Z" transform="translate(-80.19 -150.82)"/><path class="cls-4" d="M926.67,232.43c-.27,2.12-4.27,4.11-7.6,3.57-4.83-.8-6.9-6.71-7.52-8.66a2,2,0,0,1-.09-.26,16.43,16.43,0,0,1-.56-7.21c0-.23.07-.44.11-.66a17.58,17.58,0,0,1,.45-1.93,4.86,4.86,0,0,1,3.81-.89,2.94,2.94,0,0,1,1.8,1.36c1.25,1.94,1.65,5.53,4.85,9.33C924.63,230.3,926.88,230.76,926.67,232.43Z" transform="translate(-80.19 -150.82)"/><path class="cls-4" d="M931.45,199.1A27.18,27.18,0,0,1,926,210.73l-.26.31a27,27,0,0,1-8.65,6.71,25.06,25.06,0,0,1-5.39,1.95c-.25.07-.51.12-.78.17l-.39.08a23.49,23.49,0,0,1-7.13.2c-1.72-.19-3.65-.5-6-.89l-1.13-.2-.17,0c-1.81-.32-3.46-.6-5-.88-6.62-1.19-10.37-2.17-12.93-4.45a16.08,16.08,0,0,1-3.82-5.17c-3.14-6.56-2.72-15.45,1.9-21.33.3-.39.63-.76,1-1.13,4.6-4.85,8.56-6.24,14.26-6.24,1.09,0,2,0,2.91.12,2.74.23,4.86.71,9,.82,1.46,0,3.16,0,5.23-.05.31,0,.61,0,.9,0,6.32-.35,8.54-1.42,12.41,0a16.1,16.1,0,0,1,7.61,6.24c.24.4.48.8.68,1.21a15,15,0,0,1,1.56,5.66A19.84,19.84,0,0,1,931.45,199.1Z" transform="translate(-80.19 -150.82)"/><path class="cls-7" d="M936.18,204.8a13.07,13.07,0,0,1-10.2,5.93,10.09,10.09,0,0,1-4.06-.58c-7.67-2.92-9.37-16.78-2.85-21.39,3-2.16,7.6-2.08,11.14-.58a9.77,9.77,0,0,1,1.22.58C937,191.83,939.63,199.14,936.18,204.8Z" transform="translate(-80.19 -150.82)"/><ellipse cx="848.86" cy="45.51" rx="3.8" ry="3.57"/><path class="cls-7" d="M880.09,186.08c5.8-.55,10.58,3.79,12.36,8,2.61,6.2-1.37,11.76-1.9,12.48-.91,1.23-3.84,5.17-8.56,5.35-6.22.24-10-6.3-10.45-7.13-.6-1-3.5-6.09-.95-11.59C870.82,192.71,873.74,186.68,880.09,186.08Z" transform="translate(-80.19 -150.82)"/><ellipse cx="796.58" cy="44.62" rx="3.8" ry="3.57"/><path class="cls-2" d="M904.81,199.45c3.89.37,6.31,5.31,6.65,8.92s-1.14,8.82-4.75,9.8c-4.16,1.13-10.13-3.56-10.46-8.91a1.64,1.64,0,0,0,0-.2C896.1,204.58,900.52,199.05,904.81,199.45Z" transform="translate(-80.19 -150.82)"/><polygon points="817.49 58.88 820.98 59.81 823.96 62.15 826.95 59.81 830.94 58.88 826.45 58.88 823.96 60.28 821.47 58.88 817.49 58.88"/><path class="cls-8" d="M936.18,204.8a13.07,13.07,0,0,1-10.2,5.93l-.26.31a27,27,0,0,1-8.65,6.71c1.25,1.94,1.65,5.53,4.85,9.33,2.71,3.22,5,3.68,4.75,5.35-.27,2.12-4.27,4.11-7.6,3.57-4.83-.8-6.9-6.71-7.52-8.66a60.55,60.55,0,0,0,2.77,18.46c2.79,8.4,6.63,8.48,9.5,18.72,2.31,8.25,2.1,16.36,0,16.94-.87.24-1.86-.89-2.94-2.17-.2.84-.5,1.83-.86,3.06a29.17,29.17,0,0,1-8.56,13.37,32.24,32.24,0,0,1-8.08,5.09V158.07a1,1,0,0,0,.48.38c2.21.84,5.7-5.35,11.41-7.13s3.8,1.78,3.8,1.78a17.51,17.51,0,0,1-6.66,8.92c-2.73,2.76-4,4.25-3.8,4.45s2.45-1.24,6.66-4.45c6.22-1.51,2.85-.89,7.6-.89s5,6,3.8,4.45c-14.84,8.72-16.16,12.48-16.16,12.48a27.61,27.61,0,0,1-1,2.63c6.32-.35,8.54-1.42,12.41,0a16.1,16.1,0,0,1,7.61,6.24c.24.4.48.8.68,1.21a9.77,9.77,0,0,1,1.22.58C937,191.83,939.63,199.14,936.18,204.8Z" transform="translate(-80.19 -150.82)"/><path class="cls-4" d="M225.67,165.58c-14.84,8.72-16.16,12.48-16.16,12.48a27.61,27.61,0,0,1-1,2.63c-.24.55-.54,1.17-.9,1.83-1.26,2.35-2.13,3.91-3.8,4.45a3.73,3.73,0,0,1-1.43.18,7.93,7.93,0,0,1-3.32-1.07c-2.51-1.32-2.75-3.06-5.65-6.12-.31-.32-.64-.66-1-1a38.21,38.21,0,0,1-2.85-2.67c-4.23-5.07-3.1-11.88-2.85-13.37.69-4.2,2.74-8.19,3.8-8s.44,4,1.9,4.45c2.29.71,6.49-7.81,8.56-7.13,1.36.45.46,4.49,1.42,5.86a1,1,0,0,0,.48.38c2.21.84,5.7-5.35,11.41-7.13s3.8,1.78,3.8,1.78a17.51,17.51,0,0,1-6.66,8.92c-2.73,2.76-4,4.25-3.8,4.45s2.45-1.24,6.66-4.45c6.22-1.51,2.85-.89,7.6-.89S226.83,167.14,225.67,165.58Z" transform="translate(-80.19 -150.82)"/><path class="cls-3" d="M175.29,303.74a9.06,9.06,0,0,0,0,9.8,8.81,8.81,0,0,0,2.85,2.68,9.88,9.88,0,0,0,7.61.89c3.66-1.22,5-4.56,5.7-6.24.49-1.2,2.43-6,0-8.91C188.3,298.17,178.76,298.67,175.29,303.74Z" transform="translate(-80.19 -150.82)"/><path class="cls-4" d="M190.5,214.61c-1.65.91.75,4.29-.95,8-2.13,4.66-8.21,4.52-8.56,8-.18,1.92,1.48,3.67,2.86,4.46,3.53,2,8.08-.62,8.55-.9,5.71-3.41,3.8-16,3.8-16.93S191.84,213.86,190.5,214.61Z" transform="translate(-80.19 -150.82)"/><path class="cls-3" d="M135.36,271.65c-10.45-4.46-21.86.89-21.86.89s-17.11,4.46-20,11.59-3.22,12-1.9,12.48c.7.24,1.61-1.35,3.8-3.57,3.37-3.39,6.65-5.12,10.46-7.13a58.55,58.55,0,0,1,15.21-5.35c14.5-3,24,.38,24.72-1.78C146.4,277,145.82,276.11,135.36,271.65Z" transform="translate(-80.19 -150.82)"/><path class="cls-5" d="M138.21,277.89c-4.38-.14-10.44-.34-15.21,3.57-7.29,6-6.41,17.3-4.75,17.82.21.07.53,0,3.8-3.56,2.2-2.39,3.3-3.58,4.76-5.35,5.55-6.76,21.94-7.45,21.86-9.81C148.63,279.14,142.62,278,138.21,277.89Z" transform="translate(-80.19 -150.82)"/><path class="cls-5" d="M154.38,282.35c-1.91,1.78-7.79-15.06-20-20.5-20-9-47.86-2.15-53.23,9.8-1.27,2.82-1,8.91-1,8.91S88.78,275.22,85,277s34.22-13.37,46.58-5.35,15.21,10.7,14.26,11.59S156.28,280.56,154.38,282.35Z" transform="translate(-80.19 -150.82)"/><path class="cls-3" d="M135.36,288.59c-3-.87-6.15,1.14-7.6,2.67-5.43,5.71-.13,17.92,1.9,17.83.94,0,.39-2.72,2.85-7.13,3.15-5.65,7.19-6.89,6.65-9.81C138.83,290.31,136.89,289,135.36,288.59Z" transform="translate(-80.19 -150.82)"/><path class="cls-3" d="M219.88,279.29c-.2.84-.5,1.83-.86,3.06a29.17,29.17,0,0,1-8.56,13.37,32.24,32.24,0,0,1-8.08,5.09,44.09,44.09,0,0,1-18.53,3.82c-3.87-.07-9.51.89-8.56.89.47,0-.09,2.25-1.28,4.8s-3.06,5.47-5.18,6.67l-.19.12c-2.25,1.17-4.82.49-6.66,0-.34-.09-.68-.21-1-.33-6.23-2.37-9.45-10.46-9.45-12.15s1.53-1.59,1.9-1.78c11.94-6.13,23.77-12.48,20-11.59s-18.57,13.35-22.82,9.8c-1.12-.93-1-2.82-2.85-3.56-2.24-.9-4.53,1-5.7,0-1-.88.14-2.76-1-3.57-.6-.43-1.34-.16-2.15,0a4.17,4.17,0,0,1-.71,0c-2.17-.09-4.66-2.78-5.61-5.42a6,6,0,0,1-.39-2,3.39,3.39,0,0,1,.3-1.47c1.26-2.58,5.86-1.57,12.74-2.64l.55-.09c1.21-.2,2.48-.47,3.82-.83.91-.25,1.74-.52,2.54-.81,5.16-1.83,8.19-4.35,11.57-6.53l1.1-.69c10.84-6.53,25.88-7.73,37.55-5.94,9.19,1.4,16.28,4.65,17.59,8.62A5.61,5.61,0,0,1,219.88,279.29Z" transform="translate(-80.19 -150.82)"/><path class="cls-6" d="M194.3,218.17a.6.6,0,0,1,.31.1C194.16,218.21,194,218.17,194.3,218.17Z" transform="translate(-80.19 -150.82)"/><path class="cls-6" d="M222.82,281.46c-.87.24-1.86-.89-2.94-2.17-1.38-1.61-2.93-3.48-4.66-3.18-3.25.54-2.85,8.91-5.71,8s-1-4.92-2.85-5.35c-1.31-.31-2.78,1.92-4.28,3.8-1.11,1.42-2.24,2.63-3.32,2.44-2.53-.44-1.66-8-4.76-8.91-3.48-1.05-9.5,11.58-10.45,6.24s1.7-5.85,0-7.13c-2-1.52-8.56,6.24-9.51,2.67s2.36-4.07,1.9-4.46-2.19,2-4.75,2.68c-2.09.57-5.38-.68-7.76-2-2.18-1.2-3.6-2.47-2.7-2.47,1.9,0,15.32-5.47,25.67-18.72a33.37,33.37,0,0,0,6.65-13.37c.62-2.77,1.11-5.48,1.47-8,.82-5.88.92-10.66.26-12.53a1.43,1.43,0,0,0-.47-.77c.37.06,1,.13,1.7.2,1.58.18,3.83.4,6.07.57a46.12,46.12,0,0,0,7.63.17.88.88,0,0,0,.45-.15c.16-.14.21.09.22.64,0,1.22-.17,4-.13,7.64a60.55,60.55,0,0,0,2.77,18.46c2.79,8.4,6.63,8.48,9.5,18.72C225.13,272.77,224.92,280.88,222.82,281.46Z" transform="translate(-80.19 -150.82)"/><path class="cls-4" d="M225.67,232.43c-.27,2.12-4.27,4.11-7.6,3.57-4.83-.8-6.9-6.71-7.52-8.66a2,2,0,0,1-.09-.26,16.43,16.43,0,0,1-.56-7.21c0-.23.07-.44.11-.66a17.58,17.58,0,0,1,.45-1.93,4.86,4.86,0,0,1,3.81-.89,2.94,2.94,0,0,1,1.8,1.36c1.25,1.94,1.65,5.53,4.85,9.33C223.63,230.3,225.88,230.76,225.67,232.43Z" transform="translate(-80.19 -150.82)"/><path class="cls-4" d="M230.45,199.1A27.18,27.18,0,0,1,225,210.73l-.26.31a27,27,0,0,1-8.65,6.71,25.06,25.06,0,0,1-5.39,1.95c-.25.07-.51.12-.78.17l-.39.08a23.49,23.49,0,0,1-7.13.2c-1.72-.19-3.65-.5-6-.89l-1.13-.2-.17,0c-1.81-.32-3.46-.6-5-.88-6.62-1.19-10.37-2.17-12.93-4.45a16.08,16.08,0,0,1-3.82-5.17c-3.14-6.56-2.72-15.45,1.9-21.33.3-.39.63-.76,1-1.13,4.6-4.85,8.56-6.24,14.26-6.24,1.09,0,2,0,2.91.12,2.74.23,4.86.71,9,.82,1.46,0,3.16,0,5.23-.05.31,0,.61,0,.9,0,6.32-.35,8.54-1.42,12.41,0a16.1,16.1,0,0,1,7.61,6.24c.24.4.48.8.68,1.21a15,15,0,0,1,1.56,5.66A19.84,19.84,0,0,1,230.45,199.1Z" transform="translate(-80.19 -150.82)"/><path class="cls-7" d="M235.18,204.8a13.07,13.07,0,0,1-10.2,5.93,10.09,10.09,0,0,1-4.06-.58c-7.67-2.92-9.37-16.78-2.85-21.39,3.05-2.16,7.6-2.08,11.14-.58a9.77,9.77,0,0,1,1.22.58C236,191.83,238.63,199.14,235.18,204.8Z" transform="translate(-80.19 -150.82)"/><ellipse cx="147.86" cy="45.51" rx="3.8" ry="3.57"/><path class="cls-7" d="M179.09,186.08c5.8-.55,10.58,3.79,12.36,8,2.61,6.2-1.37,11.76-1.9,12.48-.91,1.23-3.84,5.17-8.56,5.35-6.22.24-10-6.3-10.45-7.13-.6-1-3.5-6.09-.95-11.59C169.82,192.71,172.74,186.68,179.09,186.08Z" transform="translate(-80.19 -150.82)"/><ellipse cx="95.58" cy="44.62" rx="3.8" ry="3.57"/><path class="cls-2" d="M203.81,199.45c3.89.37,6.31,5.31,6.65,8.92s-1.14,8.82-4.75,9.8c-4.16,1.13-10.13-3.56-10.46-8.91a1.64,1.64,0,0,0,0-.2C195.1,204.58,199.52,199.05,203.81,199.45Z" transform="translate(-80.19 -150.82)"/><polygon points="116.49 58.88 119.98 59.81 122.96 62.15 125.95 59.81 129.94 58.88 125.45 58.88 122.96 60.28 120.47 58.88 116.49 58.88"/><path class="cls-8" d="M235.18,204.8a13.07,13.07,0,0,1-10.2,5.93l-.26.31a27,27,0,0,1-8.65,6.71c1.25,1.94,1.65,5.53,4.85,9.33,2.71,3.22,5,3.68,4.75,5.35-.27,2.12-4.27,4.11-7.6,3.57-4.83-.8-6.9-6.71-7.52-8.66a60.55,60.55,0,0,0,2.77,18.46c2.79,8.4,6.63,8.48,9.5,18.72,2.31,8.25,2.1,16.36,0,16.94-.87.24-1.86-.89-2.94-2.17-.2.84-.5,1.83-.86,3.06a29.17,29.17,0,0,1-8.56,13.37,32.24,32.24,0,0,1-8.08,5.09V158.07a1,1,0,0,0,.48.38c2.21.84,5.7-5.35,11.41-7.13s3.8,1.78,3.8,1.78a17.51,17.51,0,0,1-6.66,8.92c-2.73,2.76-4,4.25-3.8,4.45s2.45-1.24,6.66-4.45c6.22-1.51,2.85-.89,7.6-.89s5,6,3.8,4.45c-14.84,8.72-16.16,12.48-16.16,12.48a27.61,27.61,0,0,1-1,2.63c6.32-.35,8.54-1.42,12.41,0a16.1,16.1,0,0,1,7.61,6.24c.24.4.48.8.68,1.21a9.77,9.77,0,0,1,1.22.58C236,191.83,238.63,199.14,235.18,204.8Z" transform="translate(-80.19 -150.82)"/><path class="cls-2" d="M1562.88,305.55c-1.25,0-1.5,2.45-2.73,4.43,1.32,3,2.85,7.91,2.83,10.64-.86.88-4-1.35-4.62-.56s-2.73,5,2.92,6.5a13.24,13.24,0,0,1,.1,5.18c-.57,3-2,4.33-1.51,4.8s3.12-.44,4.43-2.45c-.76-3.1.82-6.87.47-6.87s.47,3.95.47,7.63c.72,1.15,2,2.36,2.64,2.07,1.46-.68-1.32-9.05-.76-9.23a29.56,29.56,0,0,0,3,6c1.13-6.78-.49-5-3.39-12.06-1.32-4.9-2.54-8-1-12.53C1565.3,308.13,1564.23,305.51,1562.88,305.55Z" transform="translate(-80.19 -150.82)"/><path class="cls-2" d="M1574.22,317.43c-2.26,6,.66,18.08.66,18.08-1.64,1.52-1.6,1.93-5.46,2.36-1.1,1.66-.76,4.48.66,5.46s3.41-.61,6.59-1.32c7.44,3,14.51,5.47,14.42,3,.18-.41-6.11-3.91-6-4s4.71,1.79,9.6,2.35c1.8-.76,3.24-2.66,2.83-3.58-.77-1.72-4.52-.37-11.11-.37-7.54-2.83-11-13.85-6.69-21.39C1578,316.93,1575.46,316.38,1574.22,317.43Z" transform="translate(-80.19 -150.82)"/><path class="cls-4" d="M1627,165.58c-14.85,8.72-16.16,12.48-16.16,12.48-.14.4-.44,1.35-1,2.63a20,20,0,0,1-.89,1.83c-1.26,2.35-2.13,3.91-3.8,4.45a3.73,3.73,0,0,1-1.43.18,7.88,7.88,0,0,1-3.32-1.07c-2.51-1.32-2.75-3.06-5.65-6.12-.31-.32-.64-.66-1-1a38.21,38.21,0,0,1-2.85-2.67c-4.23-5.07-3.1-11.88-2.85-13.37.69-4.2,2.74-8.19,3.8-8s.44,4,1.9,4.45c2.29.71,6.49-7.81,8.56-7.13,1.36.45.46,4.49,1.42,5.86a1,1,0,0,0,.48.38c2.21.84,5.7-5.35,11.41-7.13s3.8,1.78,3.8,1.78a17.51,17.51,0,0,1-6.66,8.92c-2.73,2.76-4,4.25-3.8,4.45s2.45-1.24,6.66-4.45c6.22-1.51,2.85-.89,7.6-.89S1628.17,167.14,1627,165.58Z" transform="translate(-80.19 -150.82)"/><path class="cls-3" d="M1572.61,305.94a9.07,9.07,0,0,0,0,9.81,8.65,8.65,0,0,0,2.85,2.67,9.88,9.88,0,0,0,7.61.89c3.66-1.22,5-4.55,5.7-6.24.49-1.19,2.43-6,0-8.91C1585.62,300.38,1576.08,300.87,1572.61,305.94Z" transform="translate(-80.19 -150.82)"/><path class="cls-4" d="M1591.84,214.61c-1.65.91.75,4.29-.95,8-2.13,4.66-8.21,4.52-8.56,8-.19,1.92,1.48,3.67,2.85,4.46,3.54,2,8.09-.62,8.56-.9,5.71-3.41,3.8-16,3.8-16.93S1593.17,213.86,1591.84,214.61Z" transform="translate(-80.19 -150.82)"/><path class="cls-3" d="M1536.7,271.65c-10.46-4.46-21.86.89-21.86.89s-17.12,4.46-20,11.59-3.22,12-1.9,12.48c.7.24,1.61-1.35,3.8-3.57,3.37-3.39,6.64-5.12,10.46-7.13a58.55,58.55,0,0,1,15.21-5.35c14.5-3,24,.38,24.72-1.78C1547.74,277,1547.16,276.11,1536.7,271.65Z" transform="translate(-80.19 -150.82)"/><path class="cls-5" d="M1539.55,277.89c-4.38-.14-10.44-.34-15.21,3.57-7.29,6-6.41,17.3-4.75,17.82.21.07.53,0,3.8-3.56,2.2-2.39,3.3-3.58,4.76-5.35,5.55-6.76,21.94-7.45,21.86-9.81C1550,279.14,1544,278,1539.55,277.89Z" transform="translate(-80.19 -150.82)"/><path class="cls-5" d="M1555.71,282.35c-1.9,1.78-7.78-15.06-20-20.5-20-9-47.86-2.15-53.24,9.8-1.27,2.82-1,8.91-1,8.91s8.56-5.34,4.76-3.56,34.22-13.37,46.58-5.35,15.21,10.7,14.26,11.59S1557.62,280.56,1555.71,282.35Z" transform="translate(-80.19 -150.82)"/><path class="cls-3" d="M1536.7,288.59c-3-.87-6.16,1.14-7.6,2.67-5.43,5.71-.13,17.92,1.9,17.83.94,0,.39-2.72,2.85-7.13,3.15-5.65,7.19-6.89,6.65-9.81C1540.17,290.31,1538.23,289,1536.7,288.59Z" transform="translate(-80.19 -150.82)"/><path class="cls-3" d="M1621.21,279.29c-.2.84-.49,1.83-.85,3.06a29.26,29.26,0,0,1-8.56,13.37,32.24,32.24,0,0,1-8.08,5.09,44.09,44.09,0,0,1-18.54,3.82c-3.86-.07-9.5.89-8.55.89.46,0-.09,2.25-1.28,4.8s-3.07,5.47-5.19,6.67a1.22,1.22,0,0,1-.19.12c-2.24,1.17-4.81.49-6.65,0-.34-.09-.68-.21-1-.33-6.23-2.37-9.45-10.46-9.45-12.15s1.53-1.59,1.9-1.78c11.93-6.13,23.77-12.48,20-11.59s-18.57,13.35-22.82,9.8c-1.12-.93-1-2.82-2.85-3.56-2.24-.9-4.53,1-5.7,0-1-.88.14-2.76-.95-3.57-.6-.43-1.35-.16-2.15,0a4.17,4.17,0,0,1-.71,0c-2.17-.09-4.66-2.78-5.62-5.42a6.25,6.25,0,0,1-.38-2,3.39,3.39,0,0,1,.3-1.47c1.25-2.58,5.86-1.57,12.74-2.64l.55-.09c1.21-.2,2.48-.47,3.82-.83.9-.25,1.74-.52,2.54-.81,5.16-1.83,8.19-4.35,11.57-6.53l1.1-.69c10.84-6.53,25.88-7.73,37.55-5.94,9.19,1.4,16.28,4.65,17.59,8.62A5.62,5.62,0,0,1,1621.21,279.29Z" transform="translate(-80.19 -150.82)"/><path class="cls-6" d="M1595.64,218.17a.6.6,0,0,1,.31.1C1595.5,218.21,1595.36,218.17,1595.64,218.17Z" transform="translate(-80.19 -150.82)"/><path class="cls-6" d="M1624.16,281.46c-.87.24-1.86-.89-3-2.17-1.37-1.61-2.92-3.48-4.65-3.18-3.26.54-2.86,8.91-5.71,8s-1-4.92-2.85-5.35c-1.31-.31-2.79,1.92-4.28,3.8-1.11,1.42-2.24,2.63-3.32,2.44-2.53-.44-1.66-8-4.76-8.91-3.48-1.05-9.5,11.58-10.46,6.24s1.71-5.85,0-7.13c-2-1.52-8.55,6.24-9.5,2.67s2.36-4.07,1.9-4.46-2.19,2-4.75,2.68c-2.1.57-5.38-.68-7.76-2-2.18-1.2-3.6-2.47-2.7-2.47,1.9,0,15.32-5.47,25.67-18.72a33.37,33.37,0,0,0,6.65-13.37c.62-2.77,1.11-5.48,1.47-8,.82-5.88.92-10.66.26-12.53a1.43,1.43,0,0,0-.47-.77c.37.06,1,.13,1.7.2,1.58.18,3.83.4,6.07.57a46.12,46.12,0,0,0,7.63.17.92.92,0,0,0,.45-.15c.15-.14.21.09.22.64,0,1.22-.17,4-.13,7.64a60.82,60.82,0,0,0,2.76,18.46c2.8,8.4,6.64,8.48,9.51,18.72C1626.47,272.77,1626.26,280.88,1624.16,281.46Z" transform="translate(-80.19 -150.82)"/><path class="cls-4" d="M1627,232.43c-.27,2.12-4.27,4.11-7.6,3.57-4.83-.8-6.9-6.71-7.52-8.66a2,2,0,0,1-.09-.26,16.43,16.43,0,0,1-.56-7.21c0-.23.07-.44.11-.66a17.58,17.58,0,0,1,.45-1.93,4.86,4.86,0,0,1,3.81-.89,3,3,0,0,1,1.8,1.36c1.25,1.94,1.65,5.53,4.85,9.33C1625,230.3,1627.22,230.76,1627,232.43Z" transform="translate(-80.19 -150.82)"/><path class="cls-4" d="M1631.79,199.1a27.18,27.18,0,0,1-5.47,11.63l-.26.31a27.11,27.11,0,0,1-8.65,6.71,25.26,25.26,0,0,1-5.39,1.95c-.26.07-.51.12-.78.17l-.39.08a23.49,23.49,0,0,1-7.13.2c-1.72-.19-3.65-.5-6-.89l-1.12-.2-.17,0c-1.81-.32-3.46-.6-5-.88-6.62-1.19-10.37-2.17-12.93-4.45a16.08,16.08,0,0,1-3.82-5.17c-3.14-6.56-2.72-15.45,1.9-21.33.3-.39.63-.76,1-1.13,4.6-4.85,8.56-6.24,14.26-6.24,1.09,0,2,0,2.91.12,2.74.23,4.86.71,9,.82,1.46,0,3.16,0,5.23-.05.31,0,.61,0,.89,0,6.33-.35,8.55-1.42,12.42,0a16.1,16.1,0,0,1,7.61,6.24c.24.4.48.8.68,1.21a15,15,0,0,1,1.56,5.66A19.84,19.84,0,0,1,1631.79,199.1Z" transform="translate(-80.19 -150.82)"/><path class="cls-7" d="M1636.52,204.8a13.07,13.07,0,0,1-10.2,5.93,10.09,10.09,0,0,1-4.06-.58c-7.67-2.92-9.37-16.78-2.85-21.39,3-2.16,7.6-2.08,11.14-.58a9.77,9.77,0,0,1,1.22.58C1637.32,191.83,1640,199.14,1636.52,204.8Z" transform="translate(-80.19 -150.82)"/><ellipse cx="1549.2" cy="45.51" rx="3.8" ry="3.57"/><path class="cls-7" d="M1580.43,186.08c5.79-.55,10.57,3.79,12.36,8,2.61,6.2-1.37,11.76-1.9,12.48-.91,1.23-3.84,5.17-8.56,5.35-6.22.24-10-6.3-10.45-7.13-.6-1-3.51-6.09-1-11.59C1571.16,192.71,1574.08,186.68,1580.43,186.08Z" transform="translate(-80.19 -150.82)"/><ellipse cx="1496.92" cy="44.62" rx="3.8" ry="3.57"/><path class="cls-2" d="M1605.15,199.45c3.89.37,6.31,5.31,6.65,8.92s-1.14,8.82-4.75,9.8c-4.16,1.13-10.13-3.56-10.46-8.91a1.64,1.64,0,0,0,0-.2C1596.44,204.58,1600.86,199.05,1605.15,199.45Z" transform="translate(-80.19 -150.82)"/><polygon points="1517.83 58.88 1521.32 59.81 1524.3 62.15 1527.29 59.81 1531.28 58.88 1526.79 58.88 1524.3 60.28 1521.81 58.88 1517.83 58.88"/><path class="cls-8" d="M1636.52,204.8a13.07,13.07,0,0,1-10.2,5.93l-.26.31a27.11,27.11,0,0,1-8.65,6.71c1.25,1.94,1.65,5.53,4.85,9.33,2.71,3.22,5,3.68,4.75,5.35-.27,2.12-4.27,4.11-7.6,3.57-4.83-.8-6.9-6.71-7.52-8.66a60.82,60.82,0,0,0,2.76,18.46c2.8,8.4,6.64,8.48,9.51,18.72,2.31,8.25,2.1,16.36,0,16.94-.87.24-1.86-.89-3-2.17-.2.84-.49,1.83-.85,3.06a29.26,29.26,0,0,1-8.56,13.37,32.24,32.24,0,0,1-8.08,5.09V158.07a1,1,0,0,0,.48.38c2.21.84,5.7-5.35,11.41-7.13s3.8,1.78,3.8,1.78a17.51,17.51,0,0,1-6.66,8.92c-2.73,2.76-4,4.25-3.8,4.45s2.45-1.24,6.66-4.45c6.22-1.51,2.85-.89,7.6-.89s5,6,3.8,4.45c-14.85,8.72-16.16,12.48-16.16,12.48-.14.4-.44,1.35-1,2.63,6.33-.35,8.55-1.42,12.42,0a16.1,16.1,0,0,1,7.61,6.24c.24.4.48.8.68,1.21a9.77,9.77,0,0,1,1.22.58C1637.32,191.83,1640,199.14,1636.52,204.8Z" transform="translate(-80.19 -150.82)"/><path class="cls-2" d="M1914.17,316.32c-1.87,1.59-.62,5.93.21,8.83,1.95,6.73,5.15,10.33,4,11.57-.9,1-3.18-.92-5.47.42-1.53.89-2.55,2.92-2,3.89.66,1.15,3.24.18,6.2.42,4.58.37,4.84,4.11,10,5.57,3.21.91,6.46.59,6.62-.11.22-.94-2.63-2.73-5.15-3.57.27-1.76,15,3.68,13.14-1.58-3.26-4.1-5.57-3.26-14.61-2.73-4.3-.83-4.6-1-4.95-1.26a61.93,61.93,0,0,1-3.25-21.45A4.27,4.27,0,0,0,1914.17,316.32Z" transform="translate(-80.19 -150.82)"/><path class="cls-2" d="M1923.11,313.8c1.86,2.5,5.22,3.41,6,7.67-3.36,3.58-2.09,6.2-1.47,6.63s2,1.36,5.36-3.58c4.21,7.78,10,10.72,11.67,9.88,1.26-2.81,1.47-4.94-6.09-10.93.59-.65,2.84,1.61,3.32,1,.67-4.84-8.9-7.78-13.63-12.83C1926.18,311.7,1923.41,312.43,1923.11,313.8Z" transform="translate(-80.19 -150.82)"/><path class="cls-4" d="M1976.67,167.58c-14.84,8.72-16.16,12.48-16.16,12.48a27.61,27.61,0,0,1-1,2.63c-.24.55-.54,1.17-.9,1.83-1.26,2.35-2.13,3.91-3.8,4.45a3.73,3.73,0,0,1-1.43.18,7.93,7.93,0,0,1-3.32-1.07c-2.51-1.32-2.75-3.06-5.65-6.12-.31-.32-.64-.66-1-1a38.21,38.21,0,0,1-2.85-2.67c-4.23-5.07-3.1-11.88-2.85-13.37.69-4.2,2.74-8.19,3.8-8s.44,4,1.9,4.45c2.29.71,6.49-7.81,8.56-7.13,1.36.45.46,4.49,1.42,5.86a1,1,0,0,0,.48.38c2.21.84,5.7-5.35,11.41-7.13s3.8,1.78,3.8,1.78a17.51,17.51,0,0,1-6.66,8.92c-2.73,2.76-4,4.25-3.8,4.45s2.45-1.24,6.66-4.45c6.22-1.51,2.85-.89,7.6-.89S1977.83,169.14,1976.67,167.58Z" transform="translate(-80.19 -150.82)"/><path class="cls-3" d="M1918.37,300.79a9.06,9.06,0,0,0,0,9.8,8.71,8.71,0,0,0,2.85,2.68,9.87,9.87,0,0,0,7.6.89c3.67-1.22,5-4.56,5.71-6.24.48-1.2,2.43-6,0-8.91C1931.38,295.22,1921.84,295.72,1918.37,300.79Z" transform="translate(-80.19 -150.82)"/><path class="cls-4" d="M1941.5,216.61c-1.65.91.75,4.29-1,8-2.13,4.66-8.21,4.52-8.56,8-.18,1.92,1.48,3.67,2.86,4.46,3.53,2,8.08-.62,8.55-.9,5.71-3.41,3.8-16,3.8-16.93S1942.84,215.86,1941.5,216.61Z" transform="translate(-80.19 -150.82)"/><path class="cls-3" d="M1886.36,273.65c-10.45-4.46-21.86.89-21.86.89s-17.11,4.46-20,11.59-3.22,12-1.9,12.48c.7.24,1.61-1.35,3.8-3.57,3.37-3.39,6.65-5.12,10.46-7.13a58.55,58.55,0,0,1,15.21-5.35c14.5-3,24,.38,24.72-1.78C1897.4,279,1896.82,278.11,1886.36,273.65Z" transform="translate(-80.19 -150.82)"/><path class="cls-5" d="M1889.21,279.89c-4.38-.14-10.44-.34-15.21,3.57-7.29,6-6.41,17.3-4.75,17.82.21.07.53,0,3.8-3.56,2.2-2.39,3.3-3.58,4.76-5.35,5.55-6.76,21.94-7.45,21.86-9.81C1899.63,281.14,1893.62,280,1889.21,279.89Z" transform="translate(-80.19 -150.82)"/><path class="cls-5" d="M1905.38,284.35c-1.91,1.78-7.79-15.06-20-20.5-20-9-47.86-2.15-53.23,9.8-1.27,2.82-1,8.91-1,8.91s8.56-5.34,4.76-3.56,34.22-13.37,46.58-5.35,15.21,10.7,14.26,11.59S1907.28,282.56,1905.38,284.35Z" transform="translate(-80.19 -150.82)"/><path class="cls-3" d="M1886.36,290.59c-3-.87-6.15,1.14-7.6,2.67-5.43,5.71-.13,17.92,1.9,17.83.94,0,.39-2.72,2.85-7.13,3.15-5.65,7.19-6.89,6.65-9.81C1889.83,292.31,1887.89,291,1886.36,290.59Z" transform="translate(-80.19 -150.82)"/><path class="cls-3" d="M1970.88,281.29c-.2.84-.5,1.83-.86,3.06a29.17,29.17,0,0,1-8.56,13.37,32.24,32.24,0,0,1-8.08,5.09,44.09,44.09,0,0,1-18.53,3.82c-3.87-.07-9.51.89-8.56.89.47,0-.09,2.25-1.28,4.8s-3.06,5.47-5.18,6.67l-.19.12c-2.25,1.17-4.82.49-6.66,0-.34-.09-.68-.21-1-.33-6.23-2.37-9.45-10.46-9.45-12.15s1.53-1.59,1.9-1.78c11.94-6.13,23.77-12.48,20-11.59s-18.57,13.35-22.82,9.8c-1.12-.93-1-2.82-2.85-3.56-2.24-.9-4.53,1-5.7,0-1-.88.14-2.76-1-3.57-.6-.43-1.34-.16-2.15,0a4.17,4.17,0,0,1-.71,0c-2.17-.09-4.66-2.78-5.61-5.42a6,6,0,0,1-.39-2,3.39,3.39,0,0,1,.3-1.47c1.26-2.58,5.86-1.57,12.74-2.64l.55-.09c1.21-.2,2.48-.47,3.82-.83.91-.25,1.74-.52,2.54-.81,5.16-1.83,8.19-4.35,11.57-6.53l1.1-.69c10.84-6.53,25.88-7.73,37.55-5.94,9.19,1.4,16.28,4.65,17.59,8.62A5.61,5.61,0,0,1,1970.88,281.29Z" transform="translate(-80.19 -150.82)"/><path class="cls-6" d="M1945.3,220.17a.6.6,0,0,1,.31.1C1945.16,220.21,1945,220.17,1945.3,220.17Z" transform="translate(-80.19 -150.82)"/><path class="cls-6" d="M1973.82,283.46c-.87.24-1.86-.89-2.94-2.17-1.38-1.61-2.93-3.48-4.66-3.18-3.25.54-2.85,8.91-5.71,8s-1-4.92-2.85-5.35c-1.31-.31-2.78,1.92-4.28,3.8-1.11,1.42-2.24,2.63-3.32,2.44-2.53-.44-1.66-8-4.76-8.91-3.48-1.05-9.5,11.58-10.45,6.24s1.7-5.85,0-7.13c-2-1.52-8.56,6.24-9.51,2.67s2.36-4.07,1.9-4.46-2.19,2-4.75,2.68c-2.09.57-5.38-.68-7.76-2-2.18-1.2-3.6-2.47-2.7-2.47,1.9,0,15.32-5.47,25.67-18.72a33.37,33.37,0,0,0,6.65-13.37c.62-2.77,1.11-5.48,1.47-8,.82-5.88.92-10.66.26-12.53a1.43,1.43,0,0,0-.47-.77c.37.06,1,.13,1.7.2,1.58.18,3.83.4,6.07.57a46.12,46.12,0,0,0,7.63.17.88.88,0,0,0,.45-.15c.16-.14.21.09.22.64,0,1.22-.17,4-.13,7.64a60.55,60.55,0,0,0,2.77,18.46c2.79,8.4,6.63,8.48,9.5,18.72C1976.13,274.77,1975.92,282.88,1973.82,283.46Z" transform="translate(-80.19 -150.82)"/><path class="cls-4" d="M1976.67,234.43c-.27,2.12-4.27,4.11-7.6,3.57-4.83-.8-6.9-6.71-7.52-8.66a2,2,0,0,1-.09-.26,16.43,16.43,0,0,1-.56-7.21c0-.23.07-.44.11-.66a17.58,17.58,0,0,1,.45-1.93,4.86,4.86,0,0,1,3.81-.89,2.94,2.94,0,0,1,1.8,1.36c1.25,1.94,1.65,5.53,4.85,9.33C1974.63,232.3,1976.88,232.76,1976.67,234.43Z" transform="translate(-80.19 -150.82)"/><path class="cls-4" d="M1981.45,201.1a27.18,27.18,0,0,1-5.47,11.63l-.26.31a27,27,0,0,1-8.65,6.71,25.06,25.06,0,0,1-5.39,1.95c-.25.07-.51.12-.78.17l-.39.08a23.49,23.49,0,0,1-7.13.2c-1.72-.19-3.65-.5-6-.89l-1.13-.2-.17,0c-1.81-.32-3.46-.6-5-.88-6.62-1.19-10.37-2.17-12.93-4.45a16.08,16.08,0,0,1-3.82-5.17c-3.14-6.56-2.72-15.45,1.9-21.33.3-.39.63-.76,1-1.13,4.6-4.85,8.56-6.24,14.26-6.24,1.09,0,2,0,2.91.12,2.74.23,4.86.71,9,.82,1.46,0,3.16,0,5.23-.05.31,0,.61,0,.9,0,6.32-.35,8.54-1.42,12.41,0a16.1,16.1,0,0,1,7.61,6.24c.24.4.48.8.68,1.21a15,15,0,0,1,1.56,5.66A19.84,19.84,0,0,1,1981.45,201.1Z" transform="translate(-80.19 -150.82)"/><path class="cls-7" d="M1986.18,206.8a13.07,13.07,0,0,1-10.2,5.93,10.09,10.09,0,0,1-4.06-.58c-7.67-2.92-9.37-16.78-2.85-21.39,3-2.16,7.6-2.08,11.14-.58a9.77,9.77,0,0,1,1.22.58C1987,193.83,1989.63,201.14,1986.18,206.8Z" transform="translate(-80.19 -150.82)"/><ellipse cx="1898.86" cy="47.51" rx="3.8" ry="3.57"/><path class="cls-7" d="M1930.09,188.08c5.8-.55,10.58,3.79,12.36,8,2.61,6.2-1.37,11.76-1.9,12.48-.91,1.23-3.84,5.17-8.56,5.35-6.22.24-10-6.3-10.45-7.13-.6-1-3.5-6.09-1-11.59C1920.82,194.71,1923.74,188.68,1930.09,188.08Z" transform="translate(-80.19 -150.82)"/><ellipse cx="1846.58" cy="46.62" rx="3.8" ry="3.57"/><path class="cls-2" d="M1954.81,201.45c3.89.37,6.31,5.31,6.65,8.92s-1.14,8.82-4.75,9.8c-4.16,1.13-10.13-3.56-10.46-8.91a1.64,1.64,0,0,0,0-.2C1946.1,206.58,1950.52,201.05,1954.81,201.45Z" transform="translate(-80.19 -150.82)"/><polygon points="1867.49 60.88 1870.98 61.81 1873.96 64.15 1876.95 61.81 1880.94 60.88 1876.45 60.88 1873.96 62.28 1871.47 60.88 1867.49 60.88"/><path class="cls-8" d="M1986.18,206.8a13.07,13.07,0,0,1-10.2,5.93l-.26.31a27,27,0,0,1-8.65,6.71c1.25,1.94,1.65,5.53,4.85,9.33,2.71,3.22,5,3.68,4.75,5.35-.27,2.12-4.27,4.11-7.6,3.57-4.83-.8-6.9-6.71-7.52-8.66a60.55,60.55,0,0,0,2.77,18.46c2.79,8.4,6.63,8.48,9.5,18.72,2.31,8.25,2.1,16.36,0,16.94-.87.24-1.86-.89-2.94-2.17-.2.84-.5,1.83-.86,3.06a29.17,29.17,0,0,1-8.56,13.37,32.24,32.24,0,0,1-8.08,5.09V160.07a1,1,0,0,0,.48.38c2.21.84,5.7-5.35,11.41-7.13s3.8,1.78,3.8,1.78a17.51,17.51,0,0,1-6.66,8.92c-2.73,2.76-4,4.25-3.8,4.45s2.45-1.24,6.66-4.45c6.22-1.51,2.85-.89,7.6-.89s5,6,3.8,4.45c-14.84,8.72-16.16,12.48-16.16,12.48a27.61,27.61,0,0,1-1,2.63c6.32-.35,8.54-1.42,12.41,0a16.1,16.1,0,0,1,7.61,6.24c.24.4.48.8.68,1.21a9.77,9.77,0,0,1,1.22.58C1987,193.83,1989.63,201.14,1986.18,206.8Z" transform="translate(-80.19 -150.82)"/><path class="cls-2" d="M2265.08,314.29c-3,1.69-1.33,9.87-1.33,18.72-2.35,3.63-6.71,2.55-6.1,5.9.35,1,2.24.82,6.82.82,4.27,5,9,6.59,12.3,5.9,2.55-2.24-4.4-5-3.86-5.7s5.4,4,9.87,2.64c1.67-.52,3.25-1.89,3-2.74-.35-1.47-5.66-.14-12.31-3.16-1.95-.88-2.92-1.32-3.56-2-4.6-5.12-.81-15.06-1.22-19.43C2267.76,314.32,2266.08,313.72,2265.08,314.29Z" transform="translate(-80.19 -150.82)"/><path class="cls-2" d="M2284.72,316.37c-.22,2.35,9.87,5.8,16.89,10-1.34,4.43-2.45,6.67-.41,8.34,2.43,2,3.58-6.16,8.14-6.71,4.06.87,5,8.6,10.27,6.1,1.93-3.09-4.09-4.15-3.25-5.9,7.82,4.84,12.71.51,12.71.51-1.33-3.86-11.5-5.94-26.55-6.92-3.82-2.92-10.68-1.83-13.22-7.12C2287.13,314.72,2284.8,315.45,2284.72,316.37Z" transform="translate(-80.19 -150.82)"/><path class="cls-4" d="M2326.67,165.58c-14.84,8.72-16.16,12.48-16.16,12.48a27.61,27.61,0,0,1-1,2.63c-.24.55-.54,1.17-.9,1.83-1.26,2.35-2.13,3.91-3.8,4.45a3.73,3.73,0,0,1-1.43.18,7.93,7.93,0,0,1-3.32-1.07c-2.51-1.32-2.75-3.06-5.65-6.12-.31-.32-.64-.66-1-1a38.21,38.21,0,0,1-2.85-2.67c-4.23-5.07-3.1-11.88-2.85-13.37.69-4.2,2.74-8.19,3.8-8s.44,4,1.9,4.45c2.29.71,6.49-7.81,8.56-7.13,1.36.45.46,4.49,1.42,5.86a1,1,0,0,0,.48.38c2.21.84,5.7-5.35,11.41-7.13s3.8,1.78,3.8,1.78a17.51,17.51,0,0,1-6.66,8.92c-2.73,2.76-4,4.25-3.8,4.45s2.45-1.24,6.66-4.45c6.22-1.51,2.85-.89,7.6-.89S2327.83,167.14,2326.67,165.58Z" transform="translate(-80.19 -150.82)"/><path class="cls-3" d="M2276.29,303.74a9.06,9.06,0,0,0,0,9.8,8.81,8.81,0,0,0,2.85,2.68,9.88,9.88,0,0,0,7.61.89c3.66-1.22,5-4.56,5.7-6.24.49-1.2,2.43-6,0-8.91C2289.3,298.17,2279.76,298.67,2276.29,303.74Z" transform="translate(-80.19 -150.82)"/><path class="cls-4" d="M2291.5,214.61c-1.65.91.75,4.29-.95,8-2.13,4.66-8.21,4.52-8.56,8-.18,1.92,1.48,3.67,2.86,4.46,3.53,2,8.08-.62,8.55-.9,5.71-3.41,3.8-16,3.8-16.93S2292.84,213.86,2291.5,214.61Z" transform="translate(-80.19 -150.82)"/><path class="cls-3" d="M2236.36,271.65c-10.45-4.46-21.86.89-21.86.89s-17.11,4.46-20,11.59-3.22,12-1.9,12.48c.7.24,1.61-1.35,3.8-3.57,3.37-3.39,6.65-5.12,10.46-7.13a58.55,58.55,0,0,1,15.21-5.35c14.5-3,24,.38,24.72-1.78C2247.4,277,2246.82,276.11,2236.36,271.65Z" transform="translate(-80.19 -150.82)"/><path class="cls-5" d="M2239.21,277.89c-4.38-.14-10.44-.34-15.21,3.57-7.29,6-6.41,17.3-4.75,17.82.21.07.53,0,3.8-3.56,2.2-2.39,3.3-3.58,4.76-5.35,5.55-6.76,21.94-7.45,21.86-9.81C2249.63,279.14,2243.62,278,2239.21,277.89Z" transform="translate(-80.19 -150.82)"/><path class="cls-5" d="M2255.38,282.35c-1.91,1.78-7.79-15.06-20-20.5-20-9-47.86-2.15-53.23,9.8-1.27,2.82-1,8.91-1,8.91s8.56-5.34,4.76-3.56,34.22-13.37,46.58-5.35,15.21,10.7,14.26,11.59S2257.28,280.56,2255.38,282.35Z" transform="translate(-80.19 -150.82)"/><path class="cls-3" d="M2236.36,288.59c-3-.87-6.15,1.14-7.6,2.67-5.43,5.71-.13,17.92,1.9,17.83.94,0,.39-2.72,2.85-7.13,3.15-5.65,7.19-6.89,6.65-9.81C2239.83,290.31,2237.89,289,2236.36,288.59Z" transform="translate(-80.19 -150.82)"/><path class="cls-3" d="M2320.88,279.29c-.2.84-.5,1.83-.86,3.06a29.17,29.17,0,0,1-8.56,13.37,32.24,32.24,0,0,1-8.08,5.09,44.09,44.09,0,0,1-18.53,3.82c-3.87-.07-9.51.89-8.56.89.47,0-.09,2.25-1.28,4.8s-3.06,5.47-5.18,6.67l-.19.12c-2.25,1.17-4.82.49-6.66,0-.34-.09-.68-.21-1-.33-6.23-2.37-9.45-10.46-9.45-12.15s1.53-1.59,1.9-1.78c11.94-6.13,23.77-12.48,20-11.59s-18.57,13.35-22.82,9.8c-1.12-.93-1-2.82-2.85-3.56-2.24-.9-4.53,1-5.7,0-1-.88.14-2.76-.95-3.57-.6-.43-1.34-.16-2.15,0a4.17,4.17,0,0,1-.71,0c-2.17-.09-4.66-2.78-5.61-5.42a6,6,0,0,1-.39-2,3.39,3.39,0,0,1,.3-1.47c1.26-2.58,5.86-1.57,12.74-2.64l.55-.09c1.21-.2,2.48-.47,3.82-.83.91-.25,1.74-.52,2.54-.81,5.16-1.83,8.19-4.35,11.57-6.53l1.1-.69c10.84-6.53,25.88-7.73,37.55-5.94,9.19,1.4,16.28,4.65,17.59,8.62A5.61,5.61,0,0,1,2320.88,279.29Z" transform="translate(-80.19 -150.82)"/><path class="cls-6" d="M2295.3,218.17a.6.6,0,0,1,.31.1C2295.16,218.21,2295,218.17,2295.3,218.17Z" transform="translate(-80.19 -150.82)"/><path class="cls-6" d="M2323.82,281.46c-.87.24-1.86-.89-2.94-2.17-1.38-1.61-2.93-3.48-4.66-3.18-3.25.54-2.85,8.91-5.71,8s-1-4.92-2.85-5.35c-1.31-.31-2.78,1.92-4.28,3.8-1.11,1.42-2.24,2.63-3.32,2.44-2.53-.44-1.66-8-4.76-8.91-3.48-1.05-9.5,11.58-10.45,6.24s1.7-5.85,0-7.13c-2-1.52-8.56,6.24-9.51,2.67s2.36-4.07,1.9-4.46-2.19,2-4.75,2.68c-2.09.57-5.38-.68-7.76-2-2.18-1.2-3.6-2.47-2.7-2.47,1.9,0,15.32-5.47,25.67-18.72a33.37,33.37,0,0,0,6.65-13.37c.62-2.77,1.11-5.48,1.47-8,.82-5.88.92-10.66.26-12.53a1.43,1.43,0,0,0-.47-.77c.37.06,1,.13,1.7.2,1.58.18,3.83.4,6.07.57a46.12,46.12,0,0,0,7.63.17.88.88,0,0,0,.45-.15c.16-.14.21.09.22.64,0,1.22-.17,4-.13,7.64a60.55,60.55,0,0,0,2.77,18.46c2.79,8.4,6.63,8.48,9.5,18.72C2326.13,272.77,2325.92,280.88,2323.82,281.46Z" transform="translate(-80.19 -150.82)"/><path class="cls-4" d="M2326.67,232.43c-.27,2.12-4.27,4.11-7.6,3.57-4.83-.8-6.9-6.71-7.52-8.66a2,2,0,0,1-.09-.26,16.43,16.43,0,0,1-.56-7.21c0-.23.07-.44.11-.66a17.58,17.58,0,0,1,.45-1.93,4.86,4.86,0,0,1,3.81-.89,2.94,2.94,0,0,1,1.8,1.36c1.25,1.94,1.65,5.53,4.85,9.33C2324.63,230.3,2326.88,230.76,2326.67,232.43Z" transform="translate(-80.19 -150.82)"/><path class="cls-4" d="M2331.45,199.1a27.18,27.18,0,0,1-5.47,11.63l-.26.31a27,27,0,0,1-8.65,6.71,25.06,25.06,0,0,1-5.39,1.95c-.25.07-.51.12-.78.17l-.39.08a23.49,23.49,0,0,1-7.13.2c-1.72-.19-3.65-.5-6-.89l-1.13-.2-.17,0c-1.81-.32-3.46-.6-5-.88-6.62-1.19-10.37-2.17-12.93-4.45a16.08,16.08,0,0,1-3.82-5.17c-3.14-6.56-2.72-15.45,1.9-21.33.3-.39.63-.76,1-1.13,4.6-4.85,8.56-6.24,14.26-6.24,1.09,0,2,0,2.91.12,2.74.23,4.86.71,9,.82,1.46,0,3.16,0,5.23-.05.31,0,.61,0,.9,0,6.32-.35,8.54-1.42,12.41,0a16.1,16.1,0,0,1,7.61,6.24c.24.4.48.8.68,1.21a15,15,0,0,1,1.56,5.66A19.84,19.84,0,0,1,2331.45,199.1Z" transform="translate(-80.19 -150.82)"/><path class="cls-7" d="M2336.18,204.8a13.07,13.07,0,0,1-10.2,5.93,10.09,10.09,0,0,1-4.06-.58c-7.67-2.92-9.37-16.78-2.85-21.39,3-2.16,7.6-2.08,11.14-.58a9.77,9.77,0,0,1,1.22.58C2337,191.83,2339.63,199.14,2336.18,204.8Z" transform="translate(-80.19 -150.82)"/><ellipse cx="2248.86" cy="45.51" rx="3.8" ry="3.57"/><path class="cls-7" d="M2280.09,186.08c5.8-.55,10.58,3.79,12.36,8,2.61,6.2-1.37,11.76-1.9,12.48-.91,1.23-3.84,5.17-8.56,5.35-6.22.24-10-6.3-10.45-7.13-.6-1-3.5-6.09-.95-11.59C2270.82,192.71,2273.74,186.68,2280.09,186.08Z" transform="translate(-80.19 -150.82)"/><ellipse cx="2196.58" cy="44.62" rx="3.8" ry="3.57"/><path class="cls-2" d="M2304.81,199.45c3.89.37,6.31,5.31,6.65,8.92s-1.14,8.82-4.75,9.8c-4.16,1.13-10.13-3.56-10.46-8.91a1.64,1.64,0,0,0,0-.2C2296.1,204.58,2300.52,199.05,2304.81,199.45Z" transform="translate(-80.19 -150.82)"/><polygon points="2217.49 58.88 2220.98 59.81 2223.96 62.15 2226.95 59.81 2230.94 58.88 2226.45 58.88 2223.96 60.28 2221.47 58.88 2217.49 58.88"/><path class="cls-8" d="M2336.18,204.8a13.07,13.07,0,0,1-10.2,5.93l-.26.31a27,27,0,0,1-8.65,6.71c1.25,1.94,1.65,5.53,4.85,9.33,2.71,3.22,5,3.68,4.75,5.35-.27,2.12-4.27,4.11-7.6,3.57-4.83-.8-6.9-6.71-7.52-8.66a60.55,60.55,0,0,0,2.77,18.46c2.79,8.4,6.63,8.48,9.5,18.72,2.31,8.25,2.1,16.36,0,16.94-.87.24-1.86-.89-2.94-2.17-.2.84-.5,1.83-.86,3.06a29.17,29.17,0,0,1-8.56,13.37,32.24,32.24,0,0,1-8.08,5.09V158.07a1,1,0,0,0,.48.38c2.21.84,5.7-5.35,11.41-7.13s3.8,1.78,3.8,1.78a17.51,17.51,0,0,1-6.66,8.92c-2.73,2.76-4,4.25-3.8,4.45s2.45-1.24,6.66-4.45c6.22-1.51,2.85-.89,7.6-.89s5,6,3.8,4.45c-14.84,8.72-16.16,12.48-16.16,12.48a27.61,27.61,0,0,1-1,2.63c6.32-.35,8.54-1.42,12.41,0a16.1,16.1,0,0,1,7.61,6.24c.24.4.48.8.68,1.21a9.77,9.77,0,0,1,1.22.58C2337,191.83,2339.63,199.14,2336.18,204.8Z" transform="translate(-80.19 -150.82)"/><path class="cls-2" d="M2614.3,314.31c-2.24,5.19-1,15.39-4,20.38-2.42,1.34-5.17-1.09-7.38.86-1.87,1.67-2,5.32-.75,6.18s2.71-1.46,5.42-1.19c2.88.29,3.27,3.07,6.61,5,4.48,2.57,10.39,1.36,10.62.21s-4.79-2.71-4.55-3.47,6,2.28,7.15.22c.1-.4-5.31-3.58-10.51-4.66a64.51,64.51,0,0,1,2.27-21.68C2618,314.66,2615.71,313.66,2614.3,314.31Z" transform="translate(-80.19 -150.82)"/><path class="cls-2" d="M2624.38,319.94c-1.11,2.24,2.06,10.64,8.78,15.61a3.47,3.47,0,0,1-.11,2.5c-4.12.65-5.64.11-6.29,2.27,0,.41,3.25,3.15,9,1.2,9,4.22,17.24,8.56,18.43,4.77.3-.62-1.3-3.91-8.89-6.62-9.87-7-15.07-11.6-15.61-20.27C2627.55,318.79,2624.91,318.88,2624.38,319.94Z" transform="translate(-80.19 -150.82)"/><path class="cls-2" d="M2646.82,341.52c-.31,1.51,3.2,3.32,3.9,3.68,6.94.54,4.66.54,11-.11.61-1.42-1.11-3.36-1.3-3.57C2656.25,342.17,2650.3,340.68,2646.82,341.52Z" transform="translate(-80.19 -150.82)"/><path class="cls-4" d="M2677.67,169.24c-14.84,8.71-16.16,12.47-16.16,12.47a26.59,26.59,0,0,1-1,2.63q-.36.84-.9,1.83c-1.26,2.35-2.13,3.91-3.8,4.46a4.17,4.17,0,0,1-1.43.18,8.23,8.23,0,0,1-3.32-1.07c-2.51-1.32-2.75-3.07-5.65-6.13-.31-.32-.64-.66-1-1-2.13-2-2.16-1.85-2.85-2.68-4.23-5.06-3.1-11.88-2.85-13.37.69-4.2,2.74-8.19,3.8-8s.44,4,1.9,4.46c2.29.7,6.49-7.81,8.56-7.13,1.36.44.46,4.49,1.42,5.85a1.07,1.07,0,0,0,.48.39c2.21.83,5.7-5.35,11.41-7.14s3.8,1.79,3.8,1.79a17.5,17.5,0,0,1-6.66,8.91q-4.1,4.14-3.8,4.46c.24.24,2.45-1.25,6.66-4.46,6.22-1.51,2.85-.89,7.6-.89S2678.83,170.8,2677.67,169.24Z" transform="translate(-80.19 -150.82)"/><path class="cls-3" d="M2620.22,307.39a9.09,9.09,0,0,0,0,9.81,8.75,8.75,0,0,0,2.85,2.67,9.91,9.91,0,0,0,7.61.89c3.67-1.22,5-4.55,5.7-6.24.49-1.19,2.43-6,0-8.91C2633.24,301.83,2623.7,302.32,2620.22,307.39Z" transform="translate(-80.19 -150.82)"/><path class="cls-4" d="M2642.5,218.26c-1.65.92.75,4.29-.95,8-2.13,4.66-8.21,4.53-8.56,8-.18,1.92,1.48,3.67,2.86,4.46,3.53,2,8.08-.61,8.55-.89,5.71-3.42,3.8-16.05,3.8-16.94S2643.84,217.51,2642.5,218.26Z" transform="translate(-80.19 -150.82)"/><path class="cls-3" d="M2587.36,275.3c-10.45-4.45-21.86.9-21.86.9s-17.11,4.45-20,11.58-3.22,12-1.9,12.48c.7.24,1.61-1.35,3.8-3.56,3.37-3.4,6.65-5.12,10.46-7.13a57.78,57.78,0,0,1,15.21-5.35c14.5-3,24,.38,24.72-1.78C2598.4,280.7,2597.82,279.76,2587.36,275.3Z" transform="translate(-80.19 -150.82)"/><path class="cls-5" d="M2590.21,281.54c-4.38-.14-10.44-.33-15.21,3.57-7.29,6-6.41,17.3-4.75,17.83.21.06.53,0,3.8-3.57,2.2-2.39,3.3-3.58,4.76-5.35,5.55-6.75,21.94-7.44,21.86-9.8C2600.63,282.79,2594.62,281.69,2590.21,281.54Z" transform="translate(-80.19 -150.82)"/><path class="cls-5" d="M2606.38,286c-1.91,1.78-7.79-15.05-20-20.5-20-9-47.86-2.15-53.23,9.8-1.27,2.83-1,8.92-1,8.92s8.56-5.35,4.76-3.57,34.22-13.37,46.58-5.35,15.21,10.7,14.26,11.59S2608.28,284.22,2606.38,286Z" transform="translate(-80.19 -150.82)"/><path class="cls-3" d="M2587.36,292.24c-3-.87-6.15,1.15-7.6,2.67-5.43,5.72-.13,17.93,1.9,17.83.94,0,.39-2.72,2.85-7.13,3.15-5.65,7.19-6.89,6.65-9.8C2590.83,294,2588.89,292.68,2587.36,292.24Z" transform="translate(-80.19 -150.82)"/><path class="cls-3" d="M2671.88,282.94c-.2.84-.5,1.83-.86,3.06a29.07,29.07,0,0,1-8.56,13.37,32.55,32.55,0,0,1-8.08,5.1,43.27,43.27,0,0,1-10,3.08,41.92,41.92,0,0,1-8.58.73c-3.87-.07-9.51.9-8.56.9.47,0-.09,2.24-1.28,4.79s-3.06,5.47-5.18,6.68l-.19.11c-2.25,1.17-4.82.49-6.66,0a9.16,9.16,0,0,1-1-.33c-6.23-2.37-9.45-10.45-9.45-12.15s1.53-1.58,1.9-1.78c11.94-6.12,23.77-12.48,20-11.59s-18.57,13.36-22.82,9.81c-1.12-.94-1-2.83-2.85-3.57-2.24-.9-4.53,1-5.7,0-1-.88.14-2.76-.95-3.56-.6-.44-1.34-.16-2.15,0a3.35,3.35,0,0,1-.71,0c-2.17-.1-4.66-2.78-5.61-5.42a6.06,6.06,0,0,1-.39-2,3.41,3.41,0,0,1,.3-1.48c1.26-2.57,5.86-1.56,12.74-2.63.18,0,.36-.07.55-.09,1.21-.21,2.48-.48,3.82-.84.91-.25,1.74-.52,2.54-.8,5.16-1.84,8.19-4.35,11.57-6.54l1.1-.68c10.84-6.54,25.88-7.74,37.55-5.95,9.19,1.4,16.28,4.65,17.59,8.62A5.61,5.61,0,0,1,2671.88,282.94Z" transform="translate(-80.19 -150.82)"/><path class="cls-6" d="M2646.3,221.82a.6.6,0,0,1,.31.1C2646.16,221.86,2646,221.82,2646.3,221.82Z" transform="translate(-80.19 -150.82)"/><path class="cls-6" d="M2674.82,285.11c-.87.24-1.86-.88-2.94-2.17-1.38-1.61-2.93-3.47-4.66-3.18-3.25.54-2.85,8.91-5.71,8s-1-4.92-2.85-5.34c-1.31-.32-2.78,1.91-4.28,3.79-1.11,1.42-2.24,2.63-3.32,2.44-2.53-.43-1.66-8-4.76-8.91-3.48-1.05-9.5,11.59-10.45,6.24s1.7-5.85,0-7.13c-2-1.52-8.56,6.24-9.51,2.67s2.36-4.07,1.9-4.45-2.19,2-4.75,2.67c-2.09.57-5.38-.68-7.76-2-2.18-1.2-3.6-2.47-2.7-2.47,1.9,0,15.32-5.47,25.67-18.71a33.45,33.45,0,0,0,6.65-13.37c.62-2.78,1.11-5.49,1.47-8,.82-5.87.92-10.66.26-12.53a1.48,1.48,0,0,0-.47-.77c.37.06,1,.14,1.7.21,1.58.18,3.83.39,6.07.56a47.6,47.6,0,0,0,7.63.18,1,1,0,0,0,.45-.15c.16-.15.21.08.22.64,0,1.21-.17,4-.13,7.64a60.59,60.59,0,0,0,2.77,18.46c2.79,8.39,6.63,8.47,9.5,18.71C2677.13,276.43,2676.92,284.53,2674.82,285.11Z" transform="translate(-80.19 -150.82)"/><path class="cls-4" d="M2677.67,236.09c-.27,2.12-4.27,4.1-7.6,3.56-4.83-.79-6.9-6.7-7.52-8.65,0-.1-.07-.19-.09-.26a16.45,16.45,0,0,1-.56-7.21c0-.23.07-.45.11-.66a17.27,17.27,0,0,1,.45-1.94,4.9,4.9,0,0,1,3.81-.89,3,3,0,0,1,1.8,1.37c1.25,1.93,1.65,5.52,4.85,9.33C2675.63,234,2677.88,234.42,2677.67,236.09Z" transform="translate(-80.19 -150.82)"/><path class="cls-4" d="M2682.45,202.76a27.2,27.2,0,0,1-5.47,11.62c-.09.11-.17.22-.26.31a27.1,27.1,0,0,1-8.65,6.72,25.6,25.6,0,0,1-5.39,2l-.78.17-.39.08a23.82,23.82,0,0,1-7.13.19c-1.72-.18-3.65-.5-6-.89l-1.13-.19-.17,0-5-.87c-6.62-1.2-10.37-2.18-12.93-4.45a16.19,16.19,0,0,1-3.82-5.17c-3.14-6.56-2.72-15.46,1.9-21.33a14.83,14.83,0,0,1,1-1.13c4.6-4.85,8.56-6.24,14.26-6.24,1.09,0,2,0,2.91.11,2.74.23,4.86.72,9,.82,1.46,0,3.16,0,5.23,0l.9,0c6.32-.34,8.54-1.41,12.41,0a16.1,16.1,0,0,1,7.61,6.24c.24.39.48.79.68,1.2a15,15,0,0,1,1.56,5.66A19.94,19.94,0,0,1,2682.45,202.76Z" transform="translate(-80.19 -150.82)"/><path class="cls-7" d="M2687.18,208.45a13,13,0,0,1-10.2,5.93,10.09,10.09,0,0,1-4.06-.58c-7.67-2.91-9.37-16.77-2.85-21.39,3-2.16,7.6-2.08,11.14-.58a11.42,11.42,0,0,1,1.22.58C2688,195.49,2690.63,202.79,2687.18,208.45Z" transform="translate(-80.19 -150.82)"/><ellipse cx="2599.86" cy="49.17" rx="3.8" ry="3.57"/><path class="cls-7" d="M2631.09,189.74c5.8-.55,10.58,3.78,12.36,8,2.61,6.2-1.37,11.76-1.9,12.48-.91,1.22-3.84,5.17-8.56,5.35-6.22.23-10-6.3-10.45-7.14-.6-1-3.5-6.09-.95-11.58C2621.82,196.37,2624.74,190.34,2631.09,189.74Z" transform="translate(-80.19 -150.82)"/><ellipse cx="2547.58" cy="48.27" rx="3.8" ry="3.57"/><path class="cls-2" d="M2655.81,203.11c3.89.37,6.31,5.3,6.65,8.91s-1.14,8.82-4.75,9.8c-4.16,1.14-10.13-3.55-10.46-8.91a1.42,1.42,0,0,0,0-.19C2647.1,208.24,2651.52,202.7,2655.81,203.11Z" transform="translate(-80.19 -150.82)"/><polygon points="2568.49 62.54 2571.98 63.47 2574.96 65.8 2577.95 63.47 2581.94 62.54 2577.45 62.54 2574.96 63.94 2572.47 62.54 2568.49 62.54"/><path class="cls-8" d="M2687.18,208.45a13,13,0,0,1-10.2,5.93c-.09.11-.17.22-.26.31a27.1,27.1,0,0,1-8.65,6.72c1.25,1.93,1.65,5.52,4.85,9.33,2.71,3.22,5,3.68,4.75,5.35-.27,2.12-4.27,4.1-7.6,3.56-4.83-.79-6.9-6.7-7.52-8.65a60.59,60.59,0,0,0,2.77,18.46c2.79,8.39,6.63,8.47,9.5,18.71,2.31,8.26,2.1,16.36,0,16.94-.87.24-1.86-.88-2.94-2.17-.2.84-.5,1.83-.86,3.06a29.07,29.07,0,0,1-8.56,13.37,32.55,32.55,0,0,1-8.08,5.1V161.72a1.07,1.07,0,0,0,.48.39c2.21.83,5.7-5.35,11.41-7.14s3.8,1.79,3.8,1.79a17.5,17.5,0,0,1-6.66,8.91q-4.1,4.14-3.8,4.46c.24.24,2.45-1.25,6.66-4.46,6.22-1.51,2.85-.89,7.6-.89s5,6,3.8,4.46c-14.84,8.71-16.16,12.47-16.16,12.47a26.59,26.59,0,0,1-1,2.63c6.32-.34,8.54-1.41,12.41,0a16.1,16.1,0,0,1,7.61,6.24c.24.39.48.79.68,1.2a11.42,11.42,0,0,1,1.22.58C2688,195.49,2690.63,202.79,2687.18,208.45Z" transform="translate(-80.19 -150.82)"/><ellipse class="cls-1" cx="94.15" cy="688.57" rx="52.76" ry="8.47"/><ellipse class="cls-1" cx="94.41" cy="688.71" rx="52.75" ry="8.47"/><path class="cls-2" d="M181.25,815.47c-3.61,3.71,3.93,13.06,0,16.93-1.29,1.27-2.76.94-3.8,2.68-1.39,2.32-.51,5.84,1,6.24s3-2.21,3.8-1.79-1.35,3.93,0,5.35c1.17,1.24,4.84.72,5.7-.89s-1.4-4.14-1-4.46c.61-.42,3.77,4.67,7.6,4.46,1.86-.1,3.76-1.44,3.81-2.67.06-1.83-3.91-3.39-3.81-3.57s4.72,3.13,7.61,1.78c1-.47,2.1-1.66,1.9-2.67-.62-3-16.16-5.35-16.16-5.35s2.71-14.54-1-16.93C185.46,813.61,182.62,814.06,181.25,815.47Z" transform="translate(-80.19 -150.82)"/><path class="cls-4" d="M225.92,665.76c-14.85,8.71-16.16,12.47-16.16,12.47-.14.4-.44,1.35-1,2.63a18.82,18.82,0,0,1-.89,1.83c-1.26,2.35-2.13,3.91-3.8,4.46a3.93,3.93,0,0,1-1.43.17,7.93,7.93,0,0,1-3.32-1.07c-2.51-1.31-2.75-3.06-5.65-6.12-.3-.32-.64-.66-1-1-2.13-2-2.15-1.85-2.85-2.68-4.23-5.06-3.1-11.88-2.85-13.37.69-4.19,2.75-8.19,3.8-8s.44,4,1.9,4.46c2.29.7,6.5-7.81,8.56-7.13,1.36.45.46,4.49,1.42,5.86a1,1,0,0,0,.48.38c2.21.84,5.7-5.35,11.4-7.13s3.81,1.78,3.81,1.78a17.5,17.5,0,0,1-6.66,8.91c-2.73,2.77-4,4.25-3.8,4.46s2.45-1.25,6.65-4.46c6.23-1.5,2.86-.89,7.61-.89S227.08,667.32,225.92,665.76Z" transform="translate(-80.19 -150.82)"/><path class="cls-3" d="M175.55,803.89a9.06,9.06,0,0,0,0,9.8,8.65,8.65,0,0,0,2.85,2.67,9.82,9.82,0,0,0,7.6.89c3.67-1.21,5-4.55,5.7-6.23.49-1.2,2.43-6,0-8.91C188.56,798.32,179,798.82,175.55,803.89Z" transform="translate(-80.19 -150.82)"/><path class="cls-4" d="M190.75,714.77c-1.65.92.75,4.29-.95,8-2.12,4.66-8.21,4.53-8.55,8-.19,1.92,1.48,3.67,2.85,4.46,3.53,2,8.08-.61,8.55-.89,5.71-3.42,3.81-16,3.81-16.94S192.09,714,190.75,714.77Z" transform="translate(-80.19 -150.82)"/><path class="cls-2" d="M162.24,815.47c-3.52,2.64.95,13.37,0,16.93a2,2,0,0,1,0,1.79c-.92,1.21-3.82-.5-7.61,0-3.21.42-7,2.43-7.6,5.34-.24,1.1-.17,2.93.95,3.57,2.44,1.39,8.46-3.69,8.56-3.57s-4.89,2.51-4.76,5.35a3.05,3.05,0,0,0,1.9,2.67c3.29,1.06,7.65-6.42,10.46-5.34,1.51.58,1.07,3.06,2.85,3.56a3.64,3.64,0,0,0,3.8-1.78c.88-1.74-.92-3.41,0-4.46s2.41.1,3.8-.89a3.57,3.57,0,0,0,1-4.45c-1.14-1.74-3.79-.43-5.71-1.79-4.2-3,2.22-13.8-1.9-16.93A5.29,5.29,0,0,0,162.24,815.47Z" transform="translate(-80.19 -150.82)"/><path class="cls-3" d="M135.63,771.81c-10.46-4.46-21.87.89-21.87.89s-17.1,4.45-20,11.58-3.22,12-1.9,12.48c.7.24,1.61-1.35,3.81-3.57,3.36-3.39,6.64-5.12,10.45-7.13a58.27,58.27,0,0,1,15.21-5.34c14.5-3,24,.38,24.71-1.78C146.66,777.2,146.08,776.26,135.63,771.81Z" transform="translate(-80.19 -150.82)"/><path class="cls-5" d="M138.48,778c-4.38-.14-10.44-.33-15.21,3.57-7.29,6-6.42,17.3-4.75,17.82.21.07.52,0,3.8-3.56,2.2-2.39,3.3-3.58,4.75-5.35,5.55-6.75,21.94-7.44,21.86-9.8C148.89,779.29,142.88,778.19,138.48,778Z" transform="translate(-80.19 -150.82)"/><path class="cls-5" d="M154.63,782.5c-1.9,1.78-7.78-15-20-20.5-20-9-47.85-2.15-53.22,9.81-1.27,2.82-1,8.91-1,8.91s8.55-5.35,4.75-3.57,34.22-13.36,46.57-5.34S147,782.5,146.08,783.39,156.54,780.72,154.63,782.5Z" transform="translate(-80.19 -150.82)"/><path class="cls-3" d="M135.63,788.74c-3-.87-6.16,1.15-7.61,2.67-5.42,5.71-.13,17.92,1.9,17.82,1,0,.39-2.71,2.85-7.12,3.15-5.65,7.19-6.89,6.66-9.81C139.09,790.47,137.16,789.18,135.63,788.74Z" transform="translate(-80.19 -150.82)"/><path class="cls-3" d="M220.12,779.44c-.2.84-.49,1.83-.85,3.06a29.31,29.31,0,0,1-8.56,13.37,32.24,32.24,0,0,1-8.08,5.09,44.09,44.09,0,0,1-18.53,3.82c-3.87-.07-9.51.89-8.55.89.46,0-.09,2.25-1.29,4.79s-3.06,5.48-5.18,6.68a1.18,1.18,0,0,1-.19.11c-2.24,1.17-4.81.5-6.65,0a8.48,8.48,0,0,1-1-.32c-6.23-2.38-9.45-10.46-9.45-12.15s1.53-1.59,1.9-1.78c11.93-6.13,23.77-12.48,20-11.59s-18.56,13.35-22.81,9.8c-1.12-.93-1-2.82-2.85-3.56-2.24-.9-4.53,1-5.7,0-1-.88.14-2.76-.95-3.57-.6-.43-1.34-.16-2.15,0a3.29,3.29,0,0,1-.7,0c-2.18-.09-4.67-2.78-5.62-5.41a6.07,6.07,0,0,1-.39-2,3.39,3.39,0,0,1,.3-1.47c1.26-2.57,5.86-1.57,12.74-2.63.18,0,.36-.07.55-.09,1.21-.21,2.48-.48,3.82-.84.91-.25,1.74-.52,2.54-.8,5.16-1.84,8.19-4.35,11.57-6.54l1.1-.68c10.84-6.53,25.87-7.74,37.54-6,9.18,1.4,16.28,4.66,17.59,8.62A5.62,5.62,0,0,1,220.12,779.44Z" transform="translate(-80.19 -150.82)"/><path class="cls-6" d="M194.55,718.34a.59.59,0,0,1,.31.09C194.41,718.37,194.27,718.34,194.55,718.34Z" transform="translate(-80.19 -150.82)"/><path class="cls-6" d="M223.07,781.61c-.88.24-1.86-.88-2.95-2.17-1.38-1.61-2.93-3.47-4.66-3.18-3.25.55-2.85,8.91-5.7,8s-1-4.92-2.85-5.34c-1.31-.32-2.78,1.91-4.28,3.79-1.11,1.42-2.24,2.63-3.32,2.44-2.53-.43-1.66-8-4.76-8.91-3.47-1-9.5,11.59-10.45,6.24s1.7-5.85,0-7.13c-2-1.51-8.55,6.24-9.51,2.67s2.36-4.07,1.91-4.45-2.19,2-4.76,2.67c-2.09.57-5.38-.68-7.75-2-2.18-1.2-3.6-2.46-2.7-2.46,1.9,0,15.32-5.48,25.66-18.72a33.37,33.37,0,0,0,6.65-13.37c.62-2.77,1.12-5.48,1.47-8,.82-5.87.92-10.66.26-12.53a1.52,1.52,0,0,0-.47-.77c.37.07,1,.14,1.7.21,1.58.18,3.83.39,6.07.56a47.6,47.6,0,0,0,7.63.18,1,1,0,0,0,.45-.15c.15-.15.21.09.22.64,0,1.21-.17,4-.13,7.64A60.76,60.76,0,0,0,213.56,746c2.8,8.4,6.64,8.48,9.51,18.72C225.38,772.93,225.17,781,223.07,781.61Z" transform="translate(-80.19 -150.82)"/><path class="cls-4" d="M225.92,732.59c-.28,2.13-4.28,4.11-7.6,3.57-4.83-.79-6.9-6.7-7.52-8.65,0-.1-.07-.19-.09-.26a16.45,16.45,0,0,1-.56-7.21c0-.23.07-.45.11-.66a17.27,17.27,0,0,1,.45-1.94,4.93,4.93,0,0,1,3.8-.89,3,3,0,0,1,1.81,1.37c1.25,1.93,1.64,5.52,4.85,9.33C223.88,730.46,226.13,730.93,225.92,732.59Z" transform="translate(-80.19 -150.82)"/><path class="cls-4" d="M230.69,699.27a27.19,27.19,0,0,1-5.46,11.62c-.09.11-.17.22-.26.32a27.26,27.26,0,0,1-8.65,6.71,25.81,25.81,0,0,1-5.39,2l-.78.17-.39.08a23.82,23.82,0,0,1-7.13.19c-1.72-.18-3.65-.49-6-.89l-1.13-.19-.17,0-5-.87c-6.61-1.2-10.37-2.18-12.92-4.45a16.19,16.19,0,0,1-3.82-5.17c-3.14-6.56-2.72-15.45,1.9-21.32a13,13,0,0,1,1-1.14c4.6-4.84,8.55-6.23,14.25-6.23,1.1,0,2,0,2.91.11,2.74.23,4.86.71,9,.82,1.46,0,3.16,0,5.23,0l.89,0c6.33-.34,8.55-1.41,12.42,0a16.05,16.05,0,0,1,7.6,6.24,12,12,0,0,1,.69,1.2A15,15,0,0,1,231,694,19.43,19.43,0,0,1,230.69,699.27Z" transform="translate(-80.19 -150.82)"/><path class="cls-7" d="M235.42,705a13,13,0,0,1-10.19,5.92,9.89,9.89,0,0,1-4.06-.57c-7.67-2.92-9.37-16.78-2.85-21.39,3.05-2.16,7.6-2.08,11.14-.58a10.35,10.35,0,0,1,1.21.58C236.22,692,238.87,699.31,235.42,705Z" transform="translate(-80.19 -150.82)"/><ellipse cx="148.11" cy="545.68" rx="3.8" ry="3.56"/><path class="cls-7" d="M179.35,686.25c5.79-.54,10.57,3.79,12.35,8,2.62,6.2-1.36,11.76-1.9,12.48-.91,1.23-3.84,5.17-8.55,5.35-6.22.23-10-6.3-10.46-7.13-.59-1-3.5-6.09-.95-11.59C170.07,692.88,173,686.85,179.35,686.25Z" transform="translate(-80.19 -150.82)"/><ellipse cx="95.83" cy="544.79" rx="3.8" ry="3.56"/><path class="cls-2" d="M204.06,699.62c3.89.37,6.31,5.31,6.65,8.91s-1.14,8.82-4.75,9.81c-4.15,1.13-10.13-3.56-10.46-8.92v-.19C195.35,704.75,199.77,699.22,204.06,699.62Z" transform="translate(-80.19 -150.82)"/><polygon points="116.74 559.05 120.23 559.98 123.21 562.32 126.2 559.98 130.18 559.05 125.7 559.05 123.21 560.45 120.72 559.05 116.74 559.05"/><path class="cls-8" d="M235.42,705a13,13,0,0,1-10.19,5.92c-.09.11-.17.22-.26.32a27.26,27.26,0,0,1-8.65,6.71c1.25,1.93,1.64,5.52,4.85,9.33,2.71,3.21,5,3.68,4.75,5.34-.28,2.13-4.28,4.11-7.6,3.57-4.83-.79-6.9-6.7-7.52-8.65A60.76,60.76,0,0,0,213.56,746c2.8,8.4,6.64,8.48,9.51,18.72,2.31,8.25,2.1,16.35,0,16.93-.88.24-1.86-.88-2.95-2.17-.2.84-.49,1.83-.85,3.06a29.31,29.31,0,0,1-8.56,13.37,32.24,32.24,0,0,1-8.08,5.09V658.25a1,1,0,0,0,.48.38c2.21.84,5.7-5.35,11.4-7.13s3.81,1.78,3.81,1.78a17.5,17.5,0,0,1-6.66,8.91c-2.73,2.77-4,4.25-3.8,4.46s2.45-1.25,6.65-4.46c6.23-1.5,2.86-.89,7.61-.89s5,6,3.8,4.46c-14.85,8.71-16.16,12.47-16.16,12.47-.14.4-.44,1.35-1,2.63,6.33-.34,8.55-1.41,12.42,0a16.05,16.05,0,0,1,7.6,6.24,12,12,0,0,1,.69,1.2,10.35,10.35,0,0,1,1.21.58C236.22,692,238.87,699.31,235.42,705Z" transform="translate(-80.19 -150.82)"/><ellipse class="cls-1" cx="94.41" cy="1189.71" rx="52.75" ry="8.47"/><path class="cls-2" d="M181.25,1316.47c-3.61,3.71,3.93,13.06,0,16.93-1.29,1.27-2.76.94-3.8,2.68-1.39,2.32-.51,5.84,1,6.24s3-2.21,3.8-1.79-1.35,3.93,0,5.35c1.17,1.24,4.84.72,5.7-.89s-1.4-4.14-1-4.46c.61-.42,3.77,4.67,7.6,4.46,1.86-.1,3.76-1.44,3.81-2.67.06-1.83-3.91-3.39-3.81-3.57s4.72,3.13,7.61,1.78c1-.47,2.1-1.66,1.9-2.67-.62-3-16.16-5.35-16.16-5.35s2.71-14.54-1-16.93C185.46,1314.61,182.62,1315.06,181.25,1316.47Z" transform="translate(-80.19 -150.82)"/><path class="cls-3" d="M175.55,1304.89a9.06,9.06,0,0,0,0,9.8,8.65,8.65,0,0,0,2.85,2.67,9.82,9.82,0,0,0,7.6.89c3.67-1.21,5-4.55,5.7-6.23.49-1.2,2.43-6,0-8.91C188.56,1299.32,179,1299.82,175.55,1304.89Z" transform="translate(-80.19 -150.82)"/><path class="cls-2" d="M162.24,1316.47c-3.52,2.64.95,13.37,0,16.93a2,2,0,0,1,0,1.79c-.92,1.21-3.82-.5-7.61,0-3.21.42-7,2.43-7.6,5.34-.24,1.1-.17,2.93.95,3.57,2.44,1.39,8.46-3.69,8.56-3.57s-4.89,2.51-4.76,5.35a3.05,3.05,0,0,0,1.9,2.67c3.29,1.06,7.65-6.42,10.46-5.34,1.51.58,1.07,3.06,2.85,3.56a3.64,3.64,0,0,0,3.8-1.78c.88-1.74-.92-3.41,0-4.46s2.41.1,3.8-.89a3.57,3.57,0,0,0,1-4.45c-1.14-1.74-3.79-.43-5.71-1.79-4.2-3,2.22-13.8-1.9-16.93A5.29,5.29,0,0,0,162.24,1316.47Z" transform="translate(-80.19 -150.82)"/><path class="cls-3" d="M135.63,1272.81c-10.46-4.46-21.87.89-21.87.89s-17.1,4.45-20,11.58-3.22,12-1.9,12.48c.7.24,1.61-1.35,3.81-3.57,3.36-3.39,6.64-5.12,10.45-7.13a58.27,58.27,0,0,1,15.21-5.34c14.5-3,24,.38,24.71-1.78C146.66,1278.2,146.08,1277.26,135.63,1272.81Z" transform="translate(-80.19 -150.82)"/><path class="cls-5" d="M138.48,1279c-4.38-.14-10.44-.33-15.21,3.57-7.29,6-6.42,17.3-4.75,17.82.21.07.52,0,3.8-3.56,2.2-2.39,3.3-3.58,4.75-5.35,5.55-6.75,21.94-7.44,21.86-9.8C148.89,1280.29,142.88,1279.19,138.48,1279Z" transform="translate(-80.19 -150.82)"/><path class="cls-5" d="M154.63,1283.5c-1.9,1.78-7.78-15-20-20.5-20-9-47.85-2.15-53.22,9.81-1.27,2.82-1,8.91-1,8.91s8.55-5.35,4.75-3.57,34.22-13.36,46.57-5.34,15.21,10.69,14.26,11.58S156.54,1281.72,154.63,1283.5Z" transform="translate(-80.19 -150.82)"/><path class="cls-3" d="M135.63,1289.74c-3-.87-6.16,1.15-7.61,2.67-5.42,5.71-.13,17.92,1.9,17.82,1,0,.39-2.71,2.85-7.12,3.15-5.65,7.19-6.89,6.66-9.81C139.09,1291.47,137.16,1290.18,135.63,1289.74Z" transform="translate(-80.19 -150.82)"/><path class="cls-3" d="M220.12,1280.44c-.2.84-.49,1.83-.85,3.06a29.31,29.31,0,0,1-8.56,13.37,31.27,31.27,0,0,1-6.71,4.44c-.33.17-.66.33-1,.48l-.37.17a44.09,44.09,0,0,1-18.53,3.82c-3.87-.07-9.51.89-8.55.89.46,0-.09,2.24-1.28,4.78h0c-1.21,2.58-3,5.47-5.17,6.67h0a1.18,1.18,0,0,1-.19.11c-2.24,1.17-4.81.5-6.65,0a8.48,8.48,0,0,1-1-.32c-6.23-2.38-9.45-10.46-9.45-12.15s1.53-1.59,1.9-1.78c11.93-6.13,23.77-12.48,20-11.59s-18.56,13.35-22.81,9.8c-1.12-.93-1-2.82-2.85-3.56-2.24-.9-4.53,1-5.7,0-1-.88.14-2.76-.95-3.57-.6-.43-1.34-.16-2.15,0h0a3.2,3.2,0,0,1-.69,0c-2.18-.09-4.67-2.78-5.62-5.41h0a6,6,0,0,1-.39-2,3.39,3.39,0,0,1,.3-1.47c1.26-2.57,5.86-1.57,12.74-2.63.18,0,.36-.07.55-.09,1.21-.21,2.48-.48,3.82-.84.91-.25,1.74-.52,2.54-.8,5.16-1.84,8.19-4.35,11.57-6.54l1.1-.68c10.84-6.53,25.87-7.74,37.54-5.95l.37.06,1,.17c8.51,1.5,15,4.63,16.22,8.39A5.62,5.62,0,0,1,220.12,1280.44Z" transform="translate(-80.19 -150.82)"/><path class="cls-6" d="M223.07,1282.61c-.88.24-1.86-.88-2.95-2.17-1.38-1.61-2.93-3.47-4.66-3.18-3.25.55-2.85,8.91-5.7,8s-1-4.92-2.85-5.34c-.91-.22-1.89.78-2.91,2-.33.41-.67.85-1,1.28l-.37.47c-1.11,1.42-2.24,2.63-3.32,2.44-2.53-.43-1.66-8-4.76-8.91-3.47-1-9.5,11.59-10.45,6.24s1.7-5.85,0-7.13c-2-1.51-8.55,6.24-9.51,2.67s2.36-4.07,1.91-4.45-2.19,2-4.76,2.67c-2.09.57-5.38-.68-7.75-2-2.18-1.2-3.6-2.46-2.7-2.46,1.9,0,15.32-5.48,25.66-18.72a33.37,33.37,0,0,0,6.65-13.37c.62-2.77,1.12-5.48,1.47-8a55.24,55.24,0,0,0,.65-10,9.39,9.39,0,0,0-.39-2.57,1.52,1.52,0,0,0-.47-.77c.37.07,1,.14,1.7.21,1.58.18,3.83.39,6.07.56l.37,0,.49,0,.51,0c2.26.14,4.36.22,5.61.15.26,0,.47,0,.65-.07a1,1,0,0,0,.45-.15c.15-.15.21.09.22.64s0,1,0,1.66c0,.3,0,.63,0,1,0,1.35-.09,3-.07,5a69,69,0,0,0,.72,9.67,51.59,51.59,0,0,0,2,8.78c2.8,8.4,6.64,8.48,9.51,18.72C225.38,1273.93,225.17,1282,223.07,1282.61Z" transform="translate(-80.19 -150.82)"/><path class="cls-9" d="M223.07,1282.61c-.88.24-1.86-.88-2.95-2.17-.2.84-.49,1.83-.85,3.06a29.31,29.31,0,0,1-8.56,13.37,31.27,31.27,0,0,1-6.71,4.44v-81c2.26.14,4.36.22,5.61.15.26,0,.47,0,.65-.07a1,1,0,0,0,.45-.15c.15-.15.21.09.22.64s0,1,0,1.66c0,.3,0,.63,0,1,0,1.35-.09,3-.07,5a69,69,0,0,0,.72,9.67,51.59,51.59,0,0,0,2,8.78c2.8,8.4,6.64,8.48,9.51,18.72C225.38,1273.93,225.17,1282,223.07,1282.61Z" transform="translate(-80.19 -150.82)"/><path class="cls-10" d="M239.88,1210.56l-15.4.67-2.89.12.93-4.2.47-2.1,3.39,1.14,5.69,1.91,4.52,1.51,3.33.74C240,1210.37,240,1210.55,239.88,1210.56Z" transform="translate(-80.19 -150.82)"/><path class="cls-2" d="M242.82,1209.64l-3.83-.86-6.92-.68-6-.6-3.51-.35.47-2.1,1.41-6.3,2.58,1.48,15.91,9.13C243,1209.41,242.92,1209.66,242.82,1209.64Z" transform="translate(-80.19 -150.82)"/><path class="cls-4" d="M227,1201a21.63,21.63,0,0,1-.62,5.19c-.1.44-.22.88-.35,1.31a21.09,21.09,0,0,1-1.55,3.73,22.06,22.06,0,0,1-11.57,10.3l-.36.15A22.23,22.23,0,0,1,205,1223h0a22,22,0,1,1,22-22.77C227,1200.48,227,1200.74,227,1201Z" transform="translate(-80.19 -150.82)"/><path class="cls-4" d="M230.92,1169.76c-11.14,6.53-14.66,10.28-15.72,11.75a3.28,3.28,0,0,0-.44.72c-.14.4-.44,1.35-1,2.63a15.14,15.14,0,0,1-.68,1.44l-.21.39c-1.26,2.35-2.13,3.91-3.8,4.46a3.93,3.93,0,0,1-1.43.17,7,7,0,0,1-2.63-.72l-.69-.35a7.69,7.69,0,0,1-2.78-2.54,31.69,31.69,0,0,0-2.87-3.58c-.3-.32-.64-.66-1-1-1.29-1.23-1.81-1.65-2.17-2a5.9,5.9,0,0,1-.68-.71c-4.23-5.06-3.1-11.88-2.85-13.37.69-4.19,2.75-8.19,3.8-8s.44,4,1.9,4.46c1.9.58,5.13-5.2,7.35-6.78a1.42,1.42,0,0,1,1.21-.35c1.36.45.46,4.49,1.42,5.86a1,1,0,0,0,.48.38c2.21.84,5.7-5.35,11.4-7.13s3.81,1.78,3.81,1.78a17.5,17.5,0,0,1-6.66,8.91c-2.73,2.77-4,4.25-3.8,4.46s2.45-1.25,6.65-4.46c6.23-1.5,2.86-.89,7.61-.89S232.08,1171.32,230.92,1169.76Z" transform="translate(-80.19 -150.82)"/><path class="cls-4" d="M220.92,1233.59c-.27,2.09-4.12,4-7.4,3.59l-.2,0c-4.83-.79-6.9-6.7-7.52-8.65,0-.1-.07-.19-.09-.26a15.64,15.64,0,0,1-.71-4.07c0-.41,0-.8,0-1.18,0-.12,0-.24,0-.35,0-.57.08-1.11.15-1.61,0-.23.07-.45.11-.66.07-.41.15-.78.23-1.12s.15-.58.22-.82a4.93,4.93,0,0,1,3.8-.89,3.46,3.46,0,0,1,2.1,1.9,18.74,18.74,0,0,1,.94,2.23l.32.84a19.34,19.34,0,0,0,3.3,5.73C218.88,1231.46,221.13,1231.93,220.92,1233.59Z" transform="translate(-80.19 -150.82)"/><path class="cls-7" d="M207.35,1185.25c5.79-.54,10.57,3.79,12.35,8,2.62,6.2-1.36,11.76-1.9,12.48-.91,1.23-3.84,5.17-8.55,5.35-6.22.23-10-6.3-10.46-7.13-.59-1-3.5-6.09-.95-11.59C198.07,1191.88,201,1185.85,207.35,1185.25Z" transform="translate(-80.19 -150.82)"/><ellipse cx="131.83" cy="1044.79" rx="3.8" ry="3.56"/><ellipse class="cls-1" cx="443.41" cy="1189.71" rx="52.75" ry="8.47"/><path class="cls-2" d="M530.25,1316.47c-3.61,3.71,3.93,13.06,0,16.93-1.29,1.27-2.76.94-3.8,2.68-1.39,2.32-.51,5.84.95,6.24s3-2.21,3.8-1.79-1.35,3.93,0,5.35c1.17,1.24,4.84.72,5.7-.89s-1.4-4.14-.95-4.46c.61-.42,3.77,4.67,7.6,4.46,1.86-.1,3.76-1.44,3.81-2.67.06-1.83-3.91-3.39-3.81-3.57s4.72,3.13,7.61,1.78c1-.47,2.1-1.66,1.9-2.67-.62-3-16.16-5.35-16.16-5.35s2.71-14.54-.95-16.93C534.46,1314.61,531.62,1315.06,530.25,1316.47Z" transform="translate(-80.19 -150.82)"/><path class="cls-3" d="M524.55,1304.89a9.06,9.06,0,0,0,0,9.8,8.65,8.65,0,0,0,2.85,2.67,9.82,9.82,0,0,0,7.6.89c3.67-1.21,5-4.55,5.7-6.23.49-1.2,2.43-6,0-8.91C537.56,1299.32,528,1299.82,524.55,1304.89Z" transform="translate(-80.19 -150.82)"/><path class="cls-2" d="M511.24,1316.47c-3.52,2.64,1,13.37,0,16.93a2,2,0,0,1,0,1.79c-.92,1.21-3.82-.5-7.61,0-3.21.42-7,2.43-7.6,5.34-.24,1.1-.17,2.93,1,3.57,2.44,1.39,8.46-3.69,8.56-3.57s-4.89,2.51-4.76,5.35a3.05,3.05,0,0,0,1.9,2.67c3.29,1.06,7.65-6.42,10.46-5.34,1.51.58,1.07,3.06,2.85,3.56a3.64,3.64,0,0,0,3.8-1.78c.88-1.74-.92-3.41,0-4.46s2.41.1,3.8-.89a3.57,3.57,0,0,0,1-4.45c-1.14-1.74-3.79-.43-5.71-1.79-4.2-3,2.22-13.8-1.9-16.93A5.29,5.29,0,0,0,511.24,1316.47Z" transform="translate(-80.19 -150.82)"/><path class="cls-3" d="M484.63,1272.81c-10.46-4.46-21.87.89-21.87.89s-17.1,4.45-20,11.58-3.22,12-1.9,12.48c.7.24,1.61-1.35,3.81-3.57,3.36-3.39,6.64-5.12,10.45-7.13a58.27,58.27,0,0,1,15.21-5.34c14.5-3,24,.38,24.71-1.78C495.66,1278.2,495.08,1277.26,484.63,1272.81Z" transform="translate(-80.19 -150.82)"/><path class="cls-5" d="M487.48,1279c-4.38-.14-10.44-.33-15.21,3.57-7.29,6-6.42,17.3-4.75,17.82.21.07.52,0,3.8-3.56,2.2-2.39,3.3-3.58,4.75-5.35,5.55-6.75,21.94-7.44,21.86-9.8C497.89,1280.29,491.88,1279.19,487.48,1279Z" transform="translate(-80.19 -150.82)"/><path class="cls-5" d="M503.63,1283.5c-1.9,1.78-7.78-15-20-20.5-20-9-47.85-2.15-53.22,9.81-1.27,2.82-.95,8.91-.95,8.91s8.55-5.35,4.75-3.57,34.22-13.36,46.57-5.34,15.21,10.69,14.26,11.58S505.54,1281.72,503.63,1283.5Z" transform="translate(-80.19 -150.82)"/><path class="cls-3" d="M484.63,1289.74c-3-.87-6.16,1.15-7.61,2.67-5.42,5.71-.13,17.92,1.9,17.82.95,0,.39-2.71,2.85-7.12,3.15-5.65,7.19-6.89,6.66-9.81C488.09,1291.47,486.16,1290.18,484.63,1289.74Z" transform="translate(-80.19 -150.82)"/><path class="cls-3" d="M569.12,1280.44c-.2.84-.49,1.83-.85,3.06a29.31,29.31,0,0,1-8.56,13.37,31.27,31.27,0,0,1-6.71,4.44c-.33.17-.66.33-1,.48l-.37.17a44.09,44.09,0,0,1-18.53,3.82c-3.87-.07-9.51.89-8.55.89.46,0-.09,2.24-1.28,4.78h0c-1.21,2.58-3,5.47-5.17,6.67h0a1.18,1.18,0,0,1-.19.11c-2.24,1.17-4.81.5-6.65,0a8.48,8.48,0,0,1-1-.32c-6.23-2.38-9.45-10.46-9.45-12.15s1.53-1.59,1.9-1.78c11.93-6.13,23.77-12.48,20-11.59s-18.56,13.35-22.81,9.8c-1.12-.93-1-2.82-2.85-3.56-2.24-.9-4.53,1-5.7,0-1-.88.14-2.76-.95-3.57-.6-.43-1.34-.16-2.15,0h0a3.2,3.2,0,0,1-.69,0c-2.18-.09-4.67-2.78-5.62-5.41h0a6,6,0,0,1-.39-2,3.39,3.39,0,0,1,.3-1.47c1.26-2.57,5.86-1.57,12.74-2.63.18,0,.36-.07.55-.09,1.21-.21,2.48-.48,3.82-.84.91-.25,1.74-.52,2.54-.8,5.16-1.84,8.19-4.35,11.57-6.54l1.1-.68c10.84-6.53,25.87-7.74,37.54-5.95l.37.06,1,.17c8.51,1.5,15,4.63,16.22,8.39A5.62,5.62,0,0,1,569.12,1280.44Z" transform="translate(-80.19 -150.82)"/><path class="cls-6" d="M562,1299c-.88-.21-1.2-1.67-1.52-3.33-.43-2.07-.89-4.45-2.54-5-3.11-1.1-6.81,6.41-8.87,4.25s1.47-4.81.09-6.05c-.69-.64-2-.24-3.53.37l-1.5.64-.55.23c-1.66.7-3.23,1.21-4.09.52-2-1.6,2.41-7.77.16-10.1-2.53-2.6-13.93,5.54-12.17.4s4.32-4.29,3.46-6.24c-1-2.29-10.51,1.32-9.62-2.27s4-2.42,3.83-3-2.87.67-5.46,0c-2.1-.51-4.37-3.2-5.81-5.49-1.33-2.11-2-3.9-1.17-3.46,1.66.92,16.06,2.62,31.52-4a33.25,33.25,0,0,0,12.29-8.47c1.89-2.12,3.64-4.25,5.16-6.28a54.56,54.56,0,0,0,5.39-8.4A9.52,9.52,0,0,0,568,1231a1.52,1.52,0,0,0,0-.9c.29.24.77.58,1.38,1,1.3.93,3.17,2.2,5,3.43l.31.21.42.26.42.28a54.31,54.31,0,0,0,4.84,2.85,6.43,6.43,0,0,0,.6.26.94.94,0,0,0,.47.08c.2,0,.14.19-.12.67s-.47.84-.82,1.44c-.16.26-.33.55-.52.85-.69,1.16-1.55,2.62-2.48,4.33a68.31,68.31,0,0,0-4,8.81,51.86,51.86,0,0,0-2.47,8.67c-1.62,8.7,1.7,10.63-.75,21C568.27,1292.54,564.16,1299.52,562,1299Z" transform="translate(-80.19 -150.82)"/><path class="cls-9" d="M562,1299c-.88-.21-1.2-1.67-1.52-3.33-.59.64-1.32,1.37-2.23,2.27a29.38,29.38,0,0,1-14,7.55,31.33,31.33,0,0,1-8,.63l39.25-70.87a54.31,54.31,0,0,0,4.84,2.85,6.43,6.43,0,0,0,.6.26.94.94,0,0,0,.47.08c.2,0,.14.19-.12.67s-.47.84-.82,1.44c-.16.26-.33.55-.52.85-.69,1.16-1.55,2.62-2.48,4.33a68.31,68.31,0,0,0-4,8.81,51.86,51.86,0,0,0-2.47,8.67c-1.62,8.7,1.7,10.63-.75,21C568.27,1292.54,564.16,1299.52,562,1299Z" transform="translate(-80.19 -150.82)"/><path class="cls-10" d="M611.66,1244.13l-13.8-6.88-2.58-1.29,2.85-3.23,1.42-1.6,2.42,2.64,4,4.42,3.22,3.51,2.56,2.26C611.86,1244,611.74,1244.16,611.66,1244.13Z" transform="translate(-80.19 -150.82)"/><path class="cls-2" d="M614.68,1244.75l-2.94-2.61-5.72-4-5-3.45-2.9-2,1.42-1.6,4.29-4.83,1.54,2.54,9.49,15.7C614.93,1244.63,614.75,1244.81,614.68,1244.75Z" transform="translate(-80.19 -150.82)"/><path class="cls-4" d="M605,1229.53a21.79,21.79,0,0,1-3,4.24c-.3.33-.62.66-.94,1a20,20,0,0,1-3.17,2.51,22,22,0,0,1-15.11,3.41l-.39-.05a22.13,22.13,0,0,1-7.24-2.5h0a22,22,0,1,1,21.33-38.49,21.63,21.63,0,0,1,7.7,7.14,21.93,21.93,0,0,1,1.24,22.08A7.59,7.59,0,0,1,605,1229.53Z" transform="translate(-80.19 -150.82)"/><path class="cls-4" d="M623.59,1204.1c-12.91.31-17.81,1.89-19.45,2.66a3,3,0,0,0-.73.42c-.32.28-1,1-2.16,1.81-.37.3-.81.61-1.29.93l-.37.24c-2.24,1.44-3.76,2.38-5.49,2.06a3.82,3.82,0,0,1-1.33-.55,6.82,6.82,0,0,1-1.95-1.9c-.18-.25-.32-.46-.44-.64a7.78,7.78,0,0,1-1.2-3.57,30.34,30.34,0,0,0-.77-4.52c-.11-.43-.24-.89-.4-1.37-.54-1.7-.79-2.32-1-2.77a6.76,6.76,0,0,1-.25-1c-1.25-6.48,3.05-11.9,4-13.08,2.63-3.33,6.37-5.83,7.21-5.17s-1.56,3.71-.5,4.82c1.38,1.43,7-2.07,9.71-2.37a1.42,1.42,0,0,1,1.23.28c1,1-1.77,4.15-1.6,5.81a1.16,1.16,0,0,0,.24.57c1.53,1.8,7.58-1.92,13.43-.72s2.47,3.41,2.47,3.41a17.49,17.49,0,0,1-10.15,4.56c-3.73,1.1-5.55,1.78-5.48,2.06s2.75.1,8-.67c6.17,1.7,2.93.6,7.09,2.9S623.85,1206,623.59,1204.1Z" transform="translate(-80.19 -150.82)"/><path class="cls-4" d="M583.91,1255.09c-1.24,1.7-5.55,1.53-8.21-.45a.91.91,0,0,1-.16-.11c-3.85-3-2.79-9.2-2.39-11.21a1.46,1.46,0,0,1,.05-.27,15.62,15.62,0,0,1,1.35-3.91c.18-.36.37-.71.56-1l.18-.3c.3-.49.61-.94.91-1.34.14-.19.28-.36.42-.52.26-.33.51-.61.74-.87s.41-.44.59-.61a4.94,4.94,0,0,1,3.76,1.06,3,3,0,0,1,.91,2.07,3.11,3.11,0,0,1,0,.61,17.64,17.64,0,0,1-.26,2.4l-.12.89a19.29,19.29,0,0,0,.11,6.62C583.16,1252.24,584.9,1253.74,583.91,1255.09Z" transform="translate(-80.19 -150.82)"/><path class="cls-7" d="M595.46,1206.23c5.33,2.33,7.41,8.43,6.92,13-.71,6.69-6.89,9.62-7.7,10-1.39.63-5.87,2.66-10.08.53-5.55-2.81-5.67-10.34-5.69-11.3,0-1.19-.11-7,4.78-10.6C584.14,1207.54,589.61,1203.68,595.46,1206.23Z" transform="translate(-80.19 -150.82)"/><ellipse cx="594.53" cy="1217.55" rx="3.56" ry="3.8" transform="translate(-838.81 996.89) rotate(-61.02)"/><ellipse class="cls-1" cx="793.41" cy="1189.71" rx="52.75" ry="8.47"/><path class="cls-2" d="M880.25,1316.47c-3.61,3.71,3.93,13.06,0,16.93-1.29,1.27-2.76.94-3.8,2.68-1.39,2.32-.51,5.84.95,6.24s3-2.21,3.8-1.79-1.35,3.93,0,5.35c1.17,1.24,4.84.72,5.7-.89s-1.4-4.14-.95-4.46c.61-.42,3.77,4.67,7.6,4.46,1.86-.1,3.76-1.44,3.81-2.67.06-1.83-3.91-3.39-3.81-3.57s4.72,3.13,7.61,1.78c1-.47,2.1-1.66,1.9-2.67-.62-3-16.16-5.35-16.16-5.35s2.71-14.54-.95-16.93C884.46,1314.61,881.62,1315.06,880.25,1316.47Z" transform="translate(-80.19 -150.82)"/><path class="cls-3" d="M872.58,1307.62a9.06,9.06,0,0,0-1.11,9.74,8.89,8.89,0,0,0,2.53,3,9.87,9.87,0,0,0,7.46,1.74c3.78-.8,5.5-4,6.37-5.55.62-1.14,3.09-5.68,1-8.86C886.14,1303.56,876.6,1303,872.58,1307.62Z" transform="translate(-80.19 -150.82)"/><path class="cls-2" d="M861.24,1316.47c-3.52,2.64,1,13.37,0,16.93a2,2,0,0,1,0,1.79c-.92,1.21-3.82-.5-7.61,0-3.21.42-7,2.43-7.6,5.34-.24,1.1-.17,2.93,1,3.57,2.44,1.39,8.46-3.69,8.56-3.57s-4.89,2.51-4.76,5.35a3.05,3.05,0,0,0,1.9,2.67c3.29,1.06,7.65-6.42,10.46-5.34,1.51.58,1.07,3.06,2.85,3.56a3.64,3.64,0,0,0,3.8-1.78c.88-1.74-.92-3.41,0-4.46s2.41.1,3.8-.89a3.57,3.57,0,0,0,1-4.45c-1.14-1.74-3.79-.43-5.71-1.79-4.2-3,2.22-13.8-1.9-16.93A5.29,5.29,0,0,0,861.24,1316.47Z" transform="translate(-80.19 -150.82)"/><path class="cls-3" d="M836.54,1271.24c-9.89-5.61-21.82-1.59-21.82-1.59s-17.51,2.5-21.14,9.26-4.56,11.59-3.3,12.18c.67.32,1.75-1.16,4.18-3.11,3.73-3,7.17-4.34,11.19-5.9a57.92,57.92,0,0,1,15.71-3.6c14.75-1.35,23.8,3.09,24.76,1C846.89,1277.84,846.42,1276.84,836.54,1271.24Z" transform="translate(-80.19 -150.82)"/><path class="cls-5" d="M838.67,1277.76c-4.34-.64-10.34-1.52-15.52,1.82-7.91,5.11-8.32,16.46-6.73,17.17.2.1.52,0,4.18-3.11,2.45-2.12,3.68-3.18,5.32-4.77,6.28-6.09,22.64-4.92,22.83-7.28C848.87,1280.17,843,1278.4,838.67,1277.76Z" transform="translate(-80.19 -150.82)"/><path class="cls-5" d="M854.22,1284c-2.09,1.55-6-15.84-17.52-22.62-18.89-11.16-47.31-7.54-54,3.73-1.58,2.66-2,8.75-2,8.75s9.1-4.35,5.12-3,35.51-9.42,46.88,0,13.9,12.34,12.86,13.12S856.31,1282.45,854.22,1284Z" transform="translate(-80.19 -150.82)"/><path class="cls-3" d="M834.63,1288.06c-2.92-1.2-6.25.45-7.86,1.8-6,5.06-2.15,17.79-.13,17.92,1,.06.7-2.65,3.64-6.76,3.77-5.25,7.92-6,7.72-9C837.87,1290.17,836.1,1288.67,834.63,1288.06Z" transform="translate(-80.19 -150.82)"/><path class="cls-3" d="M919.89,1290c-.32.8-.75,1.74-1.29,2.9a29.41,29.41,0,0,1-10.47,11.93,31.19,31.19,0,0,1-7.3,3.39c-.35.12-.7.23-1.06.32-.13,0-.27.07-.39.12a44.29,44.29,0,0,1-18.9,1c-3.81-.65-9.53-.55-8.58-.41.45.07-.43,2.21-2,4.54h0c-1.58,2.37-3.83,5-6.11,5.82h0a.72.72,0,0,1-.2.09c-2.39.82-4.83-.23-6.58-1a8.38,8.38,0,0,1-1-.47c-5.8-3.29-7.77-11.76-7.52-13.43s1.75-1.34,2.14-1.47c12.72-4.28,25.38-8.78,21.48-8.47s-20.36,10.42-24,6.27c-1-1.09-.56-2.94-2.28-4-2.08-1.22-4.63.33-5.64-.85-.86-1,.56-2.71-.4-3.67-.53-.52-1.3-.36-2.12-.37h0a3.22,3.22,0,0,1-.69-.06c-2.14-.42-4.2-3.45-4.74-6.19h0a6,6,0,0,1-.08-2.06,3.36,3.36,0,0,1,.51-1.41c1.63-2.35,6-.67,13-.69h.56c1.23,0,2.52-.11,3.9-.26.94-.11,1.8-.25,2.63-.41,5.38-1,8.75-3.08,12.42-4.73.39-.18.79-.35,1.19-.51,11.7-4.83,26.74-3.78,38-.26l.36.12,1,.31c8.19,2.76,14.12,6.83,14.78,10.73A5.67,5.67,0,0,1,919.89,1290Z" transform="translate(-80.19 -150.82)"/><path class="cls-6" d="M878.27,1305.43c0-.91,1.28-1.61,2.79-2.37,1.89-1,4.06-2,4.17-3.8.22-3.29-8-4.83-6.48-7.4s5,.13,5.85-1.53c.43-.84-.32-2-1.31-3.31l-1-1.27c-.13-.15-.25-.31-.37-.47-1.13-1.4-2-2.78-1.61-3.79,1-2.36,8.14.23,9.77-2.57,1.82-3.13-9.08-11.92-3.65-11.61s5.3,3,6.93,1.65c1.94-1.6-4.09-9.76-.39-9.87s3.41,3.24,3.88,2.89-1.42-2.59-1.49-5.25c-.07-2.17,1.9-5.08,3.73-7.08,1.67-1.84,3.22-2.93,3-2.06-.44,1.85,1.79,16.17,12.28,29.3a33.51,33.51,0,0,0,11.47,9.56c2.55,1.24,5.07,2.36,7.43,3.28a55.8,55.8,0,0,0,9.54,2.93,9.27,9.27,0,0,0,2.59.22,1.53,1.53,0,0,0,.86-.28c-.15.34-.36.9-.6,1.6-.54,1.5-1.26,3.64-1.95,5.78,0,.11-.07.24-.11.35s-.1.32-.14.47-.1.33-.16.49a56,56,0,0,0-1.44,5.42c0,.26-.07.47-.09.65a1,1,0,0,0,.05.47c.11.18-.14.19-.68.07s-.93-.22-1.61-.4l-.95-.27c-1.31-.35-2.94-.79-4.84-1.22a69.52,69.52,0,0,0-9.57-1.54,52.09,52.09,0,0,0-9,0c-8.82.78-9.78,4.5-20.41,4.93C886.18,1309.68,878.35,1307.61,878.27,1305.43Z" transform="translate(-80.19 -150.82)"/><path class="cls-1" d="M943.7,1300a2.07,2.07,0,0,1-.1.33c-.05.17-.1.32-.14.47s-.1.33-.16.49a56,56,0,0,0-1.44,5.42c0,.26-.07.47-.09.65a1,1,0,0,0,.05.47c.11.18-.14.19-.68.07s-.93-.22-1.61-.4l-.95-.27c-1.31-.35-2.94-.79-4.84-1.22a69.52,69.52,0,0,0-9.57-1.54,52.09,52.09,0,0,0-9,0c-8.82.78-9.78,4.5-20.41,4.93-8.56.33-16.39-1.74-16.47-3.92,0-.91,1.28-1.61,2.79-2.37s3.42-1.73,4-3.06Z" transform="translate(-80.19 -150.82)"/><path class="cls-10" d="M944.48,1338.45l2.91-15.14.55-2.84,3.87,1.88,1.93.94-1.89,3-3.17,5.09-2.52,4-1.49,3.07C944.63,1338.61,944.47,1338.54,944.48,1338.45Z" transform="translate(-80.19 -150.82)"/><path class="cls-2" d="M944.69,1341.52l1.72-3.52,2.27-6.58,2-5.74,1.15-3.33,1.93.94,5.81,2.83-2,2.17L945,1341.66C944.88,1341.73,944.65,1341.62,944.69,1341.52Z" transform="translate(-80.19 -150.82)"/><path class="cls-4" d="M956.76,1328.13a21.45,21.45,0,0,1-4.91-1.8c-.4-.2-.8-.42-1.19-.65a20.37,20.37,0,0,1-3.27-2.37,22.11,22.11,0,0,1-7.35-13.64l-.06-.38a22.33,22.33,0,0,1,.46-7.65h0a22,22,0,1,1,42.81,10.19,21.74,21.74,0,0,1-4.8,9.34,22,22,0,0,1-20.94,7.13C957.26,1328.25,957,1328.19,956.76,1328.13Z" transform="translate(-80.19 -150.82)"/><path class="cls-4" d="M986.24,1339.17c-3.77-12.35-6.61-16.64-7.79-18a4,4,0,0,0-.6-.6,26.88,26.88,0,0,1-2.33-1.59,15.76,15.76,0,0,1-1.24-1l-.33-.3c-2-1.77-3.31-3-3.46-4.72a4,4,0,0,1,.16-1.44,7.07,7.07,0,0,1,1.31-2.39l.5-.59a7.73,7.73,0,0,1,3.12-2.11,31.7,31.7,0,0,0,4.14-2c.38-.22.79-.47,1.21-.75,1.5-1,2-1.38,2.42-1.66a6.22,6.22,0,0,1,.85-.49c5.9-3,12.27-.27,13.66.32,3.92,1.64,7.34,4.57,6.93,5.55s-4-.5-4.78.82c-1,1.71,3.87,6.19,4.89,8.71a1.45,1.45,0,0,1,.07,1.26c-.76,1.22-4.48-.59-6,0a1,1,0,0,0-.48.38c-1.33,1.95,3.88,6.78,4.29,12.74s-2.61,3.29-2.61,3.29a17.54,17.54,0,0,1-7.13-8.54q-3.09-4.93-3.46-4.73c-.29.18.65,2.68,2.8,7.51,0,6.4.21,3-.89,7.61S984.46,1339.94,986.24,1339.17Z" transform="translate(-80.19 -150.82)"/><path class="cls-4" d="M926.46,1314.68c-2-.75-3-4.94-1.78-8a1.06,1.06,0,0,1,.06-.19c1.89-4.52,8.12-5.17,10.16-5.32l.27,0a15.55,15.55,0,0,1,4.12.26,11.5,11.5,0,0,1,1.15.26,2.79,2.79,0,0,1,.34.09,16.07,16.07,0,0,1,1.53.52c.22.08.43.17.62.26.38.16.72.32,1,.48l.74.4a4.93,4.93,0,0,1,0,3.91,3,3,0,0,1-1.75,1.44,2.76,2.76,0,0,1-.58.16,19.14,19.14,0,0,1-2.39.4l-.89.12a19,19,0,0,0-6.34,1.88C929,1313.18,928,1315.26,926.46,1314.68Z" transform="translate(-80.19 -150.82)"/><path class="cls-7" d="M976.62,1312.65c-.81,5.76-6.13,9.41-10.66,10.17-6.64,1.11-11.12-4-11.7-4.74-1-1.17-4.14-4.93-3.22-9.56,1.21-6.1,8.43-8.25,9.35-8.52,1.14-.34,6.74-2,11.49,1.76C972.32,1302.1,977.51,1306.33,976.62,1312.65Z" transform="translate(-80.19 -150.82)"/><ellipse cx="965.46" cy="1314.8" rx="3.8" ry="3.56" transform="translate(-617.2 1799.13) rotate(-76.63)"/></svg>
