<svg id="Layer_4" data-name="Layer 4" xmlns="http://www.w3.org/2000/svg" viewBox="0 0 156.54 197.04"><defs><style>.cls-1{opacity:0.3;}.cls-2{fill:#fbb03b;}.cls-3{fill:#e9190f;}.cls-4{fill:#0a4908;}.cls-5{fill:#070e8c;}.cls-6{fill:#fe4e00;}.cls-7{fill:#fff;}.cls-8{opacity:0.15;}</style></defs><title>chicken</title><ellipse class="cls-1" cx="94.15" cy="188.57" rx="52.76" ry="8.47"/><path class="cls-2" d="M1055.27,808.47c-3.61,3.71,3.93,13,0,16.93-1.29,1.27-2.76.93-3.81,2.68-1.38,2.32-.5,5.83,1,6.23s3-2.2,3.8-1.78-1.35,3.93,0,5.35c1.17,1.24,4.84.72,5.7-.89s-1.4-4.14-1-4.46c.61-.42,3.77,4.67,7.61,4.46,1.85-.1,3.75-1.44,3.8-2.68.07-1.82-3.91-3.38-3.8-3.56s4.71,3.13,7.6,1.78c1-.47,2.11-1.66,1.9-2.67-.62-3-16.16-5.35-16.16-5.35s2.71-14.55-1-16.94C1059.48,806.6,1056.64,807.06,1055.27,808.47Z" transform="translate(-954.46 -643.96)"/><path class="cls-3" d="M1100,658.72c-14.85,8.72-16.16,12.48-16.16,12.48-.15.4-.44,1.35-1,2.63-.24.55-.53,1.17-.89,1.83-1.27,2.35-2.13,3.91-3.81,4.45a3.68,3.68,0,0,1-1.42.18,7.93,7.93,0,0,1-3.33-1.07c-2.51-1.32-2.75-3.06-5.65-6.12-.3-.32-.63-.66-1-1-2.13-2-2.16-1.84-2.86-2.67-4.23-5.06-3.1-11.88-2.85-13.37.7-4.2,2.75-8.19,3.8-8s.44,4,1.91,4.45c2.29.71,6.49-7.81,8.55-7.13,1.36.45.47,4.49,1.43,5.86a.92.92,0,0,0,.47.38c2.22.84,5.71-5.35,11.41-7.13s3.8,1.78,3.8,1.78a17.52,17.52,0,0,1-6.65,8.92c-2.74,2.76-4,4.25-3.8,4.45s2.45-1.24,6.65-4.45c6.23-1.51,2.85-.89,7.61-.89S1101.11,660.28,1100,658.72Z" transform="translate(-954.46 -643.96)"/><path class="cls-4" d="M1049.56,796.88a9.08,9.08,0,0,0,0,9.8,8.71,8.71,0,0,0,2.86,2.68,9.87,9.87,0,0,0,7.6.89c3.67-1.22,5-4.56,5.7-6.24.49-1.2,2.43-6,0-8.91C1062.58,791.31,1053,791.81,1049.56,796.88Z" transform="translate(-954.46 -643.96)"/><path class="cls-3" d="M1064.77,707.75c-1.65.92.75,4.29-1,8-2.12,4.66-8.21,4.52-8.55,8-.19,1.92,1.48,3.67,2.85,4.46,3.53,2,8.09-.61,8.56-.9,5.7-3.41,3.8-16,3.8-16.93S1066.11,707,1064.77,707.75Z" transform="translate(-954.46 -643.96)"/><path class="cls-2" d="M1036.25,808.47c-3.51,2.64,1,13.37,0,16.93.13.37.44,1.21,0,1.78-.91,1.22-3.82-.5-7.6,0-3.21.43-7,2.44-7.61,5.35-.23,1.1-.17,2.93,1,3.57,2.44,1.39,8.47-3.69,8.56-3.57s-4.89,2.51-4.75,5.35a3.05,3.05,0,0,0,1.9,2.67c3.29,1.06,7.64-6.42,10.46-5.34,1.51.58,1.07,3.06,2.85,3.56a3.64,3.64,0,0,0,3.8-1.78c.88-1.75-.92-3.41,0-4.46s2.41.09,3.8-.89a3.57,3.57,0,0,0,1-4.46c-1.13-1.73-3.79-.43-5.7-1.78-4.21-3,2.22-13.81-1.9-16.93A5.29,5.29,0,0,0,1036.25,808.47Z" transform="translate(-954.46 -643.96)"/><path class="cls-4" d="M1009.64,764.79c-10.46-4.46-21.87.89-21.87.89s-17.11,4.46-20,11.59-3.23,12-1.9,12.48c.7.24,1.6-1.35,3.8-3.57,3.36-3.39,6.64-5.12,10.46-7.13a58.39,58.39,0,0,1,15.21-5.35c14.5-3,24,.39,24.71-1.78C1020.67,770.18,1020.09,769.25,1009.64,764.79Z" transform="translate(-954.46 -643.96)"/><path class="cls-5" d="M1012.49,771c-4.38-.14-10.44-.34-15.21,3.57-7.29,6-6.42,17.3-4.76,17.82.22.07.53,0,3.81-3.56,2.2-2.39,3.3-3.58,4.75-5.35,5.55-6.76,21.94-7.45,21.87-9.81C1022.9,772.28,1016.89,771.17,1012.49,771Z" transform="translate(-954.46 -643.96)"/><path class="cls-5" d="M1028.65,775.49c-1.9,1.78-7.79-15.06-20-20.5-20-9-47.87-2.15-53.24,9.8-1.27,2.82-1,8.91-1,8.91s8.55-5.34,4.75-3.56,34.22-13.37,46.58-5.35,15.21,10.7,14.26,11.59S1030.55,773.7,1028.65,775.49Z" transform="translate(-954.46 -643.96)"/><path class="cls-4" d="M1009.64,781.73c-3-.87-6.16,1.14-7.61,2.67-5.42,5.71-.13,17.92,1.9,17.83,1-.05.39-2.72,2.85-7.13,3.15-5.65,7.2-6.89,6.66-9.81C1013.1,783.46,1011.17,782.16,1009.64,781.73Z" transform="translate(-954.46 -643.96)"/><path class="cls-4" d="M1094.15,772.43c-.2.84-.5,1.83-.86,3.06a29.16,29.16,0,0,1-8.55,13.37,32.93,32.93,0,0,1-8.08,5.1,44.35,44.35,0,0,1-18.54,3.81c-3.87-.07-9.51.89-8.56.89.47,0-.08,2.25-1.28,4.8s-3.06,5.47-5.18,6.67l-.19.12c-2.24,1.17-4.81.49-6.66,0-.34-.09-.68-.21-1-.33-6.24-2.37-9.45-10.46-9.45-12.15s1.53-1.59,1.9-1.78c11.93-6.13,23.76-12.48,20-11.59s-18.56,13.35-22.81,9.8c-1.13-.93-1-2.82-2.86-3.56-2.24-.9-4.53,1-5.7,0-1-.88.14-2.76-.95-3.57-.6-.43-1.34-.16-2.15,0a3.25,3.25,0,0,1-.7,0c-2.18-.09-4.67-2.78-5.62-5.42a6,6,0,0,1-.39-2,3.39,3.39,0,0,1,.3-1.47c1.26-2.58,5.86-1.57,12.74-2.64l.55-.09c1.21-.2,2.49-.47,3.83-.83.9-.25,1.74-.52,2.53-.81,5.17-1.83,8.2-4.35,11.57-6.53l1.11-.69c10.83-6.53,25.87-7.73,37.55-5.94,9.18,1.4,16.27,4.65,17.58,8.62A5.61,5.61,0,0,1,1094.15,772.43Z" transform="translate(-954.46 -643.96)"/><path class="cls-6" d="M1068.58,711.31a.57.57,0,0,1,.3.1C1068.43,711.35,1068.29,711.31,1068.58,711.31Z" transform="translate(-954.46 -643.96)"/><path class="cls-6" d="M1097.1,774.6c-.88.24-1.87-.89-2.95-2.17-1.38-1.61-2.93-3.48-4.66-3.18-3.25.54-2.85,8.91-5.7,8s-1-4.92-2.85-5.35c-1.32-.31-2.79,1.92-4.28,3.8-1.12,1.42-2.25,2.63-3.33,2.44-2.53-.44-1.65-8-4.75-8.91-3.48-1-9.51,11.58-10.46,6.24s1.7-5.85,0-7.13c-2-1.52-8.56,6.24-9.51,2.67s2.36-4.07,1.9-4.46-2.18,2-4.75,2.68c-2.09.57-5.38-.68-7.76-2-2.17-1.2-3.6-2.47-2.7-2.47,1.91,0,15.33-5.47,25.67-18.72a33.36,33.36,0,0,0,6.66-13.37c.61-2.77,1.11-5.48,1.46-8,.83-5.88.92-10.66.27-12.53a1.5,1.5,0,0,0-.48-.77c.37.06,1,.13,1.7.2,1.58.18,3.83.4,6.08.57a46,46,0,0,0,7.62.17,1,1,0,0,0,.46-.15c.15-.14.21.09.22.64,0,1.22-.17,4-.14,7.64a60.55,60.55,0,0,0,2.77,18.46c2.79,8.4,6.64,8.48,9.51,18.72C1099.41,765.91,1099.2,774,1097.1,774.6Z" transform="translate(-954.46 -643.96)"/><path class="cls-3" d="M1100,725.57c-.28,2.12-4.28,4.11-7.61,3.57-4.83-.8-6.9-6.71-7.52-8.66,0-.1-.06-.18-.08-.26a16.14,16.14,0,0,1-.56-7.21c0-.23.06-.44.1-.66a17.36,17.36,0,0,1,.46-1.93,4.88,4.88,0,0,1,3.8-.89,3,3,0,0,1,1.81,1.36c1.24,1.94,1.64,5.53,4.84,9.33C1097.9,723.44,1100.16,723.91,1100,725.57Z" transform="translate(-954.46 -643.96)"/><path class="cls-3" d="M1104.72,692.25a27.2,27.2,0,0,1-5.47,11.62c-.08.11-.17.21-.25.31a27.24,27.24,0,0,1-8.65,6.71,25.46,25.46,0,0,1-5.39,2c-.26.07-.52.12-.78.17l-.39.08a23.51,23.51,0,0,1-7.13.2c-1.72-.19-3.65-.5-6-.89l-1.12-.2-.17,0c-1.82-.32-3.46-.6-5-.88-6.61-1.19-10.37-2.17-12.93-4.45a16.22,16.22,0,0,1-3.82-5.17c-3.13-6.56-2.72-15.45,1.9-21.33.31-.39.63-.76,1-1.13,4.61-4.85,8.56-6.24,14.26-6.24,1.1,0,2,0,2.91.12,2.74.23,4.86.71,9,.82,1.45,0,3.15,0,5.23,0,.3,0,.6,0,.89,0,6.32-.35,8.55-1.42,12.41,0a16.1,16.1,0,0,1,7.61,6.24,13.25,13.25,0,0,1,.68,1.21A14.79,14.79,0,0,1,1105,687,19.53,19.53,0,0,1,1104.72,692.25Z" transform="translate(-954.46 -643.96)"/><path class="cls-7" d="M1109.45,697.94a13.05,13.05,0,0,1-10.2,5.93,10.11,10.11,0,0,1-4.06-.58c-7.67-2.92-9.37-16.78-2.85-21.39,3.05-2.16,7.61-2.08,11.14-.58a9.77,9.77,0,0,1,1.22.58C1110.25,685,1112.91,692.28,1109.45,697.94Z" transform="translate(-954.46 -643.96)"/><ellipse cx="147.86" cy="45.51" rx="3.8" ry="3.57"/><path class="cls-7" d="M1053.37,679.22c5.79-.54,10.57,3.79,12.35,8,2.62,6.2-1.36,11.76-1.9,12.48-.91,1.23-3.84,5.17-8.55,5.35-6.23.24-10-6.29-10.46-7.13-.59-1-3.5-6.09-1-11.59C1044.09,685.85,1047,679.82,1053.37,679.22Z" transform="translate(-954.46 -643.96)"/><ellipse cx="95.58" cy="44.62" rx="3.8" ry="3.57"/><path class="cls-2" d="M1078.08,692.59c3.9.37,6.31,5.31,6.66,8.92s-1.15,8.82-4.76,9.8c-4.15,1.13-10.12-3.55-10.45-8.91a1.09,1.09,0,0,1,0-.2C1069.37,697.72,1073.8,692.19,1078.08,692.59Z" transform="translate(-954.46 -643.96)"/><polygon points="116.49 58.88 119.98 59.81 122.96 62.15 125.95 59.81 129.94 58.88 125.45 58.88 122.96 60.28 120.47 58.88 116.49 58.88"/><path class="cls-8" d="M1109.45,697.94a13.05,13.05,0,0,1-10.2,5.93c-.08.11-.17.21-.25.31a27.24,27.24,0,0,1-8.65,6.71c1.24,1.94,1.64,5.53,4.84,9.33,2.71,3.22,5,3.69,4.76,5.35-.28,2.12-4.28,4.11-7.61,3.57-4.83-.8-6.9-6.71-7.52-8.66a60.55,60.55,0,0,0,2.77,18.46c2.79,8.4,6.64,8.48,9.51,18.72,2.31,8.25,2.1,16.36,0,16.94-.88.24-1.87-.89-2.95-2.17-.2.84-.5,1.83-.86,3.06a29.16,29.16,0,0,1-8.55,13.37,32.93,32.93,0,0,1-8.08,5.1V651.21a.92.92,0,0,0,.47.38c2.22.84,5.71-5.35,11.41-7.13s3.8,1.78,3.8,1.78a17.52,17.52,0,0,1-6.65,8.92c-2.74,2.76-4,4.25-3.8,4.45s2.45-1.24,6.65-4.45c6.23-1.51,2.85-.89,7.61-.89s5,6,3.8,4.45c-14.85,8.72-16.16,12.48-16.16,12.48-.15.4-.44,1.35-1,2.63,6.32-.35,8.55-1.42,12.41,0a16.1,16.1,0,0,1,7.61,6.24,13.25,13.25,0,0,1,.68,1.21,9.77,9.77,0,0,1,1.22.58C1110.25,685,1112.91,692.28,1109.45,697.94Z" transform="translate(-954.46 -643.96)"/></svg>
