<svg id="Layer_8" data-name="Layer 8" xmlns="http://www.w3.org/2000/svg" viewBox="0 0 1920 238.54"><defs><style>.cls-1{fill:#0c8702;}.cls-2{fill:#ff002b;}</style></defs><title>forgrund-01</title><path class="cls-1" d="M1920,852v228H1771v4.92a86.56,86.56,0,0,1-9-4.92c-4.85-3.13-19.9-12.84-19-24,.59-7.3,7.82-13.22,7-14s-7.72,8.91-16,10c-15-9-30-26-35-48,12,0,23-5,37-8,9.37,5.7,11.68,18.66,14,18s-2.61-11.88,2-20c13-9,42-3,56-1,3.5,5.94,1.92,14.77,4,15s2.61-7.81,8-10,10.32,3.36,12,2c-7-4-33-56-27-72,4-5.23,14.19-4.83,14-7s-10.18-.59-17-5c-10-15-7-35-1-56,15-1,28,15,36,18,.76,6.43-4.93,12.17-3,14s8-4.72,16-6c17,8,35,29,39,38,2,9,0,11-7,12,1,3,6,3.83,7,4,5.84,1,8.44-2.27,12-2,6.49,3.5,14.81,24,15,24s-20.5-58.5-9-96C1907.75,864.81,1913.23,856.11,1920,852Z" transform="translate(0 -846.38)"/><path class="cls-1" d="M461.5,1079.5H0V892.19c22.13-13.71,49.79-34.5,88.5-8.69,20-23,45.23-38.67,72-37,23.31,1.46,41,12,63,41,13,1,42-11,69,32,5.75,9.06,13.68,29,10,50,10,3,7.37,17,13,15,33-12,41,12,39,23,75.31,9.82,89.12,10.63,99,22C473.5,1035.5,485.5,1066.5,461.5,1079.5Z" transform="translate(0 -846.38)"/><circle class="cls-2" cx="181" cy="97.62" r="13.5"/><circle class="cls-2" cx="200.5" cy="53.12" r="8"/><circle class="cls-2" cx="135.5" cy="67.12" r="9"/><circle class="cls-2" cx="112.5" cy="159.12" r="10"/><circle class="cls-2" cx="265" cy="180.62" r="10"/></svg>
