<svg id="Layer_2" data-name="Layer 2" xmlns="http://www.w3.org/2000/svg" viewBox="0 0 51.79 69.34"><defs><style>.cls-1{fill:#eaeaea;}.cls-2{fill:#f9f9f9;}.cls-3{fill:#f7c8c0;}.cls-4{fill:none;}.cls-5{fill:#f59687;}.cls-6{fill:#111842;}.cls-7{fill:#835765;}</style></defs><title>glas_madkurv</title><path class="cls-1" d="M1497.39,448h-38.57a2.85,2.85,0,0,1-2.85-2.64l-3.75-50.7a2.85,2.85,0,0,1,2.84-3.07h46.09a2.85,2.85,0,0,1,2.84,3.07l-3.75,50.7A2.85,2.85,0,0,1,1497.39,448Z" transform="translate(-1452.21 -378.66)"/><path class="cls-2" d="M1494,411.25a1.8,1.8,0,0,0-1.23-2.24l-7.94-2.3a1.8,1.8,0,0,0-2.24,1.23l-1.45,5h12.36Z" transform="translate(-1452.21 -378.66)"/><path class="cls-3" d="M1481.49,418.11l7.94,2.31a1.82,1.82,0,0,0,2.24-1.24l1.8-6.21h-12.36l-.85,2.91A1.81,1.81,0,0,0,1481.49,418.11Z" transform="translate(-1452.21 -378.66)"/><rect class="cls-3" x="1472.27" y="422.47" width="11.88" height="11.88" rx="1.65" ry="1.65" transform="translate(-1512.95 65.69) rotate(-16.76)"/><rect class="cls-4" x="1472.27" y="422.47" width="11.88" height="11.88" rx="1.65" ry="1.65" transform="translate(-1512.95 65.69) rotate(-16.76)"/><path class="cls-5" d="M1493.47,413l-1.8,6.21a1.82,1.82,0,0,1-2.24,1.24l-7.94-2.31a1.81,1.81,0,0,1-1.23-2.23l.85-2.91h-16.77l3.9,28.64-2.36.32-3.94-29h-5.7l2.69,32.06h38.35l2.31-32.06ZM1484,432.86l-8.21,2.47a1.65,1.65,0,0,1-2.06-1.11l-2.47-8.21a1.65,1.65,0,0,1,1.1-2.05l8.22-2.48a1.65,1.65,0,0,1,2.05,1.11l2.47,8.21A1.66,1.66,0,0,1,1484,432.86Z" transform="translate(-1452.21 -378.66)"/><polygon class="cls-6" points="7.45 0 5.1 0.32 9.73 34.31 12.13 34.31 7.45 0"/><polygon class="cls-7" points="16.03 62.95 12.13 34.31 9.73 34.31 13.67 63.27 16.03 62.95"/></svg>
