<svg id="Layer_7" data-name="Layer 7" xmlns="http://www.w3.org/2000/svg" viewBox="0 0 219.67 218"><defs><style>.cls-1{fill:#121221;}.cls-2{fill:#bc0808;}.cls-3{fill:#545466;}.cls-4{fill:#dbbc21;}.cls-5{fill:#ffce00;}.cls-6{fill:#efe8ca;}.cls-7{fill:#2d57aa;}.cls-8{fill:#e75e1d;}.cls-9{fill:#fff;opacity:0.3;}.cls-10{fill:none;}.cls-10,.cls-11{stroke:#fff;stroke-miterlimit:10;stroke-width:0.25px;}.cls-11{opacity:0.2;}</style></defs><title>grill</title><polygon class="cls-1" points="95.69 76.41 90.4 108.91 82.43 157.7 80.42 170.07 75.92 197.63 74.28 207.65 73.28 207.48 67.42 206.53 68.54 199.66 69.53 193.65 83.66 106.98 88.82 75.29 95.69 76.41"/><path class="cls-1" d="M1316,1045.07l-5.74.94-1.13.18-.53-3.22v0l-.13-.86a0,0,0,0,1,0,0l-1.5-9.23-4.2-25.75-2-12.37-7.89-48.39L1287.75,915l6.87-1.12,5,30.69,13.88,85.1.87,5.31Z" transform="translate(-1163.9 -837)"/><path class="cls-1" d="M1383.45,863.59v.94a2.63,2.63,0,0,1-2.62,2.62H1166.51a2.63,2.63,0,0,1-2.61-2.62v-.94a2.63,2.63,0,0,1,2.61-2.63h214.32A2.63,2.63,0,0,1,1383.45,863.59Z" transform="translate(-1163.9 -837)"/><rect class="cls-1" x="34.01" y="12.37" width="9.28" height="40.97" rx="4.16" ry="4.16"/><rect class="cls-1" x="54.11" y="12.37" width="9.28" height="40.97" rx="4.16" ry="4.16"/><rect class="cls-1" x="71.89" y="12.37" width="9.28" height="40.97" rx="4.16" ry="4.16"/><rect class="cls-1" x="91.22" y="12.37" width="9.28" height="40.97" rx="4.16" ry="4.16"/><rect class="cls-1" x="110.55" y="12.37" width="9.28" height="40.97" rx="3.93" ry="3.93"/><rect class="cls-1" x="131.42" y="12.37" width="9.28" height="40.97" rx="3.93" ry="3.93"/><path class="cls-1" d="M1327.79,853.29v33.12a3.94,3.94,0,0,1-3.93,3.93h-1.42a3.94,3.94,0,0,1-3.93-3.93V853.29a3.94,3.94,0,0,1,3.93-3.92h1.42A3.94,3.94,0,0,1,1327.79,853.29Z" transform="translate(-1163.9 -837)"/><rect class="cls-1" x="177.8" y="12.37" width="9.28" height="40.97" rx="3.93" ry="3.93"/><path class="cls-2" d="M1359.48,863.28c0,1.3,0,2.58-.09,3.87,0,.77-.07,1.55-.13,2.32a85.11,85.11,0,0,1-59.63,75.06q-3.33,1-6.76,1.78a85.29,85.29,0,0,1-18.42,2c-.38,0-.74,0-1.12,0a83.47,83.47,0,0,1-19-2.39c-2.29-.55-4.54-1.2-6.74-1.93a85.09,85.09,0,0,1-57.92-74.51c-.07-.77-.11-1.55-.14-2.32-.06-1.29-.09-2.57-.09-3.87Z" transform="translate(-1163.9 -837)"/><path class="cls-1" d="M1370.31,860.55v2.38a6.57,6.57,0,0,1-6.55,6.54h-179.4a6.57,6.57,0,0,1-6.55-6.54v-2.38a6.56,6.56,0,0,1,6.55-6.54h179.4A6.56,6.56,0,0,1,1370.31,860.55Z" transform="translate(-1163.9 -837)"/><rect class="cls-3" x="25.51" y="19.33" width="170.07" height="6.96" rx="3.12" ry="3.12"/><rect class="cls-4" x="55.66" y="36.33" width="109.77" height="8.5" rx="3.82" ry="3.82"/><path class="cls-5" d="M1325.63,896.42l-7.19,20.81c-2,5.84-7.77,9.19-12.8,7.46s-7.48-7.93-5.46-13.77l7.18-20.81Z" transform="translate(-1163.9 -837)"/><path class="cls-5" d="M1292.6,905.49h0c-1.09-1.45-.54-3.71,1.22-5l10.66-8c1.76-1.32,4.08-1.23,5.17.22h0c1.08,1.44,2,5.35.23,6.67l-12.11,6.37C1296,907,1293.69,906.93,1292.6,905.49Z" transform="translate(-1163.9 -837)"/><rect class="cls-6" x="1304.91" y="889.34" width="23.19" height="5.41" rx="2.43" ry="2.43" transform="translate(-800.59 -1217.89) rotate(19.05)"/><rect class="cls-6" x="145.33" y="42.52" width="1.55" height="11.6" rx="0.69" ry="0.69"/><rect class="cls-1" x="78.85" y="157.7" width="61.84" height="12.38"/><circle class="cls-7" cx="66.48" cy="205.63" r="12.37"/><path class="cls-7" d="M1327.79,1041.86a12.36,12.36,0,1,1-14.28-12.23,13.42,13.42,0,0,1,1.91-.14A12.37,12.37,0,0,1,1327.79,1041.86Z" transform="translate(-1163.9 -837)"/><circle class="cls-3" cx="66.87" cy="206.02" r="6.57"/><circle class="cls-3" cx="151.13" cy="204.47" r="6.57"/><rect class="cls-8" x="34.01" width="71.12" height="12.37" rx="5.55" ry="5.55"/><rect class="cls-9" x="36.33" y="3.09" width="53.34" height="8.5" rx="3.82" ry="3.82"/><line class="cls-10" x1="41.74" y1="2.32" x2="41.74" y2="11.6"/><line class="cls-10" x1="49.48" y1="2.32" x2="49.48" y2="11.6"/><line class="cls-10" x1="57.21" y1="2.32" x2="57.21" y2="11.6"/><line class="cls-10" x1="64.94" y1="2.32" x2="64.94" y2="11.6"/><line class="cls-10" x1="72.67" y1="2.32" x2="72.67" y2="11.6"/><line class="cls-10" x1="79.62" y1="2.32" x2="79.62" y2="11.6"/><line class="cls-10" x1="86.58" y1="2.32" x2="86.58" y2="11.6"/><path class="cls-8" d="M1354.07,842.24v1.89a5.25,5.25,0,0,1-3.78,5,5,5,0,0,1-1.45.21h-60.65a4.94,4.94,0,0,1-1.45-.21,5.26,5.26,0,0,1-3.79-5v-1.89a5.25,5.25,0,0,1,5.24-5.24h60.65A5.25,5.25,0,0,1,1354.07,842.24Z" transform="translate(-1163.9 -837)"/><rect class="cls-9" x="121.37" y="3.09" width="53.34" height="8.5" rx="3.82" ry="3.82"/><line class="cls-10" x1="126.78" y1="2.32" x2="126.78" y2="11.6"/><line class="cls-10" x1="134.51" y1="2.32" x2="134.51" y2="11.6"/><line class="cls-10" x1="142.24" y1="2.32" x2="142.24" y2="11.6"/><line class="cls-10" x1="149.97" y1="2.32" x2="149.97" y2="11.6"/><line class="cls-10" x1="157.7" y1="2.32" x2="157.7" y2="11.6"/><line class="cls-10" x1="164.66" y1="2.32" x2="164.66" y2="11.6"/><line class="cls-10" x1="171.62" y1="2.32" x2="171.62" y2="11.6"/><path class="cls-11" d="M1380.83,861h-10.52v-.41a6.56,6.56,0,0,0-6.55-6.54H1351v-.72a3.94,3.94,0,0,0-3.92-3.92h1.78a5,5,0,0,0,1.45-.21h-63.55a4.94,4.94,0,0,0,1.45.21h11a3.94,3.94,0,0,0-3.92,3.92V854h-11.6v-.72a3.93,3.93,0,0,0-3.92-3.92h-1.43a3.93,3.93,0,0,0-3.92,3.92V854h-1.12V948.3c.38,0,.74,0,1.12,0a85.29,85.29,0,0,0,18.42-2l7.89,48.39h-27.43v12.37h29.45l4.2,25.75a12.37,12.37,0,1,0,8.44-3.33,13.42,13.42,0,0,0-1.91.14l-13.88-85.1a85.11,85.11,0,0,0,59.63-75.06h4.5a6.58,6.58,0,0,0,5-2.32h12.08a2.63,2.63,0,0,0,2.62-2.62v-.94A2.63,2.63,0,0,0,1380.83,861Zm-35.2-11.59a3.93,3.93,0,0,0-3.92,3.92V854h-13.92v-.72a3.94,3.94,0,0,0-3.93-3.92Zm-45,0h21.77a3.94,3.94,0,0,0-3.93,3.92V854h-13.92v-.72A3.93,3.93,0,0,0,1300.67,849.37Z" transform="translate(-1163.9 -837)"/></svg>
