<svg id="Layer_2" data-name="Layer 2" xmlns="http://www.w3.org/2000/svg" viewBox="0 0 253 223"><defs><style>.cls-1{fill:#f9e426;}.cls-2{fill:#f9c926;}.cls-3{fill:#bc0808;}.cls-4{fill:#f9bc2a;}.cls-5{fill:#f9e92a;}.cls-6{fill:#fcee21;}.cls-7{fill:#0b6023;}.cls-8{opacity:0.3;}.cls-9{fill:#603813;}.cls-10{fill:red;}.cls-11{fill:#087005;}.cls-12{fill:#085705;}.cls-13{fill:#eaeaea;}.cls-14{fill:#f9f9f9;}.cls-15{fill:#f7c8c0;}.cls-16{fill:none;}.cls-17{fill:#f59687;}.cls-18{fill:#111842;}.cls-19{fill:#835765;}</style></defs><title>madkurv</title><rect class="cls-1" x="1053.27" y="878.91" width="38.26" height="14.9" transform="translate(-881.41 -863.37) rotate(1.75)"/><path class="cls-2" d="M1091.8,880c.41-1.95-4.3-7.67-8.66-7.7-3.89-.74-6.7.22-9.17.66-10.53,1.88-20.56,4.19-20.44,6.07C1060.18,879.09,1087.22,880,1091.8,880Z" transform="translate(-909 -831)"/><ellipse class="cls-2" cx="1061.41" cy="885.85" rx="1.52" ry="2.03" transform="translate(-765.48 1088.69) rotate(-88.25)"/><ellipse class="cls-2" cx="1086.22" cy="883.22" rx="1.52" ry="2.03" transform="translate(-738.79 1110.94) rotate(-88.25)"/><ellipse class="cls-2" cx="1073.79" cy="890.97" rx="1.52" ry="2.03" transform="translate(-758.59 1106.03) rotate(-88.25)"/><ellipse class="cls-2" cx="1087.02" cy="890.36" rx="1.52" ry="2.03" transform="translate(-745.16 1118.66) rotate(-88.25)"/><ellipse class="cls-2" cx="1056.14" cy="880.95" rx="1.52" ry="2.03" transform="translate(-765.68 1078.67) rotate(-88.25)"/><ellipse class="cls-2" cx="1076.99" cy="885.99" rx="1.52" ry="2.03" transform="translate(-750.51 1104.39) rotate(-88.25)"/><ellipse class="cls-2" cx="1059.87" cy="891.9" rx="1.52" ry="2.03" transform="translate(-773.02 1093.01) rotate(-88.25)"/><ellipse class="cls-2" cx="1068.62" cy="882.69" rx="1.52" ry="2.03" transform="translate(-755.32 1092.83) rotate(-88.25)"/><polygon class="cls-3" points="253 142.67 126.61 223 0 142.54 59.07 105 193.73 105 253 142.67"/><path class="cls-4" d="M997.46,919.34l-33.07-69.52.44-.22a18.56,18.56,0,0,1,24.66,8.76l17.18,36.12a18.54,18.54,0,0,1-8.76,24.65Z" transform="translate(-909 -831)"/><rect class="cls-5" x="980" y="855" width="3" height="17" rx="1.5" ry="1.5" transform="matrix(0.55, -0.84, 0.84, 0.55, -1187.52, 380.82)"/><rect class="cls-5" x="987" y="872" width="3" height="17" rx="1.5" ry="1.5" transform="translate(-1198.58 394.36) rotate(-56.79)"/><rect class="cls-5" x="996" y="889" width="3" height="17" rx="1.5" ry="1.5" transform="translate(-1208.73 409.58) rotate(-56.79)"/><rect class="cls-6" x="189.33" width="4.67" height="7"/><path class="cls-7" d="M1113,869.5v29A12.52,12.52,0,0,1,1101,911a4.1,4.1,0,0,1-.5,0,12.53,12.53,0,0,1-12.5-12.5v-29a12.54,12.54,0,0,1,9-12,12.29,12.29,0,0,1,3.5-.5,4.1,4.1,0,0,1,.5,0,11.9,11.9,0,0,1,3,.48,12.55,12.55,0,0,1,9,12Z" transform="translate(-909 -831)"/><rect class="cls-7" x="188" y="9" width="7" height="23"/><rect class="cls-7" x="186" y="5" width="11" height="4"/><path class="cls-8" d="M1113,869.5v29A12.52,12.52,0,0,1,1101,911V831h2v5h3v4h-2v17.5a12.55,12.55,0,0,1,9,12Z" transform="translate(-909 -831)"/><polygon class="cls-9" points="115 30 111.03 38.8 109.25 42.76 109 42.65 106.85 41.68 107.93 39.28 109 36.9 112.59 28.92 115 30"/><path class="cls-10" d="M1018,870.88v33.86c-8.25.43-20.76-9.52-22-20.74-.08-.72-.94-9.71,5-14C1005.78,866.55,1012.76,867.73,1018,870.88Z" transform="translate(-909 -831)"/><path class="cls-10" d="M1040,884c-1.24,11.22-13.75,21.17-22,20.74V870.88c.65-.39,1.33-.75,2-1.08,4.91-2.29,10.78-2.82,15,.2C1040.94,874.29,1040.08,883.28,1040,884Z" transform="translate(-909 -831)"/><path class="cls-8" d="M1040,884c-1.24,11.22-13.75,21.17-22,20.74V867.9l3.59-8L1024,861l-4,8.8c4.91-2.29,10.78-2.82,15,.2C1040.94,874.29,1040.08,883.28,1040,884Z" transform="translate(-909 -831)"/><path class="cls-11" d="M1029.16,852.67l-9,10.62c-2-1.72-1.67-5.49.82-8.42S1027.13,851,1029.16,852.67Z" transform="translate(-909 -831)"/><path class="cls-12" d="M1029.1,852.59l-8.81,10.77c2.07,1.69,5.72.65,8.15-2.32S1031.17,854.28,1029.1,852.59Z" transform="translate(-909 -831)"/><path class="cls-9" d="M1123,898v46a30.09,30.09,0,0,1-30,30H998a30.09,30.09,0,0,1-30-30V898a29.62,29.62,0,0,1,2.11-11h150.78a29.3,29.3,0,0,1,2.09,10.23C1123,897.49,1123,897.74,1123,898Z" transform="translate(-909 -831)"/><polygon class="cls-3" points="213.98 56 213.98 75.07 137 118.17 136.49 118.46 59 75.07 59 56 213.98 56"/><path class="cls-8" d="M1123,898v46a30.09,30.09,0,0,1-30,30h-47V887h77v10.23C1123,897.49,1123,897.74,1123,898Z" transform="translate(-909 -831)"/><path class="cls-13" d="M1000.39,1001H961.82a2.85,2.85,0,0,1-2.85-2.64l-3.75-50.7a2.85,2.85,0,0,1,2.84-3.07h46.09a2.85,2.85,0,0,1,2.84,3.07l-3.75,50.7A2.85,2.85,0,0,1,1000.39,1001Z" transform="translate(-909 -831)"/><path class="cls-14" d="M997,964.25a1.8,1.8,0,0,0-1.23-2.24l-7.94-2.3a1.8,1.8,0,0,0-2.24,1.23l-1.45,5h12.36Z" transform="translate(-909 -831)"/><path class="cls-15" d="M984.49,971.11l7.94,2.31a1.82,1.82,0,0,0,2.24-1.24l1.8-6.21H984.11l-.85,2.91A1.81,1.81,0,0,0,984.49,971.11Z" transform="translate(-909 -831)"/><rect class="cls-15" x="975.27" y="975.47" width="11.88" height="11.88" rx="1.65" ry="1.65" transform="translate(-1150.27 -506.46) rotate(-16.76)"/><rect class="cls-16" x="975.27" y="975.47" width="11.88" height="11.88" rx="1.65" ry="1.65" transform="translate(-1150.27 -506.46) rotate(-16.76)"/><path class="cls-17" d="M996.47,966l-1.8,6.21a1.82,1.82,0,0,1-2.24,1.24l-7.94-2.31a1.81,1.81,0,0,1-1.23-2.23l.85-2.91H967.34l3.9,28.64-2.36.32-3.94-29h-5.7L961.93,998h38.35l2.31-32.06ZM987,985.86l-8.21,2.47a1.65,1.65,0,0,1-2.06-1.11L974.29,979a1.65,1.65,0,0,1,1.1-2l8.22-2.48a1.65,1.65,0,0,1,2,1.11l2.47,8.21A1.66,1.66,0,0,1,987,985.86Z" transform="translate(-909 -831)"/><polygon class="cls-18" points="53.66 100.66 51.31 100.98 55.94 134.97 58.34 134.97 53.66 100.66"/><polygon class="cls-19" points="62.24 163.61 58.34 134.97 55.94 134.97 59.88 163.93 62.24 163.61"/></svg>
