<svg id="Layer_2" data-name="Layer 2" xmlns="http://www.w3.org/2000/svg" viewBox="0 0 158.61 143"><defs><style>.cls-1{fill:#f9e426;}.cls-2{fill:#f9c926;}.cls-3{fill:#f9bc2a;}.cls-4{fill:#f9e92a;}.cls-5{fill:#fcee21;}.cls-6{fill:#0b6023;}.cls-7{opacity:0.3;}.cls-8{fill:#603813;}.cls-9{fill:red;}.cls-10{fill:#087005;}.cls-11{fill:#085705;}.cls-12{fill:#bc0808;}</style></defs><title>madkurv_2</title><rect class="cls-1" x="1550.27" y="325.91" width="38.26" height="14.9" transform="translate(-1450.46 -325.82) rotate(1.75)"/><path class="cls-2" d="M1588.8,327c.41-1.95-4.3-7.67-8.66-7.7-3.89-.74-6.7.22-9.17.66-10.53,1.88-20.56,4.19-20.44,6.07C1557.18,326.09,1584.22,327,1588.8,327Z" transform="translate(-1461.39 -278)"/><ellipse class="cls-2" cx="1558.41" cy="332.85" rx="1.52" ry="2.03" transform="translate(-283.31 1602.36) rotate(-88.25)"/><ellipse class="cls-2" cx="1583.22" cy="330.22" rx="1.52" ry="2.03" transform="translate(-256.63 1624.61) rotate(-88.25)"/><ellipse class="cls-2" cx="1570.79" cy="337.97" rx="1.52" ry="2.03" transform="translate(-276.43 1619.7) rotate(-88.25)"/><ellipse class="cls-2" cx="1584.02" cy="337.36" rx="1.52" ry="2.03" transform="translate(-262.99 1632.33) rotate(-88.25)"/><ellipse class="cls-2" cx="1553.14" cy="327.95" rx="1.52" ry="2.03" transform="translate(-283.52 1592.34) rotate(-88.25)"/><ellipse class="cls-2" cx="1573.99" cy="332.99" rx="1.52" ry="2.03" transform="translate(-268.34 1618.06) rotate(-88.25)"/><ellipse class="cls-2" cx="1556.87" cy="338.9" rx="1.52" ry="2.03" transform="translate(-290.85 1606.69) rotate(-88.25)"/><ellipse class="cls-2" cx="1565.62" cy="329.69" rx="1.52" ry="2.03" transform="translate(-273.15 1606.5) rotate(-88.25)"/><path class="cls-3" d="M1494.46,366.34l-33.07-69.52c.14-.08.29-.15.44-.22a18.56,18.56,0,0,1,24.66,8.76l17.18,36.12a18.54,18.54,0,0,1-8.76,24.65Z" transform="translate(-1461.39 -278)"/><rect class="cls-4" x="1477" y="302" width="3" height="17" rx="1.5" ry="1.5" transform="translate(-1052.4 1099.51) rotate(-56.79)"/><rect class="cls-4" x="1484" y="319" width="3" height="17" rx="1.5" ry="1.5" transform="translate(-1063.45 1113.06) rotate(-56.79)"/><rect class="cls-4" x="1493" y="336" width="3" height="17" rx="1.5" ry="1.5" transform="translate(-1073.61 1128.28) rotate(-56.79)"/><rect class="cls-5" x="133.94" width="4.67" height="7"/><path class="cls-6" d="M1610,316.5v29A12.52,12.52,0,0,1,1598,358a4.1,4.1,0,0,1-.5,0,12.53,12.53,0,0,1-12.5-12.5v-29a12.54,12.54,0,0,1,9-12,12.29,12.29,0,0,1,3.5-.5,4.1,4.1,0,0,1,.5,0,11.9,11.9,0,0,1,3,.48,12.55,12.55,0,0,1,9,12Z" transform="translate(-1461.39 -278)"/><rect class="cls-6" x="132.61" y="9" width="7" height="23"/><rect class="cls-6" x="130.61" y="5" width="11" height="4"/><path class="cls-7" d="M1610,316.5v29A12.52,12.52,0,0,1,1598,358V278h2v5h3v4h-2v17.5a12.55,12.55,0,0,1,9,12Z" transform="translate(-1461.39 -278)"/><polygon class="cls-8" points="59.62 30 55.65 38.8 53.87 42.76 53.62 42.65 51.46 41.68 52.54 39.28 53.62 36.9 57.2 28.92 59.62 30"/><path class="cls-9" d="M1515,317.88v33.86c-8.25.43-20.76-9.52-22-20.74-.08-.72-.94-9.71,5-14C1502.78,313.55,1509.76,314.73,1515,317.88Z" transform="translate(-1461.39 -278)"/><path class="cls-9" d="M1537,331c-1.24,11.22-13.75,21.17-22,20.74V317.88c.65-.39,1.33-.75,2-1.08,4.91-2.29,10.78-2.82,15,.2C1537.94,321.29,1537.08,330.28,1537,331Z" transform="translate(-1461.39 -278)"/><path class="cls-7" d="M1537,331c-1.24,11.22-13.75,21.17-22,20.74V314.9l3.59-8L1521,308l-4,8.8c4.91-2.29,10.78-2.82,15,.2C1537.94,321.29,1537.08,330.28,1537,331Z" transform="translate(-1461.39 -278)"/><path class="cls-10" d="M1526.16,299.67l-9,10.62c-2-1.72-1.67-5.49.82-8.42S1524.13,298,1526.16,299.67Z" transform="translate(-1461.39 -278)"/><path class="cls-11" d="M1526.1,299.59l-8.81,10.77c2.07,1.69,5.72.65,8.15-2.32S1528.17,301.28,1526.1,299.59Z" transform="translate(-1461.39 -278)"/><path class="cls-8" d="M1620,345v46a30.09,30.09,0,0,1-30,30h-95a30.09,30.09,0,0,1-30-30V345a29.62,29.62,0,0,1,2.11-11h150.78a29.3,29.3,0,0,1,2.09,10.23C1620,344.49,1620,344.74,1620,345Z" transform="translate(-1461.39 -278)"/><polygon class="cls-12" points="158.59 56 158.59 75.07 81.61 118.17 81.1 118.46 3.62 75.07 3.62 56 158.59 56"/><path class="cls-7" d="M1620,345v46a30.09,30.09,0,0,1-30,30h-47V334h77v10.23C1620,344.49,1620,344.74,1620,345Z" transform="translate(-1461.39 -278)"/></svg>
