<svg id="Layer_1" data-name="Layer 1" xmlns="http://www.w3.org/2000/svg" viewBox="0 0 3200 2000"><defs><style>.cls-1{fill:#ffc6a3;}.cls-2{fill:#000070;}.cls-3{fill:#ff857e;}.cls-4,.cls-9{fill:#030000;}.cls-5{fill:#ffd1ab;}.cls-6{fill:#fff;}.cls-7{fill:#000082;}.cls-8{stroke:#000;stroke-miterlimit:10;}.cls-9{opacity:0.3;}.cls-10{fill:#ed1c24;}.cls-11{fill:#b70b18;}</style></defs><title>man_sprite2</title><path class="cls-1" d="M240.84,733.65c-7.31,16.92-74.49,21.8-69,1.82v-21.8c-23.62-11.81-30-20-34.52-36.34-30,34.52-40.88,57.23-10.9,109.92,4.54,26.34-14.53,40.87-39.06,35.42C62.78,821.75,26.23,733,59.16,667.34c14.64-29.21,38.14-44.13,49.05-50.87,51.78,1.82,102.65,2.73,167.14-1.81,92.66,30,79,159,59,180.76-26.34,34.52-61.77,4.54-53.6-21.8,29.07-41.78,2.69-86.77-10.9-92.65-14.53,21.8-17.26,20.89-30.88,30C239.93,718.21,239.93,727.29,240.84,733.65Z"/><path class="cls-2" d="M331.42,660.39l-45.79,38.7c-4.92-9.5-11.08-16.11-15.73-18.12-14.53,21.8-17.26,20.89-30.88,30,.91,7.27.91,16.35,1.82,22.71a9.84,9.84,0,0,1-1.75,2.69c-11.44,13.17-60.62,17.21-66.94,4.27a7.14,7.14,0,0,1-.35-5.14v-21.8c-23.62-11.81-30-20-34.52-36.34-7.15,8.23-13.21,15.79-17.89,23.25L58.61,668.46c.18-.37.36-.75.55-1.12,14.64-29.2,38.13-44.13,49.05-50.87,51.78,1.82,102.65,2.73,167.14-1.81C302.1,623.3,320,640.2,331.42,660.39Z"/><rect class="cls-1" x="168.47" y="560.2" width="50.44" height="86.59" rx="25.22" ry="25.22"/><rect class="cls-3" x="174.35" y="587.95" width="10.93" height="17.66" rx="5.46" ry="5.46"/><rect class="cls-4" x="169.15" y="589.27" width="46.4" height="1.55"/><path class="cls-4" d="M198,589.27a9,9,0,0,1-18,0Z"/><path class="cls-4" d="M178.94,589.27a9,9,0,0,1-18,0Z"/><circle class="cls-5" cx="218.07" cy="593.83" r="5.04"/><ellipse class="cls-3" cx="217.65" cy="593.31" rx="2.41" ry="2.11" transform="translate(-413.39 559.03) rotate(-66.75)"/><path class="cls-5" d="M202.09,614.85a18.5,18.5,0,0,1-37,0Z"/><rect class="cls-6" x="166.78" y="613.17" width="29.43" height="1.68"/><path class="cls-7" d="M221.42,582.06H166.79a27.32,27.32,0,0,1,54.63,0Z"/><ellipse class="cls-7" cx="226.06" cy="580.8" rx="13.87" ry="1.26"/><rect class="cls-6" x="166.78" y="611.49" width="1.68" height="3.36" rx="0.84" ry="0.84"/><rect class="cls-6" x="194.53" y="611.49" width="1.68" height="3.36" rx="0.84" ry="0.84"/><polygon points="183.6 624.1 183.6 629.03 177.76 633.62 171.91 629.03 171.91 624.1 183.6 624.1"/><path class="cls-1" d="M641.09,733.65c-7.3,16.92-74.48,21.8-69,1.82v-21.8c-23.62-11.81-30-20-34.52-36.34-30,34.52-40.88,57.23-10.9,109.92,4.54,26.34-14.54,40.87-39.06,35.42-24.54-.92-61.1-89.63-28.16-155.33,14.64-29.21,38.13-44.13,49.05-50.87,51.78,1.82,102.65,2.73,167.14-1.81,92.65,30,79,159,59,180.76-26.34,34.52-61.77,4.54-53.59-21.8,29.07-41.78,2.68-86.77-10.9-92.65-14.53,21.8-17.26,20.89-30.88,30C640.18,718.21,640.18,727.29,641.09,733.65Z"/><path class="cls-2" d="M731.67,660.39l-45.79,38.7C681,689.59,674.81,683,670.16,681c-14.53,21.8-17.26,20.89-30.88,30,.9,7.27.9,16.35,1.81,22.71a10,10,0,0,1-1.74,2.69c-11.45,13.17-60.63,17.21-66.94,4.27a7.09,7.09,0,0,1-.35-5.14v-21.8c-23.62-11.81-30-20-34.52-36.34-7.15,8.23-13.21,15.79-17.9,23.25l-60.78-32.12.56-1.12c14.64-29.2,38.13-44.13,49.05-50.87,51.78,1.82,102.65,2.73,167.14-1.81C702.35,623.3,720.24,640.2,731.67,660.39Z"/><rect class="cls-1" x="568.72" y="560.2" width="50.44" height="86.59" rx="25.22" ry="25.22"/><rect class="cls-3" x="574.61" y="587.95" width="10.93" height="17.66" rx="5.46" ry="5.46"/><rect class="cls-4" x="569.41" y="589.27" width="46.4" height="1.55"/><path class="cls-4" d="M598.27,589.27a9,9,0,0,1-18,0Z"/><path class="cls-4" d="M579.2,589.27a9,9,0,0,1-18,0Z"/><circle class="cls-5" cx="618.32" cy="593.83" r="5.04"/><ellipse class="cls-3" cx="617.9" cy="593.31" rx="2.41" ry="2.11" transform="translate(-171.16 926.77) rotate(-66.75)"/><path class="cls-5" d="M602.35,614.85a18.5,18.5,0,0,1-37,0Z"/><rect class="cls-6" x="567.04" y="613.17" width="29.43" height="1.68"/><path class="cls-7" d="M621.68,582.06H567.05a27.32,27.32,0,0,1,54.63,0Z"/><ellipse class="cls-7" cx="626.31" cy="580.8" rx="13.87" ry="1.26"/><rect class="cls-6" x="567.04" y="611.49" width="1.68" height="3.36" rx="0.84" ry="0.84"/><rect class="cls-6" x="594.78" y="611.49" width="1.68" height="3.36" rx="0.84" ry="0.84"/><polygon points="583.86 624.1 583.86 629.03 578.01 633.62 572.17 629.03 572.17 624.1 583.86 624.1"/><path class="cls-1" d="M1039.2,745.43c-7.31,16.91-74.49,21.8-69,1.81v-21.8c-23.62-11.81-30-20-34.52-36.33-30,34.52-40.87,57.22-10.9,109.91,4.54,26.34-14.53,40.88-39.06,35.43-24.54-.93-61.09-89.64-28.16-155.34,14.65-29.2,38.14-44.12,49.06-50.86,51.77,1.81,102.64,2.72,167.14-1.82,92.65,30,79,159,59,180.77-26.34,34.51-61.77,4.54-53.59-21.81,29.06-41.78,2.68-86.77-10.9-92.65-14.54,21.8-17.26,20.89-30.89,30C1038.29,730,1038.29,739.07,1039.2,745.43Z"/><path class="cls-2" d="M1129.78,672.17,1084,710.86c-4.91-9.5-11.07-16.1-15.72-18.12-14.54,21.8-17.26,20.89-30.89,30,.91,7.26.91,16.35,1.82,22.71a10,10,0,0,1-1.75,2.68c-11.44,13.18-60.62,17.21-66.93,4.27a7.08,7.08,0,0,1-.36-5.14v-21.8c-23.62-11.81-30-20-34.52-36.33-7.15,8.23-13.2,15.78-17.89,23.24L857,680.23l.55-1.12c14.65-29.2,38.14-44.12,49.06-50.86,51.77,1.81,102.64,2.72,167.14-1.82C1100.46,635.08,1118.34,652,1129.78,672.17Z"/><rect class="cls-1" x="966.83" y="571.98" width="50.44" height="86.59" rx="25.22" ry="25.22"/><rect class="cls-3" x="972.71" y="599.72" width="10.93" height="17.66" rx="5.46" ry="5.46"/><rect class="cls-4" x="967.51" y="601.04" width="46.4" height="1.55"/><path class="cls-4" d="M996.38,601a9,9,0,0,1-18,0Z"/><path class="cls-4" d="M977.3,601a9,9,0,0,1-18,0Z"/><circle class="cls-5" cx="1016.43" cy="605.6" r="5.04"/><ellipse class="cls-3" cx="1016.01" cy="605.08" rx="2.41" ry="2.11" transform="translate(58.95 1299.66) rotate(-66.75)"/><path class="cls-5" d="M1000.46,626.62a18.5,18.5,0,1,1-37,0Z"/><rect class="cls-6" x="965.15" y="624.94" width="29.43" height="1.68"/><path class="cls-7" d="M1019.79,593.83H965.16a27.32,27.32,0,0,1,54.63,0Z"/><ellipse class="cls-7" cx="1024.42" cy="592.57" rx="13.87" ry="1.26"/><rect class="cls-6" x="965.15" y="623.26" width="1.68" height="3.36" rx="0.84" ry="0.84"/><rect class="cls-6" x="992.89" y="623.26" width="1.68" height="3.36" rx="0.84" ry="0.84"/><polygon points="981.96 635.87 981.96 640.8 976.12 645.4 970.27 640.8 970.27 635.87 981.96 635.87"/><path class="cls-1" d="M1441.09,737.65c-7.3,16.92-74.48,21.8-69,1.82v-21.8c-23.62-11.81-30-20-34.52-36.34-30,34.52-40.88,57.23-10.9,109.92,4.54,26.34-14.54,40.87-39.06,35.42-24.54-.92-61.1-89.63-28.16-155.33,14.64-29.21,38.13-44.13,49-50.87,51.78,1.82,102.65,2.73,167.14-1.81,92.65,30,79,159,59,180.76-26.34,34.52-61.77,4.54-53.59-21.8,29.07-41.78,2.68-86.77-10.9-92.65-14.53,21.8-17.26,20.89-30.88,30C1440.18,722.21,1440.18,731.29,1441.09,737.65Z"/><path class="cls-2" d="M1531.67,664.39l-45.79,38.7c-4.91-9.5-11.07-16.11-15.72-18.12-14.53,21.8-17.26,20.89-30.88,30,.9,7.27.9,16.35,1.81,22.71a10,10,0,0,1-1.74,2.69c-11.45,13.17-60.63,17.21-66.94,4.27a7.09,7.09,0,0,1-.35-5.14v-21.8c-23.62-11.81-30-20-34.52-36.34-7.15,8.23-13.21,15.79-17.9,23.25l-60.78-32.12.56-1.12c14.64-29.2,38.13-44.13,49-50.87,51.78,1.82,102.65,2.73,167.14-1.81C1502.35,627.3,1520.24,644.2,1531.67,664.39Z"/><rect class="cls-1" x="1368.72" y="564.2" width="50.44" height="86.59" rx="25.22" ry="25.22"/><rect class="cls-3" x="1374.61" y="591.95" width="10.93" height="17.66" rx="5.46" ry="5.46"/><rect class="cls-4" x="1369.41" y="593.27" width="46.4" height="1.55"/><path class="cls-4" d="M1398.27,593.27a9,9,0,0,1-18,0Z"/><path class="cls-4" d="M1379.2,593.27a9,9,0,0,1-18,0Z"/><circle class="cls-5" cx="1418.32" cy="597.83" r="5.04"/><ellipse class="cls-3" cx="1417.9" cy="597.31" rx="2.41" ry="2.11" transform="translate(309.32 1664.2) rotate(-66.75)"/><path class="cls-5" d="M1402.35,618.85a18.5,18.5,0,0,1-37,0Z"/><rect class="cls-6" x="1367.04" y="617.17" width="29.43" height="1.68"/><path class="cls-7" d="M1421.68,586.06h-54.63a27.32,27.32,0,0,1,54.63,0Z"/><ellipse class="cls-7" cx="1426.31" cy="584.8" rx="13.87" ry="1.26"/><rect class="cls-6" x="1367.04" y="615.49" width="1.68" height="3.36" rx="0.84" ry="0.84"/><rect class="cls-6" x="1394.78" y="615.49" width="1.68" height="3.36" rx="0.84" ry="0.84"/><polygon points="1383.86 628.1 1383.86 633.03 1378.01 637.62 1372.17 633.03 1372.17 628.1 1383.86 628.1"/><path class="cls-1" d="M1840.09,731.65c-7.3,16.92-74.48,21.8-69,1.82v-21.8c-23.62-11.81-30-20-34.52-36.34-30,34.52-40.88,57.23-10.9,109.92,4.54,26.34-14.54,40.87-39.06,35.42-24.54-.92-61.1-89.63-28.16-155.33,14.64-29.21,38.13-44.13,49-50.87,51.78,1.82,102.65,2.73,167.14-1.81,92.65,30,79,159,59,180.76-26.34,34.52-61.77,4.54-53.59-21.8,29.07-41.78,2.68-86.77-10.9-92.65-14.53,21.8-17.26,20.89-30.88,30C1839.18,716.21,1839.18,725.29,1840.09,731.65Z"/><path class="cls-2" d="M1930.67,658.39l-45.79,38.7c-4.91-9.5-11.07-16.11-15.72-18.12-14.53,21.8-17.26,20.89-30.88,30,.9,7.27.9,16.35,1.81,22.71a10,10,0,0,1-1.74,2.69c-11.45,13.17-60.63,17.21-66.94,4.27a7.09,7.09,0,0,1-.35-5.14v-21.8c-23.62-11.81-30-20-34.52-36.34-7.15,8.23-13.21,15.79-17.9,23.25l-60.78-32.12.56-1.12c14.64-29.2,38.13-44.13,49-50.87,51.78,1.82,102.65,2.73,167.14-1.81C1901.35,621.3,1919.24,638.2,1930.67,658.39Z"/><rect class="cls-1" x="1767.72" y="558.2" width="50.44" height="86.59" rx="25.22" ry="25.22"/><rect class="cls-3" x="1773.61" y="585.95" width="10.93" height="17.66" rx="5.46" ry="5.46"/><rect class="cls-4" x="1768.41" y="587.27" width="46.4" height="1.55"/><path class="cls-4" d="M1797.27,587.27a9,9,0,0,1-18,0Z"/><path class="cls-4" d="M1778.2,587.27a9,9,0,0,1-18,0Z"/><circle class="cls-5" cx="1817.32" cy="591.83" r="5.04"/><ellipse class="cls-3" cx="1816.9" cy="591.31" rx="2.41" ry="2.11" transform="translate(556.3 2027.16) rotate(-66.75)"/><path class="cls-5" d="M1801.35,612.85a18.5,18.5,0,0,1-37,0Z"/><rect class="cls-6" x="1766.04" y="611.17" width="29.43" height="1.68"/><path class="cls-7" d="M1820.68,580.06h-54.63a27.32,27.32,0,0,1,54.63,0Z"/><ellipse class="cls-7" cx="1825.31" cy="578.8" rx="13.87" ry="1.26"/><rect class="cls-6" x="1766.04" y="609.49" width="1.68" height="3.36" rx="0.84" ry="0.84"/><rect class="cls-6" x="1793.78" y="609.49" width="1.68" height="3.36" rx="0.84" ry="0.84"/><polygon points="1782.86 622.1 1782.86 627.03 1777.01 631.62 1771.17 627.03 1771.17 622.1 1782.86 622.1"/><path class="cls-1" d="M2240.09,733.65c-7.3,16.92-74.48,21.8-69,1.82v-21.8c-23.62-11.81-30-20-34.52-36.34-30,34.52-40.88,57.23-10.9,109.92,4.54,26.34-14.54,40.87-39.06,35.42-24.54-.92-61.1-89.63-28.16-155.33,14.64-29.21,38.13-44.13,49-50.87,51.78,1.82,102.65,2.73,167.14-1.81,92.65,30,79,159,59,180.76-26.34,34.52-61.77,4.54-53.59-21.8,29.07-41.78,2.68-86.77-10.9-92.65-14.53,21.8-17.26,20.89-30.88,30C2239.18,718.21,2239.18,727.29,2240.09,733.65Z"/><path class="cls-2" d="M2330.67,660.39l-45.79,38.7c-4.91-9.5-11.07-16.11-15.72-18.12-14.53,21.8-17.26,20.89-30.88,30,.9,7.27.9,16.35,1.81,22.71a10,10,0,0,1-1.74,2.69c-11.45,13.17-60.63,17.21-66.94,4.27a7.09,7.09,0,0,1-.35-5.14v-21.8c-23.62-11.81-30-20-34.52-36.34-7.15,8.23-13.21,15.79-17.9,23.25l-60.78-32.12c.19-.37.37-.75.56-1.12,14.64-29.2,38.13-44.13,49-50.87,51.78,1.82,102.65,2.73,167.14-1.81C2301.35,623.3,2319.24,640.2,2330.67,660.39Z"/><rect class="cls-1" x="2167.72" y="560.2" width="50.44" height="86.59" rx="25.22" ry="25.22"/><rect class="cls-3" x="2173.61" y="587.95" width="10.93" height="17.66" rx="5.46" ry="5.46"/><rect class="cls-4" x="2168.41" y="589.27" width="46.4" height="1.55"/><path class="cls-4" d="M2197.27,589.27a9,9,0,0,1-18,0Z"/><path class="cls-4" d="M2178.2,589.27a9,9,0,0,1-18,0Z"/><circle class="cls-5" cx="2217.32" cy="593.83" r="5.04"/><ellipse class="cls-3" cx="2216.9" cy="593.31" rx="2.41" ry="2.11" transform="translate(796.54 2395.87) rotate(-66.75)"/><path class="cls-5" d="M2201.35,614.85a18.5,18.5,0,0,1-37,0Z"/><rect class="cls-6" x="2166.04" y="613.17" width="29.43" height="1.68"/><path class="cls-7" d="M2220.68,582.06h-54.63a27.32,27.32,0,0,1,54.63,0Z"/><ellipse class="cls-7" cx="2225.31" cy="580.8" rx="13.87" ry="1.26"/><rect class="cls-6" x="2166.04" y="611.49" width="1.68" height="3.36" rx="0.84" ry="0.84"/><rect class="cls-6" x="2193.78" y="611.49" width="1.68" height="3.36" rx="0.84" ry="0.84"/><polygon points="2182.86 624.1 2182.86 629.03 2177.01 633.62 2171.17 629.03 2171.17 624.1 2182.86 624.1"/><path class="cls-1" d="M2639.76,744.65c-7.3,16.92-74.49,21.8-69,1.82v-21.8c-23.62-11.81-30-20-34.52-36.34-30,34.52-40.88,57.23-10.9,109.92,4.54,26.34-14.54,40.87-39.06,35.42-24.54-.92-61.1-89.63-28.16-155.33,14.64-29.21,38.13-44.13,49-50.87,51.78,1.82,102.65,2.73,167.14-1.81,92.65,30,79,159,59,180.76-26.34,34.52-61.77,4.54-53.59-21.8,29.07-41.78,2.68-86.77-10.9-92.65-14.53,21.8-17.26,20.89-30.89,30C2638.85,729.21,2638.85,738.29,2639.76,744.65Z"/><path class="cls-2" d="M2730.34,671.39l-45.79,38.7c-4.91-9.5-11.07-16.11-15.72-18.12-14.53,21.8-17.26,20.89-30.89,30,.91,7.27.91,16.35,1.82,22.71a10,10,0,0,1-1.74,2.69c-11.45,13.17-60.63,17.21-66.94,4.27a7.09,7.09,0,0,1-.35-5.14v-21.8c-23.62-11.81-30-20-34.52-36.34-7.15,8.23-13.21,15.79-17.9,23.25l-60.78-32.12c.18-.37.37-.75.56-1.12,14.64-29.2,38.13-44.13,49-50.87,51.78,1.82,102.65,2.73,167.14-1.81C2701,634.3,2718.91,651.2,2730.34,671.39Z"/><rect class="cls-1" x="2567.39" y="571.2" width="50.44" height="86.59" rx="25.22" ry="25.22"/><rect class="cls-3" x="2573.28" y="598.95" width="10.93" height="17.66" rx="5.46" ry="5.46"/><rect class="cls-4" x="2568.08" y="600.27" width="46.4" height="1.55"/><path class="cls-4" d="M2596.94,600.27a9,9,0,0,1-18,0Z"/><path class="cls-4" d="M2577.87,600.27a9,9,0,0,1-18,0Z"/><circle class="cls-5" cx="2616.99" cy="604.83" r="5.04"/><ellipse class="cls-3" cx="2616.57" cy="604.31" rx="2.41" ry="2.11" transform="translate(1028.31 2769.73) rotate(-66.75)"/><path class="cls-5" d="M2601,625.85a18.5,18.5,0,0,1-37,0Z"/><rect class="cls-6" x="2565.71" y="624.17" width="29.43" height="1.68"/><path class="cls-7" d="M2620.35,593.06h-54.63a27.32,27.32,0,0,1,54.63,0Z"/><ellipse class="cls-7" cx="2624.98" cy="591.8" rx="13.87" ry="1.26"/><rect class="cls-6" x="2565.71" y="622.49" width="1.68" height="3.36" rx="0.84" ry="0.84"/><rect class="cls-6" x="2593.45" y="622.49" width="1.68" height="3.36" rx="0.84" ry="0.84"/><polygon points="2582.53 635.1 2582.53 640.03 2576.68 644.62 2570.84 640.03 2570.84 635.1 2582.53 635.1"/><path class="cls-1" d="M3041.09,733.65c-7.3,16.92-74.48,21.8-69,1.82v-21.8c-23.62-11.81-30-20-34.52-36.34-30,34.52-40.88,57.23-10.9,109.92,4.54,26.34-14.54,40.87-39.06,35.42-24.54-.92-61.1-89.63-28.16-155.33,14.64-29.21,38.13-44.13,49-50.87,51.78,1.82,102.65,2.73,167.14-1.81,92.65,30,79,159,59,180.76-26.34,34.52-61.77,4.54-53.59-21.8,29.07-41.78,2.68-86.77-10.9-92.65-14.53,21.8-17.26,20.89-30.88,30C3040.18,718.21,3040.18,727.29,3041.09,733.65Z"/><path class="cls-2" d="M3131.67,660.39l-45.79,38.7c-4.91-9.5-11.07-16.11-15.72-18.12-14.53,21.8-17.26,20.89-30.88,30,.9,7.27.9,16.35,1.81,22.71a10,10,0,0,1-1.74,2.69c-11.45,13.17-60.63,17.21-66.94,4.27a7.09,7.09,0,0,1-.35-5.14v-21.8c-23.62-11.81-30-20-34.52-36.34-7.15,8.23-13.21,15.79-17.9,23.25l-60.78-32.12c.19-.37.37-.75.56-1.12,14.64-29.2,38.13-44.13,49-50.87,51.78,1.82,102.65,2.73,167.14-1.81C3102.35,623.3,3120.24,640.2,3131.67,660.39Z"/><rect class="cls-1" x="2968.72" y="560.2" width="50.44" height="86.59" rx="25.22" ry="25.22"/><rect class="cls-3" x="2974.61" y="587.95" width="10.93" height="17.66" rx="5.46" ry="5.46"/><rect class="cls-4" x="2969.41" y="589.27" width="46.4" height="1.55"/><path class="cls-4" d="M2998.27,589.27a9,9,0,0,1-18,0Z"/><path class="cls-4" d="M2979.2,589.27a9,9,0,0,1-18,0Z"/><circle class="cls-5" cx="3018.32" cy="593.83" r="5.04"/><ellipse class="cls-3" cx="3017.9" cy="593.31" rx="2.41" ry="2.11" transform="translate(1281.3 3131.8) rotate(-66.75)"/><path class="cls-5" d="M3002.35,614.85a18.5,18.5,0,0,1-37,0Z"/><rect class="cls-6" x="2967.04" y="613.17" width="29.43" height="1.68"/><path class="cls-7" d="M3021.68,582.06h-54.63a27.32,27.32,0,0,1,54.63,0Z"/><ellipse class="cls-7" cx="3026.31" cy="580.8" rx="13.87" ry="1.26"/><rect class="cls-6" x="2967.04" y="611.49" width="1.68" height="3.36" rx="0.84" ry="0.84"/><rect class="cls-6" x="2994.78" y="611.49" width="1.68" height="3.36" rx="0.84" ry="0.84"/><polygon points="2983.86 624.1 2983.86 629.03 2978.01 633.62 2972.17 629.03 2972.17 624.1 2983.86 624.1"/><path class="cls-8" d="M235.13,752.59c0,.83.09,1.66.13,2.48H176c-2.78-6.53-6.12-12.39-3.53-17.93,21.8,1.82,49-3.63,67.21-2.72C240.9,738.75,237.86,745.92,235.13,752.59Z"/><path class="cls-8" d="M635.77,752.59c0,.83.09,1.66.13,2.48H576.63c-2.78-6.53-6.12-12.39-3.53-17.93,21.8,1.82,49-3.63,67.21-2.72C641.54,738.75,638.5,745.92,635.77,752.59Z"/><path class="cls-8" d="M1034.22,763.59c0,.83.09,1.66.13,2.48H975.08c-2.78-6.53-6.12-12.39-3.53-17.93,21.8,1.82,49.05-3.63,67.21-2.72C1040,749.75,1037,756.92,1034.22,763.59Z"/><path class="cls-8" d="M1435.77,754.59c0,.83.09,1.66.13,2.48h-59.27c-2.78-6.53-6.12-12.39-3.53-17.93,21.8,1.82,49.05-3.63,67.21-2.72C1441.54,740.75,1438.5,747.92,1435.77,754.59Z"/><path class="cls-8" d="M1835.11,748.59c0,.83.09,1.66.13,2.48H1776c-2.78-6.53-6.12-12.39-3.53-17.93,21.8,1.82,49-3.63,67.21-2.72C1840.88,734.75,1837.84,741.92,1835.11,748.59Z"/><path class="cls-8" d="M2235.11,750.59c0,.83.09,1.66.13,2.48H2176c-2.78-6.53-6.12-12.39-3.53-17.93,21.8,1.82,49-3.63,67.21-2.72C2240.88,736.75,2237.84,743.92,2235.11,750.59Z"/><path class="cls-8" d="M2634.44,759.59c0,.83.09,1.66.13,2.48H2575.3c-2.78-6.53-6.12-12.39-3.53-17.93,21.8,1.82,49.05-3.63,67.21-2.72C2640.21,745.75,2637.17,752.92,2634.44,759.59Z"/><path class="cls-8" d="M3036.11,750.59c0,.83.09,1.66.13,2.48H2977c-2.78-6.53-6.12-12.39-3.53-17.93,21.8,1.82,49-3.63,67.21-2.72C3041.88,736.75,3038.84,743.92,3036.11,750.59Z"/><path class="cls-8" d="M3036.11,752.7c0,.83.09,1.66.13,2.48H2977c-2.78-6.53-6.12-12.39-3.53-17.93,21.8,1.82,49-3.63,67.21-2.72C3041.88,738.86,3038.84,746,3036.11,752.7Z"/><ellipse class="cls-8" cx="3006.75" cy="754.21" rx="29.75" ry="17.5"/><path class="cls-8" d="M2634.44,761.7c0,.83.09,1.66.13,2.48H2575.3c-2.78-6.53-6.12-12.39-3.53-17.93,21.8,1.82,49.05-3.63,67.21-2.72C2640.21,747.86,2637.17,755,2634.44,761.7Z"/><ellipse class="cls-8" cx="2605.08" cy="763.21" rx="29.75" ry="17.5"/><path class="cls-8" d="M2235.11,754.81c0,.83.09,1.66.13,2.48H2176c-2.78-6.53-6.12-12.39-3.53-17.93,21.8,1.82,49-3.63,67.21-2.72C2240.88,741,2237.84,748.14,2235.11,754.81Z"/><ellipse class="cls-8" cx="2205.75" cy="756.32" rx="29.75" ry="17.5"/><path class="cls-8" d="M1835.11,750.7c0,.83.09,1.66.13,2.48H1776c-2.78-6.53-6.12-12.39-3.53-17.93,21.8,1.82,49-3.63,67.21-2.72C1840.88,736.86,1837.84,744,1835.11,750.7Z"/><ellipse class="cls-8" cx="1805.75" cy="752.21" rx="29.75" ry="17.5"/><path class="cls-8" d="M1435.77,758.81c0,.83.09,1.66.13,2.48h-59.27c-2.78-6.53-6.12-12.39-3.53-17.93,21.8,1.82,49.05-3.63,67.21-2.72C1441.54,745,1438.5,752.14,1435.77,758.81Z"/><ellipse class="cls-8" cx="1406.41" cy="760.32" rx="29.75" ry="17.5"/><path class="cls-8" d="M1034.22,767.58c0,.83.09,1.66.13,2.48H975.08c-2.78-6.53-6.12-12.39-3.53-17.93,21.8,1.82,49.05-3.63,67.21-2.72C1040,753.74,1037,760.91,1034.22,767.58Z"/><ellipse class="cls-8" cx="1004.86" cy="769.09" rx="29.75" ry="17.5"/><path class="cls-8" d="M635.77,756.19c0,.83.09,1.66.13,2.48H576.63c-2.78-6.53-6.12-12.39-3.53-17.93,21.8,1.82,49-3.63,67.21-2.72C641.54,742.35,638.5,749.52,635.77,756.19Z"/><ellipse class="cls-8" cx="606.41" cy="757.71" rx="29.75" ry="17.5"/><path class="cls-8" d="M235.13,756.19c0,.83.09,1.66.13,2.48H176c-2.78-6.53-6.12-12.39-3.53-17.93,21.8,1.82,49-3.63,67.21-2.72C240.9,742.35,237.86,749.52,235.13,756.19Z"/><ellipse class="cls-8" cx="205.77" cy="757.71" rx="29.75" ry="17.5"/><path class="cls-8" d="M3008,768.77c-31.68,51.32-29.3,50.65-73.34,120.5-2.36-.14-10.48-.61-15.63-6.7,35.37-58.24,20.77-33.21,69.66-118.27C2993.34,764,3002.42,762.28,3008,768.77Z"/><path d="M3013.88,763.88c7.93,20,14.07,38.33,22,53.14,27.33,22.34,51.06,40,70.87,53.62,3.87-2.55,6.25-8.4,5.72-13.64-27.07-13.88-33.89-19-66.47-44.68-12.54-29.39-14.52-36-21.56-53.85C3020.45,757.74,3016,760.43,3013.88,763.88Z"/><path d="M2584.52,771.87c-15.79,17.59-19,18.29-42.69,44.09,5.63,38.24,5.39,35.42,11.73,67.32,4.19,2.41,12.32,5.31,16.18,1.88-3.75-23.92-5.16-26.5-11.73-64.5,29.56-27.21,24.63-26.51,42-38.94C2599.1,776.16,2590.8,772.4,2584.52,771.87Z"/><path d="M2604.69,780.31c20,27.44,29.18,40.35,36.06,50.9,30.84,12.2,37.3,13.61,66.07,20.88,2.4-3.71,1.15-9.9-.84-13.84-30-6.1-34-7-59.4-18.53-12.92-27.21-15.49-38.57-24.17-52.31C2615.62,765.72,2606.9,772.51,2604.69,780.31Z"/><path d="M2185.73,741.83c-4.91,30.49-2.95,19-11,67.79,34.95,11.49,45.94,13.84,69.5,18.29,2.32-4.74,1.54-11-1.65-15.73-34.52-5.14-32.31-6.32-53.71-10.3,3.14-28.15,3.73-29.56,9.62-55.83A11.23,11.23,0,0,0,2185.73,741.83Z"/><path d="M2222.58,744.17c4.17,68.91,6.28,72.43,15,140.74-1,.56-8.63,4.61-17.36,1.88-6.33-57-4.93-42.4-12.2-141.68A20.7,20.7,0,0,1,2222.58,744.17Z"/><path d="M1785.31,744.42c-18.53,24.86-10.79,15.48-44.34,58.17,26.74,32.6,32.61,38,49,57.7,3.7-.89,8.91-3.84,10.08-8.68-19.93-21.81-24.63-27.44-41.75-49.73,25.33-29.08,28.62-30.72,41.52-47.14C1798.61,748.83,1791,745,1785.31,744.42Z"/><path d="M1808.29,755.68c21.35,41.75,32.61,64.73,58.64,126.89,2.73.07,10.77-.15,16.66-5.86-23.22-51.6-30.5-65-55.36-126C1825.29,750.42,1815,749.26,1808.29,755.68Z"/><path d="M1393.79,752.61c-34,55-28.62,46.18-78,125.65,2.35,5.15,5.69,12.5,12.58,14.39,47.91-78,58.53-94.5,82-133.81C1405.45,753.24,1397.66,752.82,1393.79,752.61Z"/><path d="M1412.38,758c10.32,23,13.84,30.73,25.8,55.12,14,13,37.53,29.09,58.64,44.1,4-1.82,7.72-6.44,7.74-11.26-23-16.89-24.39-16.89-55.82-40.58-12-30.49-13.14-37.76-20.17-53.95C1422.87,749.7,1415.48,753,1412.38,758Z"/><path d="M984.22,774c-19.7,18.06-20.4,19.47-43.63,44.8,7.74,38.24,8,39.41,13.84,67.09,4.73,1.53,9.75.3,14.31-1.88-6.1-32.6-7.74-37.53-12.9-61.69,31.43-28.15,31.43-28.15,44.33-38.7C999.36,778.21,990.73,774.52,984.22,774Z"/><path d="M1004.63,782.94c16,20.18,23.69,31.2,39.88,49.5,9.32,4.89,25.19,11.58,60.28,23.22,4-3.68,4.47-11.67,1.64-17.12-31.94-9-30-8.23-53.25-16.89-18.53-32.84-19.23-35.19-27.44-52.31C1017.74,767.39,1007.11,774.66,1004.63,782.94Z"/><path d="M589.88,742.26c-7,30.5-5.16,25.34-13.61,70.37,38.47,10.32,38.47,10.32,65,16.42,3.77-4.45,4.73-12.59,1.17-17.59-24.83-3.94-25.33-2.81-48.09-6.8,4.23-29.32,4.23-29.32,10.09-56.77A15,15,0,0,0,589.88,742.26Z"/><path d="M623.89,747.66C626,794.1,626,794.1,639.14,888.16c-.73.42-8.23,4.59-16.89,2.11-6.34-62.16-6.1-65-12.9-137.45C612.42,750.54,617.73,746.61,623.89,747.66Z"/><path d="M186.76,743.38c-15.71,19.94-16.18,21.87-41,53.71,25.34,37.06,28.95,41,45.51,62.4a13.54,13.54,0,0,0,9.38-10.56c-22.11-25-24.16-28.15-40.11-47.38,27.91-31.43,31.2-34.95,43.16-49.26C202.14,746.44,193,743.47,186.76,743.38Z"/><path d="M210.69,754.17c24.86,52.07,36.59,78.11,59.11,127.13,7.63-.67,12.54-6.77,14.07-8.68-30.49-63.56-37.53-79.75-57.23-122.91C223.65,749.55,216,749.14,210.69,754.17Z"/><ellipse class="cls-9" cx="230.56" cy="881.61" rx="64.34" ry="8.34"/><ellipse class="cls-9" cx="605.06" cy="881.61" rx="64.34" ry="8.34"/><ellipse class="cls-9" cx="1005.06" cy="881.61" rx="64.34" ry="8.34"/><ellipse class="cls-9" cx="1396.06" cy="881.61" rx="64.34" ry="8.34"/><ellipse class="cls-9" cx="1797.06" cy="881.61" rx="64.34" ry="8.34"/><ellipse class="cls-9" cx="2206.06" cy="881.61" rx="64.34" ry="8.34"/><ellipse class="cls-9" cx="2599.73" cy="878.61" rx="64.34" ry="8.34"/><ellipse class="cls-9" cx="2996.06" cy="881.61" rx="64.34" ry="8.34"/><path class="cls-1" d="M242.52,1231.87c-7.5,17.36-76.46,22.38-70.87,1.86v-22.38c-24.24-12.12-30.77-20.51-35.43-37.3-30.77,35.44-42,58.75-11.19,112.83,4.66,27-14.92,42-40.1,36.37-25.19-1-62.71-92-28.9-159.45,15-30,39.14-45.3,50.35-52.22,53.15,1.86,105.37,2.8,171.57-1.87,95.11,30.77,81.12,163.18,60.61,185.56-27,35.44-63.41,4.67-55-22.38,29.83-42.89,2.75-89.07-11.19-95.11-14.92,22.38-17.72,21.45-31.71,30.77C241.58,1216,241.58,1225.34,242.52,1231.87Z"/><path class="cls-2" d="M335.5,1156.66l-47,39.73c-5.05-9.76-11.37-16.54-16.14-18.61-14.92,22.38-17.72,21.45-31.71,30.77.93,7.46.93,16.79,1.87,23.32a10.49,10.49,0,0,1-1.79,2.76C229,1248.15,178.49,1252.29,172,1239a7.35,7.35,0,0,1-.36-5.28v-22.38c-24.24-12.12-30.77-20.51-35.43-37.3-7.34,8.45-13.56,16.21-18.37,23.87l-62.39-33q.27-.57.57-1.14c15-30,39.14-45.3,50.35-52.22,53.15,1.86,105.37,2.8,171.57-1.87C305.4,1118.59,323.76,1135.93,335.5,1156.66Z"/><path class="cls-8" d="M183.31,1363.34c4.65,2.92,13.88,4,18.65.94,7.45-27-8.4-82.06,0-103.51,4.13-2.44,10.19-1.53,14,.93,6.53,23.32,3.73,73.67,6.53,101.64,4.36,3,11.19,6.53,19.58,0,0-20.51-1.86-56.88-4.66-111,2.8-6.84,5.91-14.2,4.66-18.65-18.65-.93-46.62,4.66-69,2.8-2.69,5.76.86,11.84,3.73,18.65C181.44,1313.92,180.51,1341.9,183.31,1363.34Z"/><rect class="cls-1" x="168.23" y="1053.82" width="51.78" height="88.89" rx="25.89" ry="25.89"/><rect class="cls-3" x="174.27" y="1082.3" width="11.22" height="18.12" rx="5.61" ry="5.61"/><rect class="cls-4" x="168.93" y="1083.66" width="47.63" height="1.59"/><path class="cls-4" d="M198.56,1083.66a9.26,9.26,0,0,1-18.51,0Z"/><path class="cls-4" d="M179,1083.66a9.26,9.26,0,0,1-18.51,0Z"/><circle class="cls-5" cx="219.15" cy="1088.34" r="5.18"/><ellipse class="cls-3" cx="218.71" cy="1087.8" rx="2.48" ry="2.17" transform="translate(-867.07 859.27) rotate(-66.75)"/><path class="cls-5" d="M202.75,1109.91a19,19,0,1,1-38,0Z"/><rect class="cls-6" x="166.5" y="1108.19" width="30.21" height="1.73"/><path class="cls-7" d="M222.59,1076.25H166.51a28,28,0,0,1,56.08,0Z"/><ellipse class="cls-7" cx="227.35" cy="1074.96" rx="14.24" ry="1.29"/><rect class="cls-6" x="166.5" y="1106.46" width="1.73" height="3.45" rx="0.86" ry="0.86"/><rect class="cls-6" x="194.98" y="1106.46" width="1.73" height="3.45" rx="0.86" ry="0.86"/><polygon points="183.76 1119.4 183.76 1124.47 177.76 1129.18 171.77 1124.47 171.77 1119.4 183.76 1119.4"/><ellipse class="cls-9" cx="213.35" cy="1362.17" rx="66.05" ry="8.56"/><path class="cls-1" d="M640,1232.87c-7.5,17.36-76.46,22.38-70.87,1.86v-22.38c-24.24-12.12-30.77-20.51-35.43-37.3-30.77,35.44-42,58.75-11.19,112.83,4.66,27-14.92,42-40.1,36.37-25.19-1-62.71-92-28.9-159.45,15-30,39.14-45.3,50.35-52.22,53.15,1.86,105.37,2.8,171.57-1.87,95.11,30.77,81.12,163.18,60.61,185.56-27,35.44-63.41,4.67-55-22.38,29.83-42.89,2.75-89.07-11.19-95.11-14.92,22.38-17.72,21.45-31.71,30.77C639.08,1217,639.08,1226.34,640,1232.87Z"/><path class="cls-2" d="M733,1157.66l-47,39.73c-5-9.76-11.37-16.54-16.14-18.61-14.92,22.38-17.72,21.45-31.71,30.77.93,7.46.93,16.79,1.87,23.32a10.49,10.49,0,0,1-1.79,2.76c-11.75,13.52-62.24,17.66-68.72,4.38a7.35,7.35,0,0,1-.36-5.28v-22.38c-24.24-12.12-30.77-20.51-35.43-37.3-7.34,8.45-13.56,16.21-18.37,23.87l-62.39-33q.27-.57.57-1.14c15-30,39.14-45.3,50.35-52.22,53.15,1.86,105.37,2.8,171.57-1.87C702.9,1119.59,721.26,1136.93,733,1157.66Z"/><path class="cls-8" d="M580.81,1364.34c4.65,2.92,13.88,4,18.65.94,7.45-27-8.4-82.06,0-103.51,4.13-2.44,10.19-1.53,14,.93,6.53,23.32,3.73,73.67,6.53,101.64,4.36,3,11.19,6.53,19.58,0,0-20.51-1.86-56.88-4.66-111,2.8-6.84,5.91-14.2,4.66-18.65-18.65-.93-46.62,4.66-69,2.8-2.69,5.76.86,11.84,3.73,18.65C578.94,1314.92,578,1342.9,580.81,1364.34Z"/><rect class="cls-1" x="565.73" y="1054.82" width="51.78" height="88.89" rx="25.89" ry="25.89"/><rect class="cls-3" x="571.77" y="1083.3" width="11.22" height="18.12" rx="5.61" ry="5.61"/><rect class="cls-4" x="567.18" y="1088.38" width="47.63" height="1.59" transform="translate(-71.01 41.64) rotate(-3.81)"/><path class="cls-4" d="M596.74,1088a9.26,9.26,0,0,1-18.47,1.23Z"/><path class="cls-4" d="M577.2,1089.3a9.26,9.26,0,0,1-18.47,1.23Z"/><circle class="cls-5" cx="616.65" cy="1089.34" r="5.18"/><ellipse class="cls-3" cx="616.21" cy="1088.8" rx="2.48" ry="2.17" transform="translate(-627.42 1225.09) rotate(-66.75)"/><path class="cls-7" d="M620.09,1077.25H564a28,28,0,0,1,56.08,0Z"/><ellipse class="cls-7" cx="624.85" cy="1075.96" rx="14.24" ry="1.29"/><rect class="cls-6" x="564" y="1110.46" width="1.73" height="3.45" rx="0.86" ry="0.86"/><rect class="cls-6" x="592.48" y="1110.46" width="1.73" height="3.45" rx="0.86" ry="0.86"/><ellipse class="cls-9" cx="610.85" cy="1363.17" rx="66.05" ry="8.56"/><rect class="cls-4" x="566" y="1085.23" width="5" height="7" rx="2.5" ry="2.5"/><rect class="cls-4" x="583" y="1085.23" width="5" height="7" rx="2.5" ry="2.5"/><path class="cls-10" d="M586,1112.56c0,3.33-3.35,6.08-7.69,6.51a11.76,11.76,0,0,1-1.2.06c-4.76,0-8.64-2.75-8.89-6.22,0-.11,0-.23,0-.35a5.49,5.49,0,0,1,1.68-3.84,9.52,9.52,0,0,1,5.23-2.56,11.7,11.7,0,0,1,2-.17l.73,0c.35,0,.7.06,1,.11a10.67,10.67,0,0,1,2.73.78,7.89,7.89,0,0,1,3.43,2.7A5.2,5.2,0,0,1,586,1112.56Z"/><path class="cls-11" d="M585.48,1110a4,4,0,0,1,1,1.9,9.73,9.73,0,0,1-.84.86c-3.5,3.22-8.22,3.83-10.75,1.45a8.16,8.16,0,0,1,2.25-3.41C579.83,1108.3,583.58,1107.94,585.48,1110Z"/><path class="cls-5" d="M600.25,1114.91a19,19,0,1,1-38,0Z"/><polygon points="581.26 1124.4 581.26 1129.47 575.26 1134.18 569.27 1129.47 569.27 1124.4 581.26 1124.4"/><rect class="cls-6" x="564" y="1113.19" width="30.21" height="1.73"/><path d="M591.09,1027.45a2.17,2.17,0,0,0-2.42-2.27,4.57,4.57,0,0,0-3.28,1.66l-2.92-2.66a9.1,9.1,0,0,1,6.86-3.27c3.88,0,6.83,1.91,6.83,6.17,0,4.43-5.41,5.79-5,10.05h-4.62C585.81,1032.2,591.09,1030.17,591.09,1027.45Zm-5.43,15.11a3.2,3.2,0,1,1,3.2,3.33A3.21,3.21,0,0,1,585.66,1042.56Z"/><path class="cls-1" d="M241.52,230.9c-7.5,17.36-76.46,22.37-70.87,1.86V210.38c-24.24-12.12-30.77-20.51-35.43-37.3-30.77,35.44-42,58.75-11.19,112.83,4.66,27-14.92,42-40.1,36.37-25.19-.95-62.71-92-28.9-159.45,15-30,39.14-45.3,50.35-52.22,53.15,1.86,105.37,2.8,171.57-1.87,95.11,30.77,81.12,163.18,60.61,185.56-27,35.44-63.41,4.67-55-22.38,29.83-42.89,2.75-89.07-11.19-95.11-14.92,22.38-17.72,21.45-31.71,30.77C240.58,215,240.58,224.37,241.52,230.9Z"/><path class="cls-2" d="M334.5,155.69l-47,39.73c-5.05-9.76-11.37-16.54-16.14-18.61-14.92,22.38-17.72,21.45-31.71,30.77.93,7.46.93,16.79,1.87,23.32a10.49,10.49,0,0,1-1.79,2.76C228,247.18,177.49,251.32,171,238a7.35,7.35,0,0,1-.36-5.28V210.38c-24.24-12.12-30.77-20.51-35.43-37.3-7.34,8.45-13.56,16.21-18.37,23.86L54.46,164q.27-.57.57-1.14c15-30,39.14-45.3,50.35-52.22,53.15,1.86,105.37,2.8,171.57-1.87C304.4,117.62,322.76,135,334.5,155.69Z"/><path class="cls-8" d="M182.31,362.37c4.65,2.92,13.88,4,18.65.94,7.45-27.05-8.4-82.06,0-103.51,4.13-2.44,10.19-1.53,14,.93,6.53,23.32,3.73,73.67,6.53,101.64,4.36,2.94,11.19,6.53,19.58,0,0-20.51-1.86-56.88-4.66-111,2.8-6.84,5.91-14.2,4.66-18.65-18.65-.93-46.62,4.66-69,2.8-2.69,5.76.86,11.84,3.73,18.65C180.44,313,179.51,340.93,182.31,362.37Z"/><rect class="cls-1" x="167.23" y="52.85" width="51.78" height="88.89" rx="25.89" ry="25.89"/><rect class="cls-3" x="173.27" y="81.32" width="11.22" height="18.12" rx="5.61" ry="5.61"/><rect class="cls-4" x="167.93" y="82.68" width="47.63" height="1.59"/><path class="cls-4" d="M197.56,82.68a9.26,9.26,0,0,1-18.51,0Z"/><path class="cls-4" d="M178,82.68a9.26,9.26,0,0,1-18.51,0Z"/><circle class="cls-5" cx="218.15" cy="87.37" r="5.18"/><ellipse class="cls-3" cx="217.71" cy="86.83" rx="2.48" ry="2.17" transform="translate(51.98 252.58) rotate(-66.75)"/><path class="cls-5" d="M201.75,108.94a19,19,0,1,1-38,0Z"/><rect class="cls-6" x="165.5" y="107.22" width="30.21" height="1.73"/><path class="cls-7" d="M221.59,75.28H165.51a28,28,0,0,1,56.08,0Z"/><ellipse class="cls-7" cx="226.35" cy="73.99" rx="14.24" ry="1.29"/><rect class="cls-6" x="165.5" y="105.49" width="1.73" height="3.45" rx="0.86" ry="0.86"/><rect class="cls-6" x="193.98" y="105.49" width="1.73" height="3.45" rx="0.86" ry="0.86"/><polygon points="182.76 118.43 182.76 123.5 176.76 128.21 170.77 123.5 170.77 118.43 182.76 118.43"/><ellipse class="cls-9" cx="212.35" cy="361.2" rx="66.05" ry="8.56"/><path class="cls-1" d="M640.52,234.9c-7.5,17.36-76.46,22.37-70.87,1.86V214.38c-24.24-12.12-30.77-20.51-35.43-37.3-30.77,35.44-42,58.75-11.19,112.83,4.66,27-14.92,42-40.1,36.37-25.19-.95-62.71-92-28.9-159.45,15-30,39.14-45.3,50.35-52.22,53.15,1.86,105.37,2.8,171.57-1.87,95.11,30.77,81.12,163.18,60.61,185.56-27,35.44-63.41,4.67-55-22.38,29.83-42.89,2.75-89.07-11.19-95.11-14.92,22.38-17.72,21.45-31.71,30.77C639.58,219,639.58,228.37,640.52,234.9Z"/><path class="cls-2" d="M733.5,159.69l-47,39.73c-5-9.76-11.37-16.54-16.14-18.61-14.92,22.38-17.72,21.45-31.71,30.77.93,7.46.93,16.79,1.87,23.32a10.49,10.49,0,0,1-1.79,2.76C627,251.18,576.49,255.32,570,242a7.35,7.35,0,0,1-.36-5.28V214.38c-24.24-12.12-30.77-20.51-35.43-37.3-7.34,8.45-13.56,16.21-18.37,23.86l-62.39-33q.27-.57.57-1.14c15-30,39.14-45.3,50.35-52.22,53.15,1.86,105.37,2.8,171.57-1.87C703.4,121.62,721.76,139,733.5,159.69Z"/><path class="cls-8" d="M581.31,362.37c4.65,2.92,13.88,4,18.65.94,7.45-27.05-8.4-82.06,0-103.51,4.13-2.44,10.19-1.53,14,.93,6.53,23.32,3.73,73.67,6.53,101.64,4.36,2.94,11.19,6.53,19.58,0,0-20.51-1.86-56.88-4.66-111,2.8-6.84,5.91-14.2,4.66-18.65-18.65-.93-46.62,4.66-69,2.8-2.69,5.76.86,11.84,3.73,18.65C579.44,313,578.51,340.93,581.31,362.37Z"/><rect class="cls-1" x="566.23" y="56.85" width="51.78" height="88.89" rx="25.89" ry="25.89"/><rect class="cls-3" x="572.27" y="85.32" width="11.22" height="18.12" rx="5.61" ry="5.61"/><rect class="cls-4" x="566.93" y="86.68" width="47.63" height="1.59"/><path class="cls-4" d="M596.56,86.68a9.26,9.26,0,0,1-18.51,0Z"/><path class="cls-4" d="M577,86.68a9.26,9.26,0,0,1-18.51,0Z"/><circle class="cls-5" cx="617.15" cy="91.37" r="5.18"/><ellipse class="cls-3" cx="616.71" cy="90.83" rx="2.48" ry="2.17" transform="translate(289.78 621.58) rotate(-66.75)"/><path class="cls-5" d="M600.75,112.94a19,19,0,1,1-38,0Z"/><rect class="cls-6" x="564.5" y="111.22" width="30.21" height="1.73"/><path class="cls-7" d="M620.59,79.28H564.51a28,28,0,0,1,56.08,0Z"/><ellipse class="cls-7" cx="625.35" cy="77.99" rx="14.24" ry="1.29"/><rect class="cls-6" x="564.5" y="109.49" width="1.73" height="3.45" rx="0.86" ry="0.86"/><rect class="cls-6" x="592.98" y="109.49" width="1.73" height="3.45" rx="0.86" ry="0.86"/><polygon points="581.76 122.43 581.76 127.5 575.76 132.21 569.77 127.5 569.77 122.43 581.76 122.43"/><ellipse class="cls-9" cx="611.35" cy="361.2" rx="66.05" ry="8.56"/><path class="cls-1" d="M242.52,1732.1c-7.5,17.37-76.46,22.38-70.87,1.87v-22.38c-24.24-12.12-30.77-20.52-35.43-37.3-30.77,35.43-42,58.74-11.19,112.83,4.66,27-14.92,42-40.1,36.36-25.19-1-62.71-92-28.9-159.45,15-30,39.14-45.3,50.35-52.22,53.15,1.87,105.37,2.8,171.57-1.86,95.11,30.77,81.12,163.18,60.61,185.56-27,35.43-63.41,4.66-55-22.38,29.83-42.89,2.75-89.07-11.19-95.11-14.92,22.38-17.72,21.45-31.71,30.77C241.58,1716.25,241.58,1725.57,242.52,1732.1Z"/><path class="cls-2" d="M335.5,1656.9l-47,39.72c-5.05-9.75-11.37-16.53-16.14-18.6-14.92,22.38-17.72,21.45-31.71,30.77.93,7.46.93,16.78,1.87,23.31a10.33,10.33,0,0,1-1.79,2.76c-11.75,13.52-62.24,17.66-68.72,4.38a7.33,7.33,0,0,1-.36-5.27v-22.38c-24.24-12.12-30.77-20.52-35.43-37.3-7.34,8.45-13.56,16.21-18.37,23.86l-62.39-33c.18-.38.37-.77.57-1.15,15-30,39.14-45.3,50.35-52.22,53.15,1.87,105.37,2.8,171.57-1.86C305.4,1618.83,323.76,1636.17,335.5,1656.9Z"/><path class="cls-8" d="M183.31,1863.58c4.65,2.91,13.88,4,18.65.93,7.45-27-8.4-82.06,0-103.5,4.13-2.44,10.19-1.53,14,.93,6.53,23.31,3.73,73.66,6.53,101.64,4.36,2.94,11.19,6.53,19.58,0,0-20.52-1.86-56.88-4.66-111,2.8-6.84,5.91-14.21,4.66-18.65-18.65-.94-46.62,4.66-69,2.79-2.69,5.76.86,11.85,3.73,18.65C181.44,1814.16,180.51,1842.13,183.31,1863.58Z"/><rect class="cls-1" x="168.23" y="1554.05" width="51.78" height="88.89" rx="25.89" ry="25.89"/><rect class="cls-3" x="174.27" y="1582.53" width="11.22" height="18.12" rx="5.61" ry="5.61"/><rect class="cls-4" x="168.93" y="1583.89" width="47.63" height="1.59"/><path class="cls-4" d="M198.56,1583.89a9.26,9.26,0,0,1-18.51,0Z"/><path class="cls-4" d="M179,1583.89a9.26,9.26,0,0,1-18.51,0Z"/><circle class="cls-5" cx="219.15" cy="1588.57" r="5.18"/><ellipse class="cls-3" cx="218.71" cy="1588.04" rx="2.48" ry="2.17" transform="translate(-1326.67 1162.01) rotate(-66.75)"/><path class="cls-5" d="M202.75,1610.15a19,19,0,0,1-38,0Z"/><rect class="cls-6" x="166.5" y="1608.42" width="30.21" height="1.73"/><path class="cls-7" d="M222.59,1576.49H166.51a28,28,0,0,1,56.08,0Z"/><ellipse class="cls-7" cx="227.35" cy="1575.19" rx="14.24" ry="1.29"/><rect class="cls-6" x="166.5" y="1606.69" width="1.73" height="3.45" rx="0.86" ry="0.86"/><rect class="cls-6" x="194.98" y="1606.69" width="1.73" height="3.45" rx="0.86" ry="0.86"/><polygon points="183.76 1619.64 183.76 1624.7 177.76 1629.42 171.77 1624.7 171.77 1619.64 183.76 1619.64"/><ellipse class="cls-9" cx="213.35" cy="1862.41" rx="66.05" ry="8.56"/><ellipse class="cls-9" cx="612.35" cy="1862.41" rx="66.05" ry="8.56"/><path class="cls-1" d="M742.56,1797.51c-27,35.43-63.41,4.66-55-22.38,19.61-28.2,14.63-57.81,5-76.51-.32-.62-.64-1.22-1-1.81l-.48-.85q-1.35-2.36-2.78-4.43l-.51-.73q-1.44-2-2.91-3.75c-.17-.21-.35-.41-.53-.61s-.34-.39-.52-.58c-.35-.38-.7-.75-1-1.1-.17-.18-.34-.35-.52-.51-.55-.54-1.09-1-1.63-1.48s-.9-.73-1.34-1c-.23-.16-.45-.32-.67-.46s-.57-.37-.85-.53a11.33,11.33,0,0,0-1.38-.71c-14.92,22.38-17.72,21.45-31.71,30.77.93,7.46.93,16.78,1.87,23.31-.09.2-.18.4-.29.6a1.51,1.51,0,0,1-.15.28c-.1.18-.21.36-.32.53a4.15,4.15,0,0,1-.3.43c-.07.1-.14.21-.22.31s-.33.41-.51.61-.37.41-.56.61l-.11.11-.71.68a.05.05,0,0,0,0,0,18,18,0,0,1-1.7,1.35l-.69.48-.26.17c-.32.21-.66.42-1,.62s-.67.4-1,.59l0,0-1.13.59-.08,0-1.09.52-1.22.55-1.27.52a70.93,70.93,0,0,1-11.49,3.4l-.32.07-1.24.25c-1,.2-2.09.39-3.14.57h0c-1.07.17-2.14.33-3.22.47-2.68.36-5.39.6-8.07.73l-.35,0-1.25,0-1.41,0h-.18a73.36,73.36,0,0,1-12.35-.74l-1-.16c-1.3-.22-2.53-.48-3.7-.8l-.82-.23-.87-.27-.8-.27-.76-.28-.06,0-.7-.29c-.48-.21-1-.43-1.38-.66l-.65-.36-.6-.38a5.72,5.72,0,0,1-.57-.39l-.53-.41c-.17-.14-.34-.28-.5-.43a9.82,9.82,0,0,1-.89-.94c-.14-.17-.27-.35-.4-.53l-.29-.46-.06-.1c-.05-.09-.1-.19-.14-.28a.41.41,0,0,1,0-.09,6.73,6.73,0,0,1-.38-1c-.06-.2-.12-.41-.16-.61s-.09-.54-.12-.82,0-.38,0-.58a8.65,8.65,0,0,1,.32-2.29v-22.38c-23.76-11.88-30.5-20.18-35.15-36.31v-62.54c9.42.24,18.91.42,28.54.51,1.06,0,2.12,0,3.19,0,11.18.1,22.56.08,34.27-.1q8.63-.12,17.51-.37c18.27-.51,37.43-1.42,57.94-2.86,1.15.37,2.29.76,3.41,1.17.65.23,1.29.46,1.93.71s1.43.55,2.14.84,1.61.65,2.39,1c.49.21,1,.42,1.46.65s1.05.47,1.57.72c.78.36,1.55.74,2.31,1.12l.32.16c.62.32,1.24.63,1.84,1l.72.39,1.39.76c.36.2.73.41,1.08.63s.74.42,1.1.64l.89.54c.52.31,1,.63,1.54,1,.15.08.29.18.44.28.67.43,1.33.86,2,1.31s1.39,1,2.07,1.45,1.18.85,1.76,1.29c.78.58,1.54,1.17,2.3,1.78s1.24,1,1.85,1.53,1.25,1.07,1.87,1.61q3.11,2.76,5.93,5.74l1,1c.73.79,1.45,1.6,2.15,2.42.31.34.6.69.89,1q1.47,1.72,2.83,3.52c.24.3.48.61.71.92s.62.83.92,1.25a4.73,4.73,0,0,1,.28.39c.3.39.58.8.86,1.2s.54.77.8,1.16a5,5,0,0,1,.3.45c.34.49.67,1,1,1.5a2.11,2.11,0,0,1,.21.31c.35.53.69,1.07,1,1.61.46.73.9,1.46,1.34,2.21l1,1.71C768.44,1710,757.15,1781.59,742.56,1797.51Z"/><path class="cls-2" d="M739.5,1658.9l-47,39.72c-.32-.62-.64-1.22-1-1.81l-.48-.85q-1.35-2.36-2.78-4.43l-.51-.73q-1.44-2-2.91-3.75l-.53-.61-.52-.58c-.35-.38-.7-.75-1-1.1-.17-.18-.35-.35-.52-.51-.55-.54-1.09-1-1.63-1.48s-.9-.73-1.34-1c-.23-.16-.45-.32-.67-.46s-.57-.37-.85-.53a11.33,11.33,0,0,0-1.38-.71c-14.92,22.38-17.72,21.45-31.71,30.77.93,7.46.93,16.78,1.87,23.31-.09.2-.18.4-.29.6a1.51,1.51,0,0,1-.15.28c-.1.18-.21.36-.32.53a4.15,4.15,0,0,1-.3.43c-.07.1-.14.21-.22.31s-.33.41-.51.61-.37.41-.56.61l-.11.11-.71.68a.05.05,0,0,0,0,0c-.52.46-1.09.91-1.7,1.35l-.69.48-.26.17c-.32.21-.66.42-1,.62s-.67.4-1,.59l0,0-1.13.59-.08,0-1.09.52-1.22.55-1.27.52a73.31,73.31,0,0,1-11.49,3.4l-.32.07-1.24.25c-1,.2-2.09.39-3.14.57h0c-1.07.17-2.14.33-3.22.47-2.68.35-5.4.59-8.07.73l-.35,0-1.25,0-1.41,0h-.18a74.42,74.42,0,0,1-12.35-.74l-1-.16c-1.3-.22-2.53-.49-3.7-.8l-.82-.23-.87-.27-.8-.27-.76-.28-.06,0-.7-.29c-.48-.21-1-.43-1.38-.66l-.65-.36-.6-.38a5.72,5.72,0,0,1-.57-.39l-.53-.41c-.17-.14-.34-.28-.5-.43a9.82,9.82,0,0,1-.89-.94c-.14-.17-.27-.35-.4-.53l-.29-.46a.54.54,0,0,1,0-.11,1.82,1.82,0,0,1-.15-.27.41.41,0,0,1,0-.09,6.73,6.73,0,0,1-.38-1c-.06-.2-.12-.41-.16-.61s-.09-.54-.12-.82,0-.38,0-.58a8.65,8.65,0,0,1,.32-2.29v-22.38c-23.76-11.88-30.5-20.18-35.15-36.31v-62.54c9.42.24,18.91.42,28.54.51,1.06,0,2.12,0,3.19,0,11.18.1,22.56.08,34.27-.1q8.63-.12,17.51-.37c18.27-.51,37.43-1.42,57.94-2.86,1.15.37,2.29.76,3.41,1.17.65.23,1.29.46,1.93.71s1.43.55,2.14.84,1.61.65,2.39,1c.49.21,1,.42,1.46.65s1.05.47,1.57.72c.78.36,1.55.74,2.31,1.12l.32.16c.62.32,1.24.63,1.84,1l.72.39,1.39.76c.36.2.73.41,1.08.63s.74.42,1.1.64l.89.54c.52.31,1,.63,1.54,1,.15.08.29.18.44.28.67.43,1.33.86,2,1.31s1.39,1,2.07,1.45,1.18.85,1.76,1.29c.78.58,1.54,1.17,2.3,1.78s1.24,1,1.85,1.53,1.25,1.06,1.87,1.61q3.11,2.76,5.93,5.74l1,1c.73.79,1.45,1.6,2.15,2.42.31.34.6.69.89,1q1.47,1.72,2.83,3.52c.24.3.48.61.71.92s.62.83.92,1.25a4.73,4.73,0,0,1,.28.39c.3.39.58.8.86,1.2s.54.77.8,1.16a5,5,0,0,1,.3.45c.34.49.67,1,1,1.5a2.11,2.11,0,0,1,.21.31c.35.53.69,1.07,1,1.61.46.73.9,1.46,1.34,2.21Z"/><path class="cls-8" d="M587.31,1865.58c4.65,2.91,13.88,4,18.65.93,7.45-27-8.4-82.06,0-103.5,4.13-2.44,10.19-1.53,14,.93,6.53,23.31,3.73,73.66,6.53,101.64,4.36,2.94,11.19,6.53,19.58,0,0-20.52-1.86-56.88-4.66-111,2.8-6.84,5.91-14.21,4.66-18.65-18.65-.94-46.62,4.66-69,2.79-2.69,5.76.86,11.85,3.73,18.65C585.44,1816.16,584.51,1844.13,587.31,1865.58Z"/><rect class="cls-1" x="572.23" y="1556.05" width="51.78" height="88.89" rx="25.89" ry="25.89"/><rect class="cls-3" x="578.27" y="1584.53" width="11.22" height="18.12" rx="5.61" ry="5.61"/><rect class="cls-4" x="572.93" y="1585.89" width="47.63" height="1.59"/><path class="cls-4" d="M602.56,1585.89a9.26,9.26,0,0,1-18.51,0Z"/><path class="cls-4" d="M583,1585.89a9.26,9.26,0,0,1-18.51,0Z"/><circle class="cls-5" cx="623.15" cy="1590.57" r="5.18"/><ellipse class="cls-3" cx="622.71" cy="1590.04" rx="2.48" ry="2.17" transform="translate(-1084.01 1534.4) rotate(-66.75)"/><path class="cls-5" d="M606.75,1612.15a19,19,0,0,1-38,0Z"/><rect class="cls-6" x="570.5" y="1610.42" width="30.21" height="1.73"/><path class="cls-7" d="M626.59,1578.49H570.51a28,28,0,0,1,56.08,0Z"/><ellipse class="cls-7" cx="631.35" cy="1577.19" rx="14.24" ry="1.29"/><rect class="cls-6" x="570.5" y="1608.69" width="1.73" height="3.45" rx="0.86" ry="0.86"/><rect class="cls-6" x="598.98" y="1608.69" width="1.73" height="3.45" rx="0.86" ry="0.86"/><polygon points="587.76 1621.64 587.76 1626.7 581.76 1631.42 575.77 1626.7 575.77 1621.64 587.76 1621.64"/><path class="cls-1" d="M569.59,1666.52c-66.19,18.41-19.09,23-124.29,22.42-5.09,0-19.47-2.92-24.09-20.85-4.32-23.93-5.71-39.17-11-74.11,6.32-16.48,38.32-26.48,52.33-11.17,8,34.69,6,34.74,11,48.69,18-14,50.28-22.69,84.45-13C571.58,1626.94,575.77,1650.59,569.59,1666.52Z"/><path class="cls-2" d="M570.59,1666.52c-23.46,6.53-36.28,15.63-47.09,18L510.77,1616c13.86-2.71,29.79-2.71,48.18,2.5C572.59,1627,576.76,1650.58,570.59,1666.52Z"/></svg>
