<svg id="Layer_5" data-name="Layer 5" xmlns="http://www.w3.org/2000/svg" viewBox="0 0 381.31 395"><defs><style>.cls-1{fill:#ffc6a3;}.cls-2{fill:none;}.cls-2,.cls-4{stroke:#000;stroke-miterlimit:10;}.cls-3{fill:#000070;}.cls-5{fill:#ff857e;}.cls-10,.cls-6{fill:#030000;}.cls-7{fill:#ffd1ab;}.cls-8{fill:#fff;}.cls-9{fill:#000082;}.cls-10{opacity:0.3;}</style></defs><title>mand</title><path class="cls-1" d="M1634.77,832.7c-9.19,21.3-93.76,27.44-86.9,2.29V807.54c-29.73-14.86-37.74-25.15-43.46-45.74-37.73,43.46-51.45,72-13.72,138.37,5.72,33.16-18.29,51.46-49.17,44.59-30.89-1.16-76.91-112.83-35.45-195.54,18.43-36.77,48-55.55,61.75-64,65.18,2.28,129.22,3.43,210.41-2.29,116.64,37.74,99.48,200.11,74.33,227.56-33.17,43.45-77.76,5.72-67.47-27.45,36.59-52.6,3.38-109.23-13.72-116.63-18.3,27.44-21.73,26.3-38.88,37.73C1633.63,813.26,1633.63,824.7,1634.77,832.7Z" transform="translate(-1389.56 -608)"/><path class="cls-2" d="M1505,760.66" transform="translate(-1389.56 -608)"/><path class="cls-2" d="M1548.44,806.4" transform="translate(-1389.56 -608)"/><path class="cls-3" d="M1748.8,740.48l-57.64,48.71c-6.19-12-13.94-20.28-19.79-22.81-18.3,27.44-21.73,26.3-38.88,37.73,1.14,9.15,1.14,20.59,2.28,28.59a12.43,12.43,0,0,1-2.19,3.38c-14.41,16.59-76.32,21.66-84.27,5.38a9,9,0,0,1-.44-6.47V807.54c-29.73-14.86-37.74-25.15-43.46-45.74-9,10.36-16.62,19.88-22.52,29.26l-76.52-40.43c.23-.47.46-.94.7-1.41,18.44-36.76,48-55.55,61.75-64,65.18,2.28,129.22,3.43,210.41-2.29C1711.89,693.79,1734.41,715.06,1748.8,740.48Z" transform="translate(-1389.56 -608)"/><path class="cls-4" d="M1562.16,993.94c5.71,3.57,17,4.94,22.87,1.14,9.15-33.16-10.29-100.63,0-126.93,5.07-3,12.5-1.88,17.15,1.14,8,28.59,4.58,90.34,8,124.65,5.35,3.6,13.72,8,24,0,0-25.16-2.28-69.76-5.72-136.08,3.44-8.39,7.26-17.42,5.72-22.87-22.87-1.15-57.17,5.71-84.62,3.43-3.29,7.06,1.05,14.53,4.58,22.87C1559.87,933.33,1558.73,967.63,1562.16,993.94Z" transform="translate(-1389.56 -608)"/><rect class="cls-1" x="154.11" y="6.35" width="63.5" height="109.01" rx="27.77" ry="27.77"/><rect class="cls-5" x="161.51" y="41.28" width="13.76" height="22.23" rx="6.02" ry="6.02"/><rect class="cls-6" x="154.97" y="42.94" width="58.41" height="1.95"/><path class="cls-6" d="M1580.87,650.94a11.35,11.35,0,0,1-22.7,0Z" transform="translate(-1389.56 -608)"/><path class="cls-6" d="M1556.86,650.94a11.35,11.35,0,0,1-22.7,0Z" transform="translate(-1389.56 -608)"/><circle class="cls-7" cx="216.55" cy="48.68" r="6.35"/><ellipse class="cls-5" cx="1605.58" cy="656.03" rx="3.04" ry="2.66" transform="translate(-1020.62 1264.17) rotate(-66.75)"/><path class="cls-7" d="M1586,683.14a23.28,23.28,0,1,1-46.56,0Z" transform="translate(-1389.56 -608)"/><rect class="cls-8" x="151.99" y="73.03" width="37.04" height="2.12"/><path class="cls-9" d="M1610.34,641.87h-68.78a34.39,34.39,0,0,1,68.78,0Z" transform="translate(-1389.56 -608)"/><ellipse class="cls-9" cx="226.6" cy="32.28" rx="17.46" ry="1.59"/><rect class="cls-8" x="151.99" y="70.91" width="2.12" height="4.23" rx="0.93" ry="0.93"/><rect class="cls-8" x="186.92" y="70.91" width="2.12" height="4.23" rx="0.93" ry="0.93"/><polygon points="173.16 86.78 173.16 93 165.8 98.78 158.44 93 158.44 86.78 173.16 86.78"/><ellipse class="cls-10" cx="209.44" cy="384.5" rx="81" ry="10.5"/></svg>
