<svg id="Layer_8" data-name="Layer 8" xmlns="http://www.w3.org/2000/svg" viewBox="0 0 602.67 134.75"><defs><style>.cls-1{fill:#fff;}.cls-2{font-size:22px;font-family:MyriadPro-Regular, Myriad Pro;}.cls-3{letter-spacing:-0.02em;}.cls-4{letter-spacing:-0.05em;}.cls-5{letter-spacing:-0.04em;}.cls-6{letter-spacing:-0.04em;}.cls-7{letter-spacing:0.04em;}.cls-8{letter-spacing:-0.05em;}.cls-9{letter-spacing:0em;}</style></defs><title>notforyou_boble</title><rect class="cls-1" width="481" height="90" rx="30" ry="30"/><path class="cls-1" d="M653.13,477c6.16,8.27-6.11,19.39-1,33,5.37,14.31,24.65,17.28,24,19-.78,2-29.28,1.15-43-19-6.66-9.78-12.29-27.7-4-35C635.26,469.6,648.35,470.59,653.13,477Z" transform="translate(-464 -395)"/><text class="cls-2" transform="translate(132.67 53.95)">N<tspan class="cls-3" x="14.48" y="0">O</tspan><tspan x="29.08" y="0">T FOR </tspan><tspan class="cls-4" x="87.05" y="0"> </tspan><tspan class="cls-5" x="90.7" y="0">Y</tspan><tspan x="101.81" y="0">OU LI </tspan><tspan class="cls-6" x="156.17" y="0"> </tspan><tspan class="cls-7" x="159.94" y="0">T</tspan><tspan x="171.71" y="0" xml:space="preserve">TLE BE   </tspan><tspan class="cls-8" x="245.25" y="0">A</tspan><tspan class="cls-9" x="257.55" y="0">VER!</tspan></text></svg>
