<svg id="Layer_13" data-name="Layer 13" xmlns="http://www.w3.org/2000/svg" viewBox="0 0 265 266"><defs><style>.cls-1{fill:#603813;}.cls-2{opacity:0.3;}.cls-3{fill:#70411b;}.cls-4{fill:#563011;}.cls-5{fill:#0c8702;}.cls-6{opacity:0.4;}.cls-7{fill:#282522;}</style></defs><title>start_skilt</title><path class="cls-1" d="M1165,510l-.15,19.44,0,3,0,5-.67,86.63,0,3.92v1.09l0,3-.06,7.81-.71,92.09-.29,38a3,3,0,0,1-3,3h-14a3,3,0,0,1-3-3l-.55-71.59-.19-24.49,2-.49a2.5,2.5,0,0,0,1.9-2.42,2.46,2.46,0,0,0-.07-.6,2.5,2.5,0,0,0-3-1.83l-.82.2-.29-37.87,0-3,0-5-.65-84.32,0-5,0-3L1141,510c0-1.65,3.35-3,5-3h7.84l1.16,11,1.16-11h1.32l.52,13,.52-13H1160C1161.65,507,1165,508.35,1165,510Z" transform="translate(-1057 -507)"/><path class="cls-2" d="M1164,628v11.9L1163,770a3,3,0,0,1-3,3h-4V628Z" transform="translate(-1057 -507)"/><path class="cls-3" d="M1249,615a23.18,23.18,0,0,1-.71,5.15,39.39,39.39,0,0,1-2.82,7.85c-1.92,3.88-4.47,7.13-7.3,7.85a4.58,4.58,0,0,1-1.17.15l-72.94-3.91H1164l-8-.43-14.07-.75L1069,627a12,12,0,0,1-12-12V556.71l3-.32,5-.54,8-.86-8,.29-5,.18-3,.11V546a12,12,0,0,1,12-12l72.16-3.44,23.69-1.12,71.86-3.43h.29a3.86,3.86,0,0,1,.6,0h0a5.22,5.22,0,0,1,3.47,2.22c2,2.62,3.05,7.11,3.54,11.3A56.57,56.57,0,0,1,1245,546Z" transform="translate(-1057 -507)"/><path class="cls-3" d="M1246,615.08a24.85,24.85,0,0,1-1.59,7.65c-1.79,5-4.74,9.89-7.13,10.24h0l-.22,0-73-3.91H1164l-8-.43-14.09-.76-72.83-3.9H1069a9,9,0,0,1-9-9V556.39l5-.54,8-.86-8,.29-5,.18V546a9,9,0,0,1,9-9h.14l72-3.43,23.65-1.13,71.9-3.42.32,0c1.79.07,3.38,3.5,4.25,8.48a49.27,49.27,0,0,1,.7,8.52v.17Z" transform="translate(-1057 -507)"/><path class="cls-4" d="M1241,615.19c-.08,3.32-2,8.34-3.76,11.17a10.67,10.67,0,0,1-1,1.42l-.14.16-72-3.86-22.25-1.19L1069.21,619h-.13a4,4,0,0,1-4.08-4V555.85l8-.86-8,.29V546a4,4,0,0,1,4-4h.38l71.84-3.42,23.57-1.12,70.48-3.36c.15.38.31.83.47,1.38h0a33.75,33.75,0,0,1,1,6v0c.13,1.36.21,2.86.21,4.48v.46Z" transform="translate(-1057 -507)"/><path class="cls-3" d="M1321,582.36l-36.86,24.93-5-5.72a3.76,3.76,0,0,0-1.38-1,3.91,3.91,0,0,0-1.64-.36,4,4,0,0,0-3,6.64l4.34,5-24,16.2-11.17,7.55a4.66,4.66,0,0,1-4.21.3,3.84,3.84,0,0,1-.49-.27l-.39-.26V633l0-5v-1.64l-.45-84.84,0-6.88,0-5.62,0-3v-.54l.89.57h0l3.47,2.22,79.94,51A1.76,1.76,0,0,1,1321,582.36Z" transform="translate(-1057 -507)"/><path class="cls-4" d="M1309,579.84l-31.21,20.72a3.91,3.91,0,0,0-1.64-.36,4,4,0,0,0-4,4.09l-34.93,23.19-.61.4a1.11,1.11,0,0,1-.39.12l-.52-94,1,.64Z" transform="translate(-1057 -507)"/><path class="cls-5" d="M1176,762c-.9,5.17.09,7.61,0,11h-46c.6-4.88,2.74-2,1-11-4.06-20.94-34.38-43.49-31.75-43.3,21,1.54,27.59,13.42,36.52,14.5a3.39,3.39,0,0,0,3-.93c5.77-5.76-2.49-35.13.5-35.92,2.51-.66,10.56,11.2,16.77,22,1.2,2.08,2.32,4.12,3.33,6,1.19,2.25,2.21,4.31,3,6a7.26,7.26,0,0,0,.7,1.26c5.52,7.62,16.77-22.9,34-28.64-10,16-14,32-17,41C1177.56,751.92,1177.77,751.93,1176,762Z" transform="translate(-1057 -507)"/><path class="cls-6" d="M1176,762c-.9,5.17.09,7.61,0,11h-13V731.64c5.52,7.62,16.77-22.9,34-28.64-10,16-14,32-17,41C1177.56,751.92,1177.77,751.93,1176,762Z" transform="translate(-1057 -507)"/><ellipse class="cls-7" cx="96.5" cy="40" rx="2.5" ry="3"/><ellipse class="cls-7" cx="95.5" cy="108" rx="2.5" ry="3"/></svg>
