<svg id="Layer_6" data-name="Layer 6" xmlns="http://www.w3.org/2000/svg" viewBox="0 0 191.04 193.79"><defs><style>.cls-1{fill:#603813;}.cls-2{fill:#ef0606;}.cls-3{fill:#ede607;}.cls-4{fill:#ba0606;}</style></defs><title>stol</title><rect class="cls-1" y="108.76" width="102.17" height="8.24" rx="2.5" ry="2.5"/><path class="cls-2" d="M1354.63,775.42h-80.75c-6.34,0-10.52-5.19-9.29-11.54L1287,648.53c1.24-6.34,7.43-11.53,13.78-11.53h80.74c6.35,0,10.53,5.19,9.3,11.53L1368.4,763.88C1367.17,770.23,1361,775.42,1354.63,775.42Z" transform="translate(-1200 -637)"/><polygon class="cls-3" points="87.07 138.42 77.18 138.42 104.08 0 113.97 0 87.07 138.42"/><polygon class="cls-3" points="151.33 138.42 141.44 138.42 168.35 0 178.24 0 151.33 138.42"/><polygon class="cls-3" points="128.26 138.42 123.32 138.42 150.22 0 155.17 0 128.26 138.42"/><polygon class="cls-3" points="105.19 138.42 100.25 138.42 127.16 0 132.1 0 105.19 138.42"/><rect class="cls-1" x="1199.19" y="787.3" width="102.17" height="5.87" rx="1.78" ry="1.78" transform="translate(-275.02 -1289.62) rotate(45)"/><rect class="cls-1" x="1194.25" y="788.95" width="102.17" height="5.87" rx="1.78" ry="1.78" transform="translate(1470.53 -228.19) rotate(132.5)"/><path class="cls-2" d="M1371.38,754.48c0,27.94-35.42,50.6-79.1,50.6s-79.1-22.66-79.1-50.6a3.85,3.85,0,0,1,0-.48h158.16A3.85,3.85,0,0,1,1371.38,754.48Z" transform="translate(-1200 -637)"/><path class="cls-4" d="M1305.09,754.2c0,11.71-20.58,21.2-46,21.2s-46-9.49-46-21.2a1.34,1.34,0,0,1,0-.2h91.89A1.34,1.34,0,0,1,1305.09,754.2Z" transform="translate(-1200 -637)"/><rect class="cls-1" x="75.8" y="112.05" width="102.17" height="8.24" rx="2.5" ry="2.5"/><rect class="cls-1" x="1276.64" y="787.3" width="102.17" height="5.87" rx="1.78" ry="1.78" transform="translate(-252.34 -1344.39) rotate(45)"/><rect class="cls-1" x="1271.7" y="788.95" width="102.17" height="5.87" rx="1.78" ry="1.78" transform="translate(1600.3 -285.29) rotate(132.5)"/></svg>
