<svg id="Layer_12" data-name="Layer 12" xmlns="http://www.w3.org/2000/svg" viewBox="0 0 671.32 846"><defs><style>.cls-1{fill:#5d473b;}.cls-2{fill:#0c8702;}.cls-3{fill:#6b6b2d;}.cls-4{fill:#3f332c;}.cls-5{opacity:0.3;}</style></defs><title>traer</title><rect class="cls-1" x="140.27" y="599.84" width="48.45" height="108.16"/><polygon class="cls-2" points="164.5 100.71 115.71 219.01 130.06 219.01 91.26 313.09 105.06 313.09 54.65 435.34 67.84 435.34 0 599.84 164.5 599.84 164.5 100.71"/><polygon class="cls-2" points="329 599.84 164.5 599.84 164.5 100.71 213.28 219.01 198.94 219.01 237.73 313.09 223.94 313.09 274.35 435.34 261.16 435.34 328.77 599.28 329 599.84"/><path class="cls-3" d="M1527.94,336Z" transform="translate(-1329 -117)"/><rect class="cls-4" x="175.77" y="599.84" width="12.39" height="108.16"/><polygon class="cls-5" points="328.77 599.28 328.77 599.61 164.38 599.61 164.38 100.71 164.5 100.71 213.28 219.01 198.94 219.01 237.73 313.09 223.94 313.09 274.35 435.34 261.16 435.34 328.77 599.28"/><rect class="cls-1" x="408.41" y="695.32" width="67.49" height="150.68"/><polygon class="cls-2" points="442.16 0 374.19 164.81 394.18 164.81 340.13 295.87 359.35 295.87 289.12 466.16 307.5 466.16 213 695.32 442.16 695.32 442.16 0"/><polygon class="cls-2" points="671.32 695.32 442.16 695.32 442.16 0 444.49 5.65 496.16 130.96 510.12 164.81 490.13 164.81 496.16 179.43 544.18 295.86 524.96 295.86 591 456 595.19 466.16 576.81 466.16 591 500.57 591 695 671 695 671 694.54 671.32 695.32"/><path class="cls-3" d="M1819.13,281.81Z" transform="translate(-1329 -117)"/><rect class="cls-4" x="457.85" y="695.32" width="17.27" height="150.68"/><polygon class="cls-5" points="576.81 466.16 591 500.57 591 695 442 695 442 0 442.16 0 444.49 5.65 496.16 130.96 510.12 164.81 490.13 164.81 496.16 179.43 544.18 295.86 524.96 295.86 591 456 595.19 466.16 576.81 466.16"/></svg>
