<svg id="Layer_3" data-name="Layer 3" xmlns="http://www.w3.org/2000/svg" viewBox="0 0 186 509"><defs><style>.cls-1{fill:#e0ae3f;}.cls-2{fill:#cc9c3b;}.cls-3{fill:#563011;}.cls-4{fill:#753f16;}.cls-5{fill:#514c48;}.cls-6{fill:#33302e;}.cls-7,.cls-8{font-size:72px;font-family:Bauhaus93, Bauhaus 93;}.cls-7{fill:#21130a;}.cls-8{fill:#301a0b;}</style></defs><title>valg_1_stjaelmaden_ja_2</title><path class="cls-1" d="M1211.86,317.87a17.71,17.71,0,0,1,.3-3.28c.8-4.42,3.18-8.39,7.47-12.48a111.64,111.64,0,0,1,12-9.39l1.81-1.3c1.48-1.07,3-2.14,4.42-3.23l1.69-1.27,1.36-1c1-.78,2.07-1.55,3.18-2.28l.94-.61.6.95a38.48,38.48,0,0,1,3.06,5.71,30.36,30.36,0,0,1,1.68,5,22.84,22.84,0,0,1,.64,5.23,18.56,18.56,0,0,1-.29,3.29c-.79,4.41-3,8.27-7.35,12.53a97.86,97.86,0,0,1-11.63,9.29l-2.24,1.61c-1.43,1-2.85,2.05-4.25,3.09-.59.42-1.14.83-1.69,1.24l-1.4,1c-1,.75-2.08,1.51-3.25,2.25l-.93.58-.59-.92a39.05,39.05,0,0,1-3.12-5.74,30.46,30.46,0,0,1-1.72-5A22.46,22.46,0,0,1,1211.86,317.87Z" transform="translate(-1140 -283)"/><path class="cls-2" d="M1244.67,284.54a38.38,38.38,0,0,1,3,5.55,30.12,30.12,0,0,1,1.63,4.82,19.56,19.56,0,0,1,.33,8c-.85,4.79-3.62,8.55-7,11.94a99.39,99.39,0,0,1-11.78,9.38c-2.07,1.5-4.18,3-6.22,4.51-1,.74-2,1.52-3.08,2.27s-2.07,1.51-3.19,2.21a38,38,0,0,1-3-5.58,30,30,0,0,1-1.67-4.84,19.29,19.29,0,0,1-.34-8.06c.87-4.78,3.64-8.53,7.15-11.88a110.15,110.15,0,0,1,11.88-9.32c2.08-1.5,4.19-3,6.21-4.51,1-.76,2-1.54,3-2.3S1243.57,285.26,1244.67,284.54Z" transform="translate(-1140 -283)"/><path class="cls-1" d="M1211.86,346.68a17.71,17.71,0,0,1,.3-3.28c.8-4.42,3.18-8.38,7.47-12.48a111.64,111.64,0,0,1,12-9.39l1.81-1.3c1.48-1.07,3-2.13,4.42-3.22l1.69-1.28,1.36-1c1-.78,2.07-1.55,3.18-2.28l.94-.62.6.95a39,39,0,0,1,3.06,5.71,30.48,30.48,0,0,1,1.68,5,22.77,22.77,0,0,1,.64,5.23,18.73,18.73,0,0,1-.29,3.29c-.79,4.4-3,8.27-7.35,12.53a99.92,99.92,0,0,1-11.63,9.29l-2.24,1.61c-1.43,1-2.85,2-4.25,3.08-.59.42-1.14.83-1.69,1.24l-1.4,1c-1,.75-2.08,1.52-3.25,2.25l-.93.58-.59-.92a39.05,39.05,0,0,1-3.12-5.74,30.34,30.34,0,0,1-1.72-5A22.54,22.54,0,0,1,1211.86,346.68Z" transform="translate(-1140 -283)"/><path class="cls-2" d="M1244.67,313.36a38.31,38.31,0,0,1,3,5.54,30.46,30.46,0,0,1,1.63,4.82,19.61,19.61,0,0,1,.33,8.06c-.85,4.79-3.62,8.54-7,11.94a100.41,100.41,0,0,1-11.78,9.38c-2.07,1.5-4.18,3-6.22,4.5-1,.75-2,1.52-3.08,2.27s-2.07,1.51-3.19,2.21a37.92,37.92,0,0,1-3-5.57,30,30,0,0,1-1.67-4.84,19.34,19.34,0,0,1-.34-8.07c.87-4.78,3.64-8.53,7.15-11.88a111.42,111.42,0,0,1,11.88-9.32c2.08-1.5,4.19-3,6.21-4.51,1-.75,2-1.53,3-2.29S1243.57,314.07,1244.67,313.36Z" transform="translate(-1140 -283)"/><path class="cls-1" d="M1211.86,374.39a17.71,17.71,0,0,1,.3-3.28c.8-4.42,3.18-8.39,7.47-12.48a111.64,111.64,0,0,1,12-9.39l1.81-1.3c1.48-1.07,3-2.14,4.42-3.23l1.69-1.27,1.36-1c1-.78,2.07-1.55,3.18-2.28l.94-.61.6,1a38.48,38.48,0,0,1,3.06,5.71,30.36,30.36,0,0,1,1.68,5,22.84,22.84,0,0,1,.64,5.23,18.56,18.56,0,0,1-.29,3.29c-.79,4.41-3,8.27-7.35,12.53a97.86,97.86,0,0,1-11.63,9.29l-2.24,1.61c-1.43,1-2.85,2.05-4.25,3.09-.59.42-1.14.83-1.69,1.24l-1.4,1c-1,.75-2.08,1.51-3.25,2.25l-.93.58-.59-.92a39.05,39.05,0,0,1-3.12-5.74,30.67,30.67,0,0,1-1.72-5A22.61,22.61,0,0,1,1211.86,374.39Z" transform="translate(-1140 -283)"/><path class="cls-2" d="M1244.67,341.06a38.38,38.38,0,0,1,3,5.55,30.12,30.12,0,0,1,1.63,4.82,19.56,19.56,0,0,1,.33,8.05c-.85,4.79-3.62,8.55-7,11.94a99.39,99.39,0,0,1-11.78,9.38c-2.07,1.5-4.18,3-6.22,4.51-1,.74-2,1.52-3.08,2.27s-2.07,1.51-3.19,2.21a38,38,0,0,1-3-5.58,30,30,0,0,1-1.67-4.84,19.29,19.29,0,0,1-.34-8.06c.87-4.78,3.64-8.53,7.15-11.88a110.15,110.15,0,0,1,11.88-9.32c2.08-1.5,4.19-3,6.21-4.51,1-.76,2-1.54,3-2.3S1243.57,341.78,1244.67,341.06Z" transform="translate(-1140 -283)"/><path class="cls-1" d="M1211.86,403.2a17.71,17.71,0,0,1,.3-3.28c.8-4.42,3.18-8.38,7.47-12.48a111.64,111.64,0,0,1,12-9.39l1.81-1.3c1.48-1.07,3-2.13,4.42-3.22l1.69-1.28,1.36-1c1-.78,2.07-1.55,3.18-2.28l.94-.62.6.95a39,39,0,0,1,3.06,5.71,30.48,30.48,0,0,1,1.68,5,22.77,22.77,0,0,1,.64,5.23,18.73,18.73,0,0,1-.29,3.29c-.79,4.4-3,8.27-7.35,12.53a99.92,99.92,0,0,1-11.63,9.29l-2.24,1.61c-1.43,1-2.85,2-4.25,3.08-.59.42-1.14.83-1.69,1.24l-1.4,1c-1,.75-2.08,1.52-3.25,2.25l-.93.59-.59-.93a39.05,39.05,0,0,1-3.12-5.74,30.34,30.34,0,0,1-1.72-5A22.54,22.54,0,0,1,1211.86,403.2Z" transform="translate(-1140 -283)"/><path class="cls-2" d="M1244.67,369.88a38.31,38.31,0,0,1,3,5.54,30.46,30.46,0,0,1,1.63,4.82,19.61,19.61,0,0,1,.33,8.06c-.85,4.79-3.62,8.54-7,11.94a100.41,100.41,0,0,1-11.78,9.38c-2.07,1.5-4.18,3-6.22,4.5-1,.75-2,1.52-3.08,2.27a37.46,37.46,0,0,1-3.19,2.21,37.92,37.92,0,0,1-3-5.57,30,30,0,0,1-1.67-4.84,19.34,19.34,0,0,1-.34-8.07c.87-4.78,3.64-8.53,7.15-11.88a111.42,111.42,0,0,1,11.88-9.32c2.08-1.5,4.19-3,6.21-4.51,1-.75,2-1.53,3-2.29S1243.57,370.59,1244.67,369.88Z" transform="translate(-1140 -283)"/><path class="cls-1" d="M1211.86,432a17.63,17.63,0,0,1,.3-3.28c.8-4.42,3.18-8.39,7.47-12.49a112.84,112.84,0,0,1,12-9.38l1.81-1.3c1.48-1.07,3-2.14,4.42-3.23l1.69-1.27,1.36-1c1-.78,2.07-1.55,3.18-2.28l.94-.61.6,1a38,38,0,0,1,3.06,5.71,30.36,30.36,0,0,1,1.68,5A22.84,22.84,0,0,1,1251,414a18.64,18.64,0,0,1-.29,3.29c-.79,4.4-3,8.27-7.35,12.53a98.87,98.87,0,0,1-11.63,9.29l-2.24,1.61c-1.43,1-2.85,2.05-4.25,3.09-.59.41-1.14.83-1.69,1.24l-1.4,1c-1,.75-2.08,1.51-3.25,2.25l-.93.58-.59-.92a39.05,39.05,0,0,1-3.12-5.74,30.46,30.46,0,0,1-1.72-5A22.52,22.52,0,0,1,1211.86,432Z" transform="translate(-1140 -283)"/><path class="cls-2" d="M1244.67,398.69a38.38,38.38,0,0,1,3,5.55,30.12,30.12,0,0,1,1.63,4.82,19.56,19.56,0,0,1,.33,8.05c-.85,4.79-3.62,8.55-7,11.94a100.41,100.41,0,0,1-11.78,9.38c-2.07,1.5-4.18,3-6.22,4.51-1,.74-2,1.52-3.08,2.27s-2.07,1.5-3.19,2.21a38,38,0,0,1-3-5.58,30,30,0,0,1-1.67-4.84,19.29,19.29,0,0,1-.34-8.06c.87-4.78,3.64-8.53,7.15-11.88a108.91,108.91,0,0,1,11.88-9.32c2.08-1.5,4.19-3,6.21-4.52,1-.75,2-1.53,3-2.29S1243.57,399.41,1244.67,398.69Z" transform="translate(-1140 -283)"/><path class="cls-1" d="M1211.86,459.72a17.71,17.71,0,0,1,.3-3.28c.8-4.42,3.18-8.38,7.47-12.48a111.64,111.64,0,0,1,12-9.39l1.81-1.3c1.48-1.07,3-2.13,4.42-3.22l1.69-1.28,1.36-1c1-.78,2.07-1.55,3.18-2.28l.94-.62.6.95a39,39,0,0,1,3.06,5.71,30.48,30.48,0,0,1,1.68,5,22.77,22.77,0,0,1,.64,5.23,18.73,18.73,0,0,1-.29,3.29c-.79,4.4-3,8.27-7.35,12.53a99.92,99.92,0,0,1-11.63,9.29l-2.24,1.61c-1.43,1-2.85,2-4.25,3.08-.59.42-1.14.83-1.69,1.24l-1.4,1c-1,.75-2.08,1.52-3.25,2.25l-.93.59-.59-.93a39.05,39.05,0,0,1-3.12-5.74,30.34,30.34,0,0,1-1.72-5A22.54,22.54,0,0,1,1211.86,459.72Z" transform="translate(-1140 -283)"/><path class="cls-2" d="M1244.67,426.4a38.31,38.31,0,0,1,3,5.54,30.46,30.46,0,0,1,1.63,4.82,19.61,19.61,0,0,1,.33,8.06c-.85,4.79-3.62,8.54-7,11.94a100.41,100.41,0,0,1-11.78,9.38c-2.07,1.5-4.18,3-6.22,4.5-1,.75-2,1.52-3.08,2.28s-2.07,1.5-3.19,2.2a37.92,37.92,0,0,1-3-5.57,30,30,0,0,1-1.67-4.84,19.34,19.34,0,0,1-.34-8.07c.87-4.78,3.64-8.53,7.15-11.88a111.42,111.42,0,0,1,11.88-9.32c2.08-1.5,4.19-3,6.21-4.51,1-.75,2-1.53,3-2.29S1243.57,427.11,1244.67,426.4Z" transform="translate(-1140 -283)"/><path class="cls-1" d="M1211.86,489.65a17.82,17.82,0,0,1,.3-3.29c.8-4.41,3.18-8.38,7.47-12.48a110.31,110.31,0,0,1,12-9.38l1.81-1.31c1.48-1.06,3-2.13,4.42-3.22.58-.43,1.14-.85,1.69-1.28l1.36-1c1-.78,2.07-1.55,3.18-2.28l.94-.61.6.94a39,39,0,0,1,3.06,5.71,30.8,30.8,0,0,1,1.68,5,22.84,22.84,0,0,1,.64,5.23,18.64,18.64,0,0,1-.29,3.29c-.79,4.4-3,8.27-7.35,12.53a98.87,98.87,0,0,1-11.63,9.29l-2.24,1.61q-2.15,1.53-4.25,3.09c-.59.41-1.14.83-1.69,1.24l-1.4,1c-1,.75-2.08,1.51-3.25,2.25l-.93.58-.59-.92a39.12,39.12,0,0,1-3.12-5.75,30,30,0,0,1-1.72-5A22.52,22.52,0,0,1,1211.86,489.65Z" transform="translate(-1140 -283)"/><path class="cls-2" d="M1244.67,456.32a37.87,37.87,0,0,1,3,5.55,30,30,0,0,1,1.63,4.81,19.61,19.61,0,0,1,.33,8.06c-.85,4.79-3.62,8.55-7,11.94a100.41,100.41,0,0,1-11.78,9.38c-2.07,1.5-4.18,3-6.22,4.51-1,.74-2,1.52-3.08,2.27s-2.07,1.5-3.19,2.21a38,38,0,0,1-3-5.58,30,30,0,0,1-1.67-4.84,19.3,19.3,0,0,1-.34-8.06c.87-4.78,3.64-8.54,7.15-11.89a110.09,110.09,0,0,1,11.88-9.31c2.08-1.51,4.19-3,6.21-4.52,1-.75,2-1.53,3-2.29S1243.57,457,1244.67,456.32Z" transform="translate(-1140 -283)"/><path class="cls-1" d="M1211.86,518.46a17.71,17.71,0,0,1,.3-3.28c.8-4.42,3.18-8.39,7.47-12.48a111.64,111.64,0,0,1,12-9.39l1.81-1.3c1.48-1.07,3-2.14,4.42-3.23.58-.42,1.14-.85,1.69-1.27l1.36-1c1-.78,2.07-1.55,3.18-2.27l.94-.62.6,1a38.48,38.48,0,0,1,3.06,5.71,30.69,30.69,0,0,1,1.68,5,22.84,22.84,0,0,1,.64,5.23,18.75,18.75,0,0,1-.29,3.3c-.79,4.4-3,8.26-7.35,12.52a97.86,97.86,0,0,1-11.63,9.29l-2.24,1.62c-1.43,1-2.85,2-4.25,3.08-.59.42-1.14.83-1.69,1.24l-1.4,1c-1,.75-2.08,1.51-3.25,2.25l-.93.58-.59-.92a39.05,39.05,0,0,1-3.12-5.74,30.67,30.67,0,0,1-1.72-5A22.61,22.61,0,0,1,1211.86,518.46Z" transform="translate(-1140 -283)"/><path class="cls-2" d="M1244.67,485.13a38.38,38.38,0,0,1,3,5.55,30.12,30.12,0,0,1,1.63,4.82,19.56,19.56,0,0,1,.33,8.05c-.85,4.79-3.62,8.55-7,11.95a99.33,99.33,0,0,1-11.78,9.37c-2.07,1.51-4.18,3-6.22,4.51-1,.75-2,1.52-3.08,2.27s-2.07,1.51-3.19,2.21a37.48,37.48,0,0,1-3-5.58,29.72,29.72,0,0,1-1.67-4.84,19.29,19.29,0,0,1-.34-8.06c.87-4.78,3.64-8.53,7.15-11.88a110.15,110.15,0,0,1,11.88-9.32c2.08-1.5,4.19-3,6.21-4.51,1-.76,2-1.54,3-2.3S1243.57,485.85,1244.67,485.13Z" transform="translate(-1140 -283)"/><path class="cls-1" d="M1211.86,546.17a17.82,17.82,0,0,1,.3-3.29c.8-4.41,3.18-8.38,7.47-12.48a110.31,110.31,0,0,1,12-9.38l1.81-1.31c1.48-1.06,3-2.13,4.42-3.22.58-.43,1.14-.85,1.69-1.28l1.36-1c1-.78,2.07-1.55,3.18-2.28l.94-.61.6.94a39,39,0,0,1,3.06,5.71,30.8,30.8,0,0,1,1.68,5,22.84,22.84,0,0,1,.64,5.23,18.64,18.64,0,0,1-.29,3.29c-.79,4.4-3,8.27-7.35,12.53a98.87,98.87,0,0,1-11.63,9.29l-2.24,1.61q-2.15,1.53-4.25,3.09c-.59.41-1.14.83-1.69,1.24l-1.4,1c-1,.75-2.08,1.51-3.25,2.25l-.93.58-.59-.92a39.12,39.12,0,0,1-3.12-5.75,30,30,0,0,1-1.72-5A22.52,22.52,0,0,1,1211.86,546.17Z" transform="translate(-1140 -283)"/><path class="cls-2" d="M1244.67,512.84a37.87,37.87,0,0,1,3,5.55,30,30,0,0,1,1.63,4.81,19.61,19.61,0,0,1,.33,8.06c-.85,4.79-3.62,8.55-7,11.94a100.41,100.41,0,0,1-11.78,9.38c-2.07,1.5-4.18,3-6.22,4.51-1,.74-2,1.52-3.08,2.27s-2.07,1.5-3.19,2.21a38,38,0,0,1-3-5.58,30,30,0,0,1-1.67-4.84,19.3,19.3,0,0,1-.34-8.06c.87-4.78,3.64-8.53,7.15-11.89a110.09,110.09,0,0,1,11.88-9.31c2.08-1.5,4.19-3,6.21-4.52,1-.75,2-1.53,3-2.29S1243.57,513.56,1244.67,512.84Z" transform="translate(-1140 -283)"/><path class="cls-1" d="M1211.86,575a17.71,17.71,0,0,1,.3-3.28c.8-4.42,3.18-8.39,7.47-12.48a111.64,111.64,0,0,1,12-9.39l1.81-1.3c1.48-1.07,3-2.14,4.42-3.23.58-.42,1.14-.85,1.69-1.27l1.36-1c1-.78,2.07-1.55,3.18-2.27l.94-.62.6.95a38.48,38.48,0,0,1,3.06,5.71,30.69,30.69,0,0,1,1.68,5A22.84,22.84,0,0,1,1251,557a18.75,18.75,0,0,1-.29,3.3c-.79,4.4-3,8.26-7.35,12.52a97.86,97.86,0,0,1-11.63,9.29l-2.24,1.62c-1.43,1-2.85,2-4.25,3.08-.59.42-1.14.83-1.69,1.24l-1.4,1c-1,.75-2.08,1.51-3.25,2.25l-.93.58-.59-.92a39.05,39.05,0,0,1-3.12-5.74,30.67,30.67,0,0,1-1.72-5A22.61,22.61,0,0,1,1211.86,575Z" transform="translate(-1140 -283)"/><path class="cls-2" d="M1244.67,541.65a38.38,38.38,0,0,1,3,5.55,30.12,30.12,0,0,1,1.63,4.82,19.56,19.56,0,0,1,.33,8.05c-.85,4.79-3.62,8.55-7,11.95a99.33,99.33,0,0,1-11.78,9.37c-2.07,1.51-4.18,3-6.22,4.51-1,.75-2,1.52-3.08,2.27s-2.07,1.51-3.19,2.21a37.48,37.48,0,0,1-3-5.58,29.72,29.72,0,0,1-1.67-4.84,19.29,19.29,0,0,1-.34-8.06c.87-4.78,3.64-8.53,7.15-11.88a110.15,110.15,0,0,1,11.88-9.32c2.08-1.5,4.19-3,6.21-4.51,1-.76,2-1.54,3-2.29S1243.57,542.37,1244.67,541.65Z" transform="translate(-1140 -283)"/><path class="cls-1" d="M1211.86,603.79a17.79,17.79,0,0,1,.3-3.28c.8-4.41,3.18-8.38,7.47-12.48a111.64,111.64,0,0,1,12-9.39l1.81-1.3c1.48-1.07,3-2.13,4.42-3.22.58-.43,1.14-.85,1.69-1.28l1.36-1c1-.78,2.07-1.55,3.18-2.28l.94-.61.6.94a39,39,0,0,1,3.06,5.71,30.48,30.48,0,0,1,1.68,5,22.77,22.77,0,0,1,.64,5.23,18.73,18.73,0,0,1-.29,3.29c-.79,4.4-3,8.27-7.35,12.53a99.92,99.92,0,0,1-11.63,9.29l-2.24,1.61q-2.15,1.53-4.25,3.08c-.59.42-1.14.83-1.69,1.25l-1.4,1c-1,.75-2.08,1.52-3.25,2.25l-.93.59-.59-.92a39.63,39.63,0,0,1-3.12-5.75,30,30,0,0,1-1.72-5A22.54,22.54,0,0,1,1211.86,603.79Z" transform="translate(-1140 -283)"/><path class="cls-2" d="M1244.67,570.47a38.31,38.31,0,0,1,3,5.54,30.46,30.46,0,0,1,1.63,4.82,19.61,19.61,0,0,1,.33,8.06c-.85,4.79-3.62,8.54-7,11.94a100.41,100.41,0,0,1-11.78,9.38c-2.07,1.5-4.18,3-6.22,4.51-1,.74-2,1.52-3.08,2.27s-2.07,1.5-3.19,2.21a38.5,38.5,0,0,1-3-5.58,30,30,0,0,1-1.67-4.84,19.34,19.34,0,0,1-.34-8.07c.87-4.77,3.64-8.53,7.15-11.88a111.42,111.42,0,0,1,11.88-9.32c2.08-1.5,4.19-3,6.21-4.51,1-.75,2-1.53,3-2.29S1243.57,571.19,1244.67,570.47Z" transform="translate(-1140 -283)"/><path class="cls-1" d="M1211.86,631.5a17.71,17.71,0,0,1,.3-3.28c.8-4.42,3.18-8.39,7.47-12.48a111.64,111.64,0,0,1,12-9.39l1.81-1.3c1.48-1.07,3-2.14,4.42-3.23.58-.42,1.14-.85,1.69-1.27l1.36-1c1-.77,2.07-1.55,3.18-2.27l.94-.62.6,1a38.48,38.48,0,0,1,3.06,5.71,30.69,30.69,0,0,1,1.68,5,22.84,22.84,0,0,1,.64,5.23,18.75,18.75,0,0,1-.29,3.3c-.79,4.4-3,8.26-7.35,12.52a97.86,97.86,0,0,1-11.63,9.29l-2.24,1.62c-1.43,1-2.85,2-4.25,3.08-.59.42-1.14.83-1.69,1.24l-1.4,1c-1,.75-2.08,1.51-3.25,2.25l-.93.58-.59-.92a39.05,39.05,0,0,1-3.12-5.74,30.67,30.67,0,0,1-1.72-5A22.61,22.61,0,0,1,1211.86,631.5Z" transform="translate(-1140 -283)"/><path class="cls-2" d="M1244.67,598.17a38.38,38.38,0,0,1,3,5.55,30.12,30.12,0,0,1,1.63,4.82,19.56,19.56,0,0,1,.33,8.05c-.85,4.79-3.62,8.55-7,11.95a99.33,99.33,0,0,1-11.78,9.37c-2.07,1.51-4.18,3-6.22,4.51-1,.75-2,1.52-3.08,2.27s-2.07,1.51-3.19,2.21a37.48,37.48,0,0,1-3-5.58,29.39,29.39,0,0,1-1.67-4.84,19.29,19.29,0,0,1-.34-8.06c.87-4.78,3.64-8.53,7.15-11.88a110.15,110.15,0,0,1,11.88-9.32c2.08-1.5,4.19-3,6.21-4.51,1-.76,2-1.54,3-2.29S1243.57,598.89,1244.67,598.17Z" transform="translate(-1140 -283)"/><rect class="cls-3" x="1148.5" y="614.5" width="169" height="186" rx="21" ry="21" transform="translate(800.5 -808.5) rotate(90)"/><rect class="cls-4" x="9" y="349" width="168" height="151" rx="12" ry="12"/><polygon class="cls-3" points="42.91 472.8 4.16 479.61 3.85 466.35 42.91 472.8 42.91 472.8"/><polygon class="cls-3" points="36.85 375.22 3.85 381.21 3.09 375.36 36.85 375.22 36.85 375.22"/><polygon class="cls-3" points="141.11 385.99 180 391.91 180.01 378.65 141.11 385.99 141.11 385.99"/><polygon class="cls-3" points="137 412.99 184 415.74 183.97 408.98 137 412.99 137 412.99"/><ellipse class="cls-5" cx="166.54" cy="363.26" rx="5.66" ry="6.78"/><ellipse class="cls-6" cx="166.54" cy="363.26" rx="2.02" ry="2.42"/><ellipse class="cls-5" cx="166.54" cy="485.26" rx="5.66" ry="6.78"/><ellipse class="cls-6" cx="166.54" cy="485.26" rx="2.02" ry="2.42"/><ellipse class="cls-5" cx="21.54" cy="485.26" rx="5.66" ry="6.78"/><ellipse class="cls-6" cx="21.54" cy="485.26" rx="2.02" ry="2.42"/><ellipse class="cls-5" cx="23.54" cy="363.26" rx="5.66" ry="6.78"/><ellipse class="cls-6" cx="23.54" cy="363.26" rx="2.02" ry="2.42"/><text class="cls-7" transform="translate(44.67 451.22)">YES</text><text class="cls-8" transform="translate(40.67 448.22)">YES</text></svg>
