<svg id="Layer_2" data-name="Layer 2" xmlns="http://www.w3.org/2000/svg" viewBox="0 0 231 490"><defs><style>.cls-1{fill:#e0ae3f;}.cls-2{fill:#cc9c3b;}.cls-3{fill:#563011;}.cls-4{fill:#753f16;}.cls-5{fill:#514c48;}.cls-6{fill:#33302e;}.cls-7,.cls-8{font-size:72px;font-family:Bauhaus93, Bauhaus 93;}.cls-7{fill:#231207;}.cls-8{fill:#42230d;}</style></defs><title>Valg_1_stjælmaden_nej</title><path class="cls-1" d="M1150.86,605.87a17.71,17.71,0,0,1,.3-3.28c.8-4.42,3.18-8.39,7.47-12.48a111.64,111.64,0,0,1,12-9.39l1.81-1.3c1.48-1.07,3-2.14,4.42-3.23l1.69-1.27,1.36-1c1-.78,2.07-1.55,3.18-2.28l.94-.61.6,1a38.48,38.48,0,0,1,3.06,5.71,30.36,30.36,0,0,1,1.68,5,22.84,22.84,0,0,1,.64,5.23,18.56,18.56,0,0,1-.29,3.29c-.79,4.41-3,8.27-7.35,12.53a97.86,97.86,0,0,1-11.63,9.29l-2.24,1.61c-1.43,1-2.85,2-4.25,3.09-.59.42-1.14.83-1.69,1.24l-1.4,1c-1,.75-2.08,1.51-3.25,2.25l-.93.58-.59-.92a39.05,39.05,0,0,1-3.12-5.74,30.46,30.46,0,0,1-1.72-5A22.46,22.46,0,0,1,1150.86,605.87Z" transform="translate(-1055 -571)"/><path class="cls-2" d="M1183.67,572.54a38.38,38.38,0,0,1,3,5.55,30.12,30.12,0,0,1,1.63,4.82,19.56,19.56,0,0,1,.33,8.05c-.85,4.79-3.62,8.55-7,11.94a99.39,99.39,0,0,1-11.78,9.38c-2.07,1.5-4.18,3-6.22,4.51-1,.74-2,1.52-3.08,2.27s-2.07,1.51-3.19,2.21a38,38,0,0,1-3-5.58,30,30,0,0,1-1.67-4.84,19.29,19.29,0,0,1-.34-8.06c.87-4.78,3.64-8.53,7.15-11.88a110.15,110.15,0,0,1,11.88-9.32c2.08-1.5,4.19-3,6.21-4.51,1-.76,2-1.54,3-2.3S1182.57,573.26,1183.67,572.54Z" transform="translate(-1055 -571)"/><path class="cls-1" d="M1150.86,634.68a17.71,17.71,0,0,1,.3-3.28c.8-4.42,3.18-8.38,7.47-12.48a111.64,111.64,0,0,1,12-9.39l1.81-1.3c1.48-1.07,3-2.13,4.42-3.22l1.69-1.28,1.36-1c1-.78,2.07-1.55,3.18-2.28l.94-.62.6,1a39,39,0,0,1,3.06,5.71,30.48,30.48,0,0,1,1.68,5,22.77,22.77,0,0,1,.64,5.23,18.73,18.73,0,0,1-.29,3.29c-.79,4.4-3,8.27-7.35,12.53a99.92,99.92,0,0,1-11.63,9.29l-2.24,1.61c-1.43,1-2.85,2-4.25,3.08-.59.42-1.14.83-1.69,1.24l-1.4,1c-1,.75-2.08,1.52-3.25,2.25l-.93.58-.59-.92a39.05,39.05,0,0,1-3.12-5.74,30.34,30.34,0,0,1-1.72-5A22.54,22.54,0,0,1,1150.86,634.68Z" transform="translate(-1055 -571)"/><path class="cls-2" d="M1183.67,601.36a38.31,38.31,0,0,1,3,5.54,30.46,30.46,0,0,1,1.63,4.82,19.61,19.61,0,0,1,.33,8.06c-.85,4.79-3.62,8.54-7,11.94a100.41,100.41,0,0,1-11.78,9.38c-2.07,1.5-4.18,3-6.22,4.5-1,.75-2,1.52-3.08,2.27s-2.07,1.51-3.19,2.21a37.92,37.92,0,0,1-3-5.57,30,30,0,0,1-1.67-4.84,19.34,19.34,0,0,1-.34-8.07c.87-4.78,3.64-8.53,7.15-11.88a111.42,111.42,0,0,1,11.88-9.32c2.08-1.5,4.19-3,6.21-4.51,1-.75,2-1.53,3-2.29S1182.57,602.07,1183.67,601.36Z" transform="translate(-1055 -571)"/><path class="cls-1" d="M1150.86,662.39a17.71,17.71,0,0,1,.3-3.28c.8-4.42,3.18-8.39,7.47-12.48a111.64,111.64,0,0,1,12-9.39l1.81-1.3c1.48-1.07,3-2.14,4.42-3.23l1.69-1.27,1.36-1c1-.78,2.07-1.55,3.18-2.28l.94-.61.6,1a38.48,38.48,0,0,1,3.06,5.71,30.36,30.36,0,0,1,1.68,5,22.84,22.84,0,0,1,.64,5.23,18.56,18.56,0,0,1-.29,3.29c-.79,4.41-3,8.27-7.35,12.53a97.86,97.86,0,0,1-11.63,9.29l-2.24,1.61c-1.43,1-2.85,2-4.25,3.09-.59.42-1.14.83-1.69,1.24l-1.4,1c-1,.75-2.08,1.51-3.25,2.25l-.93.58-.59-.92a39.05,39.05,0,0,1-3.12-5.74,30.67,30.67,0,0,1-1.72-5A22.61,22.61,0,0,1,1150.86,662.39Z" transform="translate(-1055 -571)"/><path class="cls-2" d="M1183.67,629.06a38.38,38.38,0,0,1,3,5.55,30.12,30.12,0,0,1,1.63,4.82,19.56,19.56,0,0,1,.33,8.05c-.85,4.79-3.62,8.55-7,11.94a99.39,99.39,0,0,1-11.78,9.38c-2.07,1.5-4.18,3-6.22,4.51-1,.74-2,1.52-3.08,2.27s-2.07,1.51-3.19,2.21a38,38,0,0,1-3-5.58,30,30,0,0,1-1.67-4.84,19.29,19.29,0,0,1-.34-8.06c.87-4.78,3.64-8.53,7.15-11.88a110.15,110.15,0,0,1,11.88-9.32c2.08-1.5,4.19-3,6.21-4.51,1-.76,2-1.54,3-2.3S1182.57,629.78,1183.67,629.06Z" transform="translate(-1055 -571)"/><path class="cls-1" d="M1150.86,691.2a17.71,17.71,0,0,1,.3-3.28c.8-4.42,3.18-8.38,7.47-12.48a111.64,111.64,0,0,1,12-9.39l1.81-1.3c1.48-1.07,3-2.13,4.42-3.22l1.69-1.28,1.36-1c1-.78,2.07-1.55,3.18-2.28l.94-.62.6.95a39,39,0,0,1,3.06,5.71,30.48,30.48,0,0,1,1.68,5,22.77,22.77,0,0,1,.64,5.23,18.73,18.73,0,0,1-.29,3.29c-.79,4.4-3,8.27-7.35,12.53a99.92,99.92,0,0,1-11.63,9.29l-2.24,1.61c-1.43,1-2.85,2-4.25,3.08-.59.42-1.14.83-1.69,1.24l-1.4,1c-1,.75-2.08,1.52-3.25,2.25l-.93.59-.59-.93a39.05,39.05,0,0,1-3.12-5.74,30.34,30.34,0,0,1-1.72-5A22.54,22.54,0,0,1,1150.86,691.2Z" transform="translate(-1055 -571)"/><path class="cls-2" d="M1183.67,657.88a38.31,38.31,0,0,1,3,5.54,30.46,30.46,0,0,1,1.63,4.82,19.61,19.61,0,0,1,.33,8.06c-.85,4.79-3.62,8.54-7,11.94a100.41,100.41,0,0,1-11.78,9.38c-2.07,1.5-4.18,3-6.22,4.5-1,.75-2,1.52-3.08,2.27a37.46,37.46,0,0,1-3.19,2.21,37.92,37.92,0,0,1-3-5.57,30,30,0,0,1-1.67-4.84,19.34,19.34,0,0,1-.34-8.07c.87-4.78,3.64-8.53,7.15-11.88a111.42,111.42,0,0,1,11.88-9.32c2.08-1.5,4.19-3,6.21-4.51,1-.75,2-1.53,3-2.29S1182.57,658.59,1183.67,657.88Z" transform="translate(-1055 -571)"/><path class="cls-1" d="M1150.86,720a17.63,17.63,0,0,1,.3-3.28c.8-4.42,3.18-8.39,7.47-12.49a112.84,112.84,0,0,1,12-9.38l1.81-1.3c1.48-1.07,3-2.14,4.42-3.23l1.69-1.27,1.36-1c1-.78,2.07-1.55,3.18-2.28l.94-.61.6,1a38,38,0,0,1,3.06,5.71,30.36,30.36,0,0,1,1.68,5A22.84,22.84,0,0,1,1190,702a18.64,18.64,0,0,1-.29,3.29c-.79,4.4-3,8.27-7.35,12.53a98.87,98.87,0,0,1-11.63,9.29l-2.24,1.61c-1.43,1-2.85,2-4.25,3.09-.59.41-1.14.83-1.69,1.24l-1.4,1c-1,.75-2.08,1.51-3.25,2.25l-.93.58-.59-.92a39.05,39.05,0,0,1-3.12-5.74,30.46,30.46,0,0,1-1.72-5A22.52,22.52,0,0,1,1150.86,720Z" transform="translate(-1055 -571)"/><path class="cls-2" d="M1183.67,686.69a38.38,38.38,0,0,1,3,5.55,30.12,30.12,0,0,1,1.63,4.82,19.56,19.56,0,0,1,.33,8.05c-.85,4.79-3.62,8.55-7,11.94a100.41,100.41,0,0,1-11.78,9.38c-2.07,1.5-4.18,3-6.22,4.51-1,.74-2,1.52-3.08,2.27s-2.07,1.5-3.19,2.21a38,38,0,0,1-3-5.58,30,30,0,0,1-1.67-4.84,19.29,19.29,0,0,1-.34-8.06c.87-4.78,3.64-8.53,7.15-11.88a108.91,108.91,0,0,1,11.88-9.32c2.08-1.5,4.19-3,6.21-4.52,1-.75,2-1.53,3-2.29S1182.57,687.41,1183.67,686.69Z" transform="translate(-1055 -571)"/><path class="cls-1" d="M1150.86,747.72a17.71,17.71,0,0,1,.3-3.28c.8-4.42,3.18-8.38,7.47-12.48a111.64,111.64,0,0,1,12-9.39l1.81-1.3c1.48-1.07,3-2.13,4.42-3.22l1.69-1.28,1.36-1c1-.78,2.07-1.55,3.18-2.28l.94-.62.6.95a39,39,0,0,1,3.06,5.71,30.48,30.48,0,0,1,1.68,5,22.77,22.77,0,0,1,.64,5.23,18.73,18.73,0,0,1-.29,3.29c-.79,4.4-3,8.27-7.35,12.53a99.92,99.92,0,0,1-11.63,9.29l-2.24,1.61c-1.43,1-2.85,2-4.25,3.08-.59.42-1.14.83-1.69,1.24l-1.4,1c-1,.75-2.08,1.52-3.25,2.25l-.93.59-.59-.93a39.05,39.05,0,0,1-3.12-5.74,30.34,30.34,0,0,1-1.72-5A22.54,22.54,0,0,1,1150.86,747.72Z" transform="translate(-1055 -571)"/><path class="cls-2" d="M1183.67,714.4a38.31,38.31,0,0,1,3,5.54,30.46,30.46,0,0,1,1.63,4.82,19.61,19.61,0,0,1,.33,8.06c-.85,4.79-3.62,8.54-7,11.94a100.41,100.41,0,0,1-11.78,9.38c-2.07,1.5-4.18,3-6.22,4.5-1,.75-2,1.52-3.08,2.28s-2.07,1.5-3.19,2.2a37.92,37.92,0,0,1-3-5.57,30,30,0,0,1-1.67-4.84,19.34,19.34,0,0,1-.34-8.07c.87-4.78,3.64-8.53,7.15-11.88a111.42,111.42,0,0,1,11.88-9.32c2.08-1.5,4.19-3,6.21-4.51,1-.75,2-1.53,3-2.29S1182.57,715.11,1183.67,714.4Z" transform="translate(-1055 -571)"/><path class="cls-1" d="M1150.86,777.65a17.82,17.82,0,0,1,.3-3.29c.8-4.41,3.18-8.38,7.47-12.48a110.31,110.31,0,0,1,12-9.38l1.81-1.31c1.48-1.06,3-2.13,4.42-3.22.58-.43,1.14-.85,1.69-1.28l1.36-1c1-.78,2.07-1.55,3.18-2.28l.94-.61.6.94a39,39,0,0,1,3.06,5.71,30.8,30.8,0,0,1,1.68,5,22.84,22.84,0,0,1,.64,5.23,18.64,18.64,0,0,1-.29,3.29c-.79,4.4-3,8.27-7.35,12.53a98.87,98.87,0,0,1-11.63,9.29l-2.24,1.61q-2.15,1.53-4.25,3.09c-.59.41-1.14.83-1.69,1.24l-1.4,1c-1,.75-2.08,1.51-3.25,2.25l-.93.58-.59-.92a39.12,39.12,0,0,1-3.12-5.75,30,30,0,0,1-1.72-5A22.52,22.52,0,0,1,1150.86,777.65Z" transform="translate(-1055 -571)"/><path class="cls-2" d="M1183.67,744.32a37.87,37.87,0,0,1,3,5.55,30,30,0,0,1,1.63,4.81,19.61,19.61,0,0,1,.33,8.06c-.85,4.79-3.62,8.55-7,11.94a100.41,100.41,0,0,1-11.78,9.38c-2.07,1.5-4.18,3-6.22,4.51-1,.74-2,1.52-3.08,2.27s-2.07,1.5-3.19,2.21a38,38,0,0,1-3-5.58,30,30,0,0,1-1.67-4.84,19.3,19.3,0,0,1-.34-8.06c.87-4.78,3.64-8.54,7.15-11.89a110.09,110.09,0,0,1,11.88-9.31c2.08-1.51,4.19-3,6.21-4.52,1-.75,2-1.53,3-2.29S1182.57,745,1183.67,744.32Z" transform="translate(-1055 -571)"/><path class="cls-1" d="M1150.86,806.46a17.71,17.71,0,0,1,.3-3.28c.8-4.42,3.18-8.39,7.47-12.48a111.64,111.64,0,0,1,12-9.39l1.81-1.3c1.48-1.07,3-2.14,4.42-3.23.58-.42,1.14-.85,1.69-1.27l1.36-1c1-.78,2.07-1.55,3.18-2.27l.94-.62.6.95a38.48,38.48,0,0,1,3.06,5.71,30.69,30.69,0,0,1,1.68,5,22.84,22.84,0,0,1,.64,5.23,18.75,18.75,0,0,1-.29,3.3c-.79,4.4-3,8.26-7.35,12.52a97.86,97.86,0,0,1-11.63,9.29l-2.24,1.62c-1.43,1-2.85,2-4.25,3.08-.59.42-1.14.83-1.69,1.24l-1.4,1c-1,.75-2.08,1.51-3.25,2.25l-.93.58-.59-.92a39.05,39.05,0,0,1-3.12-5.74,30.67,30.67,0,0,1-1.72-5A22.61,22.61,0,0,1,1150.86,806.46Z" transform="translate(-1055 -571)"/><path class="cls-2" d="M1183.67,773.13a38.38,38.38,0,0,1,3,5.55,30.12,30.12,0,0,1,1.63,4.82,19.56,19.56,0,0,1,.33,8c-.85,4.79-3.62,8.55-7,12a99.33,99.33,0,0,1-11.78,9.37c-2.07,1.51-4.18,3-6.22,4.51-1,.75-2,1.52-3.08,2.27s-2.07,1.51-3.19,2.21a37.48,37.48,0,0,1-3-5.58,29.72,29.72,0,0,1-1.67-4.84,19.29,19.29,0,0,1-.34-8.06c.87-4.78,3.64-8.53,7.15-11.88a110.15,110.15,0,0,1,11.88-9.32c2.08-1.5,4.19-3,6.21-4.51,1-.76,2-1.54,3-2.3S1182.57,773.85,1183.67,773.13Z" transform="translate(-1055 -571)"/><path class="cls-1" d="M1150.86,834.17a17.82,17.82,0,0,1,.3-3.29c.8-4.41,3.18-8.38,7.47-12.48a110.31,110.31,0,0,1,12-9.38l1.81-1.31c1.48-1.06,3-2.13,4.42-3.22.58-.43,1.14-.85,1.69-1.28l1.36-1c1-.78,2.07-1.55,3.18-2.28l.94-.61.6.94a39,39,0,0,1,3.06,5.71,30.8,30.8,0,0,1,1.68,5,22.84,22.84,0,0,1,.64,5.23,18.64,18.64,0,0,1-.29,3.29c-.79,4.4-3,8.27-7.35,12.53a98.87,98.87,0,0,1-11.63,9.29l-2.24,1.61q-2.15,1.53-4.25,3.09c-.59.41-1.14.83-1.69,1.24l-1.4,1c-1,.75-2.08,1.51-3.25,2.25l-.93.58-.59-.92a39.12,39.12,0,0,1-3.12-5.75,30,30,0,0,1-1.72-5A22.52,22.52,0,0,1,1150.86,834.17Z" transform="translate(-1055 -571)"/><path class="cls-2" d="M1183.67,800.84a37.87,37.87,0,0,1,3,5.55,30,30,0,0,1,1.63,4.81,19.61,19.61,0,0,1,.33,8.06c-.85,4.79-3.62,8.55-7,11.94a100.41,100.41,0,0,1-11.78,9.38c-2.07,1.5-4.18,3-6.22,4.51-1,.74-2,1.52-3.08,2.27s-2.07,1.5-3.19,2.21a38,38,0,0,1-3-5.58,30,30,0,0,1-1.67-4.84,19.3,19.3,0,0,1-.34-8.06c.87-4.78,3.64-8.53,7.15-11.89a110.09,110.09,0,0,1,11.88-9.31c2.08-1.5,4.19-3,6.21-4.52,1-.75,2-1.53,3-2.29S1182.57,801.56,1183.67,800.84Z" transform="translate(-1055 -571)"/><path class="cls-1" d="M1150.86,863a17.71,17.71,0,0,1,.3-3.28c.8-4.42,3.18-8.39,7.47-12.48a111.64,111.64,0,0,1,12-9.39l1.81-1.3c1.48-1.07,3-2.14,4.42-3.23.58-.42,1.14-.85,1.69-1.27l1.36-1c1-.78,2.07-1.55,3.18-2.27l.94-.62.6.95a38.48,38.48,0,0,1,3.06,5.71,30.69,30.69,0,0,1,1.68,5A22.84,22.84,0,0,1,1190,845a18.75,18.75,0,0,1-.29,3.3c-.79,4.4-3,8.26-7.35,12.52a97.86,97.86,0,0,1-11.63,9.29l-2.24,1.62c-1.43,1-2.85,2-4.25,3.08-.59.42-1.14.83-1.69,1.24l-1.4,1c-1,.75-2.08,1.51-3.25,2.25l-.93.58-.59-.92a39.05,39.05,0,0,1-3.12-5.74,30.67,30.67,0,0,1-1.72-5A22.61,22.61,0,0,1,1150.86,863Z" transform="translate(-1055 -571)"/><path class="cls-2" d="M1183.67,829.65a38.38,38.38,0,0,1,3,5.55,30.12,30.12,0,0,1,1.63,4.82,19.56,19.56,0,0,1,.33,8.05c-.85,4.79-3.62,8.55-7,11.95a99.33,99.33,0,0,1-11.78,9.37c-2.07,1.51-4.18,3-6.22,4.51-1,.75-2,1.52-3.08,2.27s-2.07,1.51-3.19,2.21a37.48,37.48,0,0,1-3-5.58,29.72,29.72,0,0,1-1.67-4.84,19.29,19.29,0,0,1-.34-8.06c.87-4.78,3.64-8.53,7.15-11.88a110.15,110.15,0,0,1,11.88-9.32c2.08-1.5,4.19-3,6.21-4.51,1-.76,2-1.54,3-2.29S1182.57,830.37,1183.67,829.65Z" transform="translate(-1055 -571)"/><path class="cls-1" d="M1150.86,891.79a17.79,17.79,0,0,1,.3-3.28c.8-4.41,3.18-8.38,7.47-12.48a111.64,111.64,0,0,1,12-9.39l1.81-1.3c1.48-1.07,3-2.13,4.42-3.22.58-.43,1.14-.85,1.69-1.28l1.36-1c1-.78,2.07-1.55,3.18-2.28l.94-.61.6.94a39,39,0,0,1,3.06,5.71,30.48,30.48,0,0,1,1.68,5,22.77,22.77,0,0,1,.64,5.23,18.73,18.73,0,0,1-.29,3.29c-.79,4.4-3,8.27-7.35,12.53a99.92,99.92,0,0,1-11.63,9.29l-2.24,1.61q-2.15,1.53-4.25,3.08c-.59.42-1.14.83-1.69,1.25l-1.4,1c-1,.75-2.08,1.52-3.25,2.25l-.93.59-.59-.92a39.63,39.63,0,0,1-3.12-5.75,30,30,0,0,1-1.72-5A22.54,22.54,0,0,1,1150.86,891.79Z" transform="translate(-1055 -571)"/><path class="cls-2" d="M1183.67,858.47a38.31,38.31,0,0,1,3,5.54,30.46,30.46,0,0,1,1.63,4.82,19.61,19.61,0,0,1,.33,8.06c-.85,4.79-3.62,8.54-7,11.94a100.41,100.41,0,0,1-11.78,9.38c-2.07,1.5-4.18,3-6.22,4.51-1,.74-2,1.52-3.08,2.27s-2.07,1.5-3.19,2.21a38.5,38.5,0,0,1-3-5.58,30,30,0,0,1-1.67-4.84,19.34,19.34,0,0,1-.34-8.07c.87-4.77,3.64-8.53,7.15-11.88a111.42,111.42,0,0,1,11.88-9.32c2.08-1.5,4.19-3,6.21-4.51,1-.75,2-1.53,3-2.29S1182.57,859.19,1183.67,858.47Z" transform="translate(-1055 -571)"/><path class="cls-1" d="M1150.86,919.5a17.71,17.71,0,0,1,.3-3.28c.8-4.42,3.18-8.39,7.47-12.48a111.64,111.64,0,0,1,12-9.39l1.81-1.3c1.48-1.07,3-2.14,4.42-3.23.58-.42,1.14-.85,1.69-1.27l1.36-1c1-.77,2.07-1.55,3.18-2.27l.94-.62.6,1a38.48,38.48,0,0,1,3.06,5.71,30.69,30.69,0,0,1,1.68,5,22.84,22.84,0,0,1,.64,5.23,18.75,18.75,0,0,1-.29,3.3c-.79,4.4-3,8.26-7.35,12.52a97.86,97.86,0,0,1-11.63,9.29l-2.24,1.62c-1.43,1-2.85,2-4.25,3.08-.59.42-1.14.83-1.69,1.24l-1.4,1c-1,.75-2.08,1.51-3.25,2.25l-.93.58-.59-.92a39.05,39.05,0,0,1-3.12-5.74,30.67,30.67,0,0,1-1.72-5A22.61,22.61,0,0,1,1150.86,919.5Z" transform="translate(-1055 -571)"/><path class="cls-2" d="M1183.67,886.17a38.38,38.38,0,0,1,3,5.55,30.12,30.12,0,0,1,1.63,4.82,19.56,19.56,0,0,1,.33,8.05c-.85,4.79-3.62,8.55-7,11.95a99.33,99.33,0,0,1-11.78,9.37c-2.07,1.51-4.18,3-6.22,4.51-1,.75-2,1.52-3.08,2.27s-2.07,1.51-3.19,2.21a37.48,37.48,0,0,1-3-5.58,29.39,29.39,0,0,1-1.67-4.84,19.29,19.29,0,0,1-.34-8.06c.87-4.78,3.64-8.53,7.15-11.88a110.15,110.15,0,0,1,11.88-9.32c2.08-1.5,4.19-3,6.21-4.51,1-.76,2-1.54,3-2.29S1182.57,886.89,1183.67,886.17Z" transform="translate(-1055 -571)"/><rect class="cls-3" y="307" width="231" height="183" rx="21" ry="21"/><rect class="cls-4" x="9" y="316" width="213" height="165" rx="12" ry="12"/><polygon class="cls-3" points="39.85 457.22 6.85 463.21 6.09 457.36 39.85 457.22 39.85 457.22"/><polygon class="cls-3" points="42.97 348.86 3.89 344.33 4.35 357.57 42.97 348.86 42.97 348.86"/><polygon class="cls-3" points="192.3 432.14 225.65 428.53 225.98 434.41 192.3 432.14 192.3 432.14"/><polygon class="cls-3" points="196.3 410.14 229.65 406.53 229.98 412.41 196.3 410.14 196.3 410.14"/><polygon class="cls-3" points="192.3 348.14 225.65 344.53 225.98 350.41 192.3 348.14 192.3 348.14"/><ellipse class="cls-5" cx="212.54" cy="329.26" rx="5.66" ry="6.78"/><ellipse class="cls-6" cx="212.54" cy="329.26" rx="2.02" ry="2.42"/><ellipse class="cls-5" cx="212.54" cy="467.26" rx="5.66" ry="6.78"/><ellipse class="cls-6" cx="212.54" cy="467.26" rx="2.02" ry="2.42"/><ellipse class="cls-5" cx="17.54" cy="467.26" rx="5.66" ry="6.78"/><ellipse class="cls-6" cx="17.54" cy="467.26" rx="2.02" ry="2.42"/><ellipse class="cls-5" cx="17.54" cy="329.26" rx="5.66" ry="6.78"/><ellipse class="cls-6" cx="17.54" cy="329.26" rx="2.02" ry="2.42"/><text class="cls-7" transform="translate(67 426.02)">NEJ</text><text class="cls-8" transform="translate(63 422.02)">NEJ</text></svg>
