<svg id="Layer_9" data-name="Layer 9" xmlns="http://www.w3.org/2000/svg" viewBox="0 0 1920 1080"><defs><style>.cls-1{fill:#e0ae3f;}.cls-2{fill:#cc9c3b;}.cls-3{fill:#563011;}.cls-4{fill:#753f16;}.cls-5{fill:#514c48;}.cls-6{fill:#33302e;}.cls-7,.cls-8{font-size:51px;}.cls-7{fill:#28170b;}.cls-10,.cls-7,.cls-8,.cls-9{font-family:Bauhaus93, Bauhaus 93;}.cls-10,.cls-8{fill:#42230d;}.cls-10,.cls-9{font-size:47px;}.cls-9{fill:#28170c;}</style></defs><title>valg_random_skilt</title><path class="cls-1" d="M559.86,579.87a17.71,17.71,0,0,1,.3-3.28c.8-4.42,3.18-8.39,7.47-12.48a111.64,111.64,0,0,1,12-9.39l1.81-1.3c1.48-1.07,3-2.14,4.42-3.23l1.69-1.27,1.36-1c1-.78,2.07-1.55,3.18-2.28L593,545l.6,1a38.48,38.48,0,0,1,3.06,5.71,30.36,30.36,0,0,1,1.68,5,22.84,22.84,0,0,1,.64,5.23,18.56,18.56,0,0,1-.29,3.29c-.79,4.41-3.05,8.27-7.35,12.53A97.86,97.86,0,0,1,579.71,587l-2.24,1.61c-1.43,1-2.85,2-4.25,3.09-.59.42-1.14.83-1.69,1.24l-1.4,1c-1,.75-2.08,1.51-3.25,2.25l-.93.58-.59-.92a39.05,39.05,0,0,1-3.12-5.74,30.46,30.46,0,0,1-1.72-5A22.46,22.46,0,0,1,559.86,579.87Z"/><path class="cls-2" d="M592.67,546.54a38.38,38.38,0,0,1,3,5.55,30.12,30.12,0,0,1,1.63,4.82,19.56,19.56,0,0,1,.33,8.05c-.85,4.79-3.62,8.55-7,11.94a99.39,99.39,0,0,1-11.78,9.38c-2.07,1.5-4.18,3-6.22,4.51-1,.74-2,1.52-3.08,2.27s-2.07,1.51-3.19,2.21a38,38,0,0,1-3-5.58,30,30,0,0,1-1.67-4.84,19.29,19.29,0,0,1-.34-8.06c.87-4.78,3.64-8.53,7.15-11.88a110.15,110.15,0,0,1,11.88-9.32c2.08-1.5,4.19-3,6.21-4.51,1-.76,2-1.54,3-2.3S591.57,547.26,592.67,546.54Z"/><path class="cls-1" d="M559.86,608.68a17.71,17.71,0,0,1,.3-3.28c.8-4.42,3.18-8.38,7.47-12.48a111.64,111.64,0,0,1,12-9.39l1.81-1.3c1.48-1.07,3-2.13,4.42-3.22l1.69-1.28,1.36-1c1-.78,2.07-1.55,3.18-2.28l.94-.62.6,1a39,39,0,0,1,3.06,5.71,30.48,30.48,0,0,1,1.68,5,22.77,22.77,0,0,1,.64,5.23,18.73,18.73,0,0,1-.29,3.29c-.79,4.4-3.05,8.27-7.35,12.53a99.92,99.92,0,0,1-11.63,9.29l-2.24,1.61c-1.43,1-2.85,2-4.25,3.08-.59.42-1.14.83-1.69,1.24l-1.4,1c-1,.75-2.08,1.52-3.25,2.25l-.93.58-.59-.92a39.05,39.05,0,0,1-3.12-5.74,30.34,30.34,0,0,1-1.72-5A22.54,22.54,0,0,1,559.86,608.68Z"/><path class="cls-2" d="M592.67,575.36a38.31,38.31,0,0,1,3,5.54,30.46,30.46,0,0,1,1.63,4.82,19.61,19.61,0,0,1,.33,8.06c-.85,4.79-3.62,8.54-7,11.94a100.41,100.41,0,0,1-11.78,9.38c-2.07,1.5-4.18,3-6.22,4.5-1,.75-2,1.52-3.08,2.27s-2.07,1.51-3.19,2.21a37.92,37.92,0,0,1-3-5.57,30,30,0,0,1-1.67-4.84,19.34,19.34,0,0,1-.34-8.07c.87-4.78,3.64-8.53,7.15-11.88a111.42,111.42,0,0,1,11.88-9.32c2.08-1.5,4.19-3,6.21-4.51,1-.75,2-1.53,3-2.29S591.57,576.07,592.67,575.36Z"/><path class="cls-1" d="M559.86,636.39a17.71,17.71,0,0,1,.3-3.28c.8-4.42,3.18-8.39,7.47-12.48a111.64,111.64,0,0,1,12-9.39l1.81-1.3c1.48-1.07,3-2.14,4.42-3.23l1.69-1.27,1.36-1c1-.78,2.07-1.55,3.18-2.28l.94-.61.6,1a38.48,38.48,0,0,1,3.06,5.71,30.36,30.36,0,0,1,1.68,5,22.84,22.84,0,0,1,.64,5.23,18.56,18.56,0,0,1-.29,3.29c-.79,4.41-3.05,8.27-7.35,12.53a97.86,97.86,0,0,1-11.63,9.29l-2.24,1.61c-1.43,1-2.85,2-4.25,3.09-.59.42-1.14.83-1.69,1.24l-1.4,1c-1,.75-2.08,1.51-3.25,2.25l-.93.58-.59-.92a39.05,39.05,0,0,1-3.12-5.74,30.67,30.67,0,0,1-1.72-5A22.61,22.61,0,0,1,559.86,636.39Z"/><path class="cls-2" d="M592.67,603.06a38.38,38.38,0,0,1,3,5.55,30.12,30.12,0,0,1,1.63,4.82,19.56,19.56,0,0,1,.33,8.05c-.85,4.79-3.62,8.55-7,11.94a99.39,99.39,0,0,1-11.78,9.38c-2.07,1.5-4.18,3-6.22,4.51-1,.74-2,1.52-3.08,2.27s-2.07,1.51-3.19,2.21a38,38,0,0,1-3-5.58,30,30,0,0,1-1.67-4.84,19.29,19.29,0,0,1-.34-8.06c.87-4.78,3.64-8.53,7.15-11.88a110.15,110.15,0,0,1,11.88-9.32c2.08-1.5,4.19-3,6.21-4.51,1-.76,2-1.54,3-2.3S591.57,603.78,592.67,603.06Z"/><path class="cls-1" d="M559.86,665.2a17.71,17.71,0,0,1,.3-3.28c.8-4.42,3.18-8.38,7.47-12.48a111.64,111.64,0,0,1,12-9.39l1.81-1.3c1.48-1.07,3-2.13,4.42-3.22l1.69-1.28,1.36-1c1-.78,2.07-1.55,3.18-2.28l.94-.62.6.95a39,39,0,0,1,3.06,5.71,30.48,30.48,0,0,1,1.68,5,22.77,22.77,0,0,1,.64,5.23,18.73,18.73,0,0,1-.29,3.29c-.79,4.4-3.05,8.27-7.35,12.53a99.92,99.92,0,0,1-11.63,9.29l-2.24,1.61c-1.43,1-2.85,2-4.25,3.08-.59.42-1.14.83-1.69,1.24l-1.4,1c-1,.75-2.08,1.52-3.25,2.25l-.93.59-.59-.93a39.05,39.05,0,0,1-3.12-5.74,30.34,30.34,0,0,1-1.72-5A22.54,22.54,0,0,1,559.86,665.2Z"/><path class="cls-2" d="M592.67,631.88a38.31,38.31,0,0,1,3,5.54,30.46,30.46,0,0,1,1.63,4.82,19.61,19.61,0,0,1,.33,8.06c-.85,4.79-3.62,8.54-7,11.94a100.41,100.41,0,0,1-11.78,9.38c-2.07,1.5-4.18,3-6.22,4.5-1,.75-2,1.52-3.08,2.27a37.46,37.46,0,0,1-3.19,2.21,37.92,37.92,0,0,1-3-5.57,30,30,0,0,1-1.67-4.84,19.34,19.34,0,0,1-.34-8.07c.87-4.78,3.64-8.53,7.15-11.88a111.42,111.42,0,0,1,11.88-9.32c2.08-1.5,4.19-3,6.21-4.51,1-.75,2-1.53,3-2.29S591.57,632.59,592.67,631.88Z"/><path class="cls-1" d="M559.86,694a17.63,17.63,0,0,1,.3-3.28c.8-4.42,3.18-8.39,7.47-12.49a112.84,112.84,0,0,1,12-9.38l1.81-1.3c1.48-1.07,3-2.14,4.42-3.23l1.69-1.27,1.36-1c1-.78,2.07-1.55,3.18-2.28l.94-.61.6,1a38,38,0,0,1,3.06,5.71,30.36,30.36,0,0,1,1.68,5A22.84,22.84,0,0,1,599,676a18.64,18.64,0,0,1-.29,3.29c-.79,4.4-3.05,8.27-7.35,12.53a98.87,98.87,0,0,1-11.63,9.29l-2.24,1.61c-1.43,1-2.85,2-4.25,3.09-.59.41-1.14.83-1.69,1.24l-1.4,1c-1,.75-2.08,1.51-3.25,2.25l-.93.58-.59-.92a39.05,39.05,0,0,1-3.12-5.74,30.46,30.46,0,0,1-1.72-5A22.52,22.52,0,0,1,559.86,694Z"/><path class="cls-2" d="M592.67,660.69a38.38,38.38,0,0,1,3,5.55,30.12,30.12,0,0,1,1.63,4.82,19.56,19.56,0,0,1,.33,8.05c-.85,4.79-3.62,8.55-7,11.94a100.41,100.41,0,0,1-11.78,9.38c-2.07,1.5-4.18,3-6.22,4.51-1,.74-2,1.52-3.08,2.27s-2.07,1.5-3.19,2.21a38,38,0,0,1-3-5.58,30,30,0,0,1-1.67-4.84,19.29,19.29,0,0,1-.34-8.06c.87-4.78,3.64-8.53,7.15-11.88a108.91,108.91,0,0,1,11.88-9.32c2.08-1.5,4.19-3,6.21-4.52,1-.75,2-1.53,3-2.29S591.57,661.41,592.67,660.69Z"/><path class="cls-1" d="M559.86,721.72a17.71,17.71,0,0,1,.3-3.28c.8-4.42,3.18-8.38,7.47-12.48a111.64,111.64,0,0,1,12-9.39l1.81-1.3c1.48-1.07,3-2.13,4.42-3.22l1.69-1.28,1.36-1c1-.78,2.07-1.55,3.18-2.28l.94-.62.6.95a39,39,0,0,1,3.06,5.71,30.48,30.48,0,0,1,1.68,5,22.77,22.77,0,0,1,.64,5.23,18.73,18.73,0,0,1-.29,3.29c-.79,4.4-3.05,8.27-7.35,12.53a99.92,99.92,0,0,1-11.63,9.29l-2.24,1.61c-1.43,1-2.85,2-4.25,3.08-.59.42-1.14.83-1.69,1.24l-1.4,1c-1,.75-2.08,1.52-3.25,2.25l-.93.59-.59-.93a39.05,39.05,0,0,1-3.12-5.74,30.34,30.34,0,0,1-1.72-5A22.54,22.54,0,0,1,559.86,721.72Z"/><path class="cls-2" d="M592.67,688.4a38.31,38.31,0,0,1,3,5.54,30.46,30.46,0,0,1,1.63,4.82,19.61,19.61,0,0,1,.33,8.06c-.85,4.79-3.62,8.54-7,11.94a100.41,100.41,0,0,1-11.78,9.38c-2.07,1.5-4.18,3-6.22,4.5-1,.75-2,1.52-3.08,2.28s-2.07,1.5-3.19,2.2a37.92,37.92,0,0,1-3-5.57,30,30,0,0,1-1.67-4.84,19.34,19.34,0,0,1-.34-8.07c.87-4.78,3.64-8.53,7.15-11.88a111.42,111.42,0,0,1,11.88-9.32c2.08-1.5,4.19-3,6.21-4.51,1-.75,2-1.53,3-2.29S591.57,689.11,592.67,688.4Z"/><path class="cls-1" d="M559.86,751.65a17.82,17.82,0,0,1,.3-3.29c.8-4.41,3.18-8.38,7.47-12.48a110.31,110.31,0,0,1,12-9.38l1.81-1.31c1.48-1.06,3-2.13,4.42-3.22.58-.43,1.14-.85,1.69-1.28l1.36-1c1-.78,2.07-1.55,3.18-2.28l.94-.61.6.94a39,39,0,0,1,3.06,5.71,30.8,30.8,0,0,1,1.68,5,22.84,22.84,0,0,1,.64,5.23,18.64,18.64,0,0,1-.29,3.29c-.79,4.4-3.05,8.27-7.35,12.53a98.87,98.87,0,0,1-11.63,9.29l-2.24,1.61q-2.15,1.53-4.25,3.09c-.59.41-1.14.83-1.69,1.24l-1.4,1c-1,.75-2.08,1.51-3.25,2.25l-.93.58-.59-.92a39.12,39.12,0,0,1-3.12-5.75,30,30,0,0,1-1.72-5A22.52,22.52,0,0,1,559.86,751.65Z"/><path class="cls-2" d="M592.67,718.32a37.87,37.87,0,0,1,3,5.55,30,30,0,0,1,1.63,4.81,19.61,19.61,0,0,1,.33,8.06c-.85,4.79-3.62,8.55-7,11.94a100.41,100.41,0,0,1-11.78,9.38c-2.07,1.5-4.18,3-6.22,4.51-1,.74-2,1.52-3.08,2.27s-2.07,1.5-3.19,2.21a38,38,0,0,1-3-5.58,30,30,0,0,1-1.67-4.84,19.3,19.3,0,0,1-.34-8.06c.87-4.78,3.64-8.54,7.15-11.89a110.09,110.09,0,0,1,11.88-9.31c2.08-1.51,4.19-3,6.21-4.52,1-.75,2-1.53,3-2.29S591.57,719,592.67,718.32Z"/><path class="cls-1" d="M559.86,780.46a17.71,17.71,0,0,1,.3-3.28c.8-4.42,3.18-8.39,7.47-12.48a111.64,111.64,0,0,1,12-9.39l1.81-1.3c1.48-1.07,3-2.14,4.42-3.23.58-.42,1.14-.85,1.69-1.27l1.36-1c1-.78,2.07-1.55,3.18-2.27l.94-.62.6.95a38.48,38.48,0,0,1,3.06,5.71,30.69,30.69,0,0,1,1.68,5,22.84,22.84,0,0,1,.64,5.23,18.75,18.75,0,0,1-.29,3.3c-.79,4.4-3.05,8.26-7.35,12.52a97.86,97.86,0,0,1-11.63,9.29l-2.24,1.62c-1.43,1-2.85,2-4.25,3.08-.59.42-1.14.83-1.69,1.24l-1.4,1c-1,.75-2.08,1.51-3.25,2.25l-.93.58-.59-.92a39.05,39.05,0,0,1-3.12-5.74,30.67,30.67,0,0,1-1.72-5A22.61,22.61,0,0,1,559.86,780.46Z"/><path class="cls-2" d="M592.67,747.13a38.38,38.38,0,0,1,3,5.55,30.12,30.12,0,0,1,1.63,4.82,19.56,19.56,0,0,1,.33,8c-.85,4.79-3.62,8.55-7,12a99.33,99.33,0,0,1-11.78,9.37c-2.07,1.51-4.18,3-6.22,4.51-1,.75-2,1.52-3.08,2.27s-2.07,1.51-3.19,2.21a37.48,37.48,0,0,1-3-5.58,29.72,29.72,0,0,1-1.67-4.84,19.29,19.29,0,0,1-.34-8.06c.87-4.78,3.64-8.53,7.15-11.88a110.15,110.15,0,0,1,11.88-9.32c2.08-1.5,4.19-3,6.21-4.51,1-.76,2-1.54,3-2.3S591.57,747.85,592.67,747.13Z"/><path class="cls-1" d="M559.86,808.17a17.82,17.82,0,0,1,.3-3.29c.8-4.41,3.18-8.38,7.47-12.48a110.31,110.31,0,0,1,12-9.38l1.81-1.31c1.48-1.06,3-2.13,4.42-3.22.58-.43,1.14-.85,1.69-1.28l1.36-1c1-.78,2.07-1.55,3.18-2.28l.94-.61.6.94a39,39,0,0,1,3.06,5.71,30.8,30.8,0,0,1,1.68,5,22.84,22.84,0,0,1,.64,5.23,18.64,18.64,0,0,1-.29,3.29c-.79,4.4-3.05,8.27-7.35,12.53a98.87,98.87,0,0,1-11.63,9.29l-2.24,1.61q-2.15,1.53-4.25,3.09c-.59.41-1.14.83-1.69,1.24l-1.4,1c-1,.75-2.08,1.51-3.25,2.25l-.93.58-.59-.92a39.12,39.12,0,0,1-3.12-5.75,30,30,0,0,1-1.72-5A22.52,22.52,0,0,1,559.86,808.17Z"/><path class="cls-2" d="M592.67,774.84a37.87,37.87,0,0,1,3,5.55,30,30,0,0,1,1.63,4.81,19.61,19.61,0,0,1,.33,8.06c-.85,4.79-3.62,8.55-7,11.94a100.41,100.41,0,0,1-11.78,9.38c-2.07,1.5-4.18,3-6.22,4.51-1,.74-2,1.52-3.08,2.27s-2.07,1.5-3.19,2.21a38,38,0,0,1-3-5.58,30,30,0,0,1-1.67-4.84,19.3,19.3,0,0,1-.34-8.06c.87-4.78,3.64-8.53,7.15-11.89a110.09,110.09,0,0,1,11.88-9.31c2.08-1.5,4.19-3,6.21-4.52,1-.75,2-1.53,3-2.29S591.57,775.56,592.67,774.84Z"/><path class="cls-1" d="M559.86,837a17.71,17.71,0,0,1,.3-3.28c.8-4.42,3.18-8.39,7.47-12.48a111.64,111.64,0,0,1,12-9.39l1.81-1.3c1.48-1.07,3-2.14,4.42-3.23.58-.42,1.14-.85,1.69-1.27l1.36-1c1-.78,2.07-1.55,3.18-2.27l.94-.62.6.95a38.48,38.48,0,0,1,3.06,5.71,30.69,30.69,0,0,1,1.68,5A22.84,22.84,0,0,1,599,819a18.75,18.75,0,0,1-.29,3.3c-.79,4.4-3.05,8.26-7.35,12.52a97.86,97.86,0,0,1-11.63,9.29l-2.24,1.62c-1.43,1-2.85,2-4.25,3.08-.59.42-1.14.83-1.69,1.24l-1.4,1c-1,.75-2.08,1.51-3.25,2.25l-.93.58-.59-.92a39.05,39.05,0,0,1-3.12-5.74,30.67,30.67,0,0,1-1.72-5A22.61,22.61,0,0,1,559.86,837Z"/><path class="cls-2" d="M592.67,803.65a38.38,38.38,0,0,1,3,5.55,30.12,30.12,0,0,1,1.63,4.82,19.56,19.56,0,0,1,.33,8.05c-.85,4.79-3.62,8.55-7,11.95a99.33,99.33,0,0,1-11.78,9.37c-2.07,1.51-4.18,3-6.22,4.51-1,.75-2,1.52-3.08,2.27s-2.07,1.51-3.19,2.21a37.48,37.48,0,0,1-3-5.58,29.72,29.72,0,0,1-1.67-4.84,19.29,19.29,0,0,1-.34-8.06c.87-4.78,3.64-8.53,7.15-11.88a110.15,110.15,0,0,1,11.88-9.32c2.08-1.5,4.19-3,6.21-4.51,1-.76,2-1.54,3-2.29S591.57,804.37,592.67,803.65Z"/><path class="cls-1" d="M559.86,865.79a17.79,17.79,0,0,1,.3-3.28c.8-4.41,3.18-8.38,7.47-12.48a111.64,111.64,0,0,1,12-9.39l1.81-1.3c1.48-1.07,3-2.13,4.42-3.22.58-.43,1.14-.85,1.69-1.28l1.36-1c1-.78,2.07-1.55,3.18-2.28l.94-.61.6.94a39,39,0,0,1,3.06,5.71,30.48,30.48,0,0,1,1.68,5,22.77,22.77,0,0,1,.64,5.23,18.73,18.73,0,0,1-.29,3.29c-.79,4.4-3.05,8.27-7.35,12.53a99.92,99.92,0,0,1-11.63,9.29l-2.24,1.61q-2.15,1.53-4.25,3.08c-.59.42-1.14.83-1.69,1.25l-1.4,1c-1,.75-2.08,1.52-3.25,2.25l-.93.59-.59-.92a39.63,39.63,0,0,1-3.12-5.75,30,30,0,0,1-1.72-5A22.54,22.54,0,0,1,559.86,865.79Z"/><path class="cls-2" d="M592.67,832.47a38.31,38.31,0,0,1,3,5.54,30.46,30.46,0,0,1,1.63,4.82,19.61,19.61,0,0,1,.33,8.06c-.85,4.79-3.62,8.54-7,11.94a100.41,100.41,0,0,1-11.78,9.38c-2.07,1.5-4.18,3-6.22,4.51-1,.74-2,1.52-3.08,2.27s-2.07,1.5-3.19,2.21a38.5,38.5,0,0,1-3-5.58,30,30,0,0,1-1.67-4.84,19.34,19.34,0,0,1-.34-8.07c.87-4.77,3.64-8.53,7.15-11.88a111.42,111.42,0,0,1,11.88-9.32c2.08-1.5,4.19-3,6.21-4.51,1-.75,2-1.53,3-2.29S591.57,833.19,592.67,832.47Z"/><path class="cls-1" d="M559.86,893.5a17.71,17.71,0,0,1,.3-3.28c.8-4.42,3.18-8.39,7.47-12.48a111.64,111.64,0,0,1,12-9.39l1.81-1.3c1.48-1.07,3-2.14,4.42-3.23.58-.42,1.14-.85,1.69-1.27l1.36-1c1-.77,2.07-1.55,3.18-2.27l.94-.62.6,1a38.48,38.48,0,0,1,3.06,5.71,30.69,30.69,0,0,1,1.68,5,22.84,22.84,0,0,1,.64,5.23,18.75,18.75,0,0,1-.29,3.3c-.79,4.4-3.05,8.26-7.35,12.52a97.86,97.86,0,0,1-11.63,9.29l-2.24,1.62c-1.43,1-2.85,2-4.25,3.08-.59.42-1.14.83-1.69,1.24l-1.4,1c-1,.75-2.08,1.51-3.25,2.25l-.93.58-.59-.92a39.05,39.05,0,0,1-3.12-5.74,30.67,30.67,0,0,1-1.72-5A22.61,22.61,0,0,1,559.86,893.5Z"/><path class="cls-2" d="M592.67,860.17a38.38,38.38,0,0,1,3,5.55,30.12,30.12,0,0,1,1.63,4.82,19.56,19.56,0,0,1,.33,8.05c-.85,4.79-3.62,8.55-7,11.95a99.33,99.33,0,0,1-11.78,9.37c-2.07,1.51-4.18,3-6.22,4.51-1,.75-2,1.52-3.08,2.27s-2.07,1.51-3.19,2.21a37.48,37.48,0,0,1-3-5.58,29.39,29.39,0,0,1-1.67-4.84,19.29,19.29,0,0,1-.34-8.06c.87-4.78,3.64-8.53,7.15-11.88a110.15,110.15,0,0,1,11.88-9.32c2.08-1.5,4.19-3,6.21-4.51,1-.76,2-1.54,3-2.29S591.57,860.89,592.67,860.17Z"/><path class="cls-1" d="M227.86,561.87a17.71,17.71,0,0,1,.3-3.28c.8-4.42,3.18-8.39,7.47-12.48a111.64,111.64,0,0,1,12-9.39l1.81-1.3c1.48-1.07,3-2.14,4.42-3.23l1.69-1.27,1.36-1c1-.78,2.07-1.55,3.18-2.28L261,527l.6,1a38.48,38.48,0,0,1,3.06,5.71,30.36,30.36,0,0,1,1.68,5,22.84,22.84,0,0,1,.64,5.23,18.56,18.56,0,0,1-.29,3.29c-.79,4.41-3.05,8.27-7.35,12.53A97.86,97.86,0,0,1,247.71,569l-2.24,1.61c-1.43,1-2.85,2-4.25,3.09-.59.42-1.14.83-1.69,1.24l-1.4,1c-1,.75-2.08,1.51-3.25,2.25l-.93.58-.59-.92a39.05,39.05,0,0,1-3.12-5.74,30.46,30.46,0,0,1-1.72-5A22.46,22.46,0,0,1,227.86,561.87Z"/><path class="cls-2" d="M260.67,528.54a38.38,38.38,0,0,1,3,5.55,30.12,30.12,0,0,1,1.63,4.82,19.56,19.56,0,0,1,.33,8.05c-.85,4.79-3.62,8.55-7,11.94a99.39,99.39,0,0,1-11.78,9.38c-2.07,1.5-4.18,3-6.22,4.51-1.05.74-2,1.52-3.08,2.27s-2.07,1.51-3.19,2.21a38,38,0,0,1-3-5.58,30,30,0,0,1-1.67-4.84,19.29,19.29,0,0,1-.34-8.06c.87-4.78,3.64-8.53,7.15-11.88a110.15,110.15,0,0,1,11.88-9.32c2.08-1.5,4.19-3,6.21-4.51,1-.76,2-1.54,3.05-2.3S259.57,529.26,260.67,528.54Z"/><path class="cls-1" d="M227.86,590.68a17.71,17.71,0,0,1,.3-3.28c.8-4.42,3.18-8.38,7.47-12.48a111.64,111.64,0,0,1,12-9.39l1.81-1.3c1.48-1.07,3-2.13,4.42-3.22l1.69-1.28,1.36-1c1-.78,2.07-1.55,3.18-2.28l.94-.62.6,1a39,39,0,0,1,3.06,5.71,30.48,30.48,0,0,1,1.68,5,22.77,22.77,0,0,1,.64,5.23,18.73,18.73,0,0,1-.29,3.29c-.79,4.4-3.05,8.27-7.35,12.53a99.92,99.92,0,0,1-11.63,9.29l-2.24,1.61c-1.43,1-2.85,2-4.25,3.08-.59.42-1.14.83-1.69,1.24l-1.4,1c-1,.75-2.08,1.52-3.25,2.25l-.93.58-.59-.92a39.05,39.05,0,0,1-3.12-5.74,30.34,30.34,0,0,1-1.72-5A22.54,22.54,0,0,1,227.86,590.68Z"/><path class="cls-2" d="M260.67,557.36a38.31,38.31,0,0,1,3,5.54,30.46,30.46,0,0,1,1.63,4.82,19.61,19.61,0,0,1,.33,8.06c-.85,4.79-3.62,8.54-7,11.94a100.41,100.41,0,0,1-11.78,9.38c-2.07,1.5-4.18,3-6.22,4.5-1.05.75-2,1.52-3.08,2.27s-2.07,1.51-3.19,2.21a37.92,37.92,0,0,1-3-5.57,30,30,0,0,1-1.67-4.84,19.34,19.34,0,0,1-.34-8.07c.87-4.78,3.64-8.53,7.15-11.88a111.42,111.42,0,0,1,11.88-9.32c2.08-1.5,4.19-3,6.21-4.51,1-.75,2-1.53,3.05-2.29S259.57,558.07,260.67,557.36Z"/><path class="cls-1" d="M227.86,618.39a17.71,17.71,0,0,1,.3-3.28c.8-4.42,3.18-8.39,7.47-12.48a111.64,111.64,0,0,1,12-9.39l1.81-1.3c1.48-1.07,3-2.14,4.42-3.23l1.69-1.27,1.36-1c1-.78,2.07-1.55,3.18-2.28l.94-.61.6,1a38.48,38.48,0,0,1,3.06,5.71,30.36,30.36,0,0,1,1.68,5,22.84,22.84,0,0,1,.64,5.23,18.56,18.56,0,0,1-.29,3.29c-.79,4.41-3.05,8.27-7.35,12.53a97.86,97.86,0,0,1-11.63,9.29l-2.24,1.61c-1.43,1-2.85,2-4.25,3.09-.59.42-1.14.83-1.69,1.24l-1.4,1c-1,.75-2.08,1.51-3.25,2.25l-.93.58-.59-.92a39.05,39.05,0,0,1-3.12-5.74,30.67,30.67,0,0,1-1.72-5A22.61,22.61,0,0,1,227.86,618.39Z"/><path class="cls-2" d="M260.67,585.06a38.38,38.38,0,0,1,3,5.55,30.12,30.12,0,0,1,1.63,4.82,19.56,19.56,0,0,1,.33,8.05c-.85,4.79-3.62,8.55-7,11.94a99.39,99.39,0,0,1-11.78,9.38c-2.07,1.5-4.18,3-6.22,4.51-1.05.74-2,1.52-3.08,2.27s-2.07,1.51-3.19,2.21a38,38,0,0,1-3-5.58,30,30,0,0,1-1.67-4.84,19.29,19.29,0,0,1-.34-8.06c.87-4.78,3.64-8.53,7.15-11.88a110.15,110.15,0,0,1,11.88-9.32c2.08-1.5,4.19-3,6.21-4.51,1-.76,2-1.54,3.05-2.3S259.57,585.78,260.67,585.06Z"/><path class="cls-1" d="M227.86,647.2a17.71,17.71,0,0,1,.3-3.28c.8-4.42,3.18-8.38,7.47-12.48a111.64,111.64,0,0,1,12-9.39l1.81-1.3c1.48-1.07,3-2.13,4.42-3.22l1.69-1.28,1.36-1c1-.78,2.07-1.55,3.18-2.28l.94-.62.6.95a39,39,0,0,1,3.06,5.71,30.48,30.48,0,0,1,1.68,5,22.77,22.77,0,0,1,.64,5.23,18.73,18.73,0,0,1-.29,3.29c-.79,4.4-3.05,8.27-7.35,12.53a99.92,99.92,0,0,1-11.63,9.29l-2.24,1.61c-1.43,1-2.85,2-4.25,3.08-.59.42-1.14.83-1.69,1.24l-1.4,1c-1,.75-2.08,1.52-3.25,2.25l-.93.59-.59-.93a39.05,39.05,0,0,1-3.12-5.74,30.34,30.34,0,0,1-1.72-5A22.54,22.54,0,0,1,227.86,647.2Z"/><path class="cls-2" d="M260.67,613.88a38.31,38.31,0,0,1,3,5.54,30.46,30.46,0,0,1,1.63,4.82,19.61,19.61,0,0,1,.33,8.06c-.85,4.79-3.62,8.54-7,11.94a100.41,100.41,0,0,1-11.78,9.38c-2.07,1.5-4.18,3-6.22,4.5-1.05.75-2,1.52-3.08,2.27a37.46,37.46,0,0,1-3.19,2.21,37.92,37.92,0,0,1-3-5.57,30,30,0,0,1-1.67-4.84,19.34,19.34,0,0,1-.34-8.07c.87-4.78,3.64-8.53,7.15-11.88a111.42,111.42,0,0,1,11.88-9.32c2.08-1.5,4.19-3,6.21-4.51,1-.75,2-1.53,3.05-2.29S259.57,614.59,260.67,613.88Z"/><path class="cls-1" d="M227.86,676a17.63,17.63,0,0,1,.3-3.28c.8-4.42,3.18-8.39,7.47-12.49a112.84,112.84,0,0,1,12-9.38l1.81-1.3c1.48-1.07,3-2.14,4.42-3.23l1.69-1.27,1.36-1c1-.78,2.07-1.55,3.18-2.28l.94-.61.6,1a38,38,0,0,1,3.06,5.71,30.36,30.36,0,0,1,1.68,5A22.84,22.84,0,0,1,267,658a18.64,18.64,0,0,1-.29,3.29c-.79,4.4-3.05,8.27-7.35,12.53a98.87,98.87,0,0,1-11.63,9.29l-2.24,1.61c-1.43,1-2.85,2-4.25,3.09-.59.41-1.14.83-1.69,1.24l-1.4,1c-1,.75-2.08,1.51-3.25,2.25l-.93.58-.59-.92a39.05,39.05,0,0,1-3.12-5.74,30.46,30.46,0,0,1-1.72-5A22.52,22.52,0,0,1,227.86,676Z"/><path class="cls-2" d="M260.67,642.69a38.38,38.38,0,0,1,3,5.55,30.12,30.12,0,0,1,1.63,4.82,19.56,19.56,0,0,1,.33,8.05c-.85,4.79-3.62,8.55-7,11.94a100.41,100.41,0,0,1-11.78,9.38c-2.07,1.5-4.18,3-6.22,4.51-1.05.74-2,1.52-3.08,2.27s-2.07,1.5-3.19,2.21a38,38,0,0,1-3-5.58,30,30,0,0,1-1.67-4.84,19.29,19.29,0,0,1-.34-8.06c.87-4.78,3.64-8.53,7.15-11.88a108.91,108.91,0,0,1,11.88-9.32c2.08-1.5,4.19-3,6.21-4.52,1-.75,2-1.53,3.05-2.29S259.57,643.41,260.67,642.69Z"/><path class="cls-1" d="M227.86,703.72a17.71,17.71,0,0,1,.3-3.28c.8-4.42,3.18-8.38,7.47-12.48a111.64,111.64,0,0,1,12-9.39l1.81-1.3c1.48-1.07,3-2.13,4.42-3.22l1.69-1.28,1.36-1c1-.78,2.07-1.55,3.18-2.28l.94-.62.6.95a39,39,0,0,1,3.06,5.71,30.48,30.48,0,0,1,1.68,5,22.77,22.77,0,0,1,.64,5.23,18.73,18.73,0,0,1-.29,3.29c-.79,4.4-3.05,8.27-7.35,12.53a99.92,99.92,0,0,1-11.63,9.29l-2.24,1.61c-1.43,1-2.85,2-4.25,3.08-.59.42-1.14.83-1.69,1.24l-1.4,1c-1,.75-2.08,1.52-3.25,2.25l-.93.59-.59-.93a39.05,39.05,0,0,1-3.12-5.74,30.34,30.34,0,0,1-1.72-5A22.54,22.54,0,0,1,227.86,703.72Z"/><path class="cls-2" d="M260.67,670.4a38.31,38.31,0,0,1,3,5.54,30.46,30.46,0,0,1,1.63,4.82,19.61,19.61,0,0,1,.33,8.06c-.85,4.79-3.62,8.54-7,11.94a100.41,100.41,0,0,1-11.78,9.38c-2.07,1.5-4.18,3-6.22,4.5-1.05.75-2,1.52-3.08,2.28s-2.07,1.5-3.19,2.2a37.92,37.92,0,0,1-3-5.57,30,30,0,0,1-1.67-4.84,19.34,19.34,0,0,1-.34-8.07c.87-4.78,3.64-8.53,7.15-11.88a111.42,111.42,0,0,1,11.88-9.32c2.08-1.5,4.19-3,6.21-4.51,1-.75,2-1.53,3.05-2.29S259.57,671.11,260.67,670.4Z"/><path class="cls-1" d="M227.86,733.65a17.82,17.82,0,0,1,.3-3.29c.8-4.41,3.18-8.38,7.47-12.48a110.31,110.31,0,0,1,12-9.38l1.81-1.31c1.48-1.06,3-2.13,4.42-3.22.58-.43,1.14-.85,1.69-1.28l1.36-1c1-.78,2.07-1.55,3.18-2.28l.94-.61.6.94a39,39,0,0,1,3.06,5.71,30.8,30.8,0,0,1,1.68,5,22.84,22.84,0,0,1,.64,5.23,18.64,18.64,0,0,1-.29,3.29c-.79,4.4-3.05,8.27-7.35,12.53a98.87,98.87,0,0,1-11.63,9.29l-2.24,1.61q-2.15,1.53-4.25,3.09c-.59.41-1.14.83-1.69,1.24l-1.4,1c-1,.75-2.08,1.51-3.25,2.25l-.93.58-.59-.92a39.12,39.12,0,0,1-3.12-5.75,30,30,0,0,1-1.72-5A22.52,22.52,0,0,1,227.86,733.65Z"/><path class="cls-2" d="M260.67,700.32a37.87,37.87,0,0,1,3,5.55,30,30,0,0,1,1.63,4.81,19.61,19.61,0,0,1,.33,8.06c-.85,4.79-3.62,8.55-7,11.94a100.41,100.41,0,0,1-11.78,9.38c-2.07,1.5-4.18,3-6.22,4.51-1.05.74-2,1.52-3.08,2.27s-2.07,1.5-3.19,2.21a38,38,0,0,1-3-5.58,30,30,0,0,1-1.67-4.84,19.3,19.3,0,0,1-.34-8.06c.87-4.78,3.64-8.54,7.15-11.89a110.09,110.09,0,0,1,11.88-9.31c2.08-1.51,4.19-3,6.21-4.52,1-.75,2-1.53,3.05-2.29S259.57,701,260.67,700.32Z"/><path class="cls-1" d="M227.86,762.46a17.71,17.71,0,0,1,.3-3.28c.8-4.42,3.18-8.39,7.47-12.48a111.64,111.64,0,0,1,12-9.39l1.81-1.3c1.48-1.07,3-2.14,4.42-3.23.58-.42,1.14-.85,1.69-1.27l1.36-1c1-.78,2.07-1.55,3.18-2.27l.94-.62.6.95a38.48,38.48,0,0,1,3.06,5.71,30.69,30.69,0,0,1,1.68,5,22.84,22.84,0,0,1,.64,5.23,18.75,18.75,0,0,1-.29,3.3c-.79,4.4-3.05,8.26-7.35,12.52a97.86,97.86,0,0,1-11.63,9.29l-2.24,1.62c-1.43,1-2.85,2-4.25,3.08-.59.42-1.14.83-1.69,1.24l-1.4,1c-1,.75-2.08,1.51-3.25,2.25l-.93.58-.59-.92a39.05,39.05,0,0,1-3.12-5.74,30.67,30.67,0,0,1-1.72-5A22.61,22.61,0,0,1,227.86,762.46Z"/><path class="cls-2" d="M260.67,729.13a38.38,38.38,0,0,1,3,5.55,30.12,30.12,0,0,1,1.63,4.82,19.56,19.56,0,0,1,.33,8c-.85,4.79-3.62,8.55-7,12a99.33,99.33,0,0,1-11.78,9.37c-2.07,1.51-4.18,3-6.22,4.51-1.05.75-2,1.52-3.08,2.27s-2.07,1.51-3.19,2.21a37.48,37.48,0,0,1-3-5.58,29.72,29.72,0,0,1-1.67-4.84,19.29,19.29,0,0,1-.34-8.06c.87-4.78,3.64-8.53,7.15-11.88a110.15,110.15,0,0,1,11.88-9.32c2.08-1.5,4.19-3,6.21-4.51,1-.76,2-1.54,3.05-2.3S259.57,729.85,260.67,729.13Z"/><path class="cls-1" d="M227.86,790.17a17.82,17.82,0,0,1,.3-3.29c.8-4.41,3.18-8.38,7.47-12.48a110.31,110.31,0,0,1,12-9.38l1.81-1.31c1.48-1.06,3-2.13,4.42-3.22.58-.43,1.14-.85,1.69-1.28l1.36-1c1-.78,2.07-1.55,3.18-2.28l.94-.61.6.94a39,39,0,0,1,3.06,5.71,30.8,30.8,0,0,1,1.68,5,22.84,22.84,0,0,1,.64,5.23,18.64,18.64,0,0,1-.29,3.29c-.79,4.4-3.05,8.27-7.35,12.53a98.87,98.87,0,0,1-11.63,9.29l-2.24,1.61q-2.15,1.53-4.25,3.09c-.59.41-1.14.83-1.69,1.24l-1.4,1c-1,.75-2.08,1.51-3.25,2.25l-.93.58-.59-.92a39.12,39.12,0,0,1-3.12-5.75,30,30,0,0,1-1.72-5A22.52,22.52,0,0,1,227.86,790.17Z"/><path class="cls-2" d="M260.67,756.84a37.87,37.87,0,0,1,3,5.55,30,30,0,0,1,1.63,4.81,19.61,19.61,0,0,1,.33,8.06c-.85,4.79-3.62,8.55-7,11.94a100.41,100.41,0,0,1-11.78,9.38c-2.07,1.5-4.18,3-6.22,4.51-1.05.74-2,1.52-3.08,2.27s-2.07,1.5-3.19,2.21a38,38,0,0,1-3-5.58,30,30,0,0,1-1.67-4.84,19.3,19.3,0,0,1-.34-8.06c.87-4.78,3.64-8.53,7.15-11.89a110.09,110.09,0,0,1,11.88-9.31c2.08-1.5,4.19-3,6.21-4.52,1-.75,2-1.53,3.05-2.29S259.57,757.56,260.67,756.84Z"/><path class="cls-1" d="M227.86,819a17.71,17.71,0,0,1,.3-3.28c.8-4.42,3.18-8.39,7.47-12.48a111.64,111.64,0,0,1,12-9.39l1.81-1.3c1.48-1.07,3-2.14,4.42-3.23.58-.42,1.14-.85,1.69-1.27l1.36-1c1-.78,2.07-1.55,3.18-2.27l.94-.62.6.95a38.48,38.48,0,0,1,3.06,5.71,30.69,30.69,0,0,1,1.68,5A22.84,22.84,0,0,1,267,801a18.75,18.75,0,0,1-.29,3.3c-.79,4.4-3.05,8.26-7.35,12.52a97.86,97.86,0,0,1-11.63,9.29l-2.24,1.62c-1.43,1-2.85,2-4.25,3.08-.59.42-1.14.83-1.69,1.24l-1.4,1c-1,.75-2.08,1.51-3.25,2.25l-.93.58-.59-.92a39.05,39.05,0,0,1-3.12-5.74,30.67,30.67,0,0,1-1.72-5A22.61,22.61,0,0,1,227.86,819Z"/><path class="cls-2" d="M260.67,785.65a38.38,38.38,0,0,1,3,5.55,30.12,30.12,0,0,1,1.63,4.82,19.56,19.56,0,0,1,.33,8.05c-.85,4.79-3.62,8.55-7,11.95a99.33,99.33,0,0,1-11.78,9.37c-2.07,1.51-4.18,3-6.22,4.51-1.05.75-2,1.52-3.08,2.27s-2.07,1.51-3.19,2.21a37.48,37.48,0,0,1-3-5.58,29.72,29.72,0,0,1-1.67-4.84,19.29,19.29,0,0,1-.34-8.06c.87-4.78,3.64-8.53,7.15-11.88a110.15,110.15,0,0,1,11.88-9.32c2.08-1.5,4.19-3,6.21-4.51,1-.76,2-1.54,3.05-2.29S259.57,786.37,260.67,785.65Z"/><path class="cls-1" d="M227.86,847.79a17.79,17.79,0,0,1,.3-3.28c.8-4.41,3.18-8.38,7.47-12.48a111.64,111.64,0,0,1,12-9.39l1.81-1.3c1.48-1.07,3-2.13,4.42-3.22.58-.43,1.14-.85,1.69-1.28l1.36-1c1-.78,2.07-1.55,3.18-2.28l.94-.61.6.94a39,39,0,0,1,3.06,5.71,30.48,30.48,0,0,1,1.68,5,22.77,22.77,0,0,1,.64,5.23,18.73,18.73,0,0,1-.29,3.29c-.79,4.4-3.05,8.27-7.35,12.53a99.92,99.92,0,0,1-11.63,9.29l-2.24,1.61q-2.15,1.53-4.25,3.08c-.59.42-1.14.83-1.69,1.25l-1.4,1c-1,.75-2.08,1.52-3.25,2.25l-.93.59-.59-.92a39.63,39.63,0,0,1-3.12-5.75,30,30,0,0,1-1.72-5A22.54,22.54,0,0,1,227.86,847.79Z"/><path class="cls-2" d="M260.67,814.47a38.31,38.31,0,0,1,3,5.54,30.46,30.46,0,0,1,1.63,4.82,19.61,19.61,0,0,1,.33,8.06c-.85,4.79-3.62,8.54-7,11.94a100.41,100.41,0,0,1-11.78,9.38c-2.07,1.5-4.18,3-6.22,4.51-1.05.74-2,1.52-3.08,2.27s-2.07,1.5-3.19,2.21a38.5,38.5,0,0,1-3-5.58,30,30,0,0,1-1.67-4.84,19.34,19.34,0,0,1-.34-8.07c.87-4.77,3.64-8.53,7.15-11.88a111.42,111.42,0,0,1,11.88-9.32c2.08-1.5,4.19-3,6.21-4.51,1-.75,2-1.53,3.05-2.29S259.57,815.19,260.67,814.47Z"/><path class="cls-1" d="M227.86,875.5a17.71,17.71,0,0,1,.3-3.28c.8-4.42,3.18-8.39,7.47-12.48a111.64,111.64,0,0,1,12-9.39l1.81-1.3c1.48-1.07,3-2.14,4.42-3.23.58-.42,1.14-.85,1.69-1.27l1.36-1c1-.77,2.07-1.55,3.18-2.27l.94-.62.6,1a38.48,38.48,0,0,1,3.06,5.71,30.69,30.69,0,0,1,1.68,5,22.84,22.84,0,0,1,.64,5.23,18.75,18.75,0,0,1-.29,3.3c-.79,4.4-3.05,8.26-7.35,12.52a97.86,97.86,0,0,1-11.63,9.29l-2.24,1.62c-1.43,1-2.85,2-4.25,3.08-.59.42-1.14.83-1.69,1.24l-1.4,1c-1,.75-2.08,1.51-3.25,2.25l-.93.58-.59-.92a39.05,39.05,0,0,1-3.12-5.74,30.67,30.67,0,0,1-1.72-5A22.61,22.61,0,0,1,227.86,875.5Z"/><path class="cls-2" d="M260.67,842.17a38.38,38.38,0,0,1,3,5.55,30.12,30.12,0,0,1,1.63,4.82,19.56,19.56,0,0,1,.33,8.05c-.85,4.79-3.62,8.55-7,11.95a99.33,99.33,0,0,1-11.78,9.37c-2.07,1.51-4.18,3-6.22,4.51-1.05.75-2,1.52-3.08,2.27s-2.07,1.51-3.19,2.21a37.48,37.48,0,0,1-3-5.58,29.39,29.39,0,0,1-1.67-4.84,19.29,19.29,0,0,1-.34-8.06c.87-4.78,3.64-8.53,7.15-11.88a110.15,110.15,0,0,1,11.88-9.32c2.08-1.5,4.19-3,6.21-4.51,1-.76,2-1.54,3.05-2.29S259.57,842.89,260.67,842.17Z"/><rect class="cls-3" x="139" y="767" width="540.81" height="278" rx="53.68" ry="53.68"/><rect class="cls-4" x="152.21" y="780.21" width="514.4" height="251.59" rx="33.68" ry="33.68"/><polygon class="cls-3" points="194.03 821.8 152.21 827.1 152.2 815.22 194.03 821.8 194.03 821.8"/><polygon class="cls-3" points="253.72 986.05 146.64 983.72 147.48 971.86 253.72 986.05 253.72 986.05"/><polygon class="cls-3" points="628.75 972.35 670.57 977.66 670.57 965.77 628.75 972.35 628.75 972.35"/><polygon class="cls-3" points="589.31 893.23 668.59 898.13 668.53 886.25 589.31 893.23 589.31 893.23"/><circle class="cls-5" cx="175.98" cy="798.7" r="9.24"/><circle class="cls-6" cx="175.98" cy="798.7" r="3.3"/><circle class="cls-5" cx="638.21" cy="1012.64" r="9.24"/><circle class="cls-6" cx="638.21" cy="1012.64" r="3.3"/><circle class="cls-5" cx="634.91" cy="798.7" r="9.24"/><circle class="cls-6" cx="634.91" cy="798.7" r="3.3"/><circle class="cls-5" cx="175.98" cy="1012.64" r="9.24"/><circle class="cls-6" cx="175.98" cy="1012.64" r="3.3"/><rect class="cls-3" x="16" y="307" width="819" height="421" rx="53.68" ry="53.68"/><rect class="cls-4" x="36" y="327" width="779" height="381" rx="33.68" ry="33.68"/><polygon class="cls-3" points="99.33 389.98 36.01 398.02 35.99 380.02 99.33 389.98 99.33 389.98"/><polygon class="cls-3" points="189.74 638.73 27.57 635.19 28.84 617.24 189.74 638.73 189.74 638.73"/><polygon class="cls-3" points="757.67 617.98 821 626.02 821.01 608.02 757.67 617.98 757.67 617.98"/><polygon class="cls-3" points="697.95 498.16 818 505.59 817.91 487.59 697.95 498.16 697.95 498.16"/><circle class="cls-5" cx="72" cy="355" r="14"/><circle class="cls-6" cx="72" cy="355" r="5"/><circle class="cls-5" cx="772" cy="679" r="14"/><circle class="cls-6" cx="772" cy="679" r="5"/><circle class="cls-5" cx="767" cy="355" r="14"/><circle class="cls-6" cx="767" cy="355" r="5"/><circle class="cls-5" cx="72" cy="679" r="14"/><circle class="cls-6" cx="72" cy="679" r="5"/><text class="cls-7" transform="translate(95.62 475.13)">The man is prepared to let you <tspan x="0" y="61.2">have some food.. If you can </tspan><tspan x="0" y="122.4">catch his beloved chickens!</tspan></text><text class="cls-8" transform="translate(99.62 473.13)">The man is prepared to let you <tspan x="0" y="61.2">have some food.. If you can </tspan><tspan x="0" y="122.4">catch his beloved chickens!</tspan></text><text class="cls-9" transform="translate(182.09 866.45)">IS MUNCHIE TOO LAZY?<tspan x="0" y="112.8">Click TO FIND OUT!</tspan></text><text class="cls-10" transform="translate(185.09 862.45)">IS MUNCHIE TOO LAZY?<tspan x="0" y="112.8">Click TO FIND OUT!</tspan></text></svg>
