<svg id="Layer_5" data-name="Layer 5" xmlns="http://www.w3.org/2000/svg" viewBox="0 0 941.58 724"><defs><style>.cls-1{fill:#e0ae3f;}.cls-2{fill:#cc9c3b;}.cls-3{fill:#563011;}.cls-4{fill:#753f16;}.cls-5{fill:#514c48;}.cls-6{fill:#33302e;}.cls-7,.cls-8{font-size:90px;font-family:Bauhaus93, Bauhaus 93;}.cls-7{fill:#231308;}.cls-8{fill:#42230d;}</style></defs><title>you_win_skilt</title><path class="cls-1" d="M735.86,137.87a17.71,17.71,0,0,1,.3-3.28c.8-4.42,3.18-8.39,7.47-12.48a111.64,111.64,0,0,1,12-9.39l1.81-1.3c1.48-1.07,3-2.14,4.42-3.23l1.69-1.27,1.36-1c1-.78,2.07-1.55,3.18-2.28L769,103l.6,1a38.48,38.48,0,0,1,3.06,5.71,30.36,30.36,0,0,1,1.68,5,22.84,22.84,0,0,1,.64,5.23,18.56,18.56,0,0,1-.29,3.29c-.79,4.41-3.05,8.27-7.35,12.53A97.86,97.86,0,0,1,755.71,145l-2.24,1.61c-1.43,1-2.85,2-4.25,3.09-.59.42-1.14.83-1.69,1.24l-1.4,1c-1,.75-2.08,1.51-3.25,2.25l-.93.58-.59-.92a39.05,39.05,0,0,1-3.12-5.74,30.46,30.46,0,0,1-1.72-5A22.46,22.46,0,0,1,735.86,137.87Z" transform="translate(-94 -103)"/><path class="cls-2" d="M768.67,104.54a38.38,38.38,0,0,1,3,5.55,30.12,30.12,0,0,1,1.63,4.82,19.56,19.56,0,0,1,.33,8c-.85,4.79-3.62,8.55-7,11.94a99.39,99.39,0,0,1-11.78,9.38c-2.07,1.5-4.18,3-6.22,4.51-1,.74-2,1.52-3.08,2.27s-2.07,1.51-3.19,2.21a38,38,0,0,1-3-5.58,30,30,0,0,1-1.67-4.84,19.29,19.29,0,0,1-.34-8.06c.87-4.78,3.64-8.53,7.15-11.88a110.15,110.15,0,0,1,11.88-9.32c2.08-1.5,4.19-3,6.21-4.51,1-.76,2-1.54,3-2.3S767.57,105.26,768.67,104.54Z" transform="translate(-94 -103)"/><path class="cls-1" d="M735.86,166.68a17.71,17.71,0,0,1,.3-3.28c.8-4.42,3.18-8.38,7.47-12.48a111.64,111.64,0,0,1,12-9.39l1.81-1.3c1.48-1.07,3-2.13,4.42-3.22l1.69-1.28,1.36-1c1-.78,2.07-1.55,3.18-2.28l.94-.62.6.95a39,39,0,0,1,3.06,5.71,30.48,30.48,0,0,1,1.68,5,22.77,22.77,0,0,1,.64,5.23,18.73,18.73,0,0,1-.29,3.29c-.79,4.4-3.05,8.27-7.35,12.53a99.92,99.92,0,0,1-11.63,9.29l-2.24,1.61c-1.43,1-2.85,2-4.25,3.08-.59.42-1.14.83-1.69,1.24l-1.4,1c-1,.75-2.08,1.52-3.25,2.25l-.93.58-.59-.92a39.05,39.05,0,0,1-3.12-5.74,30.34,30.34,0,0,1-1.72-5A22.54,22.54,0,0,1,735.86,166.68Z" transform="translate(-94 -103)"/><path class="cls-2" d="M768.67,133.36a38.31,38.31,0,0,1,3,5.54,30.46,30.46,0,0,1,1.63,4.82,19.61,19.61,0,0,1,.33,8.06c-.85,4.79-3.62,8.54-7,11.94a100.41,100.41,0,0,1-11.78,9.38c-2.07,1.5-4.18,3-6.22,4.5-1,.75-2,1.52-3.08,2.27s-2.07,1.51-3.19,2.21a37.92,37.92,0,0,1-3-5.57,30,30,0,0,1-1.67-4.84,19.34,19.34,0,0,1-.34-8.07c.87-4.78,3.64-8.53,7.15-11.88a111.42,111.42,0,0,1,11.88-9.32c2.08-1.5,4.19-3,6.21-4.51,1-.75,2-1.53,3-2.29S767.57,134.07,768.67,133.36Z" transform="translate(-94 -103)"/><path class="cls-1" d="M735.86,194.39a17.71,17.71,0,0,1,.3-3.28c.8-4.42,3.18-8.39,7.47-12.48a111.64,111.64,0,0,1,12-9.39l1.81-1.3c1.48-1.07,3-2.14,4.42-3.23l1.69-1.27,1.36-1c1-.78,2.07-1.55,3.18-2.28l.94-.61.6.95a38.48,38.48,0,0,1,3.06,5.71,30.36,30.36,0,0,1,1.68,5,22.84,22.84,0,0,1,.64,5.23,18.56,18.56,0,0,1-.29,3.29c-.79,4.41-3.05,8.27-7.35,12.53a97.86,97.86,0,0,1-11.63,9.29l-2.24,1.61c-1.43,1-2.85,2-4.25,3.09-.59.42-1.14.83-1.69,1.24l-1.4,1c-1,.75-2.08,1.51-3.25,2.25l-.93.58-.59-.92a39.05,39.05,0,0,1-3.12-5.74,30.67,30.67,0,0,1-1.72-5A22.61,22.61,0,0,1,735.86,194.39Z" transform="translate(-94 -103)"/><path class="cls-2" d="M768.67,161.06a38.38,38.38,0,0,1,3,5.55,30.12,30.12,0,0,1,1.63,4.82,19.56,19.56,0,0,1,.33,8c-.85,4.79-3.62,8.55-7,11.94a99.39,99.39,0,0,1-11.78,9.38c-2.07,1.5-4.18,3-6.22,4.51-1,.74-2,1.52-3.08,2.27s-2.07,1.51-3.19,2.21a38,38,0,0,1-3-5.58,30,30,0,0,1-1.67-4.84,19.29,19.29,0,0,1-.34-8.06c.87-4.78,3.64-8.53,7.15-11.88a110.15,110.15,0,0,1,11.88-9.32c2.08-1.5,4.19-3,6.21-4.51,1-.76,2-1.54,3-2.3S767.57,161.78,768.67,161.06Z" transform="translate(-94 -103)"/><path class="cls-1" d="M735.86,223.2a17.71,17.71,0,0,1,.3-3.28c.8-4.42,3.18-8.38,7.47-12.48a111.64,111.64,0,0,1,12-9.39l1.81-1.3c1.48-1.07,3-2.13,4.42-3.22l1.69-1.28,1.36-1c1-.78,2.07-1.55,3.18-2.28l.94-.62.6.95a39,39,0,0,1,3.06,5.71,30.48,30.48,0,0,1,1.68,5,22.77,22.77,0,0,1,.64,5.23,18.73,18.73,0,0,1-.29,3.29c-.79,4.4-3.05,8.27-7.35,12.53a99.92,99.92,0,0,1-11.63,9.29l-2.24,1.61c-1.43,1-2.85,2-4.25,3.08-.59.42-1.14.83-1.69,1.24l-1.4,1c-1,.75-2.08,1.52-3.25,2.25l-.93.59-.59-.93a39.05,39.05,0,0,1-3.12-5.74,30.34,30.34,0,0,1-1.72-5A22.54,22.54,0,0,1,735.86,223.2Z" transform="translate(-94 -103)"/><path class="cls-2" d="M768.67,189.88a38.31,38.31,0,0,1,3,5.54,30.46,30.46,0,0,1,1.63,4.82,19.61,19.61,0,0,1,.33,8.06c-.85,4.79-3.62,8.54-7,11.94a100.41,100.41,0,0,1-11.78,9.38c-2.07,1.5-4.18,3-6.22,4.5-1,.75-2,1.52-3.08,2.27a37.46,37.46,0,0,1-3.19,2.21,37.92,37.92,0,0,1-3-5.57,30,30,0,0,1-1.67-4.84,19.34,19.34,0,0,1-.34-8.07c.87-4.78,3.64-8.53,7.15-11.88a111.42,111.42,0,0,1,11.88-9.32c2.08-1.5,4.19-3,6.21-4.51,1-.75,2-1.53,3-2.29S767.57,190.59,768.67,189.88Z" transform="translate(-94 -103)"/><path class="cls-1" d="M735.86,252a17.63,17.63,0,0,1,.3-3.28c.8-4.42,3.18-8.39,7.47-12.49a112.84,112.84,0,0,1,12-9.38l1.81-1.3c1.48-1.07,3-2.14,4.42-3.23l1.69-1.27,1.36-1c1-.78,2.07-1.55,3.18-2.28l.94-.61.6.95a38,38,0,0,1,3.06,5.71,30.36,30.36,0,0,1,1.68,5A22.84,22.84,0,0,1,775,234a18.64,18.64,0,0,1-.29,3.29c-.79,4.4-3.05,8.27-7.35,12.53a98.87,98.87,0,0,1-11.63,9.29l-2.24,1.61c-1.43,1-2.85,2.05-4.25,3.09-.59.41-1.14.83-1.69,1.24l-1.4,1c-1,.75-2.08,1.51-3.25,2.25l-.93.58-.59-.92a39.05,39.05,0,0,1-3.12-5.74,30.46,30.46,0,0,1-1.72-5A22.52,22.52,0,0,1,735.86,252Z" transform="translate(-94 -103)"/><path class="cls-2" d="M768.67,218.69a38.38,38.38,0,0,1,3,5.55,30.12,30.12,0,0,1,1.63,4.82,19.56,19.56,0,0,1,.33,8.05c-.85,4.79-3.62,8.55-7,11.94a100.41,100.41,0,0,1-11.78,9.38c-2.07,1.5-4.18,3-6.22,4.51-1,.74-2,1.52-3.08,2.27s-2.07,1.5-3.19,2.21a38,38,0,0,1-3-5.58,30,30,0,0,1-1.67-4.84,19.29,19.29,0,0,1-.34-8.06c.87-4.78,3.64-8.53,7.15-11.88a108.91,108.91,0,0,1,11.88-9.32c2.08-1.5,4.19-3,6.21-4.52,1-.75,2-1.53,3-2.29S767.57,219.41,768.67,218.69Z" transform="translate(-94 -103)"/><path class="cls-1" d="M735.86,279.72a17.71,17.71,0,0,1,.3-3.28c.8-4.42,3.18-8.38,7.47-12.48a111.64,111.64,0,0,1,12-9.39l1.81-1.3c1.48-1.07,3-2.13,4.42-3.22l1.69-1.28,1.36-1c1-.78,2.07-1.55,3.18-2.28l.94-.62.6,1a39,39,0,0,1,3.06,5.71,30.48,30.48,0,0,1,1.68,5,22.77,22.77,0,0,1,.64,5.23,18.73,18.73,0,0,1-.29,3.29c-.79,4.4-3.05,8.27-7.35,12.53a99.92,99.92,0,0,1-11.63,9.29l-2.24,1.61c-1.43,1-2.85,2-4.25,3.08-.59.42-1.14.83-1.69,1.24l-1.4,1c-1,.75-2.08,1.52-3.25,2.25l-.93.59-.59-.93a39.05,39.05,0,0,1-3.12-5.74,30.34,30.34,0,0,1-1.72-5A22.54,22.54,0,0,1,735.86,279.72Z" transform="translate(-94 -103)"/><path class="cls-2" d="M768.67,246.4a38.31,38.31,0,0,1,3,5.54,30.46,30.46,0,0,1,1.63,4.82,19.61,19.61,0,0,1,.33,8.06c-.85,4.79-3.62,8.54-7,11.94a100.41,100.41,0,0,1-11.78,9.38c-2.07,1.5-4.18,3-6.22,4.5-1,.75-2,1.52-3.08,2.28s-2.07,1.5-3.19,2.2a37.92,37.92,0,0,1-3-5.57,30,30,0,0,1-1.67-4.84,19.34,19.34,0,0,1-.34-8.07c.87-4.78,3.64-8.53,7.15-11.88a111.42,111.42,0,0,1,11.88-9.32c2.08-1.5,4.19-3,6.21-4.51,1-.75,2-1.53,3-2.29S767.57,247.11,768.67,246.4Z" transform="translate(-94 -103)"/><path class="cls-1" d="M735.86,309.65a17.82,17.82,0,0,1,.3-3.29c.8-4.41,3.18-8.38,7.47-12.48a110.31,110.31,0,0,1,12-9.38l1.81-1.31c1.48-1.06,3-2.13,4.42-3.22.58-.43,1.14-.85,1.69-1.28l1.36-1c1-.78,2.07-1.55,3.18-2.28l.94-.61.6.94a39,39,0,0,1,3.06,5.71,30.8,30.8,0,0,1,1.68,5,22.84,22.84,0,0,1,.64,5.23,18.64,18.64,0,0,1-.29,3.29c-.79,4.4-3.05,8.27-7.35,12.53a98.87,98.87,0,0,1-11.63,9.29l-2.24,1.61q-2.15,1.53-4.25,3.09c-.59.41-1.14.83-1.69,1.24l-1.4,1c-1,.75-2.08,1.51-3.25,2.25l-.93.58-.59-.92a39.12,39.12,0,0,1-3.12-5.75,30,30,0,0,1-1.72-5A22.52,22.52,0,0,1,735.86,309.65Z" transform="translate(-94 -103)"/><path class="cls-2" d="M768.67,276.32a37.87,37.87,0,0,1,3,5.55,30,30,0,0,1,1.63,4.81,19.61,19.61,0,0,1,.33,8.06c-.85,4.79-3.62,8.55-7,11.94a100.41,100.41,0,0,1-11.78,9.38c-2.07,1.5-4.18,3-6.22,4.51-1,.74-2,1.52-3.08,2.27s-2.07,1.5-3.19,2.21a38,38,0,0,1-3-5.58,30,30,0,0,1-1.67-4.84,19.3,19.3,0,0,1-.34-8.06c.87-4.78,3.64-8.54,7.15-11.89a110.09,110.09,0,0,1,11.88-9.31c2.08-1.51,4.19-3,6.21-4.52,1-.75,2-1.53,3-2.29S767.57,277,768.67,276.32Z" transform="translate(-94 -103)"/><path class="cls-1" d="M735.86,338.46a17.71,17.71,0,0,1,.3-3.28c.8-4.42,3.18-8.39,7.47-12.48a111.64,111.64,0,0,1,12-9.39l1.81-1.3c1.48-1.07,3-2.14,4.42-3.23.58-.42,1.14-.85,1.69-1.27l1.36-1c1-.78,2.07-1.55,3.18-2.27l.94-.62.6,1a38.48,38.48,0,0,1,3.06,5.71,30.69,30.69,0,0,1,1.68,5,22.84,22.84,0,0,1,.64,5.23,18.75,18.75,0,0,1-.29,3.3c-.79,4.4-3.05,8.26-7.35,12.52a97.86,97.86,0,0,1-11.63,9.29l-2.24,1.62c-1.43,1-2.85,2-4.25,3.08-.59.42-1.14.83-1.69,1.24l-1.4,1c-1,.75-2.08,1.51-3.25,2.25l-.93.58-.59-.92a39.05,39.05,0,0,1-3.12-5.74,30.67,30.67,0,0,1-1.72-5A22.61,22.61,0,0,1,735.86,338.46Z" transform="translate(-94 -103)"/><path class="cls-2" d="M768.67,305.13a38.38,38.38,0,0,1,3,5.55,30.12,30.12,0,0,1,1.63,4.82,19.56,19.56,0,0,1,.33,8.05c-.85,4.79-3.62,8.55-7,11.95a99.33,99.33,0,0,1-11.78,9.37c-2.07,1.51-4.18,3-6.22,4.51-1,.75-2,1.52-3.08,2.27s-2.07,1.51-3.19,2.21a37.48,37.48,0,0,1-3-5.58,29.72,29.72,0,0,1-1.67-4.84,19.29,19.29,0,0,1-.34-8.06c.87-4.78,3.64-8.53,7.15-11.88a110.15,110.15,0,0,1,11.88-9.32c2.08-1.5,4.19-3,6.21-4.51,1-.76,2-1.54,3-2.3S767.57,305.85,768.67,305.13Z" transform="translate(-94 -103)"/><path class="cls-1" d="M735.86,366.17a17.82,17.82,0,0,1,.3-3.29c.8-4.41,3.18-8.38,7.47-12.48a110.31,110.31,0,0,1,12-9.38l1.81-1.31c1.48-1.06,3-2.13,4.42-3.22.58-.43,1.14-.85,1.69-1.28l1.36-1c1-.78,2.07-1.55,3.18-2.28l.94-.61.6.94a39,39,0,0,1,3.06,5.71,30.8,30.8,0,0,1,1.68,5,22.84,22.84,0,0,1,.64,5.23,18.64,18.64,0,0,1-.29,3.29c-.79,4.4-3.05,8.27-7.35,12.53a98.87,98.87,0,0,1-11.63,9.29l-2.24,1.61q-2.15,1.53-4.25,3.09c-.59.41-1.14.83-1.69,1.24l-1.4,1c-1,.75-2.08,1.51-3.25,2.25l-.93.58-.59-.92a39.12,39.12,0,0,1-3.12-5.75,30,30,0,0,1-1.72-5A22.52,22.52,0,0,1,735.86,366.17Z" transform="translate(-94 -103)"/><path class="cls-2" d="M768.67,332.84a37.87,37.87,0,0,1,3,5.55,30,30,0,0,1,1.63,4.81,19.61,19.61,0,0,1,.33,8.06c-.85,4.79-3.62,8.55-7,11.94a100.41,100.41,0,0,1-11.78,9.38c-2.07,1.5-4.18,3-6.22,4.51-1,.74-2,1.52-3.08,2.27s-2.07,1.5-3.19,2.21a38,38,0,0,1-3-5.58,30,30,0,0,1-1.67-4.84,19.3,19.3,0,0,1-.34-8.06c.87-4.78,3.64-8.53,7.15-11.89a110.09,110.09,0,0,1,11.88-9.31c2.08-1.5,4.19-3,6.21-4.52,1-.75,2-1.53,3-2.29S767.57,333.56,768.67,332.84Z" transform="translate(-94 -103)"/><path class="cls-1" d="M735.86,395a17.71,17.71,0,0,1,.3-3.28c.8-4.42,3.18-8.39,7.47-12.48a111.64,111.64,0,0,1,12-9.39l1.81-1.3c1.48-1.07,3-2.14,4.42-3.23.58-.42,1.14-.85,1.69-1.27l1.36-1c1-.78,2.07-1.55,3.18-2.27l.94-.62.6.95a38.48,38.48,0,0,1,3.06,5.71,30.69,30.69,0,0,1,1.68,5A22.84,22.84,0,0,1,775,377a18.75,18.75,0,0,1-.29,3.3c-.79,4.4-3.05,8.26-7.35,12.52a97.86,97.86,0,0,1-11.63,9.29l-2.24,1.62c-1.43,1-2.85,2-4.25,3.08-.59.42-1.14.83-1.69,1.24l-1.4,1c-1,.75-2.08,1.51-3.25,2.25l-.93.58-.59-.92a39.05,39.05,0,0,1-3.12-5.74,30.67,30.67,0,0,1-1.72-5A22.61,22.61,0,0,1,735.86,395Z" transform="translate(-94 -103)"/><path class="cls-2" d="M768.67,361.65a38.38,38.38,0,0,1,3,5.55,30.12,30.12,0,0,1,1.63,4.82,19.56,19.56,0,0,1,.33,8.05c-.85,4.79-3.62,8.55-7,11.95a99.33,99.33,0,0,1-11.78,9.37c-2.07,1.51-4.18,3-6.22,4.51-1,.75-2,1.52-3.08,2.27s-2.07,1.51-3.19,2.21a37.48,37.48,0,0,1-3-5.58,29.72,29.72,0,0,1-1.67-4.84,19.29,19.29,0,0,1-.34-8.06c.87-4.78,3.64-8.53,7.15-11.88a110.15,110.15,0,0,1,11.88-9.32c2.08-1.5,4.19-3,6.21-4.51,1-.76,2-1.54,3-2.29S767.57,362.37,768.67,361.65Z" transform="translate(-94 -103)"/><path class="cls-1" d="M735.86,423.79a17.79,17.79,0,0,1,.3-3.28c.8-4.41,3.18-8.38,7.47-12.48a111.64,111.64,0,0,1,12-9.39l1.81-1.3c1.48-1.07,3-2.13,4.42-3.22.58-.43,1.14-.85,1.69-1.28l1.36-1c1-.78,2.07-1.55,3.18-2.28l.94-.61.6.94a39,39,0,0,1,3.06,5.71,30.48,30.48,0,0,1,1.68,5,22.77,22.77,0,0,1,.64,5.23,18.73,18.73,0,0,1-.29,3.29c-.79,4.4-3.05,8.27-7.35,12.53a99.92,99.92,0,0,1-11.63,9.29l-2.24,1.61q-2.15,1.53-4.25,3.08c-.59.42-1.14.83-1.69,1.25l-1.4,1c-1,.75-2.08,1.52-3.25,2.25l-.93.59-.59-.92a39.63,39.63,0,0,1-3.12-5.75,30,30,0,0,1-1.72-5A22.54,22.54,0,0,1,735.86,423.79Z" transform="translate(-94 -103)"/><path class="cls-2" d="M768.67,390.47a38.31,38.31,0,0,1,3,5.54,30.46,30.46,0,0,1,1.63,4.82,19.61,19.61,0,0,1,.33,8.06c-.85,4.79-3.62,8.54-7,11.94a100.41,100.41,0,0,1-11.78,9.38c-2.07,1.5-4.18,3-6.22,4.51-1,.74-2,1.52-3.08,2.27s-2.07,1.5-3.19,2.21a38.5,38.5,0,0,1-3-5.58,30,30,0,0,1-1.67-4.84,19.34,19.34,0,0,1-.34-8.07c.87-4.77,3.64-8.53,7.15-11.88a111.42,111.42,0,0,1,11.88-9.32c2.08-1.5,4.19-3,6.21-4.51,1-.75,2-1.53,3-2.29S767.57,391.19,768.67,390.47Z" transform="translate(-94 -103)"/><path class="cls-1" d="M735.86,451.5a17.71,17.71,0,0,1,.3-3.28c.8-4.42,3.18-8.39,7.47-12.48a111.64,111.64,0,0,1,12-9.39l1.81-1.3c1.48-1.07,3-2.14,4.42-3.23.58-.42,1.14-.85,1.69-1.27l1.36-1c1-.77,2.07-1.55,3.18-2.27l.94-.62.6.95a38.48,38.48,0,0,1,3.06,5.71,30.69,30.69,0,0,1,1.68,5,22.84,22.84,0,0,1,.64,5.23,18.75,18.75,0,0,1-.29,3.3c-.79,4.4-3.05,8.26-7.35,12.52a97.86,97.86,0,0,1-11.63,9.29l-2.24,1.62c-1.43,1-2.85,2-4.25,3.08-.59.42-1.14.83-1.69,1.24l-1.4,1c-1,.75-2.08,1.51-3.25,2.25l-.93.58-.59-.92a39.05,39.05,0,0,1-3.12-5.74,30.67,30.67,0,0,1-1.72-5A22.61,22.61,0,0,1,735.86,451.5Z" transform="translate(-94 -103)"/><path class="cls-2" d="M768.67,418.17a38.38,38.38,0,0,1,3,5.55,30.12,30.12,0,0,1,1.63,4.82,19.56,19.56,0,0,1,.33,8c-.85,4.79-3.62,8.55-7,12a99.33,99.33,0,0,1-11.78,9.37c-2.07,1.51-4.18,3-6.22,4.51-1,.75-2,1.52-3.08,2.27s-2.07,1.51-3.19,2.21a37.48,37.48,0,0,1-3-5.58,29.39,29.39,0,0,1-1.67-4.84,19.29,19.29,0,0,1-.34-8.06c.87-4.78,3.64-8.53,7.15-11.88a110.15,110.15,0,0,1,11.88-9.32c2.08-1.5,4.19-3,6.21-4.51,1-.76,2-1.54,3-2.29S767.57,418.89,768.67,418.17Z" transform="translate(-94 -103)"/><path class="cls-1" d="M247.86,139.87a17.71,17.71,0,0,1,.3-3.28c.8-4.42,3.18-8.39,7.47-12.48a111.64,111.64,0,0,1,12-9.39l1.81-1.3c1.48-1.07,3-2.14,4.42-3.23l1.69-1.27,1.36-1c1-.78,2.07-1.55,3.18-2.28L281,105l.6,1a38.48,38.48,0,0,1,3.06,5.71,30.36,30.36,0,0,1,1.68,5,22.84,22.84,0,0,1,.64,5.23,18.56,18.56,0,0,1-.29,3.29c-.79,4.41-3.05,8.27-7.35,12.53A97.86,97.86,0,0,1,267.71,147l-2.24,1.61c-1.43,1-2.85,2-4.25,3.09-.59.42-1.14.83-1.69,1.24l-1.4,1c-1,.75-2.08,1.51-3.25,2.25l-.93.58-.59-.92a39.05,39.05,0,0,1-3.12-5.74,30.46,30.46,0,0,1-1.72-5A22.46,22.46,0,0,1,247.86,139.87Z" transform="translate(-94 -103)"/><path class="cls-2" d="M280.67,106.54a38.38,38.38,0,0,1,3,5.55,30.12,30.12,0,0,1,1.63,4.82,19.56,19.56,0,0,1,.33,8c-.85,4.79-3.62,8.55-7,11.94a99.39,99.39,0,0,1-11.78,9.38c-2.07,1.5-4.18,3-6.22,4.51-1.05.74-2,1.52-3.08,2.27s-2.07,1.51-3.19,2.21a38,38,0,0,1-3-5.58,30,30,0,0,1-1.67-4.84,19.29,19.29,0,0,1-.34-8.06c.87-4.78,3.64-8.53,7.15-11.88a110.15,110.15,0,0,1,11.88-9.32c2.08-1.5,4.19-3,6.21-4.51,1-.76,2-1.54,3.05-2.3S279.57,107.26,280.67,106.54Z" transform="translate(-94 -103)"/><path class="cls-1" d="M247.86,168.68a17.71,17.71,0,0,1,.3-3.28c.8-4.42,3.18-8.38,7.47-12.48a111.64,111.64,0,0,1,12-9.39l1.81-1.3c1.48-1.07,3-2.13,4.42-3.22l1.69-1.28,1.36-1c1-.78,2.07-1.55,3.18-2.28l.94-.62.6.95a39,39,0,0,1,3.06,5.71,30.48,30.48,0,0,1,1.68,5,22.77,22.77,0,0,1,.64,5.23,18.73,18.73,0,0,1-.29,3.29c-.79,4.4-3.05,8.27-7.35,12.53a99.92,99.92,0,0,1-11.63,9.29l-2.24,1.61c-1.43,1-2.85,2-4.25,3.08-.59.42-1.14.83-1.69,1.24l-1.4,1c-1,.75-2.08,1.52-3.25,2.25l-.93.58-.59-.92a39.05,39.05,0,0,1-3.12-5.74,30.34,30.34,0,0,1-1.72-5A22.54,22.54,0,0,1,247.86,168.68Z" transform="translate(-94 -103)"/><path class="cls-2" d="M280.67,135.36a38.31,38.31,0,0,1,3,5.54,30.46,30.46,0,0,1,1.63,4.82,19.61,19.61,0,0,1,.33,8.06c-.85,4.79-3.62,8.54-7,11.94a100.41,100.41,0,0,1-11.78,9.38c-2.07,1.5-4.18,3-6.22,4.5-1.05.75-2,1.52-3.08,2.27s-2.07,1.51-3.19,2.21a37.92,37.92,0,0,1-3-5.57,30,30,0,0,1-1.67-4.84,19.34,19.34,0,0,1-.34-8.07c.87-4.78,3.64-8.53,7.15-11.88a111.42,111.42,0,0,1,11.88-9.32c2.08-1.5,4.19-3,6.21-4.51,1-.75,2-1.53,3.05-2.29S279.57,136.07,280.67,135.36Z" transform="translate(-94 -103)"/><path class="cls-1" d="M247.86,196.39a17.71,17.71,0,0,1,.3-3.28c.8-4.42,3.18-8.39,7.47-12.48a111.64,111.64,0,0,1,12-9.39l1.81-1.3c1.48-1.07,3-2.14,4.42-3.23l1.69-1.27,1.36-1c1-.78,2.07-1.55,3.18-2.28l.94-.61.6.95a38.48,38.48,0,0,1,3.06,5.71,30.36,30.36,0,0,1,1.68,5,22.84,22.84,0,0,1,.64,5.23,18.56,18.56,0,0,1-.29,3.29c-.79,4.41-3.05,8.27-7.35,12.53a97.86,97.86,0,0,1-11.63,9.29l-2.24,1.61c-1.43,1-2.85,2-4.25,3.09-.59.42-1.14.83-1.69,1.24l-1.4,1c-1,.75-2.08,1.51-3.25,2.25l-.93.58-.59-.92a39.05,39.05,0,0,1-3.12-5.74,30.67,30.67,0,0,1-1.72-5A22.61,22.61,0,0,1,247.86,196.39Z" transform="translate(-94 -103)"/><path class="cls-2" d="M280.67,163.06a38.38,38.38,0,0,1,3,5.55,30.12,30.12,0,0,1,1.63,4.82,19.56,19.56,0,0,1,.33,8c-.85,4.79-3.62,8.55-7,11.94a99.39,99.39,0,0,1-11.78,9.38c-2.07,1.5-4.18,3-6.22,4.51-1.05.74-2,1.52-3.08,2.27s-2.07,1.51-3.19,2.21a38,38,0,0,1-3-5.58,30,30,0,0,1-1.67-4.84,19.29,19.29,0,0,1-.34-8.06c.87-4.78,3.64-8.53,7.15-11.88a110.15,110.15,0,0,1,11.88-9.32c2.08-1.5,4.19-3,6.21-4.51,1-.76,2-1.54,3.05-2.3S279.57,163.78,280.67,163.06Z" transform="translate(-94 -103)"/><path class="cls-1" d="M247.86,225.2a17.71,17.71,0,0,1,.3-3.28c.8-4.42,3.18-8.38,7.47-12.48a111.64,111.64,0,0,1,12-9.39l1.81-1.3c1.48-1.07,3-2.13,4.42-3.22l1.69-1.28,1.36-1c1-.78,2.07-1.55,3.18-2.28l.94-.62.6.95a39,39,0,0,1,3.06,5.71,30.48,30.48,0,0,1,1.68,5,22.77,22.77,0,0,1,.64,5.23,18.73,18.73,0,0,1-.29,3.29c-.79,4.4-3.05,8.27-7.35,12.53a99.92,99.92,0,0,1-11.63,9.29l-2.24,1.61c-1.43,1-2.85,2-4.25,3.08-.59.42-1.14.83-1.69,1.24l-1.4,1c-1,.75-2.08,1.52-3.25,2.25l-.93.59-.59-.93a39.05,39.05,0,0,1-3.12-5.74,30.34,30.34,0,0,1-1.72-5A22.54,22.54,0,0,1,247.86,225.2Z" transform="translate(-94 -103)"/><path class="cls-2" d="M280.67,191.88a38.31,38.31,0,0,1,3,5.54,30.46,30.46,0,0,1,1.63,4.82,19.61,19.61,0,0,1,.33,8.06c-.85,4.79-3.62,8.54-7,11.94a100.41,100.41,0,0,1-11.78,9.38c-2.07,1.5-4.18,3-6.22,4.5-1.05.75-2,1.52-3.08,2.27a37.46,37.46,0,0,1-3.19,2.21,37.92,37.92,0,0,1-3-5.57,30,30,0,0,1-1.67-4.84,19.34,19.34,0,0,1-.34-8.07c.87-4.78,3.64-8.53,7.15-11.88a111.42,111.42,0,0,1,11.88-9.32c2.08-1.5,4.19-3,6.21-4.51,1-.75,2-1.53,3.05-2.29S279.57,192.59,280.67,191.88Z" transform="translate(-94 -103)"/><path class="cls-1" d="M247.86,254a17.63,17.63,0,0,1,.3-3.28c.8-4.42,3.18-8.39,7.47-12.49a112.84,112.84,0,0,1,12-9.38l1.81-1.3c1.48-1.07,3-2.14,4.42-3.23l1.69-1.27,1.36-1c1-.78,2.07-1.55,3.18-2.28l.94-.61.6.95a38,38,0,0,1,3.06,5.71,30.36,30.36,0,0,1,1.68,5A22.84,22.84,0,0,1,287,236a18.64,18.64,0,0,1-.29,3.29c-.79,4.4-3.05,8.27-7.35,12.53a98.87,98.87,0,0,1-11.63,9.29l-2.24,1.61c-1.43,1-2.85,2.05-4.25,3.09-.59.41-1.14.83-1.69,1.24l-1.4,1c-1,.75-2.08,1.51-3.25,2.25l-.93.58-.59-.92a39.05,39.05,0,0,1-3.12-5.74,30.46,30.46,0,0,1-1.72-5A22.52,22.52,0,0,1,247.86,254Z" transform="translate(-94 -103)"/><path class="cls-2" d="M280.67,220.69a38.38,38.38,0,0,1,3,5.55,30.12,30.12,0,0,1,1.63,4.82,19.56,19.56,0,0,1,.33,8.05c-.85,4.79-3.62,8.55-7,11.94a100.41,100.41,0,0,1-11.78,9.38c-2.07,1.5-4.18,3-6.22,4.51-1.05.74-2,1.52-3.08,2.27s-2.07,1.5-3.19,2.21a38,38,0,0,1-3-5.58,30,30,0,0,1-1.67-4.84,19.29,19.29,0,0,1-.34-8.06c.87-4.78,3.64-8.53,7.15-11.88a108.91,108.91,0,0,1,11.88-9.32c2.08-1.5,4.19-3,6.21-4.52,1-.75,2-1.53,3.05-2.29S279.57,221.41,280.67,220.69Z" transform="translate(-94 -103)"/><path class="cls-1" d="M247.86,281.72a17.71,17.71,0,0,1,.3-3.28c.8-4.42,3.18-8.38,7.47-12.48a111.64,111.64,0,0,1,12-9.39l1.81-1.3c1.48-1.07,3-2.13,4.42-3.22l1.69-1.28,1.36-1c1-.78,2.07-1.55,3.18-2.28l.94-.62.6,1a39,39,0,0,1,3.06,5.71,30.48,30.48,0,0,1,1.68,5,22.77,22.77,0,0,1,.64,5.23,18.73,18.73,0,0,1-.29,3.29c-.79,4.4-3.05,8.27-7.35,12.53a99.92,99.92,0,0,1-11.63,9.29l-2.24,1.61c-1.43,1-2.85,2-4.25,3.08-.59.42-1.14.83-1.69,1.24l-1.4,1c-1,.75-2.08,1.52-3.25,2.25l-.93.59-.59-.93a39.05,39.05,0,0,1-3.12-5.74,30.34,30.34,0,0,1-1.72-5A22.54,22.54,0,0,1,247.86,281.72Z" transform="translate(-94 -103)"/><path class="cls-2" d="M280.67,248.4a38.31,38.31,0,0,1,3,5.54,30.46,30.46,0,0,1,1.63,4.82,19.61,19.61,0,0,1,.33,8.06c-.85,4.79-3.62,8.54-7,11.94a100.41,100.41,0,0,1-11.78,9.38c-2.07,1.5-4.18,3-6.22,4.5-1.05.75-2,1.52-3.08,2.28s-2.07,1.5-3.19,2.2a37.92,37.92,0,0,1-3-5.57,30,30,0,0,1-1.67-4.84,19.34,19.34,0,0,1-.34-8.07c.87-4.78,3.64-8.53,7.15-11.88a111.42,111.42,0,0,1,11.88-9.32c2.08-1.5,4.19-3,6.21-4.51,1-.75,2-1.53,3.05-2.29S279.57,249.11,280.67,248.4Z" transform="translate(-94 -103)"/><path class="cls-1" d="M247.86,311.65a17.82,17.82,0,0,1,.3-3.29c.8-4.41,3.18-8.38,7.47-12.48a110.31,110.31,0,0,1,12-9.38l1.81-1.31c1.48-1.06,3-2.13,4.42-3.22.58-.43,1.14-.85,1.69-1.28l1.36-1c1-.78,2.07-1.55,3.18-2.28l.94-.61.6.94a39,39,0,0,1,3.06,5.71,30.8,30.8,0,0,1,1.68,5,22.84,22.84,0,0,1,.64,5.23,18.64,18.64,0,0,1-.29,3.29c-.79,4.4-3.05,8.27-7.35,12.53a98.87,98.87,0,0,1-11.63,9.29l-2.24,1.61q-2.14,1.53-4.25,3.09c-.59.41-1.14.83-1.69,1.24l-1.4,1c-1,.75-2.08,1.51-3.25,2.25l-.93.58-.59-.92a39.12,39.12,0,0,1-3.12-5.75,30,30,0,0,1-1.72-5A22.52,22.52,0,0,1,247.86,311.65Z" transform="translate(-94 -103)"/><path class="cls-2" d="M280.67,278.32a37.87,37.87,0,0,1,3,5.55,30,30,0,0,1,1.63,4.81,19.61,19.61,0,0,1,.33,8.06c-.85,4.79-3.62,8.55-7,11.94a100.41,100.41,0,0,1-11.78,9.38c-2.07,1.5-4.18,3-6.22,4.51-1.05.74-2,1.52-3.08,2.27s-2.07,1.5-3.19,2.21a38,38,0,0,1-3-5.58,30,30,0,0,1-1.67-4.84,19.3,19.3,0,0,1-.34-8.06c.87-4.78,3.64-8.54,7.15-11.89a110.09,110.09,0,0,1,11.88-9.31c2.08-1.51,4.19-3,6.21-4.52,1-.75,2-1.53,3.05-2.29S279.57,279,280.67,278.32Z" transform="translate(-94 -103)"/><path class="cls-1" d="M247.86,340.46a17.71,17.71,0,0,1,.3-3.28c.8-4.42,3.18-8.39,7.47-12.48a111.64,111.64,0,0,1,12-9.39l1.81-1.3c1.48-1.07,3-2.14,4.42-3.23.58-.42,1.14-.85,1.69-1.27l1.36-1c1-.78,2.07-1.55,3.18-2.27l.94-.62.6,1a38.48,38.48,0,0,1,3.06,5.71,30.69,30.69,0,0,1,1.68,5,22.84,22.84,0,0,1,.64,5.23,18.75,18.75,0,0,1-.29,3.3c-.79,4.4-3.05,8.26-7.35,12.52a97.86,97.86,0,0,1-11.63,9.29l-2.24,1.62c-1.43,1-2.85,2-4.25,3.08-.59.42-1.14.83-1.69,1.24l-1.4,1c-1,.75-2.08,1.51-3.25,2.25l-.93.58-.59-.92a39.05,39.05,0,0,1-3.12-5.74,30.67,30.67,0,0,1-1.72-5A22.61,22.61,0,0,1,247.86,340.46Z" transform="translate(-94 -103)"/><path class="cls-2" d="M280.67,307.13a38.38,38.38,0,0,1,3,5.55,30.12,30.12,0,0,1,1.63,4.82,19.56,19.56,0,0,1,.33,8.05c-.85,4.79-3.62,8.55-7,11.95a99.33,99.33,0,0,1-11.78,9.37c-2.07,1.51-4.18,3-6.22,4.51-1.05.75-2,1.52-3.08,2.27s-2.07,1.51-3.19,2.21a37.48,37.48,0,0,1-3-5.58,29.72,29.72,0,0,1-1.67-4.84,19.29,19.29,0,0,1-.34-8.06c.87-4.78,3.64-8.53,7.15-11.88a110.15,110.15,0,0,1,11.88-9.32c2.08-1.5,4.19-3,6.21-4.51,1-.76,2-1.54,3.05-2.3S279.57,307.85,280.67,307.13Z" transform="translate(-94 -103)"/><path class="cls-1" d="M247.86,368.17a17.82,17.82,0,0,1,.3-3.29c.8-4.41,3.18-8.38,7.47-12.48a110.31,110.31,0,0,1,12-9.38l1.81-1.31c1.48-1.06,3-2.13,4.42-3.22.58-.43,1.14-.85,1.69-1.28l1.36-1c1-.78,2.07-1.55,3.18-2.28l.94-.61.6.94a39,39,0,0,1,3.06,5.71,30.8,30.8,0,0,1,1.68,5,22.84,22.84,0,0,1,.64,5.23,18.64,18.64,0,0,1-.29,3.29c-.79,4.4-3.05,8.27-7.35,12.53a98.87,98.87,0,0,1-11.63,9.29l-2.24,1.61q-2.14,1.53-4.25,3.09c-.59.41-1.14.83-1.69,1.24l-1.4,1c-1,.75-2.08,1.51-3.25,2.25l-.93.58-.59-.92a39.12,39.12,0,0,1-3.12-5.75,30,30,0,0,1-1.72-5A22.52,22.52,0,0,1,247.86,368.17Z" transform="translate(-94 -103)"/><path class="cls-2" d="M280.67,334.84a37.87,37.87,0,0,1,3,5.55,30,30,0,0,1,1.63,4.81,19.61,19.61,0,0,1,.33,8.06c-.85,4.79-3.62,8.55-7,11.94a100.41,100.41,0,0,1-11.78,9.38c-2.07,1.5-4.18,3-6.22,4.51-1.05.74-2,1.52-3.08,2.27s-2.07,1.5-3.19,2.21a38,38,0,0,1-3-5.58,30,30,0,0,1-1.67-4.84,19.3,19.3,0,0,1-.34-8.06c.87-4.78,3.64-8.53,7.15-11.89a110.09,110.09,0,0,1,11.88-9.31c2.08-1.5,4.19-3,6.21-4.52,1-.75,2-1.53,3.05-2.29S279.57,335.56,280.67,334.84Z" transform="translate(-94 -103)"/><path class="cls-1" d="M247.86,397a17.71,17.71,0,0,1,.3-3.28c.8-4.42,3.18-8.39,7.47-12.48a111.64,111.64,0,0,1,12-9.39l1.81-1.3c1.48-1.07,3-2.14,4.42-3.23.58-.42,1.14-.85,1.69-1.27l1.36-1c1-.78,2.07-1.55,3.18-2.27l.94-.62.6.95a38.48,38.48,0,0,1,3.06,5.71,30.69,30.69,0,0,1,1.68,5A22.84,22.84,0,0,1,287,379a18.75,18.75,0,0,1-.29,3.3c-.79,4.4-3.05,8.26-7.35,12.52a97.86,97.86,0,0,1-11.63,9.29l-2.24,1.62c-1.43,1-2.85,2-4.25,3.08-.59.42-1.14.83-1.69,1.24l-1.4,1c-1,.75-2.08,1.51-3.25,2.25l-.93.58-.59-.92a39.05,39.05,0,0,1-3.12-5.74,30.67,30.67,0,0,1-1.72-5A22.61,22.61,0,0,1,247.86,397Z" transform="translate(-94 -103)"/><path class="cls-2" d="M280.67,363.65a38.38,38.38,0,0,1,3,5.55,30.12,30.12,0,0,1,1.63,4.82,19.56,19.56,0,0,1,.33,8.05c-.85,4.79-3.62,8.55-7,11.95a99.33,99.33,0,0,1-11.78,9.37c-2.07,1.51-4.18,3-6.22,4.51-1.05.75-2,1.52-3.08,2.27s-2.07,1.51-3.19,2.21a37.48,37.48,0,0,1-3-5.58,29.72,29.72,0,0,1-1.67-4.84,19.29,19.29,0,0,1-.34-8.06c.87-4.78,3.64-8.53,7.15-11.88a110.15,110.15,0,0,1,11.88-9.32c2.08-1.5,4.19-3,6.21-4.51,1-.76,2-1.54,3.05-2.29S279.57,364.37,280.67,363.65Z" transform="translate(-94 -103)"/><path class="cls-1" d="M247.86,425.79a17.79,17.79,0,0,1,.3-3.28c.8-4.41,3.18-8.38,7.47-12.48a111.64,111.64,0,0,1,12-9.39l1.81-1.3c1.48-1.07,3-2.13,4.42-3.22.58-.43,1.14-.85,1.69-1.28l1.36-1c1-.78,2.07-1.55,3.18-2.28l.94-.61.6.94a39,39,0,0,1,3.06,5.71,30.48,30.48,0,0,1,1.68,5,22.77,22.77,0,0,1,.64,5.23,18.73,18.73,0,0,1-.29,3.29c-.79,4.4-3.05,8.27-7.35,12.53a99.92,99.92,0,0,1-11.63,9.29l-2.24,1.61q-2.14,1.53-4.25,3.08c-.59.42-1.14.83-1.69,1.25l-1.4,1c-1,.75-2.08,1.52-3.25,2.25l-.93.59-.59-.92a39.63,39.63,0,0,1-3.12-5.75,30,30,0,0,1-1.72-5A22.54,22.54,0,0,1,247.86,425.79Z" transform="translate(-94 -103)"/><path class="cls-2" d="M280.67,392.47a38.31,38.31,0,0,1,3,5.54,30.46,30.46,0,0,1,1.63,4.82,19.61,19.61,0,0,1,.33,8.06c-.85,4.79-3.62,8.54-7,11.94a100.41,100.41,0,0,1-11.78,9.38c-2.07,1.5-4.18,3-6.22,4.51-1.05.74-2,1.52-3.08,2.27s-2.07,1.5-3.19,2.21a38.5,38.5,0,0,1-3-5.58,30,30,0,0,1-1.67-4.84,19.34,19.34,0,0,1-.34-8.07c.87-4.77,3.64-8.53,7.15-11.88a111.42,111.42,0,0,1,11.88-9.32c2.08-1.5,4.19-3,6.21-4.51,1-.75,2-1.53,3.05-2.29S279.57,393.19,280.67,392.47Z" transform="translate(-94 -103)"/><path class="cls-1" d="M247.86,453.5a17.71,17.71,0,0,1,.3-3.28c.8-4.42,3.18-8.39,7.47-12.48a111.64,111.64,0,0,1,12-9.39l1.81-1.3c1.48-1.07,3-2.14,4.42-3.23.58-.42,1.14-.85,1.69-1.27l1.36-1c1-.77,2.07-1.55,3.18-2.27l.94-.62.6.95a38.48,38.48,0,0,1,3.06,5.71,30.69,30.69,0,0,1,1.68,5,22.84,22.84,0,0,1,.64,5.23,18.75,18.75,0,0,1-.29,3.3c-.79,4.4-3.05,8.26-7.35,12.52a97.86,97.86,0,0,1-11.63,9.29l-2.24,1.62c-1.43,1-2.85,2-4.25,3.08-.59.42-1.14.83-1.69,1.24l-1.4,1c-1,.75-2.08,1.51-3.25,2.25l-.93.58-.59-.92a39.05,39.05,0,0,1-3.12-5.74,30.67,30.67,0,0,1-1.72-5A22.61,22.61,0,0,1,247.86,453.5Z" transform="translate(-94 -103)"/><path class="cls-2" d="M280.67,420.17a38.38,38.38,0,0,1,3,5.55,30.12,30.12,0,0,1,1.63,4.82,19.56,19.56,0,0,1,.33,8c-.85,4.79-3.62,8.55-7,12a99.33,99.33,0,0,1-11.78,9.37c-2.07,1.51-4.18,3-6.22,4.51-1.05.75-2,1.52-3.08,2.27s-2.07,1.51-3.19,2.21a37.48,37.48,0,0,1-3-5.58,29.39,29.39,0,0,1-1.67-4.84,19.29,19.29,0,0,1-.34-8.06c.87-4.78,3.64-8.53,7.15-11.88a110.15,110.15,0,0,1,11.88-9.32c2.08-1.5,4.19-3,6.21-4.51,1-.76,2-1.54,3.05-2.29S279.57,420.89,280.67,420.17Z" transform="translate(-94 -103)"/><rect class="cls-3" y="303" width="819" height="421" rx="53.68" ry="53.68"/><rect class="cls-4" x="20" y="323" width="779" height="381" rx="33.68" ry="33.68"/><polygon class="cls-3" points="83.33 385.98 20 394.02 20 376.02 83.33 385.98 83.33 385.98"/><polygon class="cls-3" points="173.74 634.73 11.56 631.19 12.84 613.24 173.74 634.73 173.74 634.73"/><polygon class="cls-3" points="741.67 613.98 805 622.02 805.01 604.02 741.67 613.98 741.67 613.98"/><polygon class="cls-3" points="681.95 494.16 802 501.59 801.91 483.59 681.95 494.16 681.95 494.16"/><circle class="cls-5" cx="56" cy="351" r="14"/><circle class="cls-6" cx="56" cy="351" r="5"/><circle class="cls-5" cx="756" cy="675" r="14"/><circle class="cls-6" cx="756" cy="675" r="5"/><circle class="cls-5" cx="751" cy="351" r="14"/><circle class="cls-6" cx="751" cy="351" r="5"/><circle class="cls-5" cx="56" cy="675" r="14"/><circle class="cls-6" cx="56" cy="675" r="5"/><text class="cls-7" transform="translate(174.62 533.14)">YOU WIN!</text><text class="cls-8" transform="translate(179.62 537.14)">YOU WIN!</text></svg>
